%FSLAX24Y24*%
%MOIN*%
G70*
G01*
G75*
G04 Layer_Physical_Order=1*
G04 Layer_Color=255*
%ADD10C,0.0080*%
%ADD11R,0.0571X0.0217*%
%ADD12R,0.0236X0.0571*%
%ADD13R,0.0551X0.0591*%
%ADD14O,0.0984X0.0276*%
%ADD15R,0.0591X0.0551*%
%ADD16R,0.1299X0.1063*%
%ADD17R,0.0394X0.1063*%
%ADD18R,0.0571X0.0236*%
%ADD19O,0.0768X0.0236*%
%ADD20O,0.0236X0.0768*%
%ADD21C,0.0100*%
%ADD22C,0.0150*%
%ADD23C,0.0120*%
%ADD24C,0.0200*%
%ADD25R,0.0591X0.0591*%
%ADD26C,0.0591*%
%ADD27C,0.0472*%
%ADD28C,0.0600*%
%ADD29C,0.0787*%
%ADD30O,0.0787X0.1575*%
%ADD31O,0.1575X0.0787*%
%ADD32O,0.1772X0.0787*%
%ADD33R,0.0591X0.0591*%
%ADD34C,0.0300*%
G36*
X35300Y46296D02*
X34775Y45772D01*
X34517D01*
Y46225D01*
X33974D01*
Y45012D01*
X34517D01*
Y45466D01*
X34839D01*
X34897Y45477D01*
X34947Y45510D01*
X34947Y45510D01*
X34947Y45510D01*
X35254Y45818D01*
X35300Y45798D01*
Y44460D01*
X33592D01*
X33518Y44534D01*
Y44987D01*
X33637D01*
Y45569D01*
X33043D01*
Y44987D01*
X33162D01*
Y44460D01*
X32869D01*
Y44473D01*
X32858Y44532D01*
X32824Y44582D01*
X32633Y44773D01*
Y45012D01*
X32706D01*
Y46225D01*
X32163D01*
Y45012D01*
X32327D01*
Y44710D01*
X32327Y44710D01*
X32327D01*
X32339Y44651D01*
X32372Y44602D01*
X32467Y44506D01*
X32448Y44460D01*
X31100D01*
Y49020D01*
X35300D01*
Y46296D01*
D02*
G37*
G36*
X38034Y46040D02*
Y45530D01*
X37672D01*
Y46295D01*
X37128D01*
Y45530D01*
X36766D01*
Y46295D01*
X36223D01*
Y45530D01*
X35515D01*
X35480Y45565D01*
X35481Y46045D01*
X35803Y46367D01*
X37707D01*
X38034Y46040D01*
D02*
G37*
G36*
X39260Y45530D02*
X38577D01*
Y46295D01*
X38211D01*
X37878Y46628D01*
X37829Y46661D01*
X37770Y46673D01*
X35740D01*
X35681Y46661D01*
X35632Y46628D01*
X35529Y46525D01*
X35483Y46545D01*
X35490Y49016D01*
X35500Y49020D01*
Y49020D01*
X35500Y49020D01*
X39260D01*
Y45530D01*
D02*
G37*
%LPC*%
G36*
X34090Y47891D02*
X32590D01*
Y47310D01*
X33162D01*
Y46250D01*
X33043D01*
Y45669D01*
X33637D01*
Y46250D01*
X33518D01*
Y47310D01*
X34090D01*
Y47891D01*
D02*
G37*
G36*
Y48573D02*
X33390D01*
Y47991D01*
X34090D01*
Y48573D01*
D02*
G37*
G36*
X33290D02*
X32590D01*
Y47991D01*
X33290D01*
Y48573D01*
D02*
G37*
G36*
X38125Y48618D02*
X36675D01*
Y47405D01*
X38125D01*
Y48618D01*
D02*
G37*
%LPD*%
D10*
X23060Y46152D02*
G03*
X23101Y46081I158J46D01*
G01*
X23053Y46198D02*
G03*
X23060Y46152I165J0D01*
G01*
Y46244D02*
G03*
X23053Y46198I158J-46D01*
G01*
X35150Y39329D02*
G03*
X35267Y39377I0J165D01*
G01*
X35418Y39927D02*
G03*
X35317Y39892I0J-165D01*
G01*
X20686Y30791D02*
X20949Y30528D01*
X20912D02*
X21281Y30898D01*
X20686Y31074D02*
X21232Y30528D01*
X20686Y30585D02*
X21204Y31103D01*
X20686Y30868D02*
X21204Y31386D01*
X20686Y30585D02*
X21204Y31103D01*
X20686Y31357D02*
X21515Y30528D01*
X21428Y30898D02*
X21798Y30528D01*
X21195D02*
X21564Y30898D01*
X21711D02*
X22080Y30528D01*
X21477D02*
X21847Y30898D01*
X21994D02*
X22363Y30528D01*
X21204Y30898D02*
X22024D01*
Y31150D02*
X22646Y30528D01*
X22024Y31433D02*
X22929Y30528D01*
X20686Y31923D02*
X21204Y31405D01*
X20686Y31640D02*
X21204Y31122D01*
X20686Y31151D02*
X21204Y31669D01*
X20686Y32206D02*
X21204Y31688D01*
X20686Y32489D02*
X21456Y31719D01*
X20686Y31434D02*
X21854Y32602D01*
X20686Y33054D02*
X22022Y31719D01*
X21204Y31669D02*
X21253Y31719D01*
X21204Y30898D02*
Y31719D01*
X22024Y30898D02*
Y31719D01*
X20686Y31717D02*
X21571Y32602D01*
X20686Y32000D02*
X21288Y32602D01*
X20686Y32282D02*
X21204Y32800D01*
Y31719D02*
X22024D01*
X20686Y32771D02*
X21739Y31719D01*
X21421Y32602D02*
X23495Y30528D01*
X21987Y32602D02*
X24060Y30528D01*
X21704Y32602D02*
X23777Y30528D01*
X22024Y31716D02*
X23212Y30528D01*
X22024Y32847D02*
X23763Y31109D01*
X22024Y33130D02*
X23763Y31391D01*
X20686Y35034D02*
X23935Y31785D01*
X23174Y30528D02*
X23763Y31117D01*
X22892Y30528D02*
X23763Y31400D01*
X23740Y30528D02*
X24061Y30850D01*
X23457Y30528D02*
X23898Y30969D01*
X23763Y31104D02*
Y31613D01*
X22024Y33413D02*
X23794Y31643D01*
X23763Y31109D02*
X24022Y30850D01*
X23763Y31613D02*
X24017Y31867D01*
X20686Y36166D02*
X26323Y30528D01*
X20686Y36448D02*
X26606Y30528D01*
X20686Y36731D02*
X26889Y30528D01*
X20686Y37014D02*
X27172Y30528D01*
X20686Y35317D02*
X24136Y31867D01*
X20686Y35600D02*
X24419Y31867D01*
X20686Y35883D02*
X26040Y30528D01*
X21253Y31719D02*
X27208Y37673D01*
X22609Y30528D02*
X27418Y35338D01*
X22326Y30528D02*
X27418Y35621D01*
X22043Y30528D02*
X27418Y35904D01*
X21760Y30528D02*
X27418Y36186D01*
X22024Y31641D02*
X27418Y37035D01*
X21536Y31719D02*
X27213Y37395D01*
X21819Y31719D02*
X27418Y37318D01*
X21819Y31719D02*
X27418Y37318D01*
X20686Y32848D02*
X21204Y33366D01*
X20686Y32565D02*
X21204Y33083D01*
X20686Y33337D02*
X21204Y32819D01*
X20686Y33620D02*
X21204Y33102D01*
X20686Y33903D02*
X21204Y33385D01*
X20686Y34751D02*
X22015Y33422D01*
X20686Y36525D02*
X23371Y39210D01*
X21204Y33366D02*
X21260Y33422D01*
X21204Y32602D02*
Y33422D01*
Y32602D02*
X22024D01*
Y33422D01*
X20686Y34186D02*
X21449Y33422D01*
X20686Y34468D02*
X21732Y33422D01*
X21204D02*
X22024D01*
X20686Y36808D02*
X23205Y39327D01*
X20686Y38222D02*
X22044Y39580D01*
X20686Y38505D02*
X21761Y39580D01*
X20686Y37091D02*
X23146Y39551D01*
X20686Y37939D02*
X22327Y39580D01*
X20686Y39353D02*
X20888Y39555D01*
X20686Y39636D02*
X20799Y39749D01*
X20686Y38788D02*
X21453Y39555D01*
X20686Y39071D02*
X21171Y39555D01*
X20799D02*
X21630D01*
Y39580D02*
X22392D01*
X23146Y39386D02*
X23322Y39210D01*
X23146Y39386D02*
Y39737D01*
X22327Y39580D02*
X22392Y39646D01*
X20686Y39842D02*
X20799Y39730D01*
X23322Y39913D02*
X23475D01*
X23146Y39737D02*
X23322Y39913D01*
X20686Y33131D02*
X23763Y36208D01*
X20686Y33414D02*
X25977Y38705D01*
X20686Y33697D02*
X25694Y38705D01*
X20686Y34828D02*
X24750Y38892D01*
X20686Y38994D02*
X23763Y35917D01*
X20686Y33979D02*
X25411Y38705D01*
X20686Y34262D02*
X25129Y38705D01*
X21543Y33422D02*
X23856Y35735D01*
X21260Y33422D02*
X23763Y35925D01*
X22024Y33338D02*
X24260Y35574D01*
X22024Y33055D02*
X27143Y38174D01*
X21826Y33422D02*
X23997Y35594D01*
X23763Y35828D02*
Y36337D01*
X24017Y36591D01*
X20686Y34545D02*
X24892Y38751D01*
X20686Y35677D02*
X24326Y39317D01*
X20686Y35959D02*
X24184Y39458D01*
X20686Y35111D02*
X24609Y39034D01*
X20686Y35394D02*
X24467Y39175D01*
X20686Y36242D02*
X23654Y39210D01*
X20686Y39277D02*
X23763Y36200D01*
X20973Y39555D02*
X23977Y36551D01*
X20686Y39560D02*
X23836Y36410D01*
X23581Y39210D02*
X27418Y35373D01*
X21256Y39555D02*
X24220Y36591D01*
X22362Y39580D02*
X27418Y34524D01*
X22392Y39833D02*
X27418Y34807D01*
X23322Y39210D02*
X23673D01*
X23654D02*
X23849Y39405D01*
X23673Y39210D02*
X23849Y39386D01*
X21539Y39555D02*
X24503Y36591D01*
X24022Y30850D02*
X24343Y30528D01*
X24305Y30850D02*
X24626Y30528D01*
X24023D02*
X24344Y30850D01*
X24017D02*
X24526D01*
X23763Y31104D02*
X24017Y30850D01*
Y31867D02*
X24526D01*
X24017Y35574D02*
X24526D01*
X24557Y30880D02*
X24909Y30528D01*
X24698Y31022D02*
X25192Y30528D01*
X24780Y31223D02*
X25474Y30528D01*
X24780Y31505D02*
X25757Y30528D01*
X24526Y31867D02*
X24780Y31613D01*
X24526Y35574D02*
X24780Y35828D01*
X24526Y30850D02*
X24780Y31104D01*
Y31613D01*
X23763Y35828D02*
X24017Y35574D01*
X24503Y36591D02*
X24780Y36314D01*
X24526Y36591D02*
X24780Y36337D01*
X24760Y36357D02*
X26683Y38280D01*
X24017Y36591D02*
X24526D01*
X24146D02*
X26260Y38705D01*
X24619Y36498D02*
X26615Y38494D01*
X24429Y36591D02*
X26543Y38705D01*
X24780Y35828D02*
Y36337D01*
X26615Y38347D02*
Y38612D01*
X26748Y38215D02*
X26883D01*
X26615Y38347D02*
X26748Y38215D01*
X26349Y38705D02*
X26615Y38439D01*
X24938Y38705D02*
X25103D01*
X26615Y38612D02*
X26707Y38705D01*
X26632D02*
X26670Y38667D01*
X25154Y30528D02*
X27418Y32792D01*
X24589Y30528D02*
X27418Y33358D01*
X24306Y30528D02*
X27418Y33641D01*
X24740Y35788D02*
X27418Y33110D01*
X24780Y36031D02*
X27418Y33393D01*
X24661Y31732D02*
X27418Y34489D01*
X24513Y31867D02*
X27418Y34772D01*
Y32920D02*
Y37395D01*
X27376D02*
X27418Y37353D01*
Y32730D02*
Y32920D01*
Y32730D02*
Y32920D01*
X26924Y38174D02*
X27099D01*
X26924D02*
X27099D01*
X27208Y37395D02*
X27418D01*
X27208D02*
Y37841D01*
X24780Y36094D02*
X26892Y38206D01*
X23768Y39305D02*
X27418Y35656D01*
X23849Y39508D02*
X27418Y35939D01*
X23805Y39835D02*
X27418Y36221D01*
X25783Y38705D02*
X27418Y37070D01*
X26066Y38705D02*
X27208Y37563D01*
X25217Y38705D02*
X27418Y36504D01*
X25500Y38705D02*
X27418Y36787D01*
X26883Y38215D02*
X26924Y38174D01*
X26883Y38215D02*
X26924Y38174D01*
X26839Y38215D02*
X27212Y37841D01*
X27210Y38524D02*
X27391Y38705D01*
X27053D02*
X27145Y38612D01*
X27080Y38677D02*
X27108Y38705D01*
X27145Y38524D02*
Y38612D01*
X27197Y38705D02*
X27379Y38524D01*
X24855Y38788D02*
X24938Y38705D01*
X24855Y38788D02*
X24938Y38705D01*
X24883Y39605D02*
X25453Y39035D01*
X23849Y39405D02*
X24043Y39599D01*
X24573Y39564D02*
X24666Y39657D01*
X24718Y39605D02*
X24983D01*
X24715Y39423D02*
X24897Y39605D01*
X24938Y38705D02*
X25103D01*
X25459Y39035D02*
X25508Y39084D01*
X25103Y39035D02*
X25557D01*
X25475Y39118D02*
X25557Y39035D01*
X25176D02*
X25475Y39334D01*
Y39118D02*
Y39383D01*
X25608Y39515D02*
X25793D01*
X25475Y39383D02*
X25608Y39515D01*
X23849Y39386D02*
Y39737D01*
Y39688D02*
X23902Y39741D01*
X23928Y39715D02*
X24855Y38788D01*
X24432Y39706D02*
X24585Y39859D01*
X23805Y39781D02*
X23849Y39737D01*
X23845Y39797D02*
Y39962D01*
Y39797D02*
X23928Y39715D01*
X23845Y39797D02*
X23928Y39715D01*
X24983Y39605D02*
X25082Y39705D01*
X24585Y39738D02*
X24718Y39605D01*
X25074Y39697D02*
X25475Y39296D01*
X25245Y39809D02*
X25573Y39481D01*
X25082Y39705D02*
X25140D01*
X25082D02*
X25140D01*
X25223Y39787D01*
X25140Y39705D02*
X25223Y39787D01*
X25923Y39035D02*
X26005Y39118D01*
X25103Y38705D02*
X26707D01*
X25971Y39083D02*
X26019Y39035D01*
X26307D02*
X26458Y39186D01*
X26005Y39118D02*
Y39202D01*
X26433Y39186D02*
X26585Y39035D01*
X26320Y39186D02*
X26554D01*
X26716D02*
X26867Y39035D01*
X26590D02*
X26741Y39186D01*
X26999D02*
X27150Y39035D01*
X26873D02*
X27024Y39186D01*
X26950D02*
X27183D01*
X26635D02*
X26869D01*
X27156Y39035D02*
X27307Y39186D01*
X27183D02*
X27224Y39227D01*
X26005Y39202D02*
X26204Y39401D01*
X25793Y39515D02*
X26050Y39773D01*
X26024Y39035D02*
X26248Y39259D01*
X26070Y39267D02*
X26302Y39035D01*
X26050Y39773D02*
X26138Y39860D01*
X25386Y39951D02*
X25807Y39530D01*
X26138Y39860D02*
X26204D01*
X26050Y39773D02*
X26138Y39860D01*
X26869Y39186D02*
X26909Y39227D01*
X26594Y39227D02*
X26635Y39186D01*
X26909Y39227D02*
X26950Y39186D01*
X27224Y39227D02*
X27265Y39186D01*
X26204Y39303D02*
Y39401D01*
X26138Y39860D02*
X26204D01*
X26554Y39186D02*
X26594Y39227D01*
X26204Y39303D02*
X26320Y39186D01*
X20686Y39919D02*
X20799Y40032D01*
X20686Y40125D02*
X20799Y40013D01*
X20686Y40202D02*
X20799Y40315D01*
X20686Y40408D02*
X20799Y40295D01*
X21379Y40426D02*
X21630D01*
X22392Y39580D02*
Y40032D01*
X22465Y40105D01*
X22392Y39646D02*
X22852Y40105D01*
X22392Y39928D02*
X22569Y40105D01*
X21630Y40401D02*
X22266D01*
X22290Y40425D01*
X22266Y40401D02*
X22290Y40425D01*
X22218D02*
X22290D01*
X20799Y39555D02*
Y40426D01*
X20686Y30528D02*
Y48999D01*
X20799Y40426D02*
X21049D01*
X20686Y40691D02*
X20951Y40426D01*
X20910D02*
X21049Y40565D01*
Y40426D02*
Y41012D01*
X21379Y40563D02*
X21517Y40426D01*
X21379D02*
Y41012D01*
X21733Y40401D02*
X22085Y40753D01*
X21379Y40846D02*
X21824Y40401D01*
X22016D02*
X22129Y40514D01*
X21496Y41012D02*
X22107Y40401D01*
X22085Y40557D02*
X22218Y40425D01*
X21475Y40426D02*
X22087Y41037D01*
X22574Y40500D02*
X22639Y40435D01*
X22492D02*
X22557Y40500D01*
X20686Y37656D02*
X23134Y40105D01*
X22434Y40074D02*
X27418Y35090D01*
X20686Y37374D02*
X23417Y40105D01*
X22969D02*
X23242Y39832D01*
X22686Y40105D02*
X23146Y39645D01*
X22465Y40105D02*
X23475D01*
X23252D02*
X23444Y39913D01*
X23845Y39797D02*
Y39962D01*
X23805Y39786D02*
Y40188D01*
X24175Y39962D02*
X25103Y39035D01*
X24175Y40030D02*
X25170Y39035D01*
X23805Y39927D02*
X23845Y39967D01*
X23475Y39913D02*
Y40105D01*
X23805Y40117D02*
X23845Y40077D01*
X24175Y40014D02*
X24282Y40121D01*
X23558Y40435D02*
X23723D01*
X23422Y40500D02*
X23487Y40435D01*
X23723D02*
X23805Y40353D01*
X23635Y40570D02*
X23845Y40360D01*
X23140Y40500D02*
X23205Y40435D01*
X22899D02*
X22964Y40500D01*
X22492Y40435D02*
X23558D01*
X23182D02*
X23247Y40500D01*
X23805Y40188D02*
Y40353D01*
Y40188D02*
Y40353D01*
X23845Y39962D02*
Y40780D01*
X24175Y39962D02*
Y41227D01*
X23805Y40210D02*
X23845Y40250D01*
X23723Y40435D02*
X23805Y40353D01*
X24175Y40313D02*
X24275Y40213D01*
X23735Y40423D02*
X23845Y40533D01*
X20686Y40485D02*
X21049Y40848D01*
X20686Y40974D02*
X21049Y40611D01*
X21379Y40612D02*
X21804Y41037D01*
X20931Y41012D02*
X21049Y40893D01*
X20686Y40768D02*
X20930Y41012D01*
X21379D02*
X21630D01*
X20799D02*
X21049D01*
X22085Y40557D02*
Y40823D01*
X21754Y41037D02*
X22085Y40706D01*
X22857Y40500D02*
X22922Y40435D01*
X22616D02*
X22681Y40500D01*
X22085Y40823D02*
X22218Y40955D01*
X21379Y40895D02*
X21496Y41012D01*
X22483Y40955D02*
X22557Y40880D01*
X22218Y40955D02*
X22483D01*
X20686Y41051D02*
X20799Y41163D01*
Y41012D02*
Y41883D01*
X21630Y41037D02*
X22392D01*
X22037D02*
X22168Y40906D01*
X20686Y41257D02*
X20799Y41144D01*
X20686Y41333D02*
X20799Y41446D01*
X20686Y41540D02*
X20799Y41427D01*
X22320Y41037D02*
X22402Y40955D01*
X22392Y41247D02*
X22760Y40880D01*
X22665Y41257D02*
X23042Y40880D01*
X22526Y40911D02*
X22873Y41257D01*
X22287Y40955D02*
X22369Y41037D01*
X22392Y41060D01*
X22590Y41257D01*
X22392Y41037D02*
Y41257D01*
X22557Y40500D02*
X23375D01*
X23565D01*
X23464Y40435D02*
X23529Y40500D01*
X22557Y40880D02*
X23375D01*
X23510Y41015D01*
X23375Y40500D02*
X23565D01*
X23344Y40880D02*
X23510Y41046D01*
X23565Y40500D02*
X23660Y40595D01*
X23565Y40500D02*
X23660Y40595D01*
X23558Y40435D02*
X23723D01*
X24175Y40596D02*
X24327Y40444D01*
X23777Y40712D02*
X23845Y40643D01*
X23660Y40595D02*
X23795Y40730D01*
X23845Y40780D01*
X23795Y40730D02*
X23845Y40780D01*
X22948Y41257D02*
X23325Y40880D01*
X22778D02*
X23155Y41257D01*
X23061Y40880D02*
X23391Y41210D01*
X23231Y41257D02*
X23492Y40997D01*
X23275Y41257D02*
X23322Y41210D01*
X22392Y41257D02*
X23275D01*
X23510Y41015D02*
Y41210D01*
X23322D02*
X23510D01*
X23890Y41438D02*
X23928Y41475D01*
X23890Y41438D02*
X23928Y41475D01*
X24175Y41162D02*
X24655Y40682D01*
X24175Y40863D02*
X25226Y41914D01*
X23849Y41495D02*
X23890Y41454D01*
X23849Y41495D02*
Y41737D01*
Y41495D02*
X23890Y41454D01*
X23928Y41475D02*
X24250Y41797D01*
X24585Y39738D02*
Y39995D01*
X24998Y39140D02*
X25881Y40023D01*
X24856Y39281D02*
X25598Y40023D01*
X24493Y39995D02*
X24585Y39903D01*
X24291Y39847D02*
X24439Y39995D01*
X24407D02*
X24585D01*
X25003Y40115D02*
X25029Y40089D01*
X25597Y40023D02*
X25949Y39671D01*
X25223Y39787D02*
X25471Y40036D01*
X25656Y39515D02*
X26163Y40023D01*
X25880D02*
X26090Y39812D01*
X25484Y40023D02*
X26204D01*
X25029Y40089D02*
X25055Y40115D01*
X26204Y39860D02*
Y40023D01*
X26162D02*
X26204Y39981D01*
X24275Y40128D02*
X24407Y39995D01*
X24275Y40128D02*
Y40392D01*
X24407Y40525D01*
X24175Y40297D02*
X24796Y40919D01*
X24407Y40525D02*
X24655D01*
X24175Y40879D02*
X24529Y40525D01*
X24655Y40712D02*
X24787Y40845D01*
X24175Y40580D02*
X24666Y41071D01*
X25003Y40115D02*
X25055D01*
X26365Y40184D02*
Y40372D01*
X26324Y40413D02*
X26365Y40372D01*
X26324Y40413D02*
X26365Y40454D01*
X24655Y40525D02*
Y40712D01*
X24999Y40904D02*
X25157Y40745D01*
X26365Y40454D02*
Y40687D01*
X26332Y40721D02*
X26365Y40687D01*
X26577Y40160D02*
Y40334D01*
X26927Y40160D02*
X26950Y40184D01*
X26554D02*
X26577Y40160D01*
X26365Y40184D02*
X26554D01*
X26331Y40420D02*
X26577Y40174D01*
X26927Y40305D02*
X27032D01*
X26365Y40224D02*
X26577Y40436D01*
X26950Y40184D02*
X27183D01*
X26927Y40160D02*
Y40305D01*
X27183Y40184D02*
X27217Y40150D01*
Y40318D01*
X27012Y40305D02*
X27133Y40184D01*
X26927Y40221D02*
X27011Y40305D01*
X27173Y40184D02*
X27217Y40228D01*
X27167Y40367D02*
X27217Y40318D01*
X26365Y40507D02*
X26543Y40685D01*
X26492Y40721D02*
X26528Y40685D01*
X26577Y40509D02*
X26635Y40567D01*
X26365Y40669D02*
X26577Y40457D01*
X26492Y40721D02*
X26528Y40685D01*
X26332Y40721D02*
X26492D01*
X26528Y40685D02*
X26635D01*
X26528D02*
X26635D01*
X26577Y40334D02*
Y40509D01*
Y40334D02*
Y40509D01*
X27032Y40305D02*
X27165Y40437D01*
X27011Y40305D02*
X27165Y40459D01*
X26577Y40509D02*
X26635Y40567D01*
Y40685D01*
X27167Y40367D02*
Y40605D01*
X27165Y40437D02*
Y40605D01*
X24284Y41336D02*
X24781Y40839D01*
X24787Y40845D02*
X25052D01*
X24666Y41049D02*
X24811Y40904D01*
X24666Y41049D02*
Y41339D01*
X24811Y40904D02*
X25101D01*
X25052Y40845D02*
X25152Y40745D01*
X25006Y40845D02*
X25065Y40904D01*
X25191Y40746D02*
X25333Y40887D01*
X25189Y40746D02*
X25333Y40889D01*
X25101Y40904D02*
X25226Y41029D01*
X25191Y40994D02*
X25315Y40870D01*
X25289Y41359D02*
Y41451D01*
X24175Y41146D02*
X24579Y41550D01*
X24175Y41227D02*
X24497Y41550D01*
X24425Y41477D02*
X24666Y41236D01*
Y41339D02*
X24811Y41484D01*
X24635Y41550D02*
X24756Y41429D01*
X24497Y41550D02*
X24651D01*
X24816D01*
X24651D02*
X24816D01*
X24811Y41484D02*
X24959D01*
Y41616D01*
X25289Y41411D02*
X25367Y41489D01*
Y41399D02*
Y41530D01*
X24816Y41550D02*
X24899Y41632D01*
X24816Y41550D02*
X24899Y41632D01*
X24867Y41601D02*
X24959Y41509D01*
Y41484D02*
Y41616D01*
X25333Y40901D02*
X25367Y40936D01*
X25333Y40887D02*
X25367Y40922D01*
X25333Y40889D02*
X25367Y40924D01*
Y40936D02*
Y41002D01*
X25226Y41029D02*
X25385D01*
X25367Y41002D02*
X25389Y41025D01*
X26545Y41051D02*
Y41181D01*
X26657Y41051D02*
X26693Y41015D01*
X26545Y41051D02*
X26657D01*
X26693Y41015D02*
X26882D01*
X26657Y41051D02*
X26693Y41015D01*
X26545Y41051D02*
Y41181D01*
Y41221D01*
Y41051D02*
X26657D01*
X26626D02*
X26736Y41161D01*
X26545Y41221D02*
Y41352D01*
Y41221D02*
Y41352D01*
Y41253D02*
X26594Y41302D01*
X26545Y41337D02*
X26867Y41015D01*
X25289Y41359D02*
X25371D01*
X25289Y41451D02*
X25367Y41530D01*
Y41399D02*
X25389Y41377D01*
X25294Y41457D02*
X25382Y41369D01*
X27103Y41288D02*
X27155Y41237D01*
X26545Y41352D02*
X26882Y41015D01*
X27125Y41267D02*
X27155Y41297D01*
Y41237D02*
Y41340D01*
X27131Y41316D02*
X27155Y41293D01*
X27103Y41288D02*
X27155Y41340D01*
X27240Y41458D02*
X27287Y41505D01*
X27240Y41458D02*
Y41715D01*
X26569Y30528D02*
X28094Y32054D01*
X27134Y30528D02*
X28377Y31771D01*
X26851Y30528D02*
X28236Y31913D01*
X25720Y30528D02*
X27670Y32478D01*
X25437Y30528D02*
X27528Y32620D01*
X26286Y30528D02*
X27953Y32195D01*
X26003Y30528D02*
X27811Y32337D01*
X27983Y30528D02*
X28566Y31112D01*
X27417Y30528D02*
X28518Y31630D01*
X28266Y30528D02*
X28704Y30966D01*
X27700Y30528D02*
X28566Y31395D01*
Y31104D02*
Y31582D01*
X27513Y32635D02*
X28566Y31582D01*
Y31104D02*
X28820Y30850D01*
X28566Y31114D02*
X28830Y30850D01*
X22024Y31075D02*
X27418Y36469D01*
X20686Y37297D02*
X27454Y30528D01*
X20686Y37580D02*
X27737Y30528D01*
X20686Y37863D02*
X28020Y30528D01*
X24230Y31867D02*
X27418Y35055D01*
X22024Y31358D02*
X27418Y36752D01*
X24389Y35574D02*
X28566Y31397D01*
X24106Y35574D02*
X28566Y31114D01*
X24872Y30528D02*
X27418Y33075D01*
X24780Y31286D02*
X27418Y33924D01*
Y32730D02*
X27513Y32635D01*
X24780Y31569D02*
X27418Y34206D01*
X24599Y35647D02*
X27418Y32827D01*
X24780Y36314D02*
X27418Y33676D01*
Y32730D02*
X27513Y32635D01*
X27798Y32920D02*
Y37395D01*
Y32920D02*
X28851Y31867D01*
X20686Y30528D02*
X43842D01*
X28549D02*
X28870Y30850D01*
X27798Y33013D02*
X28944Y31867D01*
X27798Y33296D02*
X29227Y31867D01*
X28521Y32197D02*
X29571Y33248D01*
X28379Y32339D02*
X29430Y33390D01*
X28831Y30528D02*
X29153Y30850D01*
X28830D02*
X29151Y30528D01*
X29113Y30850D02*
X29434Y30528D01*
X29114D02*
X30406Y31820D01*
X28820Y30850D02*
X29329D01*
X28851Y31867D02*
X29329D01*
X28803Y31915D02*
X30101Y33212D01*
X28662Y32056D02*
X29818Y33212D01*
X27798Y33579D02*
X30848Y30528D01*
X27798Y34427D02*
X30240Y31985D01*
X27798Y33861D02*
X31131Y30528D01*
X27798Y34144D02*
X31414Y30528D01*
X27798Y34710D02*
X30247Y32262D01*
X27798Y35276D02*
X29353Y33720D01*
X27798Y34993D02*
X30391Y32400D01*
X27798Y33172D02*
X31224Y36598D01*
X28238Y32480D02*
X29353Y33596D01*
X28096Y32622D02*
X29353Y33879D01*
X29039Y31867D02*
X31396Y34225D01*
X27955Y32763D02*
X31769Y36578D01*
X29197Y35574D02*
X31346Y33425D01*
X27798Y33455D02*
X31046Y36703D01*
X28914Y35574D02*
X31346Y33142D01*
X27813Y32905D02*
X31506Y36598D01*
X27798Y35152D02*
X28566Y35920D01*
X27798Y34586D02*
X28803Y35591D01*
X27798Y34869D02*
X28662Y35733D01*
X27798Y36973D02*
X28566Y36205D01*
X27798Y36566D02*
X28549Y37317D01*
X27798Y35435D02*
X28566Y36203D01*
X27798Y36690D02*
X28566Y35922D01*
Y35828D02*
Y36337D01*
X27798Y36284D02*
X28691Y37176D01*
X28566Y35828D02*
X28820Y35574D01*
X27798Y36001D02*
X28832Y37035D01*
X27798Y36849D02*
X28344Y37395D01*
X27798D02*
X28009D01*
X28566Y36337D02*
X28820Y36591D01*
X27798Y37256D02*
X28641Y36412D01*
X27798Y37132D02*
X28133Y37467D01*
X28009Y37395D02*
Y37771D01*
X27942Y37395D02*
X28783Y36554D01*
X28133Y37395D02*
X28472D01*
X28070Y37832D02*
X28133Y37769D01*
X27208Y37841D02*
X27584D01*
X28009Y37611D02*
X28133Y37487D01*
X28009Y37625D02*
X28133Y37750D01*
Y37395D02*
Y37841D01*
X28211Y37974D02*
X28344Y37841D01*
X28133D02*
X28820D01*
X28225D02*
X28468Y38085D01*
X28790Y37841D02*
X28820Y37871D01*
X28508Y37841D02*
X28751Y38085D01*
X28820Y37841D02*
Y38028D01*
X28666Y38085D02*
X28820Y37931D01*
X27798Y35559D02*
X29368Y33989D01*
X27798Y35841D02*
X29509Y34130D01*
X27798Y33738D02*
X31046Y36986D01*
X27798Y34304D02*
X29069Y35574D01*
X27798Y35718D02*
X28885Y36804D01*
X27798Y36124D02*
X29693Y34229D01*
X27798Y36407D02*
X29976Y34229D01*
X29265Y36591D02*
Y36982D01*
X28885Y36591D02*
Y36982D01*
X28820Y35574D02*
X29329D01*
X29265Y36920D02*
X31341Y34845D01*
X28820Y36591D02*
X28885D01*
X29265Y36982D02*
Y37172D01*
Y36591D02*
X29329D01*
X29265Y36638D02*
X29311Y36591D01*
X28472Y37395D02*
X28885Y36982D01*
X28225Y37395D02*
X28885Y36735D01*
X27798Y34021D02*
X31046Y37269D01*
X29015Y37453D02*
X31373Y35095D01*
X29117Y37320D02*
X29251Y37453D01*
X28983D02*
X29170Y37267D01*
X29265Y37172D01*
X28983Y37453D02*
X29419D01*
X29265Y36982D02*
Y37172D01*
Y36902D02*
X29738Y37375D01*
X29298Y37453D02*
X31591Y35160D01*
X29265Y36619D02*
X30271Y37625D01*
X29170Y37267D02*
X29265Y37172D01*
X29258Y37178D02*
X29476Y37396D01*
X29297Y38080D02*
X30092D01*
X29293Y38085D02*
X30097D01*
X29363Y30883D02*
X29717Y30528D01*
X29504Y31024D02*
X30000Y30528D01*
X29397D02*
X30789Y31920D01*
X29329Y30850D02*
X29583Y31104D01*
X29329Y31867D02*
X29583Y31613D01*
Y31228D02*
X30283Y30528D01*
X29583Y31511D02*
X30566Y30528D01*
X29583Y31104D02*
Y31613D01*
Y31281D02*
X30254Y31951D01*
X29963Y30528D02*
X31283Y31848D01*
X29680Y30528D02*
X31071Y31920D01*
X30385Y31820D02*
X30675D01*
X30240Y31965D02*
X30385Y31820D01*
X30775Y31920D02*
X31211D01*
X30675Y31820D02*
X30775Y31920D01*
X29583Y31563D02*
X30240Y32220D01*
Y31965D02*
Y32255D01*
X29862Y33212D02*
X30674Y32400D01*
X30131Y33226D02*
X31057Y32300D01*
X29608Y33212D02*
X30117D01*
X29353Y33466D02*
X29608Y33212D01*
X30117D02*
X30371Y33466D01*
X30101Y33212D02*
X30371Y33482D01*
X30240Y31985D02*
X30405Y31820D01*
X30385Y32400D02*
X30675D01*
X30240Y32255D02*
X30385Y32400D01*
X30775Y32300D02*
X31211D01*
X30675Y32400D02*
X30775Y32300D01*
X30528Y30528D02*
X31331Y31331D01*
X30246Y30528D02*
X31331Y31614D01*
X30405Y31820D02*
X31697Y30528D01*
X30811D02*
X31518Y31235D01*
X30871Y31920D02*
X31331Y31460D01*
X31094Y30528D02*
X31800Y31235D01*
X30682Y31827D02*
X31980Y30528D01*
X31331Y31235D02*
Y31801D01*
Y31235D02*
X32162D01*
X31377Y30528D02*
X32083Y31235D01*
X31154Y31920D02*
X31331Y31743D01*
X31211Y31920D02*
X31331Y31801D01*
X31211Y32300D02*
X31401D01*
X31211D02*
X31401D01*
X30272Y33367D02*
X31340Y32300D01*
X29467Y31729D02*
X31346Y33609D01*
X30886Y32300D02*
X31346Y32761D01*
X29321Y31867D02*
X31591Y34137D01*
X30420Y32400D02*
X31346Y33326D01*
X30371Y33834D02*
X31346Y32859D01*
X30689Y32386D02*
X31346Y33043D01*
X30371Y33552D02*
X31591Y32331D01*
X31401Y32300D02*
X31496Y32205D01*
X31401Y32300D02*
X31496Y32205D01*
X31426Y32275D02*
X31591Y32440D01*
X31169Y32300D02*
X31591Y32723D01*
X31462Y32743D02*
X31591Y32614D01*
X31346Y32743D02*
Y33614D01*
Y32743D02*
X31591D01*
X29353Y33466D02*
Y33975D01*
X29608Y34229D01*
X29329Y35574D02*
X29583Y35828D01*
X29329Y36591D02*
X29583Y36337D01*
X29419Y37453D02*
X29497Y37375D01*
X29311Y36591D02*
X29583Y36319D01*
X29497Y37375D02*
X29762D01*
X30371Y33466D02*
Y33975D01*
X30117Y34229D02*
X30371Y33975D01*
Y33482D02*
X31341Y34452D01*
Y34225D02*
Y35095D01*
X29608Y34229D02*
X30117D01*
X29583Y35828D02*
Y36337D01*
Y36319D02*
X31341Y34562D01*
X31046Y36598D02*
Y37398D01*
X29762Y37375D02*
X29895Y37508D01*
Y37750D01*
X29566Y36354D02*
X31271Y38059D01*
X29425Y36496D02*
X31014Y38085D01*
X29895Y37532D02*
X30078Y37715D01*
X29895Y37750D02*
X30043D01*
X30168Y37625D02*
X30433D01*
X30043Y37750D02*
X30168Y37625D01*
X30257D02*
X31046Y36836D01*
X30486Y37679D02*
X31046Y37119D01*
X30565Y37883D02*
X31049Y37398D01*
X30646Y38085D02*
X31332Y37398D01*
X30433Y37625D02*
X30565Y37757D01*
Y38022D01*
X30503Y38085D02*
X31244D01*
X30503D02*
X30565Y38022D01*
X30371Y33765D02*
X31341Y34735D01*
X29404Y35649D02*
X31440Y33614D01*
X29546Y35791D02*
X31591Y33745D01*
X30334Y34011D02*
X31341Y35018D01*
X29583Y36036D02*
X31341Y34279D01*
X31395Y34225D01*
X30193Y34153D02*
X31591Y35551D01*
X31395Y34225D02*
X31591Y34028D01*
X31341Y34225D02*
X31591D01*
X31346Y33614D02*
X31591D01*
X31351D02*
X31591Y33854D01*
X31341Y35095D02*
X31591D01*
X31341Y35018D02*
X31418Y35095D01*
X31591Y35268D01*
X29659Y37375D02*
X31591Y35442D01*
X29852Y37465D02*
X31670Y35647D01*
X29987Y34229D02*
X31863Y36105D01*
X29704Y34229D02*
X31863Y36388D01*
X29583Y36089D02*
X31412Y37917D01*
X30929Y38085D02*
X31420Y37593D01*
X31046Y36598D02*
X31513D01*
X29895Y37704D02*
X31811Y35788D01*
X31046Y37398D02*
X31447D01*
X31176D02*
X31420Y37643D01*
X31285Y36598D02*
X31863Y36020D01*
X31447Y37398D02*
X31530Y37482D01*
X31211Y38085D02*
X31420Y37876D01*
X31244Y38085D02*
X31420Y37909D01*
Y37523D02*
X31557D01*
X31420D02*
Y37909D01*
X22024Y32772D02*
X27426Y38174D01*
X27376Y37841D02*
X27708Y38174D01*
X27163D02*
X27495Y37841D01*
X27265Y39186D02*
X27498D01*
X27282D02*
X27433Y39035D01*
X27099Y38174D02*
X27916D01*
X25923Y39035D02*
X27954D01*
X27446Y38174D02*
X27681Y37938D01*
X27480Y38705D02*
X27662Y38524D01*
X27584Y37841D02*
X27916Y38174D01*
X27729D02*
X27822Y38080D01*
X27493Y38524D02*
X27674Y38705D01*
X27438Y39035D02*
X27590Y39186D01*
X27763Y38705D02*
X27944Y38524D01*
X27895Y39094D02*
X27954Y39035D01*
X21797Y39580D02*
X27418Y33959D01*
X22079Y39580D02*
X27418Y34241D01*
X27532Y39219D02*
X27716Y39035D01*
X27498Y39186D02*
X27539Y39227D01*
X27539Y39227D02*
X27580Y39186D01*
X27547Y40150D02*
Y40235D01*
X27580Y40184D02*
X27709D01*
X27547Y40150D02*
X27580Y40184D01*
X27895Y39094D02*
Y39186D01*
X27721Y39035D02*
X27884Y39198D01*
X27895Y39094D02*
Y39186D01*
X27830Y39203D02*
X27895Y39139D01*
X27580Y39186D02*
X27813D01*
X27606Y40276D02*
X27698Y40184D01*
X27854Y39227D02*
X27895Y39186D01*
X27813Y39186D02*
X27854Y39227D01*
X20686Y38145D02*
X28303Y30528D01*
X28009Y37771D02*
X28323Y38085D01*
X20686Y38428D02*
X28586Y30528D01*
X27145Y38524D02*
X27990D01*
X27776D02*
X27957Y38705D01*
X27990Y38524D02*
X28064Y38598D01*
X28046Y38705D02*
X28108Y38642D01*
X28383Y38085D02*
X28627Y37841D01*
X28064Y38598D02*
X28151Y38685D01*
X28323Y38085D02*
X28877D01*
X28820Y38028D02*
X28877Y38085D01*
X28151Y38685D02*
X28326D01*
X28064Y38598D02*
X28151Y38685D01*
X28326D02*
X33451D01*
X28151D02*
X28326D01*
X27895Y39094D02*
X27954Y39035D01*
X28484Y40143D02*
X28525Y40184D01*
X27053Y38705D02*
X38277D01*
X20686Y38711D02*
X28869Y30528D01*
X28443Y40184D02*
X28484Y40143D01*
X28377Y40184D02*
X28443D01*
X28587D02*
X28714Y40310D01*
X28399Y40332D02*
X28547Y40184D01*
X28875Y39352D02*
Y39520D01*
Y39850D02*
Y40023D01*
Y39352D02*
X28932Y39410D01*
X28875Y39520D02*
X29682D01*
X28875Y39906D02*
X28992Y40023D01*
X28714Y40184D02*
Y40372D01*
X28875Y39850D02*
X29682D01*
X28875Y40023D02*
X29595D01*
X27675Y40217D02*
Y40345D01*
Y40217D02*
X27709Y40184D01*
X27675Y40217D02*
X27709Y40184D01*
X27675Y40345D02*
Y40382D01*
Y40345D02*
Y40382D01*
Y40217D02*
Y40345D01*
X27565Y40235D02*
X27675Y40345D01*
Y40382D02*
X27698Y40405D01*
X27675Y40382D02*
X27698Y40405D01*
X27757Y40465D01*
X27698Y40405D02*
Y40545D01*
Y40405D02*
X27757Y40465D01*
X27698Y40468D02*
X27729Y40436D01*
X27701Y40545D02*
X27801D01*
X27701D02*
X27801D01*
X27552Y41505D02*
X27685Y41372D01*
X26764Y42533D02*
X27971Y41325D01*
X27685D02*
X28095D01*
X27047Y42533D02*
X28175Y41405D01*
X27287Y41505D02*
X27552D01*
X26481Y42533D02*
X27509Y41505D01*
X27599Y41458D02*
X28235Y42094D01*
X27363Y41505D02*
X28176Y42318D01*
X27757Y40465D02*
X27843Y40551D01*
X27698Y40425D02*
X27823Y40551D01*
X27807D02*
X27843D01*
X27749Y41325D02*
X28235Y41811D01*
X27685Y41325D02*
Y41372D01*
X28031Y41325D02*
X28235Y41529D01*
X28095Y41325D02*
X28235Y41465D01*
Y42259D01*
X28314Y40247D02*
X28342Y40219D01*
X28377Y40184D01*
X28342Y40219D02*
X28377Y40184D01*
X28314Y40247D02*
X28415Y40347D01*
X28341Y40220D02*
X28526Y40406D01*
X28415D02*
X28538D01*
X28415D02*
X28538D01*
X28525Y40184D02*
X28714D01*
X28415Y40347D02*
Y40406D01*
X28714Y40372D02*
X28747Y40406D01*
X28608D02*
X28714Y40300D01*
X28538Y40406D02*
X28747D01*
X28431Y40842D02*
X28538Y40736D01*
X28747D01*
X28714Y40769D02*
X28747Y40736D01*
X28396Y40877D02*
X28431Y40842D01*
X28396Y40877D02*
X28431Y40842D01*
X28574Y40736D02*
X28714Y40876D01*
X28408Y40889D02*
X28561Y40736D01*
X28397Y40877D02*
X28663Y41143D01*
X28565Y41553D02*
Y42259D01*
X28549Y41030D02*
X28714Y40866D01*
X28414Y40859D02*
X28714Y41159D01*
Y40769D02*
Y41002D01*
Y41084D02*
Y41194D01*
Y41002D02*
X28755Y41043D01*
X28714Y41084D02*
X28755Y41043D01*
X28691Y41171D02*
X28714Y41148D01*
X28663Y41155D02*
X28714Y41206D01*
X28663Y41143D02*
X28714Y41194D01*
X28663Y41143D02*
X28714Y41194D01*
X29330Y39035D02*
Y39278D01*
Y39118D02*
X29413Y39035D01*
X29211Y39520D02*
X29696Y39035D01*
X29197Y39410D02*
X29330Y39278D01*
X28932Y39410D02*
X29197D01*
X29330Y39230D02*
X29621Y39520D01*
X29330Y39230D02*
X29621Y39520D01*
X29701Y39035D02*
X29934Y39268D01*
X29418Y39035D02*
X29793Y39410D01*
X30121Y39175D02*
X30261Y39035D01*
X29984D02*
X30124Y39175D01*
X29945Y39258D02*
X30027Y39175D01*
X29945Y39258D02*
X30027Y39175D01*
X30192D01*
X30027D02*
X30192D01*
X28945Y39410D02*
X29055Y39520D01*
X28928D02*
X29038Y39410D01*
X29494Y39520D02*
X29979Y39035D01*
X29213Y39395D02*
X29338Y39520D01*
X29385Y39850D02*
X29558Y40023D01*
X29102Y39850D02*
X29275Y40023D01*
X29557D02*
X29729Y39850D01*
X29668D02*
X29909Y40091D01*
X29847Y39850D02*
X29930Y39768D01*
X29847Y39850D02*
X29930Y39768D01*
X29682Y39520D02*
X29945Y39258D01*
X29930Y39768D02*
X30192Y39505D01*
X29682Y39850D02*
X29847D01*
X29682D02*
X29847D01*
X29899Y39799D02*
X30111Y40011D01*
X29899Y39799D02*
X30111Y40011D01*
X30267Y39035D02*
X30407Y39175D01*
X29330Y39035D02*
X31997D01*
X30404Y39175D02*
X30544Y39035D01*
X30398Y39515D02*
X30547D01*
X30182Y39516D02*
X30289Y39623D01*
X30192Y39175D02*
X31697D01*
X30192Y39505D02*
X30557D01*
X30565Y37919D02*
X30731Y38085D01*
X30550Y39035D02*
X30690Y39175D01*
X30833Y39035D02*
X30973Y39175D01*
X30687D02*
X30827Y39035D01*
X31115D02*
X31255Y39175D01*
X30970D02*
X31110Y39035D01*
X31398D02*
X31538Y39175D01*
X31253D02*
X31393Y39035D01*
X30040Y39657D02*
X30265Y39882D01*
Y39648D02*
Y39913D01*
Y39648D02*
X30398Y39515D01*
X29771Y40091D02*
X30357Y39505D01*
X30795Y39762D02*
X30872Y39685D01*
X30795Y39762D02*
Y39913D01*
X30776Y39935D02*
X31026Y39685D01*
X30795Y39846D02*
X30884Y39935D01*
X30917Y39685D02*
X31152Y39920D01*
X31059Y39935D02*
X31309Y39685D01*
X30872D02*
X33177D01*
X31200D02*
X31350Y39835D01*
X31237D02*
X31502D01*
X31137Y39935D02*
X31237Y39835D01*
X31441D02*
X31591Y39685D01*
X31483D02*
X31733Y39935D01*
X28991Y40023D02*
X29164Y39850D01*
X29274Y40023D02*
X29446Y39850D01*
X30032Y40091D02*
X30105Y40017D01*
X29595Y40023D02*
X29663Y40091D01*
X29678Y40736D02*
X29711Y40769D01*
X29663Y40091D02*
X30032D01*
X29678Y40736D02*
X30107D01*
X30105Y40017D02*
X30187Y39935D01*
X30105Y40017D02*
X30187Y39935D01*
X30265Y39913D02*
X30287Y39935D01*
X30210D02*
X30265Y39880D01*
X30107Y40736D02*
X30257D01*
X30107D02*
X30257D01*
X30187Y39935D02*
X30287D01*
X30187D02*
X30287D01*
X29711Y40999D02*
X29975Y40736D01*
X29711Y40769D02*
Y41002D01*
X29705Y40736D02*
X29981Y41012D01*
X29957Y41036D02*
X30189Y40803D01*
X29675Y41036D02*
X29711Y40999D01*
X29678Y41036D02*
X29711Y41002D01*
X29678Y41036D02*
X29957D01*
X29700Y41014D02*
X29722Y41036D01*
X30189Y40803D02*
X30257Y40736D01*
X29988D02*
X30122Y40870D01*
X30189Y40803D02*
X30257Y40736D01*
X30208Y41351D02*
X30293Y41266D01*
X30137Y41351D02*
X30204Y41283D01*
X30137Y41351D02*
X30204Y41283D01*
X30137Y41351D02*
X30258D01*
X30137D02*
X30258D01*
X30287Y40721D02*
X30318Y40689D01*
X30773Y39935D02*
X31137D01*
X30773D02*
X30795Y39913D01*
X30287Y40721D02*
X30318D01*
X30287D02*
X30318D01*
X30287D02*
X30318Y40689D01*
Y40721D01*
X31233Y40635D02*
X31448D01*
X31139Y40703D02*
X31207Y40635D01*
X31448D02*
X31613D01*
X31448D02*
X31613D01*
X31139D02*
X31233D01*
X31139D02*
Y41258D01*
Y40635D02*
X31233D01*
X31139Y40986D02*
X31490Y40635D01*
X30318Y41169D02*
Y41258D01*
X30204Y41283D02*
X30318Y41169D01*
X31139Y40755D02*
X31849Y41466D01*
X31139Y41038D02*
X31609Y41508D01*
X30258Y41351D02*
X30293Y41386D01*
X30258Y41351D02*
X30293Y41386D01*
X30228Y41259D02*
X30293Y41324D01*
Y41258D02*
Y41386D01*
X31150Y41258D02*
X31943Y40465D01*
X31301Y40635D02*
X32005Y41339D01*
X31182Y41508D02*
X32421Y40270D01*
X31465Y41508D02*
X32005Y40968D01*
X31164Y41346D02*
X31326Y41508D01*
X31164Y41258D02*
Y41508D01*
X31807D01*
X31139Y41038D02*
X31609Y41508D01*
X20686Y41616D02*
X20799Y41729D01*
X20686Y41822D02*
X20799Y41710D01*
X20686Y42105D02*
X20909Y41883D01*
X20799D02*
X21049D01*
X20686Y42388D02*
X21118Y41956D01*
X21049Y41887D02*
X21132Y41969D01*
X21049Y41887D02*
X21132Y41969D01*
X22392Y41637D02*
Y41755D01*
X21132Y41969D02*
X21165Y42002D01*
X22450Y41755D02*
X22568Y41637D01*
X22404D02*
X22522Y41755D01*
X21165Y42002D02*
X21247Y42085D01*
X21165Y42002D02*
X21247Y42085D01*
X21412D01*
X21247D02*
X21412D01*
X20686Y42671D02*
X21272Y42085D01*
X20686Y42954D02*
X21555Y42085D01*
X20686Y41899D02*
X22013Y43227D01*
X20686Y43237D02*
X21838Y42085D01*
X20686Y42182D02*
X22013Y43509D01*
X20686Y43519D02*
X22120Y42085D01*
X20686Y43802D02*
X22403Y42085D01*
X21437D02*
X22357Y43005D01*
X20952Y41883D02*
X22148Y43078D01*
X22286Y42085D02*
X22632Y42431D01*
X22003Y42085D02*
X22515Y42597D01*
Y42547D02*
Y42812D01*
X22332Y43005D02*
X22520Y42817D01*
X22515Y42547D02*
X22648Y42415D01*
X22515Y42812D02*
X22648Y42945D01*
X22687Y41637D02*
X22804Y41755D01*
X22392Y41637D02*
X23146D01*
X22733Y41755D02*
X22851Y41637D01*
X22648Y42415D02*
X22912D01*
X22569Y42085D02*
X22899Y42415D01*
X22392Y41755D02*
X23164D01*
X21412Y42085D02*
X23263D01*
X23016Y41755D02*
X23134Y41637D01*
X22970D02*
X23087Y41755D01*
X23146Y41637D02*
Y41737D01*
X22917Y42420D02*
X23252Y42085D01*
X22852D02*
X23221Y42454D01*
X22987Y42490D02*
X23185D01*
X23134Y42085D02*
X23362Y42313D01*
X23130Y42490D02*
X23465Y42155D01*
X21720Y42085D02*
X22688Y43053D01*
X20686Y44085D02*
X22686Y42085D01*
X22912Y42415D02*
X22987Y42490D01*
X20686Y44368D02*
X22969Y42085D01*
X22615Y43005D02*
X22675Y42945D01*
X20686Y42748D02*
X22688Y44750D01*
X23068Y42870D02*
X23185D01*
X20686Y42465D02*
X22688Y44467D01*
X23185Y42490D02*
X23330Y42345D01*
X23068Y43117D02*
X23315Y42870D01*
X23068Y43400D02*
X23838Y42630D01*
X23068Y43683D02*
X24121Y42630D01*
X23185Y42870D02*
X23375D01*
X23068Y42873D02*
Y44783D01*
X23185Y42870D02*
X23375D01*
X23071D02*
X23785Y43584D01*
X22013Y43212D02*
Y43628D01*
X22221Y43005D02*
X22636D01*
X22013Y43212D02*
X22221Y43005D01*
X20686Y44651D02*
X22013Y43323D01*
X20686Y44934D02*
X22013Y43606D01*
X22221Y43835D02*
X22636D01*
X22013Y43628D02*
X22221Y43835D01*
X22636Y43005D02*
X22688Y43057D01*
X22636Y43835D02*
X22688Y43783D01*
X22648Y42945D02*
X22688D01*
Y43057D01*
X22622Y43835D02*
X22688Y43902D01*
Y44783D02*
Y44973D01*
X22339Y43835D02*
X22688Y44184D01*
Y43783D02*
Y44783D01*
X20686Y45216D02*
X22144Y43758D01*
X20686Y43879D02*
X22346Y45539D01*
X20686Y45499D02*
X22350Y43835D01*
X20686Y43596D02*
X22629Y45539D01*
X20686Y44445D02*
X21994Y45753D01*
X20686Y44728D02*
X21988Y46030D01*
X20686Y44162D02*
X22136Y45612D01*
X20686Y46065D02*
X22688Y44063D01*
Y44783D02*
Y44973D01*
X20686Y45782D02*
X22633Y43835D01*
X22688Y44973D02*
X22783Y45068D01*
X22688Y44973D02*
X22783Y45068D01*
X21988Y45759D02*
X22208Y45539D01*
X22648D01*
X20686Y43030D02*
X22845Y45190D01*
X23068Y43150D02*
X24551Y44632D01*
X23068Y43433D02*
X24409Y44774D01*
X22783Y45068D02*
X22845Y45130D01*
Y45243D01*
X23068Y44531D02*
X23878Y43721D01*
X23068Y44783D02*
X23130Y44845D01*
X23068Y43965D02*
X23785Y43249D01*
X23068Y44248D02*
X23785Y43532D01*
X23084Y44799D02*
X24047Y43835D01*
X23068Y43716D02*
X24268Y44915D01*
X23130Y44845D02*
X23242D01*
X23375Y44977D01*
X23068Y43999D02*
X24126Y45057D01*
X23068Y44282D02*
X23985Y45198D01*
X22626Y45539D02*
X22884Y45281D01*
X22343Y45539D02*
X22799Y45084D01*
X22845Y45243D02*
X22977Y45375D01*
X20686Y43313D02*
X23278Y45905D01*
X22629Y45539D02*
X22868Y45779D01*
X22779Y45669D02*
X23073Y45375D01*
X22648Y45539D02*
X22868Y45759D01*
X23068Y44564D02*
X23843Y45340D01*
X23242Y45375D02*
X23375Y45243D01*
X22868Y45862D02*
X24701Y44030D01*
X23150Y46033D02*
X24701Y44482D01*
X22868Y45779D02*
X23129Y46040D01*
X23101Y46081D02*
X23143Y46040D01*
X22977Y45375D02*
X23242D01*
X23030D02*
X23419Y45764D01*
X23263Y42085D02*
X23333Y42155D01*
X23498D01*
X23263Y42085D02*
X23333Y42155D01*
X23498D01*
X23487D02*
X23582Y42250D01*
X23498Y42155D02*
X24350D01*
X23652Y42250D02*
X23747Y42155D01*
X23849Y41668D02*
X24006Y41825D01*
X23761D02*
X23849Y41737D01*
X24077Y41825D02*
X24177Y41725D01*
X23795Y41825D02*
X24036Y41584D01*
X24250Y41797D02*
X24278Y41825D01*
X24250Y41797D02*
X24278Y41825D01*
X23761D02*
X24278D01*
X24336Y42155D02*
X24431Y42250D01*
X23330Y42345D02*
X23425Y42250D01*
X23330Y42345D02*
X23425Y42250D01*
X23615D01*
X23425D02*
X23615D01*
X23375Y42870D02*
X23470Y42775D01*
X23375Y42870D02*
X23470Y42775D01*
X23615Y42630D01*
X23506Y42739D02*
X23882Y43115D01*
X23935Y42250D02*
X24030Y42155D01*
X23770D02*
X23865Y42250D01*
X24218D02*
X24313Y42155D01*
X24053D02*
X24148Y42250D01*
X23615Y42630D02*
X24185D01*
X23680D02*
X24055Y43005D01*
X23962Y42630D02*
X24185Y42853D01*
Y42630D02*
Y42882D01*
X24959Y41616D02*
X25041Y41699D01*
X24959Y41616D02*
X25041Y41699D01*
X24899Y41632D02*
X25180Y41914D01*
X24908Y42137D02*
X24933Y42161D01*
X25015Y42244D01*
X25009Y41742D02*
X25047Y41704D01*
X24933Y42161D02*
X25015Y42244D01*
X25041Y41699D02*
X25189Y41846D01*
X25150Y41884D02*
X25188Y41846D01*
X25189Y41846D02*
X25256Y41914D01*
X25189Y41846D02*
X25256Y41914D01*
X25015Y42244D02*
X25180D01*
X25015D02*
X25180D01*
Y41914D02*
X25256D01*
X25180Y42244D02*
X25367D01*
X23615Y42250D02*
X24445D01*
X24350Y42155D02*
X24445Y42250D01*
X24795D02*
X25367D01*
X24795D02*
X24908Y42137D01*
X24865Y42630D02*
Y42793D01*
Y43014D01*
Y42630D02*
X25420D01*
X24865Y42734D02*
X24969Y42630D01*
X24896Y42149D02*
X24997Y42250D01*
X24865Y42630D02*
Y42793D01*
X25094Y42630D02*
X25470Y43006D01*
X24867Y43016D02*
X25252Y42630D01*
X25420D02*
X25484Y42694D01*
X25008Y43157D02*
X25478Y42688D01*
X25377Y42630D02*
X25601Y42854D01*
X25470Y42985D02*
X25615Y42840D01*
X23354Y42870D02*
X23785Y43301D01*
X24185Y42882D02*
X24307Y43005D01*
X24029D02*
X24185Y42849D01*
X23785Y43212D02*
X23993Y43005D01*
X23785Y43212D02*
Y43628D01*
X23993Y43005D02*
X24307D01*
X23993Y43835D02*
X24407D01*
X24418Y43015D02*
X24535D01*
X24318D02*
X24418D01*
X24535D02*
Y43133D01*
X24418Y43015D02*
X24535Y43133D01*
X24501Y43098D02*
X24535Y43064D01*
Y43015D02*
Y43133D01*
X24615Y43550D02*
X24761Y43404D01*
X24615Y43259D02*
Y43628D01*
X23785D02*
X23993Y43835D01*
X23281Y44884D02*
X24330Y43835D01*
X24036D02*
X24692Y44491D01*
X23375Y45073D02*
X24902Y43546D01*
X23375Y44977D02*
Y45243D01*
X23278Y45340D02*
X23561Y45622D01*
X23375Y45154D02*
X23702Y45481D01*
X24086Y45564D02*
X24407D01*
Y43835D02*
X24615Y43628D01*
X24505Y43738D02*
X24701Y43934D01*
X24319Y43835D02*
X24701Y44217D01*
Y43865D02*
Y44482D01*
X24218Y45431D02*
X24351Y45564D01*
X24407D02*
X24615Y45772D01*
X24360Y45290D02*
X24911Y45841D01*
X24615Y45828D02*
X24770Y45983D01*
X24615Y43283D02*
X25197Y43865D01*
X24618Y43261D02*
X25221Y43865D01*
X24865Y43014D02*
X25741Y43890D01*
X24866Y43865D02*
X25043Y43687D01*
X24615Y43565D02*
X24914Y43865D01*
X24701D02*
X25221D01*
X25470Y42985D02*
Y43275D01*
X25291Y43440D02*
X25470Y43261D01*
Y43275D02*
X25615Y43420D01*
X25432Y43581D02*
X25604Y43409D01*
X25149Y43865D02*
X25185Y43829D01*
X24914Y44735D02*
X25304D01*
X24298Y45564D02*
X25127Y44735D01*
X24086Y45564D02*
X24914Y44735D01*
X24936D02*
X25477Y45276D01*
X24494Y45651D02*
X25357Y44788D01*
X24642Y45007D02*
X25194Y45559D01*
X24501Y45149D02*
X25052Y45700D01*
X24784Y44866D02*
X25335Y45417D01*
X24615Y45813D02*
X25498Y44930D01*
X25304Y44735D02*
X25465Y44896D01*
X25547Y44979D01*
X25465Y44896D02*
X25547Y44979D01*
X25219Y44735D02*
X25618Y45134D01*
X25583Y45665D02*
X25628Y45710D01*
X25300Y45948D02*
X25345Y45993D01*
X25547Y44979D02*
X25712D01*
X25547D02*
X25712D01*
X20686Y45859D02*
X21767Y46940D01*
X20686Y45576D02*
X22050Y46940D01*
X20686Y45293D02*
X22389Y46996D01*
X20686Y46142D02*
X21484Y46940D01*
X20686Y46425D02*
X21240Y46978D01*
Y46940D02*
X22060D01*
X20686Y47196D02*
X21988Y45894D01*
Y45759D02*
Y46199D01*
X21508Y46940D02*
X22119Y46329D01*
X21988Y46199D02*
X22208Y46419D01*
X21791Y46940D02*
X22312Y46419D01*
X22060Y46950D02*
X22247Y47137D01*
X22060Y46953D02*
X22595Y46419D01*
X22240Y47145D02*
X22445Y46940D01*
X20686Y46990D02*
X21240Y47544D01*
Y46940D02*
Y47760D01*
X20686Y46707D02*
X21240Y47261D01*
X20686Y47479D02*
X21988Y46177D01*
X20686Y47762D02*
X21240Y47208D01*
X20686Y48045D02*
X21240Y47491D01*
X20686Y47273D02*
X21399Y47986D01*
X20686Y47556D02*
X21257Y48127D01*
X22240Y47145D02*
Y47555D01*
X22060Y46940D02*
Y47760D01*
Y47233D02*
X22240Y47413D01*
X22060Y47519D02*
X22240Y47340D01*
X21889Y47973D02*
X22273Y47589D01*
X22030Y48115D02*
X22415Y47730D01*
X22240Y47555D02*
X22445Y47760D01*
X22060Y47516D02*
X22459Y47915D01*
X20686Y46348D02*
X22688Y44345D01*
X22868Y46145D02*
X24701Y44313D01*
X22868Y45759D02*
Y46199D01*
X22648Y46419D02*
X22868Y46199D01*
X22208Y46419D02*
X22648D01*
X22868Y46061D02*
X23053Y46246D01*
X22796Y46272D02*
X23060Y46536D01*
X23053Y46116D02*
Y46198D01*
Y46116D02*
X23136Y46033D01*
X23060Y46122D02*
X23142Y46040D01*
X23053Y46198D02*
Y46281D01*
X23060Y46244D02*
Y46287D01*
X20686Y46631D02*
X22688Y44628D01*
X20686Y45010D02*
X22615Y46940D01*
X20686Y46914D02*
X22688Y44911D01*
X22060Y47236D02*
X23053Y46243D01*
X22640Y46940D02*
X23060Y46520D01*
X22445Y46940D02*
X22855D01*
X22654Y46413D02*
X23060Y46819D01*
X22377Y46419D02*
X23060Y47101D01*
X23030Y47115D02*
X23060Y47085D01*
X22855Y46940D02*
X23060Y47144D01*
X22889Y46973D02*
X23060Y46802D01*
Y46287D02*
Y47144D01*
X23004Y47611D02*
X23060Y47667D01*
X22796Y47915D02*
X23060Y47651D01*
X22855Y47760D02*
X23060Y47556D01*
Y47762D01*
X20686Y48328D02*
X21253Y47760D01*
X21240D02*
X22060D01*
X21456D02*
X21635Y47940D01*
X20686Y47839D02*
X21240Y48393D01*
Y48145D02*
Y48555D01*
X21445Y47940D02*
X21855D01*
X21240Y48145D02*
X21445Y47940D01*
X21640D02*
X21819Y47760D01*
X21855Y47940D02*
X22060Y48145D01*
X22022Y47760D02*
X22304Y48043D01*
X21739Y47760D02*
X22215Y48236D01*
X22060Y48145D02*
Y48555D01*
X22215Y48132D02*
Y48568D01*
X22060Y48368D02*
X22215Y48213D01*
X22060Y48365D02*
X22215Y48519D01*
X20686Y48893D02*
X21240Y48340D01*
X20686Y48404D02*
X21281Y48999D01*
X20686Y48611D02*
X21536Y47760D01*
X20686Y48122D02*
X21563Y48999D01*
X20686Y48687D02*
X20998Y48999D01*
X20686Y48970D02*
X20715Y48999D01*
X21146D02*
X21415Y48730D01*
X20863Y48999D02*
X21273Y48589D01*
X21855Y48760D02*
X22060Y48555D01*
X21240D02*
X21445Y48760D01*
X21994Y48999D02*
X22320Y48673D01*
X21712Y48999D02*
X22215Y48496D01*
X21607Y48760D02*
X21846Y48999D01*
X21429D02*
X21668Y48760D01*
X21445D02*
X21855D01*
X21873Y48743D02*
X22129Y48999D01*
X22513Y47915D02*
X22668Y47760D01*
X22445D02*
X22855D01*
X22587D02*
X22742Y47915D01*
X22215Y48132D02*
X22432Y47915D01*
X22868D01*
X23060Y47762D02*
Y47927D01*
Y47762D02*
Y47927D01*
X22863Y47753D02*
X23228Y48119D01*
X22868Y47915D02*
X23085Y48132D01*
X23060Y47927D02*
X23142Y48010D01*
X22973Y48020D02*
X23063Y47931D01*
X23060Y47927D02*
X23142Y48010D01*
X23085Y48191D02*
X23204Y48072D01*
X22215Y48568D02*
X22432Y48785D01*
X22014Y48601D02*
X22412Y48999D01*
X22481Y48785D02*
X22695Y48999D01*
X22277D02*
X22491Y48785D01*
X22432D02*
X22868D01*
X22560Y48999D02*
X22774Y48785D01*
X23085Y48258D02*
X23215Y48388D01*
X23085Y48132D02*
Y48568D01*
Y48474D02*
X23215Y48344D01*
X23085Y48541D02*
X23543Y48999D01*
X22868Y48785D02*
X23085Y48568D01*
X22764Y48785D02*
X22978Y48999D01*
X22957Y48696D02*
X23260Y48999D01*
X22843D02*
X23245Y48597D01*
X23390Y46260D02*
X23785Y45865D01*
X23390Y46472D02*
X23785Y46077D01*
X23390Y46755D02*
X23872Y46273D01*
X23390Y46583D02*
X23747Y46940D01*
X23390Y46866D02*
X23464Y46940D01*
X23390Y46300D02*
X23921Y46831D01*
X23445Y46940D02*
X23813D01*
X23653Y45997D02*
X23785Y46130D01*
Y45865D02*
Y46187D01*
X23993Y46394D01*
X23511Y46139D02*
X24063Y46690D01*
X24049Y46394D02*
X24204Y46549D01*
X23488Y46940D02*
X24034Y46394D01*
X23993D02*
X24358D01*
X23771Y46940D02*
X24317Y46394D01*
X23390Y46995D02*
X23445Y46940D01*
X23390Y46287D02*
Y46995D01*
X23813Y46940D02*
X24358Y46394D01*
X23855Y47760D02*
X24060Y47555D01*
X23390Y47705D02*
X23445Y47760D01*
X23390Y47705D02*
Y47762D01*
Y47714D02*
X23590Y47915D01*
X23897Y47945D02*
X24263Y47579D01*
X24240Y47145D02*
Y47555D01*
X24060Y47187D02*
Y47555D01*
X24310Y46937D02*
X24379Y47006D01*
X24169Y47079D02*
X24240Y47150D01*
X24060Y47253D02*
X24240Y47433D01*
X24060Y47499D02*
X24240Y47319D01*
X23928Y47687D02*
X24294Y48053D01*
X24039Y48086D02*
X24405Y47720D01*
X24615Y45772D02*
Y46137D01*
Y46096D02*
X25732Y44979D01*
X24620Y46940D02*
X25399Y46161D01*
X24445Y46940D02*
X24855D01*
X24451Y46796D02*
X24595Y46940D01*
X24734Y46513D02*
X25303Y47082D01*
X24855Y46940D02*
X25060Y47145D01*
X25345Y45903D02*
Y46107D01*
X25477Y46240D01*
X25572D01*
X25017Y46230D02*
X25727Y46940D01*
X24876Y46372D02*
X25444Y46940D01*
X25240Y47145D02*
X25445Y46940D01*
X24879Y46963D02*
X25587Y46255D01*
X25020Y47105D02*
X25729Y46396D01*
X24240Y47145D02*
X24445Y46940D01*
X24593Y46655D02*
X25240Y47301D01*
X24060Y47187D02*
X25345Y45903D01*
X24060Y47216D02*
X25345Y45931D01*
X24240Y47555D02*
X24445Y47760D01*
X24060Y47536D02*
X24439Y47915D01*
X24855Y47760D02*
X25060Y47555D01*
X24776Y47915D02*
X25240Y47451D01*
Y47145D02*
Y47555D01*
X25060Y47145D02*
Y47555D01*
X25240Y47168D02*
X25468Y46940D01*
X25060Y47347D02*
X25240Y47168D01*
X24994Y47621D02*
X25360Y47987D01*
X24963Y48010D02*
X25329Y47644D01*
X25240Y47555D02*
X25445Y47760D01*
X25060Y47405D02*
X25570Y47915D01*
X23452Y47824D02*
X23516Y47760D01*
X23445D02*
X23855D01*
X23390Y47762D02*
X23542Y47915D01*
X23142Y48010D02*
X23240Y48107D01*
X23215Y48132D02*
X23240Y48107D01*
X23542Y47915D02*
X23868D01*
X23644D02*
X23799Y47760D01*
X23868Y47915D02*
X24085Y48132D01*
X24215D02*
X24432Y47915D01*
X23719Y47760D02*
X24215Y48256D01*
X24085Y48322D02*
X24215Y48193D01*
X24085Y48410D02*
X24215Y48539D01*
X23215Y48132D02*
Y48568D01*
X23432Y48785D01*
X23691Y48999D02*
X24215Y48476D01*
X23409Y48999D02*
X23622Y48785D01*
X23126Y48999D02*
X23386Y48739D01*
X23432Y48785D02*
X23868D01*
X23612D02*
X23826Y48999D01*
X24085Y48132D02*
Y48568D01*
X23868Y48785D02*
X24085Y48568D01*
X24215Y48132D02*
Y48568D01*
Y48539D02*
X24461Y48785D01*
X23974Y48999D02*
X24310Y48663D01*
X23881Y48772D02*
X24109Y48999D01*
X24215Y48568D02*
X24432Y48785D01*
X24023Y48630D02*
X24392Y48999D01*
X24493Y47915D02*
X24647Y47760D01*
X24445D02*
X24855D01*
X24567D02*
X24722Y47915D01*
X24432D02*
X24868D01*
X24850Y47760D02*
X25218Y48129D01*
X24868Y47915D02*
X25085Y48132D01*
X25215D02*
X25432Y47915D01*
X25085Y48171D02*
X25496Y47760D01*
X25085Y48278D02*
X25215Y48408D01*
X25085Y48454D02*
X25215Y48324D01*
X24432Y48785D02*
X24868D01*
X25085Y48568D01*
X24823Y48999D02*
X25235Y48587D01*
X24461Y48785D02*
X24675Y48999D01*
X24257D02*
X24471Y48785D01*
X24744D02*
X24958Y48999D01*
X24540D02*
X24754Y48785D01*
X25215Y48132D02*
Y48568D01*
X25085Y48132D02*
Y48568D01*
Y48561D02*
X25523Y48999D01*
X25106D02*
X25376Y48729D01*
X24947Y48706D02*
X25240Y48999D01*
X25215Y48568D02*
X25432Y48785D01*
X25388Y48999D02*
X25602Y48785D01*
X26343Y42007D02*
X26365Y41985D01*
X26583Y41975D02*
X26655Y41902D01*
X26365Y41985D02*
X26407D01*
X26343Y42007D02*
X26365Y42029D01*
Y42083D02*
X26463Y41985D01*
X26407D02*
X26572D01*
X26407D02*
X26572D01*
X26751Y41806D02*
X26805Y41860D01*
X27095D02*
X27240Y41715D01*
X26583Y41975D02*
X26655Y41902D01*
X26583Y41975D02*
X26655Y41902D01*
X26805Y41860D02*
X27095D01*
X26655Y41902D02*
X26751Y41806D01*
X26365Y42029D02*
Y42262D01*
X26324Y42303D02*
X26365Y42262D01*
Y42366D02*
X26871Y41860D01*
X26365Y42204D02*
X26693Y42533D01*
X26324Y42303D02*
X26365Y42344D01*
Y42533D01*
X26554D01*
X26365Y42487D02*
X26411Y42533D01*
X26554D02*
X26594Y42574D01*
X26594Y42574D02*
X26635Y42533D01*
X26429Y41985D02*
X26976Y42533D01*
X26635D02*
X26869D01*
X26909Y42574D02*
X26950Y42533D01*
X26869D02*
X26909Y42574D01*
X26950Y42533D02*
X27183D01*
X27224Y42574D01*
X27240Y41665D02*
X28035Y42460D01*
X27996Y42498D02*
X28235Y42259D01*
X27330Y42533D02*
X28235Y41627D01*
X27895Y42533D02*
X27961D01*
X27580D02*
X27813D01*
X27961D02*
X27996Y42498D01*
X27961Y42533D02*
X27996Y42498D01*
X28565Y41553D02*
X28611Y41598D01*
X28565Y41576D02*
X28714Y41725D01*
X28565Y41859D02*
X28725Y42018D01*
X28565Y42141D02*
X28741Y42317D01*
X28565Y42259D02*
Y42424D01*
X28482Y42507D02*
X28565Y42424D01*
X28482Y42507D02*
X28565Y42424D01*
X28565Y42424D02*
X28673Y42533D01*
X26642Y41916D02*
X27262Y42536D01*
X26869Y41860D02*
X27561Y42552D01*
X27612Y42533D02*
X28235Y41910D01*
X27124Y41831D02*
X27860Y42568D01*
X27265Y42533D02*
X27498D01*
X27224Y42574D02*
X27265Y42533D01*
X27498D02*
X27539Y42574D01*
X27539Y42574D02*
X27580Y42533D01*
X28450Y42539D02*
X28482Y42507D01*
X27854Y42574D02*
X28235Y42193D01*
X28525Y42533D02*
X28714D01*
X28452Y42541D02*
X28723Y42271D01*
X27854Y42574D02*
X27895Y42533D01*
X27813D02*
X27854Y42574D01*
X28450Y42539D02*
X28484Y42574D01*
X28484Y42574D02*
X28525Y42533D01*
X25150Y43298D02*
X25754Y42694D01*
X25484D02*
X26204D01*
X25723D02*
X25869Y42840D01*
X25615D02*
X25905D01*
X25891D02*
X26037Y42694D01*
X25905Y42840D02*
X26050Y42985D01*
X26006Y42694D02*
X26204Y42892D01*
X26039Y42974D02*
X26204Y42810D01*
X26050Y42985D02*
Y43172D01*
Y43021D02*
X26204Y43174D01*
X26087Y43209D02*
X26204Y43093D01*
X26050Y43172D02*
X26204Y43326D01*
X24865Y42967D02*
X25788Y43890D01*
X25615Y43420D02*
X25803D01*
X24865Y42684D02*
X26071Y43890D01*
X25574Y43723D02*
X25839Y43457D01*
X25715Y43864D02*
X25981Y43598D01*
X25803Y43420D02*
X26245Y43863D01*
X25741Y43890D02*
X26245D01*
X26204Y42694D02*
Y43326D01*
X26408Y43530D02*
X26493Y43615D01*
X26408Y43530D02*
X26554D01*
X26493Y43615D02*
X26575Y43698D01*
Y43857D01*
X25972Y43890D02*
X26122Y43740D01*
X26493Y43615D02*
X26575Y43698D01*
Y43857D01*
X26554Y43530D02*
X26594Y43489D01*
X26557Y43527D02*
X26605Y43576D01*
Y43500D02*
Y43828D01*
X26511Y43634D02*
X26605Y43540D01*
X26575Y43853D02*
X26605Y43823D01*
X27527Y43749D02*
X27624Y43653D01*
X26575Y43857D02*
X26605Y43828D01*
X27539Y43489D02*
X27580Y43530D01*
X27599D02*
Y43628D01*
Y43530D02*
Y43628D01*
X27681Y43710D01*
X27846D01*
X27599Y43628D02*
X27681Y43710D01*
X27846D02*
X28942D01*
X27681D02*
X27846D01*
X27527Y44032D02*
X27849Y43710D01*
X27527Y43502D02*
Y44157D01*
X27685D02*
X28132Y43710D01*
X27527Y43649D02*
X28035Y44157D01*
X26575Y43857D02*
X26605Y43828D01*
X27527Y43932D02*
X27752Y44157D01*
X27759D02*
X28540D01*
X27527D02*
X27753D01*
X27968D02*
X28415Y43710D01*
X27871D02*
X28317Y44157D01*
X28251D02*
X28697Y43710D01*
X28154D02*
X28623Y44179D01*
X28437Y43710D02*
X28764Y44038D01*
X28540Y44157D02*
Y44262D01*
X28534Y44157D02*
X28905Y43786D01*
X28540Y44262D02*
X28905Y43898D01*
X28611Y41598D02*
X28693Y41681D01*
X28725D01*
X28611Y41598D02*
X28693Y41681D01*
X28725D01*
X28565Y41863D02*
X28736Y41692D01*
X28714Y41714D02*
X28736Y41692D01*
X28714Y41947D02*
X28755Y41988D01*
X29689Y41692D02*
X29711Y41714D01*
Y41848D02*
X29878Y41681D01*
X29701D02*
X30093D01*
X30168Y41756D01*
X29711Y41714D02*
Y41947D01*
X28714Y41714D02*
Y41947D01*
X30168Y41756D02*
X30251Y41838D01*
X30168Y41756D02*
X30251Y41838D01*
X28714Y42029D02*
Y42262D01*
X28565Y42259D02*
Y42424D01*
X28714Y42029D02*
X28755Y41988D01*
X28565Y42146D02*
X28739Y41972D01*
X28714Y42262D02*
X28755Y42303D01*
X28714Y42344D02*
Y42533D01*
X29671Y42303D02*
X29711Y42344D01*
X28714D02*
X28755Y42303D01*
X29671Y41988D02*
X29711Y41947D01*
X29671Y41988D02*
X29711Y42029D01*
Y42131D02*
X30127Y41715D01*
X29711Y42413D02*
X30287Y41838D01*
X29711Y42029D02*
Y42262D01*
X29671Y42303D02*
X29711Y42262D01*
Y42344D02*
Y42577D01*
Y42439D02*
X30284Y43012D01*
X30251Y41838D02*
X30293D01*
X30084Y41681D02*
X30293Y41890D01*
X30251Y41838D02*
X30293D01*
Y42089D01*
X31164D01*
X31058D02*
X31133Y42164D01*
X31164Y41838D02*
Y42089D01*
X31373Y41838D02*
X31660Y42125D01*
X31164Y41838D02*
X31833D01*
X31414Y42125D02*
X31701Y41838D01*
X31172Y42125D02*
X31337D01*
X31172D02*
X31337D01*
X34437D01*
X31164Y41912D02*
X31377Y42125D01*
X29801Y41681D02*
X30709Y42588D01*
X29711Y41874D02*
X30567Y42729D01*
X29876Y43380D02*
X31418Y41838D01*
X29593Y43380D02*
X30885Y42089D01*
X29711Y42157D02*
X30426Y42871D01*
X29027Y43380D02*
X30319Y42089D01*
X29916Y43380D02*
X31089Y42207D01*
X29310Y43380D02*
X30602Y42089D01*
X30775D02*
X30991Y42305D01*
X30492Y42089D02*
X30850Y42447D01*
X31089Y42207D02*
X31172Y42125D01*
X31089Y42207D02*
X31172Y42125D01*
X30807Y42985D02*
X31337Y42455D01*
X30830Y42992D02*
X31367Y42455D01*
X31337D02*
X32060D01*
X30955Y43150D02*
X31650Y42455D01*
X28875Y42694D02*
Y43380D01*
Y42694D02*
X29595D01*
X28875Y42967D02*
X29148Y42694D01*
X28875Y43017D02*
X29238Y43380D01*
X28875Y43300D02*
X28955Y43380D01*
X28875D02*
X29916D01*
X28875Y42734D02*
X29521Y43380D01*
X29595Y42694D02*
X29711Y42577D01*
X29117Y42694D02*
X29804Y43380D01*
X29639Y42650D02*
X30143Y43154D01*
X29400Y42694D02*
X30001Y43295D01*
X28875Y43250D02*
X29431Y42694D01*
X29916Y43710D02*
X30081D01*
X30164Y43628D01*
X29916Y43710D02*
X30081D01*
X28905Y43748D02*
X28942Y43710D01*
X28720D02*
X28905Y43896D01*
X29398Y43710D02*
X29435Y43748D01*
Y43821D02*
X29546Y43710D01*
X28905Y43748D02*
Y43898D01*
X29153Y44145D02*
X29302D01*
X29398Y43710D02*
X29916D01*
X29302Y44145D02*
X29435Y44012D01*
Y43748D02*
Y44012D01*
X29568Y43710D02*
X29873Y44015D01*
X30081Y43710D02*
X30164Y43628D01*
X29851Y43710D02*
X30047Y43906D01*
X29435Y43860D02*
X29689Y44114D01*
X29655Y44148D02*
X29787Y44015D01*
X29938D01*
X29655Y44167D02*
X29807Y44015D01*
X30855Y43482D02*
X30955Y43383D01*
X30823Y42985D02*
X30955Y43117D01*
X30815Y42977D02*
X31112Y43274D01*
X30425Y43383D02*
X30498Y43455D01*
X30390Y43401D02*
X30471Y43482D01*
X30946Y43391D02*
X30970Y43415D01*
X30855Y43482D02*
Y43530D01*
X31097Y42694D02*
X31338Y42935D01*
X30956Y42835D02*
X31253Y43132D01*
X31239Y42553D02*
X31551Y42865D01*
X31424Y42455D02*
X32301Y43332D01*
X31275Y42997D02*
Y43110D01*
X30955Y43117D02*
Y43383D01*
X31408Y42865D02*
X31673D01*
X31275Y42997D02*
X31408Y42865D01*
X30164Y43628D02*
X30425Y43367D01*
X29807Y44015D02*
X30432Y43390D01*
X30855Y43530D02*
X31275Y43110D01*
X29938Y44015D02*
X30498Y43455D01*
X30249Y43543D02*
X30329Y43623D01*
X30108Y43684D02*
X30188Y43764D01*
X30855Y43482D02*
Y43530D01*
X30831Y44125D02*
X31058Y44351D01*
X31397Y43559D02*
X32181Y44343D01*
X31255Y43700D02*
X31898Y44343D01*
X31176D02*
X32301Y43218D01*
X31459Y44343D02*
X32301Y43501D01*
X30972Y43983D02*
X31332Y44343D01*
X31055Y44352D02*
X31100Y44343D01*
X32448D01*
X31114Y43842D02*
X31615Y44343D01*
X26446Y44939D02*
X26489Y44896D01*
X26446Y44939D02*
X26489Y44896D01*
X26446Y44939D02*
X26495Y44988D01*
X25712Y44979D02*
X25774D01*
X25538Y45710D02*
X26012Y45235D01*
X26247D01*
X25567Y45710D02*
X26041Y45235D01*
X26493Y44892D02*
X26525Y44860D01*
X26500Y44885D02*
X26525Y44910D01*
X26493Y44892D02*
X26525Y44860D01*
Y44901D01*
X26446Y44939D02*
X26495Y44988D01*
X26525Y44901D02*
Y45017D01*
X26495Y44988D02*
X26525Y45017D01*
Y44901D02*
Y45017D01*
X25796Y45763D02*
X26286Y45273D01*
X24615Y46137D02*
X25765Y44988D01*
X25875Y45967D02*
X26427Y45415D01*
X25724Y45523D02*
X27055Y46854D01*
X25538Y45710D02*
X25742D01*
X25875Y45842D01*
Y45973D01*
Y45957D02*
X27055Y47137D01*
X26014Y46111D02*
X26569Y45556D01*
X26155Y46253D02*
X26710Y45698D01*
X26247Y45235D02*
X27055Y46042D01*
X26007Y45240D02*
X27055Y46288D01*
X26296Y46394D02*
X26852Y45839D01*
X26438Y46536D02*
X26993Y45980D01*
X26579Y46677D02*
X27055Y46201D01*
X26721Y46818D02*
X27055Y46484D01*
X27265Y44977D02*
X27330D01*
X27348Y45060D02*
X27380Y45028D01*
X27489Y45201D02*
X27522Y45169D01*
X27385Y45926D02*
Y46042D01*
Y45926D02*
Y46042D01*
X27631Y45343D02*
X27663Y45310D01*
X27385Y46154D02*
X27499Y46040D01*
X27753Y44157D02*
Y44905D01*
X27759Y44157D02*
Y44912D01*
X27825Y44977D02*
X28540D01*
X27759Y44912D02*
X27825Y44977D01*
X27772Y45484D02*
X27804Y45452D01*
X27914Y45626D02*
X27946Y45593D01*
X27910Y45063D02*
X27996Y44977D01*
X28052Y45204D02*
X28279Y44977D01*
X25866Y45382D02*
X27055Y46571D01*
X25875Y45973D02*
X27055Y47153D01*
X27265Y44977D02*
X29253Y46965D01*
X27330Y44977D02*
X29363Y47011D01*
X27055Y46042D02*
Y47153D01*
X27385Y46042D02*
Y47238D01*
X25572Y46240D02*
X27557Y48225D01*
X25159Y46089D02*
X28069Y48999D01*
X27385Y45926D02*
X27969Y46510D01*
X27385Y46053D02*
X27969Y46636D01*
X28007Y44977D02*
X29680Y46651D01*
X27825Y44977D02*
X29680Y46832D01*
X27385Y46437D02*
X27640Y46182D01*
X27385Y46720D02*
X27782Y46323D01*
X27385Y46335D02*
X27969Y46919D01*
X27385Y47003D02*
X27923Y46465D01*
X25445Y46940D02*
X25855D01*
X25751D02*
X26011Y46679D01*
X25468Y46940D02*
X25870Y46538D01*
X25699Y47760D02*
X25853Y47915D01*
X25624D02*
X25779Y47760D01*
X25445D02*
X25855D01*
X25432Y47915D02*
X25868D01*
X25944Y47029D02*
X26153Y46821D01*
X25855Y46940D02*
X26060Y47145D01*
X26862Y46960D02*
X27055Y46767D01*
X26060Y47196D02*
X26294Y46962D01*
X26060Y47145D02*
Y47555D01*
X25855Y47760D02*
X26060Y47555D01*
X27003Y47101D02*
X27055Y47050D01*
X26060Y47479D02*
X26436Y47103D01*
X25868Y47915D02*
X26085Y48132D01*
X25853Y47915D02*
X26085Y48147D01*
X25671Y48999D02*
X27001Y47669D01*
X25432Y48785D02*
X25868D01*
X25592D02*
X25806Y48999D01*
X25868Y48785D02*
X26085Y48568D01*
X25871Y48782D02*
X26089Y48999D01*
X25887Y47935D02*
X26577Y47245D01*
X26029Y48076D02*
X26718Y47386D01*
X26085Y48302D02*
X26860Y47528D01*
X25954Y48999D02*
X27143Y47811D01*
X26085Y48132D02*
Y48568D01*
X26013Y48640D02*
X26372Y48999D01*
X26085Y48147D02*
X26937Y48999D01*
X26085Y48430D02*
X26655Y48999D01*
X27385Y46901D02*
X27724Y47240D01*
X27385Y46618D02*
X27853Y47087D01*
X27409Y47261D02*
X27969Y46702D01*
X27385Y47238D02*
X27724Y47576D01*
X27557Y48225D02*
X27652Y48320D01*
X27550Y47403D02*
X27724Y47230D01*
X27385Y47184D02*
X27724Y47523D01*
Y47216D02*
X27929Y47011D01*
X27724Y47230D02*
X27942Y47011D01*
X27969Y46984D01*
Y46510D02*
Y47011D01*
X27692Y47544D02*
X27724Y47513D01*
X27557Y48225D02*
X27652Y48320D01*
X27929Y47011D02*
X27969D01*
X27724Y47216D02*
Y47576D01*
X26237Y48999D02*
X27284Y47952D01*
X25918Y47697D02*
X27220Y48999D01*
X26060Y47273D02*
X27786Y48999D01*
X26060Y47556D02*
X27503Y48999D01*
X26803D02*
X27567Y48235D01*
X26520Y48999D02*
X27426Y48093D01*
X20686Y48999D02*
X30983D01*
X27086D02*
X27765Y48320D01*
X27934Y48999D02*
X28613Y48320D01*
X27672D02*
X28352Y48999D01*
X27842Y48320D02*
X29658D01*
X27955D02*
X28634Y48999D01*
X27652Y48320D02*
X27842D01*
X27652D02*
X27842D01*
X27651Y48999D02*
X28330Y48320D01*
X27368Y48999D02*
X28048Y48320D01*
X28648Y44649D02*
X29153Y44145D01*
X28335Y45487D02*
X29655Y44167D01*
X28476Y45629D02*
X29674Y44431D01*
X28540Y44732D02*
Y44977D01*
X28055Y45767D02*
X28087Y45735D01*
X28566Y44732D02*
X28648Y44649D01*
X28566Y44732D02*
X28648Y44649D01*
X29370Y44078D02*
X29655Y44363D01*
Y44148D02*
Y44412D01*
X29154Y44145D02*
X29697Y44688D01*
X29012Y44286D02*
X29680Y44954D01*
Y44705D02*
Y44895D01*
Y44705D02*
Y44895D01*
X28871Y44427D02*
X29680Y45236D01*
X28729Y44568D02*
X29680Y45519D01*
X28540Y44945D02*
X29680Y46085D01*
X28289Y44977D02*
X29680Y46368D01*
X28618Y45770D02*
X29680Y44708D01*
X28588Y44710D02*
X29680Y45802D01*
X28196Y45908D02*
X28229Y45876D01*
X28338Y46050D02*
X28370Y46018D01*
X28479Y46191D02*
X28511Y46159D01*
X28621Y46333D02*
X28653Y46300D01*
X28900Y46053D02*
X29680Y45273D01*
X29042Y46194D02*
X29680Y45556D01*
X28759Y45911D02*
X29680Y44990D01*
Y44895D02*
Y46832D01*
X28762Y46474D02*
X28794Y46442D01*
X29466Y46619D02*
X29680Y46405D01*
X29183Y46336D02*
X29680Y45839D01*
X29325Y46477D02*
X29680Y46122D01*
X29655Y44412D02*
X29787Y44545D01*
X30060Y45176D02*
X32376Y42860D01*
X28193Y45346D02*
X29829Y43710D01*
X29680Y44705D02*
X29775Y44610D01*
X29680Y44705D02*
X29775Y44610D01*
X29787Y44545D02*
X29840D01*
X29775Y44610D02*
X29840Y44545D01*
X30992Y44415D02*
X31017Y44377D01*
X30690Y44266D02*
X30983Y44559D01*
X31017Y44377D02*
X31055Y44352D01*
X30060Y44895D02*
X31560Y43395D01*
X30548Y44407D02*
X30983Y44842D01*
X30407Y44549D02*
X30983Y45125D01*
Y44460D02*
X30992Y44415D01*
X30265Y44690D02*
X30983Y45408D01*
X30060Y45051D02*
X30983Y45973D01*
X30060Y46025D02*
X30983Y45102D01*
X30060Y45459D02*
X30983Y44536D01*
X30060Y45742D02*
X30983Y44819D01*
X30060Y45616D02*
X30983Y46539D01*
X30060Y46590D02*
X30983Y45668D01*
X30060Y45334D02*
X30983Y46256D01*
X30060Y46308D02*
X30983Y45385D01*
X30060Y44895D02*
Y47918D01*
X30983Y44460D02*
Y48999D01*
X30124Y44832D02*
X30983Y45691D01*
X30060Y45899D02*
X30983Y46822D01*
X30060Y47156D02*
X30983Y46233D01*
X30060Y46465D02*
X30983Y47388D01*
X30060Y46873D02*
X30983Y45950D01*
X30060Y46182D02*
X30983Y47105D01*
X28299Y46510D02*
Y47011D01*
Y46654D02*
X28373Y46580D01*
X28299Y46506D02*
X28804Y47011D01*
X28299Y46937D02*
X28515Y46722D01*
X28299Y47011D02*
X28339D01*
X28424Y47095D02*
X28656Y46863D01*
X28299Y46684D02*
X28724Y47108D01*
X28904Y46615D02*
X28936Y46583D01*
X29045Y46757D02*
X29077Y46725D01*
X29186Y46898D02*
X29219Y46866D01*
X29253Y46965D02*
X29299Y47011D01*
X28724D02*
X28804D01*
X28724Y47078D02*
X28791Y47011D01*
X29299D02*
X29363D01*
X29253Y46965D02*
X29299Y47011D01*
X28406Y47765D02*
X28544Y47626D01*
X28469Y47702D02*
X28532Y47765D01*
X28339Y47011D02*
X28544Y47216D01*
X28299Y46966D02*
X28724Y47391D01*
X28406Y47765D02*
X28724D01*
X28217Y48999D02*
X28896Y48320D01*
X28500Y48999D02*
X29179Y48320D01*
X28238D02*
X28917Y48999D01*
X28544Y47216D02*
Y47626D01*
X28724Y47011D02*
Y47765D01*
X28544Y47258D02*
X28724Y47078D01*
X28544Y47541D02*
X28724Y47361D01*
X28544Y47495D02*
X28724Y47674D01*
X28603Y47765D02*
X28724Y47644D01*
X28783Y48999D02*
X29462Y48320D01*
X28521D02*
X29200Y48999D01*
X29608Y46760D02*
X29680Y46688D01*
X29965Y48203D02*
X30060Y48108D01*
X29965Y48203D02*
X30060Y48108D01*
X29848Y48320D02*
X29943Y48225D01*
X29658Y48320D02*
X29848D01*
X29943Y48225D02*
X29965Y48203D01*
X29848Y48320D02*
X29943Y48225D01*
X30060Y47722D02*
X30983Y46799D01*
X30060Y47031D02*
X30983Y47953D01*
X30060Y47439D02*
X30983Y46516D01*
X30060Y46748D02*
X30983Y47670D01*
X30060Y47918D02*
Y48108D01*
Y47918D02*
Y48108D01*
Y48005D02*
X30983Y47082D01*
X30060Y47313D02*
X30983Y48236D01*
X29087Y48320D02*
X29766Y48999D01*
X28804Y48320D02*
X29483Y48999D01*
X29631D02*
X30983Y47648D01*
X29348Y48999D02*
X30983Y47365D01*
X29658Y48320D02*
X29848D01*
X29065Y48999D02*
X29745Y48320D01*
X29652D02*
X30332Y48999D01*
X29370Y48320D02*
X30049Y48999D01*
X29914D02*
X30983Y47930D01*
X30033Y48135D02*
X30897Y48999D01*
X30060Y47596D02*
X30983Y48519D01*
X30060Y47879D02*
X30983Y48802D01*
X30197Y48999D02*
X30983Y48213D01*
X29892Y48276D02*
X30614Y48999D01*
X30480D02*
X30983Y48496D01*
X30762Y48999D02*
X30983Y48779D01*
X31556Y31235D02*
X32263Y30528D01*
X31839Y31235D02*
X32546Y30528D01*
X31660D02*
X32391Y31260D01*
X31568Y32133D02*
X31591Y32157D01*
X31496Y32205D02*
X31591Y32110D01*
X31921Y32105D02*
X32162D01*
X31943Y30528D02*
X32674Y31260D01*
X31921Y32567D02*
X32408Y32080D01*
X32122Y31235D02*
X32828Y30528D01*
X32924Y31835D02*
Y32080D01*
X31921Y32284D02*
X32100Y32105D01*
X31921Y32743D02*
X32177D01*
X32162Y32080D02*
X32924D01*
X32028Y32743D02*
X32691Y32080D01*
X31591Y32110D02*
Y32743D01*
X31921Y32105D02*
Y32743D01*
Y32204D02*
X32485Y32768D01*
X31921Y33698D02*
X32006Y33614D01*
X31591D02*
Y34225D01*
X31921Y32487D02*
X32203Y32768D01*
X31921Y33614D02*
X32177D01*
X31921Y33981D02*
X32314Y33589D01*
X31960Y34225D02*
X32596Y33589D01*
X32105Y32105D02*
X32768Y32768D01*
X32218Y34250D02*
X32879Y33589D01*
X31921Y33614D02*
Y34225D01*
Y33901D02*
X32270Y34250D01*
X32177Y33592D02*
X32836Y34250D01*
X31921Y33618D02*
X32553Y34250D01*
X32380Y31260D02*
X33111Y30528D01*
X32508D02*
X33485Y31505D01*
X32225Y30528D02*
X33202Y31505D01*
X32162Y31260D02*
X32924D01*
X32177Y32768D02*
X32940D01*
X32568D02*
X33460Y31877D01*
X32286Y32768D02*
X33219Y31835D01*
X32663Y31260D02*
X33394Y30528D01*
X32924Y31260D02*
Y31505D01*
Y31281D02*
X33677Y30528D01*
X32983Y31505D02*
X33960Y30528D01*
X32924Y31505D02*
X33417D01*
X32924Y31835D02*
X33417D01*
X32851Y32768D02*
X33601Y32019D01*
X32940Y32962D02*
X33742Y32160D01*
X32363Y32080D02*
X33296Y33014D01*
X32501Y34250D02*
X33407Y33344D01*
X32646Y32080D02*
X33579Y33014D01*
X32784Y34250D02*
X33588Y33446D01*
X32879Y33589D02*
X32940Y33528D01*
X32177Y33589D02*
X32940D01*
X32740D02*
X33646Y34495D01*
X32457Y33589D02*
X33364Y34495D01*
X32940Y32940D02*
X33014Y33014D01*
X32940Y32768D02*
Y33014D01*
X33486D01*
X32940Y33528D02*
X33125Y33344D01*
X32940D02*
X33486D01*
X32940D02*
Y33589D01*
X32934Y34382D02*
X33730Y33587D01*
X32940Y33506D02*
X36251Y36817D01*
X31591Y35095D02*
Y35404D01*
X31921Y35095D02*
X32172D01*
X31591Y35404D02*
Y35569D01*
Y35404D02*
Y35569D01*
X31674Y35651D01*
X31591Y35569D02*
X31674Y35651D01*
X31863Y35840D01*
X31921Y34225D02*
X32172D01*
X31921Y34184D02*
X31962Y34225D01*
X31921Y35395D02*
X32246Y35070D01*
X32058Y35541D02*
X32529Y35070D01*
X31921Y35095D02*
Y35404D01*
X32110Y35593D01*
X32193Y35675D01*
X32110Y35593D02*
X32193Y35675D01*
X31863Y35840D02*
Y36573D01*
X31513Y36652D02*
X31863Y36303D01*
X32193Y35840D02*
Y36573D01*
X31769D02*
X31863D01*
X31513Y36604D02*
X31769Y36861D01*
X31513Y36598D02*
Y36998D01*
Y36935D02*
X31769Y36679D01*
X32193Y35675D02*
Y35840D01*
Y35675D02*
Y35840D01*
Y36152D02*
X32526Y36486D01*
X32286Y36727D02*
X32655Y36358D01*
X32193Y36573D02*
X32286D01*
Y36727D01*
X32193Y36435D02*
X32385Y36628D01*
X32632Y36875D02*
X32659Y36902D01*
X32172Y34250D02*
X32934D01*
X32193Y35973D02*
X33340Y34825D01*
X32193Y36255D02*
X33585Y34863D01*
X32193Y35690D02*
X32812Y35070D01*
X31921Y35315D02*
X32881Y36275D01*
X32172Y35070D02*
X32934D01*
X32738Y36275D02*
X32903D01*
X32934Y34250D02*
Y34495D01*
Y34948D02*
X33057Y34825D01*
X32934Y34495D02*
X33547D01*
X32934Y34348D02*
X33081Y34495D01*
X32934Y34825D02*
Y35070D01*
X32738Y36275D02*
X32903D01*
X32934Y34825D02*
X33547D01*
X32739Y36275D02*
X33868Y35146D01*
X32242Y35070D02*
X33447Y36275D01*
X31984Y35095D02*
X33164Y36275D01*
X32525Y35070D02*
X33729Y36275D01*
X32193Y36538D02*
X33727Y35004D01*
X32193Y35870D02*
X32668Y36345D01*
X32655Y36358D02*
X32738Y36275D01*
X32629Y36902D02*
X33015D01*
X32606D02*
X32903Y36605D01*
X32655Y36358D02*
X32738Y36275D01*
X32677Y36902D02*
X32974Y36605D01*
X32903Y36275D02*
X33737D01*
X32934Y34914D02*
X34991Y36971D01*
X32928Y36605D02*
X33015Y36692D01*
X32774Y36734D02*
X32942Y36902D01*
X32903Y36605D02*
X33737D01*
X32960Y36902D02*
X33015Y36847D01*
X33417Y31505D02*
X33582D01*
X33266D02*
X34243Y30528D01*
X33417Y31505D02*
X33582D01*
X33486Y33014D02*
X33651D01*
X33486D02*
X33651D01*
X33455D02*
X34025Y32443D01*
X33172Y33014D02*
X33884Y32301D01*
X33582Y31505D02*
X33665Y31588D01*
X33582Y31505D02*
X33665Y31588D01*
X33549Y31505D02*
X34525Y30528D01*
X33707Y31630D02*
X34808Y30528D01*
X33651Y33014D02*
X33733Y33096D01*
X33651Y33014D02*
X33733Y33096D01*
X33694Y33057D02*
X34167Y32584D01*
X33836Y33198D02*
X34308Y32726D01*
X33387Y34495D02*
X34012Y33870D01*
X33104Y34495D02*
X33871Y33728D01*
X33670Y34495D02*
X34154Y34011D01*
X33833Y34615D02*
X34295Y34153D01*
X33547Y34495D02*
X33712D01*
X33547D02*
X33712D01*
X33795Y34578D01*
X33712Y34495D02*
X33795Y34578D01*
X33977Y33340D02*
X34450Y32867D01*
X34118Y33481D02*
X34591Y33008D01*
X34260Y33622D02*
X34732Y33150D01*
X34401Y33764D02*
X34874Y33291D01*
X33974Y34757D02*
X34437Y34294D01*
X34116Y34898D02*
X34578Y34436D01*
X34257Y35039D02*
X34719Y34577D01*
X34398Y35181D02*
X34861Y34718D01*
X33849Y31771D02*
X35091Y30528D01*
X33990Y31912D02*
X35374Y30528D01*
X34131Y32054D02*
X35657Y30528D01*
X34273Y32195D02*
X35940Y30528D01*
X34543Y33905D02*
X35015Y33433D01*
X34414Y32337D02*
X36223Y30528D01*
X34556Y32478D02*
X36505Y30528D01*
X34697Y32620D02*
X36788Y30528D01*
X34684Y34047D02*
X35157Y33574D01*
X34838Y32761D02*
X37071Y30528D01*
X34980Y32902D02*
X37354Y30528D01*
X34826Y34188D02*
X35298Y33716D01*
X34967Y34329D02*
X35439Y33857D01*
X35108Y34471D02*
X35581Y33998D01*
X35250Y34612D02*
X35722Y34140D01*
X33486Y33344D02*
X36417Y36275D01*
X33061Y33344D02*
X36417Y36700D01*
X33733Y33096D02*
X36665Y36027D01*
X33344Y33344D02*
X36417Y36417D01*
X33411Y34825D02*
X35236Y36650D01*
X33128Y34825D02*
X35100Y36797D01*
X33795Y34578D02*
X35484Y36266D01*
X33547Y34825D02*
X35236Y36514D01*
X35391Y34754D02*
X35864Y34281D01*
X35533Y34895D02*
X36005Y34423D01*
X35674Y35037D02*
X36147Y34564D01*
X35816Y35178D02*
X36288Y34706D01*
X34540Y35322D02*
X35002Y34860D01*
X34681Y35464D02*
X35144Y35001D01*
X35957Y35319D02*
X36429Y34847D01*
X36098Y35461D02*
X36571Y34988D01*
X33021Y36275D02*
X34009Y35287D01*
X33587Y36275D02*
X34292Y35570D01*
X33304Y36275D02*
X34151Y35428D01*
X33015Y36676D02*
X33809D01*
X33469D02*
X33540Y36605D01*
X33737Y36275D02*
X33902D01*
X33737D02*
X33902D01*
X33870D02*
X34434Y35711D01*
X34028Y36400D02*
X34575Y35853D01*
X34823Y35605D02*
X35285Y35143D01*
X34964Y35747D02*
X35427Y35284D01*
X33902Y36275D02*
X33985Y36358D01*
X33902Y36275D02*
X33985Y36358D01*
X35484Y36266D02*
X35566Y36349D01*
X34169Y36542D02*
X34717Y35994D01*
X33211Y36605D02*
X33282Y36676D01*
X33186D02*
X33257Y36605D01*
X33737D02*
X33809Y36676D01*
X33494Y36605D02*
X33565Y36676D01*
X33752D02*
X33780Y36648D01*
X33015Y36676D02*
Y36902D01*
X33809Y36676D02*
X33835Y36703D01*
Y36875D02*
X33922Y36789D01*
X34311Y36683D02*
X34858Y36136D01*
X33985Y36358D02*
X34653Y37025D01*
X34452Y36824D02*
X34999Y36277D01*
X34593Y36966D02*
X35141Y36418D01*
X34991Y36797D02*
X35236D01*
X34991Y36851D02*
X35045Y36797D01*
X35236Y36514D02*
Y36797D01*
X35045D02*
X35236Y36606D01*
X35106Y35888D02*
X35568Y35426D01*
X36240Y35602D02*
X36712Y35130D01*
X36381Y35744D02*
X36854Y35271D01*
X35247Y36029D02*
X35709Y35567D01*
X35484Y36266D02*
X35566Y36349D01*
X35388Y36171D02*
X35851Y35708D01*
X35530Y36312D02*
X35992Y35850D01*
X36523Y35885D02*
X36995Y35413D01*
X36664Y36027D02*
X37137Y35554D01*
X36747Y36226D02*
X37278Y35695D01*
X36747Y36509D02*
X37419Y35837D01*
X36747Y36110D02*
Y36275D01*
Y36110D02*
Y36275D01*
X36665Y36027D02*
X36747Y36110D01*
X36665Y36027D02*
X36747Y36110D01*
X35566Y36349D02*
Y36514D01*
Y36349D02*
Y36514D01*
Y36559D02*
X36134Y35991D01*
X35611Y36797D02*
X36275Y36133D01*
X35566Y36698D02*
X35666Y36797D01*
X35566Y36514D02*
Y36797D01*
X35812D01*
X35566Y36415D02*
X36172Y37021D01*
X36417Y36275D02*
Y36817D01*
X35812Y36879D02*
X36417Y36274D01*
X36747Y36182D02*
X37382Y36817D01*
X36747Y36275D02*
Y36817D01*
Y36747D02*
X36817Y36817D01*
X36172D02*
X36417D01*
X36747D02*
X36993D01*
X36747Y36465D02*
X37373Y37090D01*
X31623Y37108D02*
X31769Y36961D01*
X31513Y36887D02*
X31769Y37143D01*
Y36573D02*
Y37248D01*
X31530Y37496D02*
X31557Y37523D01*
X31491D02*
X31530Y37484D01*
X31513Y36998D02*
X31763Y37248D01*
X31530Y37482D02*
X31571Y37523D01*
X32282Y37578D02*
X32365Y37496D01*
X32282Y37578D02*
X32365Y37496D01*
X32629Y37232D01*
X32385Y37476D02*
X32604Y37695D01*
X31887Y37578D02*
X32117D01*
X31887Y37693D02*
X32001Y37578D01*
X32117D02*
X32282D01*
X32117D02*
X32282D01*
X32204D02*
X32424Y37798D01*
X31922Y37578D02*
X32395Y38052D01*
X31887Y37976D02*
X32630Y37232D01*
X31887Y38258D02*
X32913Y37232D01*
X31887Y37578D02*
Y38324D01*
Y38109D02*
X32112Y38335D01*
X31887Y37826D02*
X32395Y38335D01*
X32093D02*
X32395Y38033D01*
X32527Y37695D02*
X32792D01*
X32395Y37827D02*
X32527Y37695D01*
X32733D02*
X33015Y37413D01*
X32526Y37334D02*
X32987Y37795D01*
X32395Y37827D02*
Y38093D01*
X32527Y38225D01*
X32792Y37695D02*
X32892Y37795D01*
X32792Y38225D02*
X32892Y38125D01*
X32629Y37232D02*
X33015D01*
X32808Y35070D02*
X34991Y37254D01*
X32706Y37232D02*
X33015Y37540D01*
X32989Y37232D02*
X33015Y37258D01*
Y37232D02*
Y37458D01*
X33835D01*
X33015Y37464D02*
X33835D01*
Y37158D02*
X34063Y36931D01*
X33835Y36703D02*
Y37458D01*
Y36703D02*
X34405Y37273D01*
X33835Y36947D02*
X34292Y37403D01*
X33835Y37441D02*
X34204Y37072D01*
X33787Y37464D02*
X33835Y37512D01*
Y37230D02*
X34280Y37674D01*
X33835Y37724D02*
X34346Y37213D01*
X32916Y37795D02*
X33015Y37696D01*
Y37464D02*
Y37795D01*
X32892D02*
X33015D01*
X33835Y37512D02*
X34123Y37800D01*
X32892Y38125D02*
X33015D01*
Y38245D01*
X33835Y37795D02*
X33913Y37873D01*
X33713Y38598D02*
X34161Y38150D01*
X33898Y37887D02*
X33986Y37800D01*
X33835Y37464D02*
Y37950D01*
X34042Y37800D02*
X34280Y37562D01*
X33898Y37887D02*
X33986Y37800D01*
X34161D01*
X33835Y37950D02*
X33898Y37887D01*
X34161Y37800D02*
X34375D01*
X33986D02*
X34161D01*
X31681Y39035D02*
X31759Y39113D01*
X31821Y38324D02*
X31887Y38258D01*
X31501Y38324D02*
X31887D01*
X31807Y39065D02*
X31967D01*
X31929D02*
X31959Y39035D01*
X31967Y39065D02*
X31997Y39035D01*
X31807Y39065D02*
X31967D01*
X32568Y38225D02*
X32678Y38335D01*
X32376D02*
X32507Y38204D01*
X32527Y38225D02*
X32792D01*
X32822Y38196D02*
X32961Y38335D01*
X32453Y39106D02*
X32524Y39035D01*
X32383D02*
X32455Y39107D01*
X32941Y38335D02*
X33031Y38245D01*
X32659Y38335D02*
X32769Y38225D01*
X31725Y39148D02*
X31807Y39065D01*
X31536Y39175D02*
X31676Y39035D01*
X31725Y39148D02*
X31807Y39065D01*
X32455Y39107D02*
Y39355D01*
X31697Y39175D02*
X31725Y39148D01*
X31613Y39946D02*
X31874Y39685D01*
X32048D02*
X32169Y39806D01*
X31765Y39685D02*
X32140Y40060D01*
X32530Y39035D02*
X32850Y39355D01*
X32487D02*
X32807Y39035D01*
X32812D02*
X33132Y39355D01*
X32770D02*
X33090Y39035D01*
X32455Y39243D02*
X32567Y39355D01*
X32720Y39971D02*
X33006Y39685D01*
X32897D02*
X33037Y39825D01*
X32798Y40065D02*
X33177Y39685D01*
X33154Y38245D02*
X33244Y38335D01*
X33015Y38245D02*
X33541D01*
X33224Y38335D02*
X33314Y38245D01*
X33437D02*
X33489Y38297D01*
X31489Y38335D02*
X33451D01*
X33541Y38245D01*
X33451Y38685D02*
X33626D01*
X33986Y38705D02*
X34541Y38150D01*
X34034Y38277D02*
X34462Y38705D01*
X34161Y38150D02*
X34991D01*
X34190D02*
X34745Y38705D01*
X33626Y38685D02*
X33713Y38598D01*
X33451Y38685D02*
X33626D01*
X33713Y38598D01*
X33751Y38560D02*
X33897Y38705D01*
X33618Y39355D02*
X33938Y39035D01*
X33378D02*
X33698Y39355D01*
X33703Y38705D02*
X34258Y38150D01*
X33661Y39035D02*
X33981Y39355D01*
X33095Y39035D02*
X33415Y39355D01*
X33053D02*
X33373Y39035D01*
X32455Y39355D02*
X34111D01*
X33336D02*
X33656Y39035D01*
X33893Y38418D02*
X34180Y38705D01*
X33901Y39355D02*
X34221Y39035D01*
X34210Y39329D02*
X34504Y39035D01*
X33944D02*
X34238Y39329D01*
X34111Y39355D02*
X34137Y39329D01*
X34111Y39355D02*
X34137Y39329D01*
X34302D01*
X34137D02*
X34302D01*
X34653Y37025D02*
X34735Y37108D01*
X34735Y37107D02*
X34991Y36851D01*
X34653Y37025D02*
X34735Y37108D01*
X34280Y37415D02*
X34405Y37290D01*
X34735Y37108D02*
Y37273D01*
Y37108D02*
Y37273D01*
X34785Y37340D02*
X34991Y37134D01*
X34735Y37281D02*
X34991Y37537D01*
X35812Y36797D02*
Y37578D01*
X34735Y37290D02*
X34860Y37415D01*
Y37548D02*
X34991Y37417D01*
Y37578D02*
X35812D01*
X34991Y37537D02*
X35033Y37578D01*
X34860Y37415D02*
Y37705D01*
X34280Y37415D02*
Y37705D01*
X34891Y37800D02*
X34991Y37700D01*
X34860Y37688D02*
X34972Y37800D01*
X34280Y37705D02*
X34375Y37800D01*
X34325D02*
X34350Y37775D01*
X34765Y37800D02*
X34991D01*
X34765D02*
X34860Y37705D01*
X34991Y36797D02*
Y37578D01*
X36172Y36817D02*
Y37598D01*
X35812Y37728D02*
X36172Y37367D01*
X35812Y37509D02*
X36172Y37869D01*
X34991Y37584D02*
X35812D01*
X34991D02*
Y37800D01*
X35812Y37584D02*
Y38366D01*
X36172Y37604D02*
Y38385D01*
X35812Y37445D02*
X36172Y37084D01*
X35812Y37162D02*
X36417Y36556D01*
X35812Y36943D02*
X36172Y37303D01*
X35812Y37226D02*
X36172Y37586D01*
Y37650D02*
X36218Y37604D01*
X36172Y37598D02*
X36993D01*
X36172Y37604D02*
X36993D01*
X37373Y36817D02*
Y37598D01*
X36993Y36817D02*
Y37598D01*
Y36993D02*
X37373Y37373D01*
X36993Y37395D02*
X37373Y37015D01*
X36993Y37692D02*
X37052D01*
X36993Y37604D02*
Y37692D01*
Y37275D02*
X37373Y37656D01*
X36993Y37678D02*
X37373Y37298D01*
X35812Y37791D02*
X36172Y38152D01*
X35812Y38293D02*
X36172Y37933D01*
X36993Y37558D02*
X37127Y37692D01*
X35812Y38010D02*
X36172Y37650D01*
X36993Y38072D02*
Y38385D01*
X35812Y38074D02*
X36442Y38705D01*
X36993Y38072D02*
X37052D01*
X36993Y38124D02*
X37143Y38274D01*
X37052Y37692D02*
X37242D01*
X37052D02*
X37242D01*
X37251Y37702D02*
X37373Y37580D01*
Y37604D02*
Y37823D01*
X37242Y37692D02*
X37337Y37787D01*
X37052Y38072D02*
X37143Y38163D01*
X37242Y37692D02*
X37337Y37787D01*
X37373Y37823D01*
X34268Y38705D02*
X34823Y38150D01*
X34756D02*
X35311Y38705D01*
X34473Y38150D02*
X35028Y38705D01*
X34551D02*
X34991Y38265D01*
X34776Y39329D02*
X35070Y39035D01*
X34834Y38705D02*
X35174Y38366D01*
X34792Y39035D02*
X35086Y39329D01*
X34991Y38150D02*
Y38366D01*
X35117Y38705D02*
X35456Y38366D01*
X34991D02*
X35812D01*
Y38357D02*
X36159Y38705D01*
X35254Y38366D02*
X35594Y38705D01*
X35150Y39329D02*
X35233D01*
X35537Y38366D02*
X35877Y38705D01*
X35400D02*
X35739Y38366D01*
X34493Y39329D02*
X34787Y39035D01*
X34227D02*
X34521Y39329D01*
X35059D02*
X35353Y39035D01*
X34510D02*
X34804Y39329D01*
X34302D02*
X35150D01*
X35233D02*
X35315Y39412D01*
X35075Y39035D02*
X35637Y39597D01*
X35287Y39383D02*
X35635Y39035D01*
X35421Y39532D02*
X35918Y39035D01*
X35641D02*
X36124Y39518D01*
X35358Y39035D02*
X35920Y39597D01*
X35267Y39377D02*
X35315Y39426D01*
X35486Y39597D01*
X36046D02*
X36133Y39509D01*
X35486Y39597D02*
X36046D01*
X36688Y38385D02*
X37008Y38705D01*
X36993Y38244D02*
X37108Y38128D01*
X36971Y38385D02*
X37291Y38705D01*
X36405Y38385D02*
X36725Y38705D01*
X36248D02*
X36568Y38385D01*
X36172D02*
X36993D01*
X36531Y38705D02*
X36851Y38385D01*
X37143Y38163D02*
Y38239D01*
Y38429D01*
Y38239D02*
Y38429D01*
X37234Y38520D01*
X37143Y38429D02*
X37234Y38520D01*
X37097Y38705D02*
X37258Y38544D01*
X37238Y38524D02*
X37329Y38615D01*
X37238Y38524D02*
X37329Y38615D01*
X35965Y38705D02*
X36285Y38385D01*
X35683Y38705D02*
X36172Y38216D01*
X36293Y39509D02*
X36767Y39035D01*
X35922Y39597D02*
X36484Y39035D01*
X35924D02*
X36398Y39509D01*
X35639Y39597D02*
X36201Y39035D01*
X36133Y39509D02*
X37095D01*
X36207Y39035D02*
X36681Y39509D01*
X36814Y38705D02*
X37143Y38376D01*
X36489Y39035D02*
X36963Y39509D01*
X37380Y38705D02*
X37469Y38615D01*
X36772Y39035D02*
X37334Y39597D01*
X36576Y39509D02*
X37050Y39035D01*
X37095Y39509D02*
X37183Y39597D01*
X36859Y39509D02*
X37333Y39035D01*
X37183Y39597D02*
X37499D01*
X35687Y33609D02*
X38768Y30528D01*
X35828Y33751D02*
X39051Y30528D01*
X35970Y33892D02*
X39334Y30528D01*
X35121Y33044D02*
X37637Y30528D01*
X35263Y33185D02*
X37920Y30528D01*
X35404Y33327D02*
X38202Y30528D01*
X35546Y33468D02*
X38485Y30528D01*
X36111Y34034D02*
X39617Y30528D01*
X36253Y34175D02*
X39899Y30528D01*
X38165D02*
X41640Y34003D01*
X36394Y34317D02*
X40182Y30528D01*
X40428D02*
X41615Y31715D01*
X40145Y30528D02*
X41615Y31998D01*
Y31582D02*
Y32018D01*
X38448Y30528D02*
X41640Y33720D01*
X34488Y30528D02*
X40771Y36811D01*
X34205Y30528D02*
X40488Y36811D01*
X35054Y30528D02*
X41337Y36811D01*
X34771Y30528D02*
X41054Y36811D01*
X33249Y31835D02*
X37618Y36204D01*
X32966Y31835D02*
X37618Y36487D01*
X33665Y31588D02*
X37866Y35788D01*
X33417Y31835D02*
X37618Y36036D01*
X36536Y34458D02*
X40465Y30528D01*
X36677Y34599D02*
X40748Y30528D01*
X36818Y34741D02*
X41031Y30528D01*
X35337D02*
X41620Y36811D01*
X36960Y34882D02*
X41314Y30528D01*
X37101Y35024D02*
X41597Y30528D01*
X37667Y35589D02*
X41615Y31642D01*
X37808Y35731D02*
X41615Y31924D01*
X40711Y30528D02*
X41690Y31507D01*
X40994Y30528D02*
X41831Y31366D01*
X39862Y30528D02*
X41784Y32450D01*
X41615Y31582D02*
X41832Y31365D01*
X41615Y31998D02*
X41852Y32235D01*
X41276Y30528D02*
X42113Y31365D01*
X41559Y30528D02*
X42640Y31609D01*
X41832Y31365D02*
X42268D01*
X41842Y30528D02*
X42703Y31390D01*
X41892Y31365D02*
X42728Y30528D01*
X42125D02*
X42986Y31390D01*
X37317Y30528D02*
X41640Y34851D01*
X37243Y35165D02*
X41879Y30528D01*
X37034D02*
X41885Y35380D01*
X36751Y30528D02*
X41885Y35662D01*
X36468Y30528D02*
X41885Y35945D01*
X36185Y30528D02*
X41885Y36228D01*
X35902Y30528D02*
X42185Y36811D01*
X35620Y30528D02*
X41902Y36811D01*
X39579Y30528D02*
X41643Y32592D01*
X39297Y30528D02*
X41640Y32872D01*
X39014Y30528D02*
X41875Y33390D01*
X38731Y30528D02*
X41719Y33516D01*
X37882Y30528D02*
X41794Y34440D01*
X37599Y30528D02*
X41653Y34582D01*
X37384Y35307D02*
X42162Y30528D01*
X37525Y35448D02*
X42445Y30528D01*
X37948Y35874D02*
X41710Y32112D01*
X41615Y32018D02*
X41832Y32235D01*
X41640Y33005D02*
X41845Y33210D01*
X37866Y35788D02*
X37948Y35871D01*
X37866Y35788D02*
X37948Y35871D01*
X41640Y33595D02*
X41845Y33390D01*
X41640Y33596D02*
X41846Y33390D01*
X41640Y32595D02*
Y33005D01*
Y33595D02*
Y34005D01*
Y32595D02*
X41845Y32390D01*
X41640Y34003D02*
X41847Y34210D01*
X41640Y34005D02*
X41845Y34210D01*
X41640Y34595D02*
Y35005D01*
Y34595D02*
X41845Y34390D01*
X41640Y35005D02*
X41845Y35210D01*
X32924Y32076D02*
X37618Y36770D01*
X36747Y36792D02*
X37561Y35978D01*
X37948Y35871D02*
Y36036D01*
Y36439D02*
X41640Y32748D01*
X37571Y36817D02*
X37618Y36769D01*
X37373Y36817D02*
X37618D01*
Y36036D02*
Y36817D01*
X36993Y36829D02*
X37618Y36204D01*
X37948Y35871D02*
Y36036D01*
Y36722D02*
X41653Y33018D01*
X38137Y36817D02*
X41794Y33159D01*
X38947Y36855D02*
X41718Y34084D01*
X37948Y36817D02*
X38193D01*
X37948Y36036D02*
Y36817D01*
X40361Y36811D02*
X40526D01*
X40361D02*
X40526D01*
X41845Y33210D02*
X42255D01*
X41832Y32235D02*
X42268D01*
X41845Y32390D02*
X42255D01*
X41845Y33390D02*
X42255D01*
X41846D02*
X42026Y33210D01*
X41845Y34210D02*
X42255D01*
X41845Y34390D02*
X42255D01*
X41998Y32390D02*
X42152Y32235D01*
X41852D02*
X42006Y32390D01*
X42135Y32235D02*
X42640Y32740D01*
X42129Y33390D02*
X42640Y32879D01*
X41978Y34390D02*
X42157Y34210D01*
X41847D02*
X42027Y34390D01*
X41978Y33210D02*
X42158Y33390D01*
X42130Y34210D02*
X42640Y34720D01*
X37948Y36157D02*
X41870Y32235D01*
X40405Y36811D02*
X41885Y35331D01*
X40688Y36811D02*
X41885Y35614D01*
X40970Y36811D02*
X41885Y35897D01*
X41536Y36811D02*
X41986Y36361D01*
X41253Y36811D02*
X41885Y36180D01*
X40526Y36811D02*
X42437D01*
X41819D02*
X42128Y36502D01*
X41885Y36095D02*
Y36260D01*
Y36095D02*
Y36260D01*
X41845Y35210D02*
X41885D01*
Y36095D01*
Y36260D02*
X41968Y36342D01*
X41885Y36260D02*
X41968Y36342D01*
X42437Y36811D01*
X42102D02*
X42269Y36644D01*
X42485Y31582D02*
Y32018D01*
X42174Y31365D02*
X43011Y30528D01*
X42268Y31365D02*
X42485Y31582D01*
Y31902D02*
X42640Y31748D01*
X42268Y32235D02*
X42485Y32018D01*
X42484Y32019D02*
X42640Y32175D01*
X42268Y32403D02*
X42640Y32031D01*
X42485Y31620D02*
X42640Y31465D01*
Y31390D02*
Y32210D01*
X42485Y31737D02*
X42640Y31892D01*
Y32175D02*
X42675Y32210D01*
X42846Y32390D02*
X43026Y32210D01*
X42675D02*
X42855Y32390D01*
X42845D02*
X43255D01*
X42958Y32210D02*
X43138Y32390D01*
X42255D02*
X42460Y32595D01*
Y32776D02*
X42640Y32596D01*
X42343Y32160D02*
X42708Y32526D01*
X42409Y32544D02*
X42743Y32210D01*
X42255Y33210D02*
X42460Y33005D01*
X42258Y33207D02*
X42643Y33592D01*
X42400Y33066D02*
X42784Y33450D01*
X42334Y33468D02*
X42718Y33084D01*
X42640Y32595D02*
Y33005D01*
X42460Y32595D02*
Y33005D01*
X42640Y32595D02*
X42845Y32390D01*
X42640Y32596D02*
X42846Y32390D01*
X42640Y33005D02*
X42845Y33210D01*
X42460Y33624D02*
X42874Y33210D01*
X42978Y33390D02*
X43157Y33210D01*
X42460Y32844D02*
X43006Y33390D01*
X42408Y30528D02*
X43269Y31390D01*
X42362Y31460D02*
X43294Y30528D01*
X42691D02*
X43842Y31679D01*
X42640Y31390D02*
X43460D01*
X42640Y32210D02*
X43460D01*
X42715Y31390D02*
X43576Y30528D01*
X42973D02*
X43842Y31397D01*
X42998Y31390D02*
X43842Y30546D01*
X43281Y31390D02*
X43842Y30829D01*
X43539Y30528D02*
X43842Y30831D01*
X43256Y30528D02*
X43842Y31114D01*
X43460Y31581D02*
X43842Y31962D01*
X43460Y32059D02*
X43842Y31677D01*
X43460Y31493D02*
X43842Y31112D01*
X43460Y31776D02*
X43842Y31394D01*
X43129Y32390D02*
X43309Y32210D01*
X43255Y32390D02*
X43460Y32595D01*
X43334Y32468D02*
X43842Y31960D01*
X43241Y32210D02*
X43842Y32811D01*
X43255Y33210D02*
X43460Y33005D01*
X43258Y33392D02*
X43842Y32809D01*
X43399Y33534D02*
X43842Y33092D01*
X43324Y33142D02*
X43842Y33659D01*
X43460Y31390D02*
Y32210D01*
Y31864D02*
X43842Y32245D01*
X43460Y32147D02*
X43842Y32528D01*
X43460Y32624D02*
X43842Y32243D01*
X43460Y32907D02*
X43842Y32526D01*
X43460Y32595D02*
Y33005D01*
Y32712D02*
X43842Y33094D01*
X43460Y32995D02*
X43842Y33376D01*
X42255Y34210D02*
X42460Y34005D01*
X42255Y33390D02*
X42460Y33595D01*
Y34005D01*
X42258Y34392D02*
X42642Y34008D01*
X42255Y34390D02*
X42460Y34595D01*
X42334Y34131D02*
X42719Y34516D01*
X42399Y34534D02*
X42784Y34149D01*
X42460Y33692D02*
X42640Y33872D01*
X42460Y33907D02*
X42640Y33728D01*
Y33595D02*
X42845Y33390D01*
X42640Y33595D02*
Y34005D01*
X42845Y34210D01*
X42460Y33975D02*
X42875Y34390D01*
X42845D02*
X43255D01*
X42978Y34210D02*
X43158Y34390D01*
X42255Y35210D02*
X42460Y35005D01*
X42215Y35210D02*
X42255D01*
X42215Y35284D02*
X42640Y34859D01*
X42215Y35567D02*
X42708Y35074D01*
X42215Y35850D02*
X42854Y35210D01*
X42215D02*
Y36095D01*
X42234Y36114D02*
X43137Y35210D01*
X42215Y36095D02*
X42932Y36811D01*
X42640Y34595D02*
Y35005D01*
X42460Y34595D02*
Y35005D01*
X42640Y34595D02*
X42845Y34390D01*
X42460Y34756D02*
X43006Y34210D01*
X42460Y34824D02*
X42640Y35003D01*
X42385Y36811D02*
X42411Y36785D01*
X42640Y35003D02*
X42847Y35210D01*
X42640Y35005D02*
X42845Y35210D01*
Y33210D02*
X43255D01*
Y33390D02*
X43460Y33595D01*
X43110Y33210D02*
X43842Y33942D01*
X42845Y33390D02*
X43255D01*
X42845Y34210D02*
X43255D01*
X43460Y34005D01*
X43109Y34390D02*
X43842Y33657D01*
X43460Y33756D02*
X43842Y33374D01*
X43460Y33595D02*
Y34005D01*
Y33844D02*
X43842Y34225D01*
X43324Y34458D02*
X43842Y33940D01*
X43255Y34390D02*
X43460Y34595D01*
Y34604D02*
X43842Y34223D01*
X43400Y34066D02*
X43842Y34508D01*
X43258Y34207D02*
X43842Y34791D01*
X42517Y36396D02*
X43842Y35071D01*
X42268Y35197D02*
X43842Y36771D01*
X42375Y36255D02*
X43842Y34789D01*
X42410Y35056D02*
X43842Y36488D01*
X42845Y35210D02*
X43255D01*
X42847D02*
X43842Y36205D01*
X42658Y36538D02*
X43842Y35354D01*
X42800Y36679D02*
X43842Y35637D01*
X43460Y34887D02*
X43842Y34506D01*
X43460Y34595D02*
Y35005D01*
Y34692D02*
X43842Y35074D01*
X43460Y34975D02*
X43842Y35356D01*
X43255Y35210D02*
X43460Y35005D01*
X43334Y35131D02*
X43842Y35639D01*
X43130Y35210D02*
X43842Y35922D01*
X42941Y36821D02*
X43842Y35920D01*
X36993Y37112D02*
X37618Y36487D01*
X37948Y35968D02*
X38835Y36855D01*
X37948Y36251D02*
X38620Y36923D01*
X38193Y37062D02*
X38404Y37273D01*
X38193Y37345D02*
X38263Y37414D01*
X37948Y36534D02*
X38546Y37132D01*
X38193Y37484D02*
X38555Y37122D01*
Y36988D02*
X38688Y36855D01*
X38555Y36988D02*
Y37122D01*
X38688Y36855D02*
X38953D01*
X39085Y36988D01*
X38818Y37385D02*
X38885D01*
X38808Y37394D02*
X38885Y37471D01*
X39085Y37105D02*
X39225Y37245D01*
X39085Y36988D02*
Y37245D01*
X38193Y36817D02*
Y37484D01*
Y38009D02*
X38818Y37385D01*
X38193Y38174D02*
X38885Y37483D01*
X38193Y38182D02*
X38885Y37490D01*
X37373Y37598D02*
X38080D01*
X37373Y37604D02*
X38073D01*
X38384Y37818D02*
X38470Y37905D01*
X38425Y38520D02*
X39170Y37775D01*
X38667Y37536D02*
X38753Y37622D01*
X38526Y37677D02*
X38612Y37763D01*
X38885Y37385D02*
Y37490D01*
X39038Y37907D02*
X39077Y37945D01*
X38955Y38028D02*
X39037Y37945D01*
X38955Y38028D02*
X39037Y37945D01*
X39202D01*
X39037D02*
X39202D01*
X33357Y30528D02*
X40000Y37172D01*
X33923Y30528D02*
X40283Y36889D01*
X33640Y30528D02*
X40142Y37031D01*
X39085Y37245D02*
X39283D01*
X38193Y37326D02*
X41640Y33879D01*
X39085Y37000D02*
X41874Y34210D01*
X38193Y37043D02*
X41640Y33596D01*
X40026Y37147D02*
X40279Y36894D01*
X39943Y37229D02*
X40026Y37147D01*
X39123Y37245D02*
X41640Y34728D01*
X39344Y37306D02*
X41642Y35008D01*
X39283Y37245D02*
X39415Y37378D01*
X39943Y37229D02*
Y37394D01*
Y37229D02*
X40026Y37147D01*
X39943Y37229D02*
Y37394D01*
X39283Y37775D02*
X39415Y37643D01*
X39271Y37945D02*
X39708Y37508D01*
X33074Y30528D02*
X39943Y37398D01*
X32791Y30528D02*
X39766Y37503D01*
X39170Y37775D02*
X39283D01*
X39189D02*
X39359Y37945D01*
X39202D02*
X39708D01*
X39377Y37680D02*
X39642Y37945D01*
X39713Y37503D02*
X39943Y37273D01*
X39415Y37378D02*
Y37643D01*
X39943Y37394D02*
Y37503D01*
X39415Y37518D02*
X41784Y35149D01*
X39415Y37435D02*
X39708Y37728D01*
Y37503D02*
Y37945D01*
Y37503D02*
X39943D01*
X39554Y37945D02*
X39708Y37791D01*
X37663Y38705D02*
X37752Y38615D01*
X37945Y38705D02*
X38035Y38615D01*
X37767D02*
X37856Y38705D01*
X37329Y38615D02*
X37519D01*
X37329D02*
X37519D01*
X38140D01*
X37484D02*
X37574Y38705D01*
X38243Y37960D02*
X38329Y38046D01*
X38193Y38009D02*
Y38182D01*
X38330Y38615D02*
X38425Y38520D01*
X38330Y38615D02*
X38425Y38520D01*
X38228Y38705D02*
X38318Y38615D01*
X38050D02*
X38139Y38705D01*
X38140Y38615D02*
X38330D01*
X38140D02*
X38330D01*
X37118Y39532D02*
X37615Y39035D01*
X37055D02*
X37617Y39597D01*
X32383Y39035D02*
X38277D01*
X37336Y39597D02*
X37898Y39035D01*
X37499Y39597D02*
X37664D01*
X37499D02*
X37664D01*
X37619D02*
X38181Y39035D01*
X37338D02*
X38389Y40086D01*
X38277Y39035D02*
X38442D01*
X37621D02*
X38471Y39885D01*
X38442Y39035D02*
X38525Y38953D01*
X38442Y39035D02*
X38525Y38953D01*
X37664Y39597D02*
X37747Y39679D01*
X37664Y39597D02*
X37747Y39679D01*
X38277Y39035D02*
X38442D01*
X37747Y39679D02*
X38242Y40175D01*
X38277Y38705D02*
X38955Y38028D01*
X37783Y39716D02*
X39224Y38275D01*
X37925Y39857D02*
X39507Y38275D01*
X38186Y39035D02*
X39036Y39885D01*
X37904Y39035D02*
X38754Y39885D01*
X38462D02*
X40072Y38275D01*
X38456Y39022D02*
X39319Y39885D01*
X38525Y38953D02*
X39202Y38275D01*
X38745Y39885D02*
X40355Y38275D01*
X39202D02*
X40633D01*
X39028Y39885D02*
X40633Y38280D01*
X38739Y38739D02*
X39885Y39885D01*
X38597Y38880D02*
X39602Y39885D01*
X39594D02*
X41135Y38343D01*
X39311Y39885D02*
X40853Y38343D01*
X38066Y39999D02*
X39789Y38275D01*
X39163Y38314D02*
X41363Y40514D01*
X39689Y38275D02*
X41646Y40232D01*
X39407Y38275D02*
X41504Y40373D01*
X39022Y38456D02*
X41184Y40618D01*
X38880Y38597D02*
X41135Y40852D01*
X39877Y39885D02*
X41418Y38343D01*
X39768Y41125D02*
X42333Y38560D01*
X39958Y40087D02*
X41734Y38310D01*
X39972Y38275D02*
X41915Y40218D01*
X40255Y38275D02*
X42109Y40129D01*
X39958Y40370D02*
X41993Y38334D01*
X39958Y40653D02*
X42090Y38520D01*
X39958Y41501D02*
X42335Y39124D01*
X39958Y41218D02*
X42616Y38560D01*
X40068Y41673D02*
X42335Y39407D01*
X40279Y36894D02*
X40361Y36811D01*
X40279Y36894D02*
X40361Y36811D01*
X40273Y37394D02*
X40526Y37141D01*
X40273Y37445D02*
X40332Y37503D01*
X40273Y37394D02*
Y37503D01*
X40279D02*
X40633Y37149D01*
X40273Y37503D02*
X40509D01*
X40526Y37141D02*
X40633D01*
X40535D02*
X40633Y37239D01*
X41434Y37141D02*
X41561D01*
X41434Y37196D02*
X41489Y37141D01*
X41495Y37208D02*
Y37473D01*
X41434Y37479D02*
X41495Y37418D01*
Y37208D02*
X41561Y37141D01*
X41434Y37191D02*
X41495Y37252D01*
X40509Y37556D02*
X40633Y37432D01*
X40509Y37503D02*
Y37945D01*
X40389Y37278D02*
X40633Y37522D01*
Y37141D02*
Y37595D01*
X40509Y37839D02*
X40752Y37595D01*
X40707D02*
X40988Y37877D01*
X40633Y37595D02*
X41019D01*
X40753Y37877D02*
X41027Y37603D01*
X41434Y37141D02*
Y37515D01*
X41557Y37639D02*
X41609Y37587D01*
X41495Y37473D02*
X41627Y37605D01*
X41434Y37515D02*
X41923Y38004D01*
X41019Y37595D02*
X41301Y37877D01*
X40989Y37595D02*
X41271Y37877D01*
X41627Y37605D02*
X41892D01*
X41699Y37780D02*
X41874Y37605D01*
X41959Y37141D02*
X42090D01*
X42932Y36811D02*
X43014Y36894D01*
X42215Y35427D02*
X43842Y37053D01*
X42021Y37175D02*
X42055Y37141D01*
X41959D02*
X41993Y37175D01*
X42090Y37141D02*
Y37175D01*
X41993D02*
X42090D01*
X42932Y36811D02*
X43014Y36894D01*
X43365Y37245D02*
X43842Y36768D01*
X43082Y36962D02*
X43842Y36203D01*
X43224Y37104D02*
X43842Y36486D01*
X42932Y36811D02*
X43014Y36894D01*
X43352Y37232D01*
X43435Y37315D01*
X43352Y37232D02*
X43435Y37315D01*
X41892Y37605D02*
X41993Y37505D01*
X41434Y37474D02*
X41964Y38004D01*
X42215Y35710D02*
X43842Y37336D01*
X42215Y35992D02*
X43842Y37619D01*
X42031Y37505D02*
X42090Y37564D01*
X41848Y37605D02*
X42090Y37847D01*
X41993Y37505D02*
X42090D01*
Y37772D01*
X43435Y37315D02*
Y37480D01*
Y37315D02*
Y37480D01*
Y37458D02*
X43842Y37051D01*
Y30528D02*
Y48999D01*
X43435Y37741D02*
X43842Y37334D01*
X43435Y37480D02*
Y40375D01*
Y37495D02*
X43842Y37902D01*
X43435Y38024D02*
X43842Y37617D01*
X40509Y37680D02*
X40706Y37877D01*
X40633D02*
X41301D01*
X41036D02*
X41168Y37745D01*
X40633Y37877D02*
Y37945D01*
X40509D02*
X40633D01*
X41434Y38010D02*
X41676Y38252D01*
X41434Y38328D02*
X41593Y38169D01*
X42040Y38004D02*
X42090Y37955D01*
X41923Y38004D02*
X42090D01*
X41840Y37921D02*
X42090Y37672D01*
Y37779D02*
Y38004D01*
X41758Y38334D02*
X41923D01*
X41676Y38252D02*
X41758Y38334D01*
X41923D02*
X42090D01*
X41758D02*
X41923D01*
X41434Y38010D02*
Y38343D01*
X40633Y38275D02*
Y38343D01*
X41434Y38040D02*
X42335Y38941D01*
X40538Y38275D02*
X42325Y40062D01*
X40633Y38343D02*
X41434D01*
Y38323D02*
X42335Y39224D01*
X41172Y38343D02*
X42335Y39507D01*
X40889Y38343D02*
X42335Y39789D01*
X41676Y38252D02*
X41758Y38334D01*
X42011D02*
X42090Y38413D01*
Y38334D02*
Y38560D01*
X42335Y38918D02*
X42417Y38835D01*
X42335Y38918D02*
Y39083D01*
Y40062D01*
Y38918D02*
X42417Y38835D01*
X42335Y38918D02*
Y39083D01*
X42090Y38560D02*
X42693D01*
X42090Y37772D02*
X42885D01*
X42090Y37779D02*
X42885D01*
X42520Y38560D02*
X42606Y38646D01*
X42237Y38560D02*
X42465Y38788D01*
X42417Y38835D02*
X42693Y38560D01*
X42665Y39083D02*
X43105Y38643D01*
X43435Y38061D02*
X43842Y38468D01*
X43435Y38589D02*
X43842Y38183D01*
X43435Y37778D02*
X43842Y38185D01*
X43435Y38307D02*
X43842Y37900D01*
X42995Y38753D02*
X43105Y38862D01*
X43435Y38627D02*
X43842Y39033D01*
X43435Y38344D02*
X43842Y38751D01*
X43435Y38872D02*
X43842Y38466D01*
X42712Y39035D02*
X43105Y39428D01*
X42665Y39083D02*
Y40062D01*
X42854Y38894D02*
X43105Y39145D01*
X42665Y39359D02*
X43105Y38919D01*
X42665Y39925D02*
X43105Y39485D01*
X42665Y39554D02*
X43105Y39994D01*
X42665Y39642D02*
X43105Y39202D01*
X42665Y39271D02*
X43105Y39711D01*
X43435Y39155D02*
X43842Y38748D01*
X43105Y38643D02*
Y40375D01*
X43435Y38909D02*
X43842Y39316D01*
X43435Y39438D02*
X43842Y39031D01*
X43435Y39475D02*
X43842Y39882D01*
X43435Y40004D02*
X43842Y39597D01*
X43435Y39192D02*
X43842Y39599D01*
X43435Y39721D02*
X43842Y39314D01*
X31502Y39835D02*
X31635Y39968D01*
X31907Y39935D02*
X32157Y39685D01*
X31635Y40017D02*
X31718Y39935D01*
X31983D01*
X31635Y39968D02*
Y40017D01*
X32086Y40039D02*
X32140Y39985D01*
X31983Y39935D02*
X32115Y40068D01*
X32285Y39690D02*
X32575D01*
X32140Y39835D02*
X32285Y39690D01*
X32646Y39761D02*
X32723Y39685D01*
X32575Y39690D02*
X32720Y39835D01*
Y40023D01*
X32115Y40068D02*
Y40332D01*
X31983Y40465D02*
X32115Y40332D01*
X32088Y40775D02*
X32532Y40330D01*
X31783Y40465D02*
X31983D01*
X31695Y40553D02*
X31783Y40465D01*
X31980D02*
X32189Y40674D01*
X31740Y40508D02*
X32047Y40815D01*
X32140Y39835D02*
Y40125D01*
X32115Y40293D02*
X32211Y40196D01*
X32140Y40125D02*
X32285Y40270D01*
X32350D02*
X32471Y40391D01*
X32115Y40317D02*
X32330Y40532D01*
X32285Y40270D02*
X32473D01*
X32515Y40312D01*
X32614Y39685D02*
X32896Y39967D01*
X33431Y39927D02*
X34079D01*
X33045Y40312D02*
X33431Y39927D01*
X32762Y40065D02*
X32798D01*
X32720Y40023D02*
X32762Y40065D01*
X32963Y40395D02*
X33045Y40312D01*
X32963Y40395D02*
X33045Y40312D01*
X34079Y39927D02*
X34164Y40012D01*
X33987Y39927D02*
X34118Y40058D01*
X35206Y40012D02*
X35313Y39905D01*
X35215Y40021D02*
X35322Y39914D01*
X34053Y40123D02*
X34164Y40012D01*
X33704Y39927D02*
X34053Y40275D01*
X35206Y40012D02*
X35317Y40123D01*
X32963Y40395D02*
X33045Y40312D01*
X32335Y41204D02*
X33612Y39927D01*
X32343Y41478D02*
X33895Y39927D01*
X32380Y41725D02*
X34129Y39976D01*
X32335Y41023D02*
X32963Y40395D01*
X32263Y42125D02*
X34053Y40335D01*
X32860Y40497D02*
X34463Y42100D01*
X32545Y42125D02*
X34161Y40509D01*
X34053Y40123D02*
Y40401D01*
X33143Y40214D02*
X34053Y41124D01*
X33426Y39931D02*
X34085Y40591D01*
X33285Y40073D02*
X34053Y40841D01*
Y40401D02*
X34164Y40512D01*
X33002Y40356D02*
X34604Y41958D01*
X35206Y40512D02*
X35275Y40443D01*
Y40581D01*
X31613Y40635D02*
X31695Y40553D01*
X31613Y40635D02*
X31695Y40553D01*
X31584Y40635D02*
X32005Y41056D01*
X31945Y41370D02*
X32005D01*
X31807Y41508D02*
X31945Y41370D01*
X32005Y40858D02*
Y41023D01*
X31748Y41508D02*
X32005Y41251D01*
Y40858D02*
Y41023D01*
Y41370D01*
Y40858D02*
X32088Y40775D01*
X32005Y40858D02*
X32088Y40775D01*
X32335Y41023D02*
Y41470D01*
X34053Y41123D02*
Y41401D01*
X32335Y41470D02*
X32380Y41515D01*
X31656Y41838D02*
X31943Y42125D01*
X31697D02*
X31908Y41913D01*
X31833Y41838D02*
X31945Y41950D01*
X32050D02*
X32225Y42125D01*
X31980D02*
X32155Y41950D01*
X31945D02*
X32235D01*
X32050D02*
X32225Y42125D01*
X32335Y41103D02*
X33357Y42125D01*
X32335Y41386D02*
X33074Y42125D01*
X32578Y40780D02*
X33923Y42125D01*
X32436Y40921D02*
X33640Y42125D01*
X32380Y41515D02*
Y41805D01*
X32235Y41950D02*
X32380Y41805D01*
Y41714D02*
X32791Y42125D01*
X32284Y41901D02*
X32508Y42125D01*
X34053Y40623D02*
Y40901D01*
Y40623D02*
X34164Y40512D01*
X34053Y40901D02*
X34164Y41012D01*
X34053Y41123D02*
X34164Y41012D01*
X34053Y41401D02*
X34192Y41540D01*
X35206Y41012D02*
X35275Y40943D01*
Y41081D01*
X35248Y40554D02*
X35275Y40527D01*
X35206Y40512D02*
X35275Y40581D01*
X34751Y41540D02*
X34887Y41675D01*
X35206Y41012D02*
X35275Y41081D01*
X34192Y41540D02*
X35023D01*
X33111Y42125D02*
X34053Y41183D01*
X32828Y42125D02*
X34053Y40900D01*
X32719Y40639D02*
X34205Y42125D01*
X33394D02*
X34086Y41433D01*
X33960Y42125D02*
X34545Y41540D01*
X33677Y42125D02*
X34262Y41540D01*
X34437Y42125D02*
X35023Y41540D01*
X34243Y42125D02*
X34828Y41540D01*
X34469D02*
X34746Y41817D01*
X35170Y41985D02*
X35265Y41890D01*
X35276Y41781D02*
X35325Y41830D01*
X35265Y41890D02*
X35670Y41485D01*
X35170Y41985D02*
Y42175D01*
Y41985D02*
Y42175D01*
X35135Y41923D02*
X35183Y41972D01*
X35170Y41985D02*
X35265Y41890D01*
X35313Y39905D02*
X35336Y39927D01*
X35418D01*
X35317Y40125D02*
X35352Y40160D01*
X35333Y40179D02*
X35357Y40155D01*
X35416Y40097D01*
X35357Y40155D02*
X35416Y40097D01*
X35422D02*
X35592Y39927D01*
X35401D02*
X35571Y40097D01*
X35418Y39927D02*
X36046D01*
X35684D02*
X35854Y40097D01*
X35416D02*
X35581D01*
X35416D02*
X35581D01*
X36046D01*
X35705D02*
X35875Y39927D01*
X35333Y40179D02*
X35357Y40155D01*
X35317Y40123D02*
Y40195D01*
X35333Y40179D02*
X35357Y40155D01*
X35605Y40480D02*
X35658Y40427D01*
X35605Y40696D02*
X35677Y40768D01*
X35605Y40427D02*
Y41287D01*
Y40427D02*
X36046D01*
X35605Y40763D02*
X35941Y40427D01*
X35619D02*
X35818Y40627D01*
X35778Y40667D02*
X35873Y40572D01*
X35901Y40427D02*
X36040Y40565D01*
X35778Y40667D02*
X35873Y40572D01*
X35670Y40775D02*
X35765Y40680D01*
X35670Y40775D02*
X35765Y40680D01*
X35873Y40572D02*
X36033D01*
X35873D02*
X36033D01*
X35967Y39927D02*
X36091Y40051D01*
X37098Y40012D02*
X37183Y39927D01*
X36046D02*
X36131Y40012D01*
X36046Y40097D02*
X36131Y40012D01*
X35988Y40097D02*
X36102Y39983D01*
X37141Y39969D02*
X37268Y40097D01*
X37098Y40012D02*
X37183Y40097D01*
X37151Y40065D02*
X37289Y39927D01*
X37183Y40097D02*
X37379D01*
X37183Y39927D02*
X37499D01*
X37402Y40097D02*
X37536Y39963D01*
X37379Y40097D02*
X37544D01*
X37379D02*
X37544D01*
X37615Y40167D02*
X37677Y40105D01*
X37544Y40097D02*
X37627Y40179D01*
X37116Y40493D02*
X37183Y40427D01*
X36046D02*
X36112Y40493D01*
X37183Y40427D02*
X37379D01*
X37203Y40579D02*
X37355Y40427D01*
X36033Y40572D02*
X36112Y40493D01*
X37116D02*
X37246Y40623D01*
Y40901D01*
Y40640D02*
X37905Y41299D01*
X37544Y40097D02*
X37627Y40179D01*
X37756Y40309D02*
X37819Y40246D01*
X37499Y39927D02*
X37995Y40423D01*
X37897Y40450D02*
X37960Y40387D01*
X37246Y40818D02*
X37509Y40556D01*
X37251Y41097D02*
X37650Y40697D01*
X37379Y40427D02*
X37905Y40953D01*
X37316Y40427D02*
X37905Y41016D01*
X35605Y41045D02*
X35670Y40980D01*
Y40775D02*
Y40965D01*
X35605Y40979D02*
X35670Y41044D01*
X35605Y41287D02*
Y41452D01*
Y41287D02*
Y41452D01*
Y41262D02*
X35670Y41327D01*
X35605Y41328D02*
X35670Y41263D01*
Y40775D02*
Y40965D01*
Y41485D01*
X36050Y40969D02*
X36112Y41031D01*
X36050Y40969D02*
Y41092D01*
X36112Y41031D01*
X36050Y41431D02*
Y41485D01*
X36133Y41515D02*
X37095D01*
X36050Y41431D02*
X36133Y41515D01*
X35522Y41535D02*
X35605Y41452D01*
X35417Y41640D02*
X35466Y41689D01*
X35522Y41535D02*
X35605Y41452D01*
X35559Y41499D02*
X35608Y41547D01*
X35955Y41770D02*
X36050Y41675D01*
X35550Y42175D02*
X35955Y41770D01*
X36050Y41675D01*
X36034Y41691D02*
X36485Y42142D01*
X36050Y41485D02*
Y41675D01*
Y41485D02*
Y41675D01*
X36423Y41515D02*
X37024Y42115D01*
X36141Y41515D02*
X36741Y42115D01*
X36405Y42222D02*
X36512Y42115D01*
X36405Y42222D02*
X36512Y42115D01*
X36727D01*
X36512D02*
X36727D01*
X37116Y41031D02*
X37246Y40901D01*
X37235Y40912D02*
X37420Y41097D01*
X37183D02*
X37354D01*
X37116Y41031D02*
X37183Y41097D01*
X37354D02*
X37519D01*
X37183Y41427D02*
X37354D01*
X37526Y41104D02*
X37791Y40839D01*
X37519Y41097D02*
X37601Y41179D01*
X37668Y41246D02*
X37905Y41008D01*
Y40953D02*
Y41378D01*
X37354Y41097D02*
X37519D01*
X37601Y41179D01*
X37809Y41387D02*
X37905Y41291D01*
X37601Y41179D02*
X37905Y41483D01*
X37095Y41515D02*
X37183Y41427D01*
X36515Y42115D02*
X37203Y41427D01*
X37354D02*
X37970Y42043D01*
X36798Y42115D02*
X37420Y41493D01*
X36727Y42115D02*
X37487D01*
X36706Y41515D02*
X37307Y42115D01*
X36989Y41515D02*
X37540Y42065D01*
X37081Y42115D02*
X37562Y41634D01*
X37697Y42065D02*
X37844Y41917D01*
X37364Y42115D02*
X37703Y41776D01*
X37905Y41378D02*
Y41483D01*
Y41378D02*
Y41483D01*
X37538Y42065D02*
X37803D01*
X37487Y42115D02*
X37538Y42065D01*
X37891Y42154D02*
X37986Y42059D01*
X37803Y42065D02*
X37935Y42197D01*
X32060Y42455D02*
Y42715D01*
X31990Y42455D02*
X32060Y42525D01*
Y42715D02*
X32205Y42860D01*
X32392D01*
X32640Y42596D02*
X32781Y42455D01*
X32640D02*
Y42613D01*
Y42455D02*
X32913D01*
X32838D02*
X32875Y42492D01*
X32640Y42539D02*
X32734Y42634D01*
X32640Y42613D02*
X32698Y42670D01*
X32640Y42539D02*
X32734Y42634D01*
X32698Y42670D02*
X32893Y42475D01*
X31523Y42865D02*
X31933Y42455D01*
X31739Y42931D02*
X32060Y42610D01*
X31707Y42455D02*
X32301Y43049D01*
X31805Y43148D02*
X32149Y42804D01*
X31673Y42865D02*
X31805Y42997D01*
Y43263D01*
X32392Y42860D02*
X32526Y42994D01*
X32301Y43005D02*
X32526D01*
X33080D02*
X33325Y42760D01*
X32933Y43005D02*
X33178Y42760D01*
X33621Y43030D02*
X33890Y42760D01*
X33338Y43030D02*
X33608Y42760D01*
X33019Y42919D02*
X33105Y43005D01*
X33019Y42919D02*
X33105Y43005D01*
X33426Y42760D02*
X33696Y43030D01*
X33160Y42777D02*
X33413Y43030D01*
X34852Y42206D02*
X34976Y42329D01*
X34685Y42372D02*
X35522Y41535D01*
X34836Y42380D02*
X35170Y42046D01*
X34678Y42380D02*
X34925D01*
X34710Y42347D02*
X34743Y42380D01*
X34925D02*
X35025Y42280D01*
X33178Y42760D02*
X34925D01*
X34993Y42064D02*
X35162Y42233D01*
X35025Y42280D02*
X35115D01*
X35170Y42175D02*
Y42225D01*
X35115Y42280D02*
X35170Y42225D01*
X34925Y42760D02*
X35025Y42860D01*
X33894Y43039D02*
X34173Y42760D01*
X33709D02*
X34174Y43225D01*
X33992Y42760D02*
X34457Y43225D01*
X33991D02*
X34456Y42760D01*
X34275D02*
X34740Y43225D01*
X34274D02*
X34739Y42760D01*
X34558D02*
X35023Y43225D01*
X34557D02*
X34973Y42808D01*
X35315Y42860D02*
X35460Y42715D01*
X34840Y42760D02*
X35305Y43225D01*
X35122D02*
X36833Y41515D01*
X35403Y43225D02*
X36405Y42222D01*
X35025Y42860D02*
X35315D01*
X34840Y43225D02*
X35205Y42860D01*
X35411Y42764D02*
X35637Y42991D01*
X35223Y42860D02*
X35495Y43132D01*
X31673Y43395D02*
X31805Y43263D01*
Y43119D02*
X32301Y43614D01*
Y43005D02*
Y43875D01*
X31560Y43395D02*
X31673D01*
X31736Y43332D02*
X32526Y44123D01*
X32301Y43875D02*
X32526D01*
X33105Y43005D02*
X33130Y43030D01*
X33105Y43005D02*
X33130Y43030D01*
X32933Y43005D02*
X33132D01*
X33719Y43850D02*
Y44189D01*
X32906Y43875D02*
X33132D01*
X32906Y44027D02*
X33058Y43875D01*
X33132Y43850D02*
X33289D01*
X33127Y43875D02*
X33289Y44037D01*
X31742Y44343D02*
X32301Y43784D01*
X31538Y43417D02*
X32467Y44347D01*
X32025Y44343D02*
X32492Y43875D01*
X32526D02*
Y44374D01*
X32308Y44343D02*
X32526Y44124D01*
X32448Y44343D02*
X32493Y44352D01*
X32906Y43937D02*
X33223Y44254D01*
X32906Y44310D02*
X33289Y43927D01*
Y43850D02*
Y44189D01*
X32906Y43875D02*
Y44343D01*
X33233Y44245D02*
X33289Y44189D01*
X33719D02*
Y44343D01*
X32906D02*
X33135D01*
X32906Y44220D02*
X33029Y44343D01*
X33135D02*
X33233Y44245D01*
X33135Y44343D02*
X33233Y44245D01*
X33132Y43030D02*
X33894D01*
Y43225D01*
X33719Y44063D02*
X34127Y43655D01*
X33719Y44184D02*
X33878Y44343D01*
X33719Y44189D02*
Y44343D01*
X33894Y43655D02*
X35403D01*
X33719Y43850D02*
X33894D01*
Y43655D02*
Y43850D01*
X34005Y44343D02*
X34692Y43655D01*
X33894Y43225D02*
X35403D01*
Y43655D02*
X35617D01*
X33894Y43794D02*
X34443Y44343D01*
X33894Y43794D02*
X34443Y44343D01*
X35403Y43655D02*
X35617D01*
X34038D02*
X34726Y44343D01*
X34570D02*
X35258Y43655D01*
X34321D02*
X35009Y44343D01*
X34853D02*
X35541Y43655D01*
X34604D02*
X35292Y44343D01*
X33722D02*
X34410Y43655D01*
X33719Y43901D02*
X34160Y44343D01*
X33719D02*
X35300D01*
X34288D02*
X34975Y43655D01*
X35136Y44343D02*
X35816Y43663D01*
X35384Y44378D02*
X35816Y43946D01*
X35170Y43655D02*
X36304Y44790D01*
X34887Y43655D02*
X36274Y45042D01*
X35300Y44343D02*
X35345Y44352D01*
X35383Y44377D01*
X35408Y44415D01*
X35417Y44460D01*
X35550Y42225D02*
Y42415D01*
Y42232D02*
X36267Y41515D01*
X35460Y42605D02*
X36550Y41515D01*
X35460Y42505D02*
X35550Y42415D01*
X35460Y42505D02*
Y42715D01*
Y42505D02*
X35550Y42415D01*
X35460Y42531D02*
X35778Y42849D01*
X35550Y42175D02*
Y42225D01*
X35610Y42115D02*
X36061Y42566D01*
X35893Y41832D02*
X36344Y42284D01*
X35751Y41974D02*
X36202Y42425D01*
X35550Y42225D02*
Y42415D01*
Y42338D02*
X35920Y42708D01*
X36666Y42606D02*
X36914Y42854D01*
X36911Y42858D02*
X37006Y42763D01*
X35725Y43548D02*
X35816Y43457D01*
Y44260D01*
X35833Y43440D02*
X36727Y42545D01*
X35833Y43440D02*
X36329D01*
X35617Y43655D02*
X35725Y43548D01*
X35617Y43655D02*
X35725Y43548D01*
X35676Y43596D02*
X35816Y43735D01*
X35453Y43655D02*
X35816Y44018D01*
X36525Y42748D02*
X36773Y42996D01*
X36384Y42889D02*
X36632Y43137D01*
X36039Y43440D02*
X36934Y42545D01*
X36329Y43440D02*
X36911Y42858D01*
X36101Y43172D02*
X36349Y43420D01*
X35959Y43313D02*
X36086Y43440D01*
X36242Y43030D02*
X36490Y43278D01*
X36888Y42545D02*
X37106Y42763D01*
X36727Y42545D02*
X37487D01*
X37171D02*
X37389Y42763D01*
X37006D02*
X37196D01*
X36911Y42858D02*
X37006Y42763D01*
X37196D01*
X36924Y43415D02*
X37409D01*
X37487Y42545D02*
X37538Y42595D01*
X37454Y42545D02*
X37672Y42763D01*
X37935Y42197D02*
Y42463D01*
X37803Y42595D02*
X37935Y42463D01*
X37564Y42763D02*
X37732Y42595D01*
X37282Y42763D02*
X37494Y42551D01*
X37538Y42595D02*
X37803D01*
X37787D02*
X37955Y42763D01*
X36924Y43415D02*
X37196Y43143D01*
X36322Y43440D02*
X37217Y42545D01*
X37195Y43415D02*
X37467Y43143D01*
X37203D02*
X37641Y43580D01*
X37058Y43281D02*
X37192Y43415D01*
X37409Y43632D02*
X37437Y43660D01*
X37409Y43484D02*
X37750Y43143D01*
X37409Y44040D02*
X37641D01*
Y43415D02*
Y43660D01*
X37409Y43415D02*
Y43660D01*
X37486Y43143D02*
X37758Y43415D01*
X37516Y43660D02*
X37641Y43535D01*
X37409Y43660D02*
X37641D01*
X37409Y44040D02*
Y44285D01*
X37535Y44040D02*
X37641Y44146D01*
Y44040D02*
Y44285D01*
X35417Y44627D02*
X35816Y44229D01*
Y44260D02*
X36304D01*
X35417Y44910D02*
X36067Y44260D01*
X36058D02*
X36304Y44507D01*
Y44260D02*
Y45042D01*
X36684Y44321D02*
X36804Y44440D01*
X36183Y45042D02*
X36304D01*
X36684Y44491D02*
X36804Y44372D01*
Y44389D02*
Y44579D01*
X36684Y44285D02*
X36804D01*
Y44389D01*
Y44579D01*
X36684Y44774D02*
X36842Y44617D01*
X36804Y44579D02*
X36899Y44674D01*
X36804Y44579D02*
X36899Y44674D01*
X35417Y44468D02*
X36183Y45234D01*
X35417Y44460D02*
Y45462D01*
Y45193D02*
X36304Y44306D01*
X35472Y45421D02*
X36304Y44589D01*
X35417Y45317D02*
X35514Y45413D01*
X35417Y45317D02*
X35514Y45413D01*
X35417Y44751D02*
X36079Y45413D01*
X35417Y45034D02*
X35796Y45413D01*
X35763D02*
X36304Y44871D01*
X36183Y45042D02*
Y45413D01*
X36684Y44285D02*
Y45042D01*
X36806D02*
Y45413D01*
X35515D02*
X36183D01*
X36046D02*
X36183Y45276D01*
X36684Y45042D02*
X36806D01*
Y45292D02*
X36927Y45413D01*
X37184Y44285D02*
Y44389D01*
Y44285D02*
X37409D01*
X37268Y44473D02*
X37641Y44101D01*
X37210Y44985D02*
Y45017D01*
X37063D02*
X37210D01*
X37184Y44389D02*
X37495Y44700D01*
X36899Y44674D02*
X37210Y44985D01*
X37495Y44700D02*
X37590Y44795D01*
X37495Y44700D02*
X37590Y44795D01*
X37410Y44615D02*
X37739Y44285D01*
X37551Y44756D02*
X38022Y44285D01*
X37590Y44795D02*
Y44985D01*
Y44795D02*
Y44985D01*
Y45017D02*
X37737D01*
X37590Y44985D02*
Y45017D01*
X36699Y45042D02*
X36983Y44758D01*
X36684Y44887D02*
X37063Y45266D01*
X36684Y44604D02*
X37097Y45017D01*
X37214Y44285D02*
X37994Y45065D01*
X36894Y45413D02*
X37063Y45244D01*
X36806Y45413D02*
X37063D01*
X36806Y45218D02*
X37125Y44900D01*
X37063Y45017D02*
Y45413D01*
X37590Y44944D02*
X37663Y45017D01*
X37737Y45091D01*
X37994Y45042D02*
Y45413D01*
X37737Y45017D02*
Y45413D01*
Y45091D02*
X37994Y45348D01*
X37737Y45374D02*
X37776Y45413D01*
X37737D02*
X37994D01*
X37743D02*
X37994Y45162D01*
X37995Y40423D02*
X38077Y40505D01*
X37995Y40423D02*
X38077Y40505D01*
X37627Y40179D02*
X38152Y40705D01*
X38077Y40505D02*
X38242D01*
X38039Y40591D02*
X38125Y40505D01*
X38077D02*
X38242D01*
X38180Y40733D02*
X38389Y40524D01*
X38242Y40175D02*
X38389D01*
X38242Y40505D02*
X38389D01*
X38207Y40140D02*
X38389Y39959D01*
Y39885D02*
Y40175D01*
X38242Y40505D02*
X38389Y40652D01*
Y40505D02*
Y40706D01*
X39170D01*
X38389Y40652D02*
X38443Y40706D01*
X38152Y40705D02*
X38235Y40788D01*
X38152Y40705D02*
X38235Y40788D01*
Y40961D02*
X38490Y40706D01*
X37381Y39927D02*
X38580Y41125D01*
X38235Y40788D02*
Y40953D01*
Y40788D02*
Y40953D01*
Y41370D01*
X37184Y41427D02*
X38520Y42763D01*
X38443Y40706D02*
X38862Y41125D01*
X38235Y41244D02*
X38773Y40706D01*
X38726D02*
X39145Y41125D01*
X38636D02*
X39056Y40706D01*
X38235Y41063D02*
X38389Y41217D01*
X38235Y41346D02*
X38259Y41370D01*
X38235D02*
X38389D01*
Y41125D02*
Y41370D01*
X39170Y39885D02*
Y40706D01*
X38389Y39885D02*
X39170D01*
X39176D02*
Y40706D01*
X39009D02*
X39402Y41099D01*
X38389Y41125D02*
X39170D01*
X39176Y39885D02*
X39958D01*
X39176Y41125D02*
X39402D01*
X39176Y40706D02*
X39402D01*
X39291D02*
X39402Y40816D01*
X39958Y39885D02*
Y40706D01*
X39905D02*
X39958Y40653D01*
X39202Y41125D02*
X39402Y40925D01*
Y40706D02*
Y41125D01*
X39732Y40706D02*
X39958D01*
X39732Y40878D02*
X39905Y40706D01*
X38919Y41125D02*
X39339Y40706D01*
X39170Y41125D02*
Y41796D01*
X39732Y40706D02*
Y41125D01*
Y40863D02*
X40596Y41727D01*
X39145Y41125D02*
X39170Y41150D01*
X39176Y41125D02*
Y41796D01*
X39732Y41125D02*
X39958D01*
X39176Y41151D02*
X39202Y41125D01*
X39958Y40523D02*
X41234Y41800D01*
X39857Y40706D02*
X40951Y41800D01*
X39958Y39957D02*
X41800Y41800D01*
X39958Y40240D02*
X41517Y41800D01*
X39958Y41125D02*
Y41563D01*
Y41372D02*
X40465Y41879D01*
X40210Y41815D02*
X41135Y40889D01*
X40351Y41956D02*
X41255Y41052D01*
X38122Y41700D02*
X38218Y41796D01*
X38122Y41700D02*
X38228D01*
X38122D02*
X38228D01*
X38053Y42126D02*
X38218D01*
X37970Y42043D02*
X38053Y42126D01*
X38228Y41700D02*
X38389D01*
X38218Y41796D02*
X38389D01*
X38306Y41700D02*
X38389Y41783D01*
X38249Y41796D02*
X38344Y41700D01*
X38389D02*
Y41796D01*
X39649Y42068D02*
X39674Y42043D01*
X39592Y42126D02*
X39649Y42068D01*
X39427Y42126D02*
X39592D01*
X39649Y42068D02*
X39674Y42043D01*
X39592Y42126D02*
X39649Y42068D01*
X37970Y42043D02*
X38053Y42126D01*
X37935Y42392D02*
X38202Y42126D01*
X38053D02*
X38218D01*
X37847Y42763D02*
X38484Y42126D01*
X37935Y42460D02*
X38237Y42763D01*
X37196Y43143D02*
X38385D01*
X37196Y42763D02*
X39563D01*
X38130D02*
X38767Y42126D01*
X38732D02*
X39369Y42763D01*
X38696D02*
X39333Y42126D01*
X39427D02*
X39592D01*
X39014D02*
X39652Y42763D01*
X38413D02*
X39050Y42126D01*
X38166D02*
X38803Y42763D01*
X38218Y42126D02*
X39427D01*
X38449D02*
X39086Y42763D01*
X39732Y41946D02*
Y41986D01*
Y41946D02*
X39771D01*
X39958Y41563D02*
X40465Y42070D01*
X39674Y42043D02*
X39732Y41986D01*
X39649Y42068D02*
X39674Y42043D01*
X39732Y41946D02*
Y41986D01*
X39674Y42043D02*
X39732Y41986D01*
X40465Y41858D02*
X40598Y41725D01*
X40465Y41858D02*
Y42070D01*
X40598Y41725D02*
X40862D01*
Y42255D02*
X40938Y42180D01*
X40650Y42255D02*
X40862D01*
X40650D02*
X40860Y42465D01*
X40775Y42380D02*
X40976Y42180D01*
X40860Y42465D02*
X41112D01*
X39262Y42763D02*
X39925Y42100D01*
X38979Y42763D02*
X39783Y41958D01*
X39544Y42763D02*
X40066Y42241D01*
X39771Y41946D02*
X40650Y42825D01*
X39563Y42763D02*
X39753D01*
X39563D02*
X39753D01*
X39848Y42858D01*
X39753Y42763D02*
X39848Y42858D01*
X39790Y42800D02*
X40208Y42383D01*
X39932Y42941D02*
X40349Y42524D01*
X40841Y42255D02*
X41051Y42465D01*
X40073Y43083D02*
X40490Y42665D01*
X40650Y42825D02*
X40745Y42920D01*
X40650Y42825D02*
X40745Y42920D01*
X40848Y42995D02*
X40960D01*
X40773Y42920D02*
X40848Y42995D01*
X41659Y40218D02*
X41874D01*
X41806D02*
X42335Y39689D01*
X41659Y40218D02*
X41874D01*
X41343Y40535D02*
X41552Y40326D01*
X41267Y40535D02*
X41343D01*
X41552Y40326D02*
X41659Y40218D01*
X41552Y40326D02*
X41659Y40218D01*
X42245Y40062D02*
X42335Y39972D01*
X42109Y40062D02*
Y40218D01*
X42665Y39837D02*
X42891Y40062D01*
X42109D02*
X42335D01*
X41874Y40218D02*
X42109D01*
X41874Y40648D02*
X42109D01*
X42665Y40062D02*
X42930D01*
Y40550D01*
X41135Y40668D02*
X41267Y40535D01*
X41135Y40668D02*
Y40932D01*
X41665Y40858D02*
X41874Y40648D01*
X41665Y40925D02*
X41942Y40648D01*
X41533Y41065D02*
X41665Y40932D01*
X41135D02*
X41267Y41065D01*
X41525D02*
X41665Y40925D01*
X41073Y41800D02*
X42109Y40764D01*
X41827Y40696D02*
X42109Y40978D01*
X41686Y40837D02*
X42109Y41261D01*
X42062Y40648D02*
X42109Y40695D01*
Y40648D02*
Y40843D01*
X41665Y40858D02*
Y40932D01*
X42109Y40850D02*
Y41631D01*
Y40843D02*
X42355D01*
X42109Y40850D02*
X42355D01*
X42891Y40062D02*
X42930Y40102D01*
X42811Y40062D02*
X43105Y39768D01*
X42930Y40226D02*
X43105Y40051D01*
X42930Y40384D02*
X43013Y40467D01*
X42930Y40550D02*
X43105Y40375D01*
X42930Y40102D02*
X43105Y40277D01*
X42930Y40509D02*
X43105Y40334D01*
X43435Y40041D02*
X43842Y40448D01*
X43469Y40535D02*
X43842Y40163D01*
X43435Y39758D02*
X43842Y40165D01*
X43435Y40286D02*
X43842Y39880D01*
X43435Y40375D02*
Y40535D01*
Y40375D02*
Y40535D01*
X43653D01*
X43435Y40324D02*
X43646Y40535D01*
X42930Y41074D02*
X43255Y40749D01*
X42930Y41105D02*
X43255Y40780D01*
Y40720D02*
Y40780D01*
X43034Y40941D02*
X43255Y40720D01*
X42951Y41023D02*
X43034Y40941D01*
X42977Y40997D02*
X43007Y41028D01*
X43119Y40856D02*
X43149Y40886D01*
X42951Y41023D02*
X43034Y40941D01*
X43653Y40535D02*
X43785Y40668D01*
Y40932D01*
X43702Y40585D02*
X43842Y40445D01*
X43646Y40535D02*
X43785Y40674D01*
X43842Y40730D01*
X43653Y41065D02*
X43785Y40932D01*
Y40785D02*
X43842Y40728D01*
X43773Y40945D02*
X43842Y41013D01*
X40864Y41726D02*
X41525Y41065D01*
X41267D02*
X41533D01*
X41356Y41800D02*
X42109Y41046D01*
X41348Y41065D02*
X42083Y41800D01*
X40862Y41725D02*
X40938Y41800D01*
X42458D01*
X40938Y42180D02*
X42458D01*
X41582Y41016D02*
X42109Y41544D01*
X41639Y41800D02*
X42109Y41329D01*
Y41631D02*
X42627D01*
X41921Y41800D02*
X42109Y41612D01*
X42204Y41800D02*
X42374Y41631D01*
X42196D02*
X42366Y41800D01*
X42479Y41631D02*
X42553Y41705D01*
X42458Y41800D02*
X42627Y41631D01*
X40974Y42465D02*
X41259Y42180D01*
X41112Y42465D02*
X41245Y42597D01*
X41184Y42537D02*
X41541Y42180D01*
X41049D02*
X41636Y42768D01*
X41245Y42597D02*
Y42710D01*
X40960Y42995D02*
X41018Y43053D01*
X41245Y42659D02*
X41353Y42768D01*
X41245Y42710D02*
X41303Y42768D01*
X41270Y42735D02*
X41824Y42180D01*
X41331D02*
X41919Y42768D01*
X41614Y42180D02*
X42202Y42768D01*
X41520D02*
X42107Y42180D01*
X41897D02*
X42485Y42768D01*
X41802D02*
X42390Y42180D01*
X42458D02*
X42648D01*
X41303Y42768D02*
X42624D01*
X42930Y41023D02*
Y41105D01*
X43155Y41450D02*
Y41483D01*
X43060Y41768D02*
X43155Y41673D01*
X42648Y42180D02*
X42743Y42085D01*
X42458Y42180D02*
X42648D01*
X43060Y41768D02*
X43155Y41673D01*
X42743Y42085D02*
X43060Y41768D01*
X43540Y41065D02*
X43653D01*
X43155Y41450D02*
X43540Y41065D01*
X43611D02*
X43842Y41296D01*
X43434Y41171D02*
X43842Y41579D01*
X43155Y41483D02*
Y41673D01*
Y41483D02*
Y41673D01*
X43292Y41313D02*
X43842Y41862D01*
X43155Y41458D02*
X43842Y42145D01*
X42648Y42180D02*
X42743Y42085D01*
X42651Y42768D02*
X43842Y41577D01*
X42085Y42768D02*
X43842Y41011D01*
X42368Y42768D02*
X43842Y41294D01*
X42624Y42768D02*
X42814D01*
X42180Y42180D02*
X42768Y42768D01*
X42624D02*
X42814D01*
X42909Y42863D01*
X42874Y42827D02*
X43842Y41860D01*
X42838Y41990D02*
X43842Y42993D01*
X43121Y41707D02*
X43842Y42427D01*
X42980Y41848D02*
X43842Y42710D01*
X42814Y42768D02*
X42909Y42863D01*
X43136Y43089D01*
X43015Y42969D02*
X43842Y42143D01*
X43157Y43110D02*
X43842Y42425D01*
X37761Y43415D02*
X38033Y43143D01*
X38044Y43415D02*
X38316Y43143D01*
X37769D02*
X38041Y43415D01*
X37641D02*
X38113D01*
X38052Y43143D02*
X38218Y43309D01*
X38113Y43415D02*
X38385Y43143D01*
X38335D02*
X38360Y43168D01*
X38658Y43440D02*
X38725Y43373D01*
X38868Y43440D02*
X38934Y43373D01*
X38847D02*
X38914Y43440D01*
X39150D02*
X39217Y43373D01*
X39130D02*
X39197Y43440D01*
X38658D02*
X39234D01*
X39197D02*
X39234Y43477D01*
X37409Y44198D02*
X38254Y45042D01*
X37641Y44285D02*
X38472D01*
X37737Y45136D02*
X38613Y44260D01*
X37780Y44285D02*
X38450Y44955D01*
X37590Y45000D02*
X38305Y44285D01*
X38346D02*
X38654Y44593D01*
X38063Y44285D02*
X38591Y44814D01*
X39034Y44405D02*
X39178Y44260D01*
X39034D02*
Y44751D01*
X39234Y43440D02*
Y44260D01*
X39178D02*
X39234Y44204D01*
X38472Y44260D02*
X38654D01*
X38603D02*
X38654Y44311D01*
X39034Y44260D02*
X39234D01*
X38654D02*
Y44751D01*
X39297Y42126D02*
X40488Y43316D01*
X39727Y41990D02*
X40999Y43262D01*
X39580Y42126D02*
X40771Y43316D01*
X38725Y43373D02*
X39468D01*
X39234Y43639D02*
X39484Y43389D01*
X39848Y42858D02*
X40307Y43316D01*
X39468Y43373D02*
X39841Y43747D01*
X40222Y43696D02*
Y43747D01*
Y43783D02*
X40308Y43696D01*
X40214Y43224D02*
X40632Y42807D01*
X40307Y43316D02*
X40999D01*
X40222Y43696D02*
X40307D01*
X40222D02*
Y43747D01*
X40307Y43696D02*
X40999D01*
X40222D02*
X40307D01*
X39234Y43921D02*
X39625Y43530D01*
X39234Y43477D02*
X39680Y43923D01*
X39413Y43373D02*
X39841Y43801D01*
X39234Y44204D02*
X39767Y43672D01*
X39169Y44260D02*
X39498Y44589D01*
X39034Y44688D02*
X39498Y44224D01*
X39234Y43760D02*
X39539Y44064D01*
X39234Y44043D02*
X39498Y44306D01*
X39841Y43747D02*
Y43839D01*
X39498Y44106D02*
X39765Y43839D01*
X40222Y43747D02*
Y43839D01*
X40302Y43696D02*
X42019Y45414D01*
X39765Y43839D02*
X39841D01*
X39498Y44106D02*
Y45117D01*
X40222Y43839D02*
X40298D01*
X40565Y44106D01*
X38114Y45042D02*
X38654Y44502D01*
X39034Y44691D02*
X39235Y44892D01*
X38363Y45042D02*
X38654Y44751D01*
X39034D02*
Y44892D01*
X37994Y45042D02*
X38363D01*
X39034Y44892D02*
X39083D01*
X39034Y44751D02*
Y44892D01*
X39083D02*
X39273D01*
X39334Y44953D02*
X39498Y44789D01*
X39034Y44408D02*
X39498Y44872D01*
X39112Y44892D02*
X39498Y44507D01*
X39083Y44892D02*
X39273D01*
X39368Y44987D01*
X39273Y44892D02*
X39368Y44987D01*
X39475Y45095D02*
X39498Y45072D01*
X38617Y45378D02*
X38723Y45272D01*
X38617Y45387D02*
X38732Y45272D01*
X38723D02*
X39083D01*
X39050D02*
X39190Y45413D01*
X38767Y45272D02*
X38907Y45413D01*
X38617Y45378D02*
Y45413D01*
X39223D01*
X38874D02*
X39015Y45272D01*
X39083D02*
X39223Y45413D01*
X39157D02*
X39190Y45380D01*
X39368Y44987D02*
X39498Y45117D01*
X39377Y45567D02*
Y48999D01*
Y45758D02*
X39473Y45662D01*
X39377Y46041D02*
X39615Y45804D01*
X39377Y46324D02*
X39756Y45945D01*
X39377Y48711D02*
X39665Y48999D01*
X39377Y46607D02*
X39897Y46087D01*
X39377Y45567D02*
X40402Y46591D01*
X39377Y46890D02*
X40039Y46228D01*
X39377Y47173D02*
X40180Y46370D01*
X39377Y47455D02*
X40322Y46511D01*
X39377Y48304D02*
X40995Y46686D01*
X39377Y48587D02*
X41278Y46686D01*
X40074Y45694D02*
X40298D01*
X40486Y45506D01*
X40182Y45802D02*
X40291Y45694D01*
X39377Y47738D02*
X40463Y46652D01*
X40074Y45694D02*
X40687Y46306D01*
X39377Y48021D02*
X40712Y46686D01*
X39377Y48870D02*
X41561Y46686D01*
X39377Y46165D02*
X42211Y48999D01*
X39377Y45600D02*
X42777Y48999D01*
X39377Y45883D02*
X42494Y48999D01*
X39377Y48145D02*
X40231Y48999D01*
X39377Y48428D02*
X39948Y48999D01*
X39377D02*
X43842D01*
X39377Y47863D02*
X40514Y48999D01*
X39377Y46448D02*
X41928Y48999D01*
X39531D02*
X41844Y46686D01*
X40096Y48999D02*
X42410Y46686D01*
X39813Y48999D02*
X42127Y46686D01*
X39377Y47297D02*
X41080Y48999D01*
X39377Y47580D02*
X40797Y48999D01*
X39377Y46731D02*
X41645Y48999D01*
X39377Y47014D02*
X41362Y48999D01*
X40405Y43316D02*
X40787Y42934D01*
X40999Y43252D02*
X41108Y43143D01*
X40688Y43316D02*
X40985Y43020D01*
X40373Y43914D02*
X40591Y43696D01*
X40515Y44055D02*
X40874Y43696D01*
X40971Y43316D02*
X40999Y43288D01*
X40565Y44288D02*
X41046Y43807D01*
X40999Y43252D02*
Y43316D01*
Y43696D02*
Y43761D01*
X41018Y43053D02*
X41108Y43143D01*
X41018Y43053D02*
X41108Y43143D01*
X41254Y44015D02*
X42746D01*
X40999Y43761D02*
X41254Y44015D01*
X42815Y43946D02*
X42851Y43982D01*
X42746Y44015D02*
X42851Y43911D01*
X40565Y44570D02*
X41187Y43949D01*
X40565Y44106D02*
Y45015D01*
Y44853D02*
X41404Y44015D01*
X40585Y43696D02*
X42302Y45414D01*
X40565Y44808D02*
X41255Y45498D01*
X40565Y45015D02*
X41152Y45601D01*
X40565Y44242D02*
X41737Y45414D01*
X40565Y44525D02*
X41454Y45414D01*
X40626Y45075D02*
X41686Y44015D01*
X40767Y45217D02*
X41969Y44015D01*
X40868Y43696D02*
X42585Y45414D01*
X42851Y43911D02*
Y45604D01*
X40909Y45358D02*
X42252Y44015D01*
X41050Y45500D02*
X42535Y44015D01*
X42318D02*
X42851Y44548D01*
X41702Y45414D02*
X42851Y44265D01*
X43231Y43319D02*
X43842Y42708D01*
X42697Y42131D02*
X43842Y43276D01*
X42463Y42180D02*
X43842Y43559D01*
X43231Y43184D02*
Y43374D01*
X42601Y44015D02*
X42851Y44265D01*
X43136Y43089D02*
X43231Y43184D01*
X43136Y43089D02*
X43231Y43184D01*
Y43374D01*
Y43602D02*
X43842Y42991D01*
X43231Y43231D02*
X43842Y43842D01*
X43231Y43885D02*
X43842Y43274D01*
X43231Y43797D02*
X43842Y44407D01*
X43231Y44450D02*
X43842Y43840D01*
X43231Y43514D02*
X43842Y44125D01*
X43231Y44168D02*
X43842Y43557D01*
X42035Y44015D02*
X42851Y44831D01*
X41469Y44015D02*
X42851Y45396D01*
X41752Y44015D02*
X42851Y45114D01*
X41419Y45414D02*
X42851Y43982D01*
X42268Y45414D02*
X42851Y44830D01*
X42551Y45414D02*
X42851Y45113D01*
X43231Y45016D02*
X43842Y44405D01*
X41985Y45414D02*
X42851Y44548D01*
X43231Y44079D02*
X43842Y44690D01*
X43231Y43374D02*
Y45981D01*
Y44733D02*
X43842Y44122D01*
X43231Y44362D02*
X43842Y44973D01*
X43231Y44928D02*
X43842Y45539D01*
X43231Y45582D02*
X43842Y44971D01*
X43231Y44645D02*
X43842Y45256D01*
X43231Y45299D02*
X43842Y44688D01*
X40324Y45943D02*
X40624Y45643D01*
X40486Y45506D02*
X41023Y46042D01*
X40450Y45542D02*
X41073Y46164D01*
X40465Y46085D02*
X40765Y45785D01*
X40607Y46226D02*
X40907Y45926D01*
X41023Y46042D02*
X41073Y46092D01*
X40810Y46306D02*
X41048Y46068D01*
X41152Y45601D02*
X41339Y45414D01*
X42661D01*
X42747Y45500D02*
X42851Y45396D01*
X41023Y46042D02*
X41073Y46092D01*
Y46214D01*
X42661Y45414D02*
X42851Y45604D01*
X43231Y45981D02*
Y46171D01*
X40402Y46591D02*
X40497Y46686D01*
X40402Y46591D02*
X40497Y46686D01*
X40687Y46306D02*
X41164D01*
X40309Y45683D02*
X40932Y46306D01*
X40497Y46686D02*
X40687D01*
X40497D02*
X40687D01*
X42526D01*
X40379Y48999D02*
X42692Y46686D01*
X41073Y46214D02*
X41164Y46306D01*
X41092D02*
X41128Y46270D01*
X42811Y46591D02*
X43136Y46266D01*
X42716Y46686D02*
X42811Y46591D01*
X42526Y46686D02*
X42716D01*
X42526D02*
X42716D01*
X42811Y46591D01*
X40746Y46686D02*
X43059Y48999D01*
X43136Y46266D02*
X43231Y46171D01*
X43136Y46266D02*
X43231Y46171D01*
X43004Y46398D02*
X43842Y47236D01*
X42443Y46686D02*
X43842Y48084D01*
X42160Y46686D02*
X43842Y48367D01*
X42862Y46539D02*
X43842Y47519D01*
X42721Y46681D02*
X43842Y47801D01*
X43231Y45494D02*
X43842Y46104D01*
X43231Y46147D02*
X43842Y45537D01*
X43231Y45211D02*
X43842Y45822D01*
X43231Y45865D02*
X43842Y45254D01*
X43231Y45981D02*
Y46171D01*
Y45776D02*
X43842Y46387D01*
X43231Y46059D02*
X43842Y46670D01*
X43145Y46257D02*
X43842Y46953D01*
X41228Y48999D02*
X43842Y46385D01*
X41511Y48999D02*
X43842Y46668D01*
X40662Y48999D02*
X43842Y45819D01*
X40945Y48999D02*
X43842Y46102D01*
X41312Y46686D02*
X43625Y48999D01*
X41029Y46686D02*
X43342Y48999D01*
X41595Y46686D02*
X43842Y48933D01*
X41793Y48999D02*
X43842Y46951D01*
X42359Y48999D02*
X43842Y47517D01*
X42642Y48999D02*
X43842Y47799D01*
X41878Y46686D02*
X43842Y48650D01*
X42076Y48999D02*
X43842Y47234D01*
X43490Y48999D02*
X43842Y48648D01*
X43773Y48999D02*
X43842Y48931D01*
X42925Y48999D02*
X43842Y48082D01*
X43208Y48999D02*
X43842Y48365D01*
D11*
X27608Y37618D02*
D03*
X28533D02*
D03*
D12*
X31654Y37923D02*
D03*
X32028Y36998D02*
D03*
X31280D02*
D03*
D13*
X25116Y44300D02*
D03*
X25904D02*
D03*
X36206Y43850D02*
D03*
X36994D02*
D03*
X38056D02*
D03*
X38844D02*
D03*
X32716Y43440D02*
D03*
X33504D02*
D03*
X27362Y44567D02*
D03*
X28150D02*
D03*
X21214Y39991D02*
D03*
X22002D02*
D03*
X21214Y41447D02*
D03*
X22002D02*
D03*
X31756Y34660D02*
D03*
X32544D02*
D03*
X31762Y33179D02*
D03*
X32549D02*
D03*
X31746Y31670D02*
D03*
X32534D02*
D03*
X39567Y40295D02*
D03*
X38780D02*
D03*
X39567Y41535D02*
D03*
X38780D02*
D03*
D14*
X34685Y41262D02*
D03*
Y40762D02*
D03*
Y40262D02*
D03*
Y39762D02*
D03*
X36614Y41262D02*
D03*
Y40762D02*
D03*
Y40262D02*
D03*
Y39762D02*
D03*
D15*
X33425Y37067D02*
D03*
Y37854D02*
D03*
X30728Y40886D02*
D03*
Y41673D02*
D03*
X42520Y41240D02*
D03*
Y40453D02*
D03*
X37783Y37995D02*
D03*
Y37207D02*
D03*
X36582Y37995D02*
D03*
Y37207D02*
D03*
X35401Y37975D02*
D03*
Y37188D02*
D03*
X42500Y38169D02*
D03*
Y37382D02*
D03*
D16*
X37400Y48011D02*
D03*
X33340Y47941D02*
D03*
D17*
X38306Y45689D02*
D03*
X37400D02*
D03*
X36494D02*
D03*
X34246Y45619D02*
D03*
X33340D02*
D03*
X32434D02*
D03*
D18*
X40108Y37736D02*
D03*
X41033Y38110D02*
D03*
Y37362D02*
D03*
D19*
X25866Y42461D02*
D03*
Y42146D02*
D03*
Y41831D02*
D03*
Y41516D02*
D03*
Y41201D02*
D03*
Y40886D02*
D03*
Y40571D02*
D03*
Y40256D02*
D03*
X29213D02*
D03*
Y40571D02*
D03*
Y40886D02*
D03*
Y41201D02*
D03*
Y41516D02*
D03*
Y41831D02*
D03*
Y42146D02*
D03*
Y42461D02*
D03*
D20*
X26437Y39685D02*
D03*
X26752D02*
D03*
X27067D02*
D03*
X27382D02*
D03*
X27697D02*
D03*
X28012D02*
D03*
X28327D02*
D03*
X28642D02*
D03*
Y43032D02*
D03*
X28327D02*
D03*
X28012D02*
D03*
X27697D02*
D03*
X27382D02*
D03*
X27067D02*
D03*
X26752D02*
D03*
X26437D02*
D03*
D21*
X31254Y42290D02*
X34520D01*
X27764Y43545D02*
X29999D01*
X31254Y42290D01*
X27500Y41240D02*
X27580Y41160D01*
X27420Y41240D02*
X27500D01*
X28232Y40960D02*
X28580Y41308D01*
X27548Y40780D02*
X27618Y40710D01*
X27718D01*
X27400Y40500D02*
X27432D01*
X27724Y40716D02*
X27990D01*
X27718Y40710D02*
X27724Y40716D01*
X28034Y40760D02*
X28266D01*
X27990Y40716D02*
X28034Y40760D01*
X26740Y41570D02*
X26950D01*
X26500Y41810D02*
X26740Y41570D01*
X27840Y40300D02*
X27941Y40199D01*
X27382Y39685D02*
Y40482D01*
X25799Y40819D02*
X25866Y40886D01*
X25835Y40540D02*
X25866Y40571D01*
X25498Y40819D02*
X25799D01*
X24956Y41194D02*
X25124D01*
X28483Y44567D02*
X29170Y43880D01*
X28150Y44567D02*
X28483D01*
X29920Y44280D02*
X30690Y43510D01*
Y43250D02*
Y43510D01*
X30110Y39340D02*
X31780D01*
X26490Y41654D02*
Y41820D01*
X26324Y44814D02*
X26410Y44727D01*
X25630Y44814D02*
X26324D01*
X25116Y44300D02*
X25630Y44814D01*
X25866Y40953D02*
X26235D01*
X24450Y42750D02*
X24490Y42710D01*
X24700D01*
Y43096D01*
X25904Y44300D01*
X40108Y37312D02*
Y37736D01*
X28533Y37618D02*
X29608D01*
X29630Y37640D01*
X31800Y40200D02*
X31850D01*
X31530Y40470D02*
X31800Y40200D01*
X31150Y40470D02*
X31530D01*
X31040Y40360D02*
X31150Y40470D01*
X30400Y40360D02*
X31040D01*
X30189Y40571D02*
X30400Y40360D01*
X28455Y40571D02*
X30189D01*
X31756Y31680D02*
Y34660D01*
X32170Y40940D02*
X32880Y40230D01*
X34570Y37190D02*
Y37560D01*
X33820Y36440D02*
X34570Y37190D01*
X32820Y36440D02*
X33820D01*
X32262Y36998D02*
X32820Y36440D01*
X32028Y36998D02*
X32262D01*
X25866Y41831D02*
X26225D01*
X25799Y41764D02*
X25866Y41831D01*
X25877Y41820D02*
X26490D01*
X28580Y41308D02*
Y41320D01*
X28776Y41516D01*
X25110Y41180D02*
X25124Y41194D01*
X25859D02*
X25866Y41201D01*
X25124Y41194D02*
X25859D01*
X33348Y39762D02*
X34685D01*
X32170Y40940D02*
Y41580D01*
X32090Y41660D02*
X32170Y41580D01*
X32716Y43440D02*
Y43520D01*
Y42936D02*
Y43440D01*
X32350Y42570D02*
X32716Y42936D01*
X32077Y41673D02*
X32090Y41660D01*
X30728Y41673D02*
X32077D01*
X29213Y40256D02*
X30114D01*
X30270Y40100D01*
X31370D01*
X23650Y47350D02*
X25930Y45070D01*
X26330D01*
X27220Y45960D01*
Y47320D01*
X27830Y47930D01*
X29670D01*
Y47070D02*
Y47930D01*
X27362Y44567D02*
Y44762D01*
X28260Y39752D02*
X28327Y39685D01*
X28260Y39752D02*
Y40054D01*
X28115Y40199D02*
X28260Y40054D01*
X27941Y40199D02*
X28115D01*
X42050Y34800D02*
Y36177D01*
X42500Y39000D02*
Y40433D01*
X28776Y41516D02*
X30176D01*
X30333Y41673D01*
X30728D01*
X21214Y39991D02*
Y41447D01*
X31746Y31670D02*
X31756Y31680D01*
X32028Y35758D02*
Y36998D01*
X31756Y35486D02*
X32028Y35758D01*
X31756Y34660D02*
Y35486D01*
X30354Y40886D02*
X30728D01*
X30039Y41201D02*
X30354Y40886D01*
X29213Y41201D02*
X30039D01*
X37783Y35953D02*
Y37207D01*
X33500Y31670D02*
X37783Y35953D01*
X32534Y31670D02*
X33500D01*
X36582Y36192D02*
Y37207D01*
X33568Y33179D02*
X36582Y36192D01*
X32549Y33179D02*
X33568D01*
X35401Y36431D02*
Y37188D01*
X33630Y34660D02*
X35401Y36431D01*
X32544Y34660D02*
X33630D01*
X27362Y43051D02*
Y44567D01*
X26957Y44142D02*
Y44916D01*
Y44142D02*
X27067Y44031D01*
Y43032D02*
Y44031D01*
X42520Y40858D02*
Y41240D01*
Y40858D02*
X42869D01*
X40108Y37736D02*
Y37772D01*
X25799Y42079D02*
X25866Y42146D01*
X25020Y38870D02*
X38360D01*
X39120Y38110D01*
X41033D01*
X35418Y39762D02*
X36614D01*
X35150Y39494D02*
X35418Y39762D01*
X34220Y39494D02*
X35150D01*
X34194Y39520D02*
X34220Y39494D01*
X30790Y39520D02*
X34194D01*
X30530Y39780D02*
X30790Y39520D01*
X28177Y41160D02*
X28400Y41383D01*
Y42342D01*
X28079Y42663D02*
X28400Y42342D01*
X28079Y42663D02*
Y42965D01*
X27945D02*
X28012Y43032D01*
X28134Y46428D02*
Y47421D01*
X26690Y43990D02*
Y44984D01*
Y43990D02*
X26770Y43910D01*
Y43050D02*
Y43910D01*
X26752Y43032D02*
X26770Y43050D01*
X25866Y40886D02*
Y40953D01*
X26235D02*
X26380Y41098D01*
Y41304D01*
X26168Y41516D02*
X26380Y41304D01*
X32546Y37067D02*
X33425D01*
X32200Y37413D02*
X32546Y37067D01*
X31695Y37413D02*
X32200D01*
X31280Y36998D02*
X31695Y37413D01*
X41841Y38169D02*
X42500D01*
X41033Y37362D02*
X41841Y38169D01*
X27362Y43051D02*
X27382Y43032D01*
X27945Y42965D02*
X28079D01*
X36614Y40262D02*
X37462D01*
X38070Y40870D01*
Y41460D01*
X38145Y41535D01*
X38780D01*
X36614Y39762D02*
X37582D01*
X38160Y40340D01*
X38735D01*
X36614Y41262D02*
X37436D01*
X38135Y41961D01*
X39509D01*
X39567Y41903D01*
Y40295D02*
Y41535D01*
Y41903D01*
X27697Y43032D02*
X27764D01*
X34520Y42290D02*
X35440Y41370D01*
Y40320D02*
Y41370D01*
Y40320D02*
X35498Y40262D01*
X36614D01*
X27764Y43032D02*
Y43545D01*
X23498Y39562D02*
X23640Y39704D01*
X24540Y40260D02*
X24560Y40280D01*
X27840Y40300D02*
X28020Y40480D01*
X28150D01*
X28266Y40760D02*
X28455Y40571D01*
X27580Y41160D02*
X28177D01*
X27382Y40482D02*
X27400Y40500D01*
X42050Y36177D02*
X42849Y36976D01*
X40108Y37312D02*
X40444Y36976D01*
X42849D01*
X42402Y37480D02*
X42500Y37382D01*
X42262Y37340D02*
X42402Y37480D01*
X41760Y37340D02*
X42262D01*
X22052Y39940D02*
X22382Y40270D01*
X23640D01*
X25098Y42079D02*
X25799D01*
X24010Y41310D02*
X24415Y41715D01*
X24734D01*
X25098Y42079D01*
X24010Y39880D02*
Y41310D01*
Y39880D02*
X25020Y38870D01*
X23640Y39704D02*
Y40270D01*
X27307Y40770D02*
X27317Y40780D01*
X27548D01*
X26490Y41654D02*
X27194Y40950D01*
X27232D01*
X27262Y40980D01*
X27284D01*
X27304Y40960D01*
X28232D01*
X27016Y40850D02*
X27096Y40770D01*
X27307D01*
X25866Y40886D02*
X26574D01*
X26610Y40850D01*
X27016D01*
X25473Y40540D02*
X25835D01*
X32880Y40230D02*
X33348Y39762D01*
X32430Y39980D02*
X32680Y40230D01*
X32880D01*
X24850Y39870D02*
X25058D01*
X25444Y40256D01*
X25866D01*
X24560Y40280D02*
X25213D01*
X25473Y40540D01*
X24920Y40580D02*
X25260D01*
X25259Y40581D02*
X25260Y40580D01*
X25259Y40581D02*
X25498Y40819D01*
X25124Y41194D02*
Y41534D01*
X25354Y41764D01*
X25799D01*
X23415Y41990D02*
X24620D01*
X26957Y44916D02*
X29171Y47130D01*
X29134D02*
X29171D01*
X29134D02*
Y47421D01*
X27362Y44762D02*
X29670Y47070D01*
X26690Y44984D02*
X28134Y46428D01*
X23218Y46198D02*
X25116Y44300D01*
X23218Y46198D02*
X23225Y46205D01*
Y47845D01*
X23650Y48270D01*
X25760Y43130D02*
X26410Y43780D01*
Y44727D01*
X42849Y36976D02*
X43270Y37397D01*
Y40457D01*
X42869Y40858D02*
X43270Y40457D01*
X42787Y37382D02*
X43050Y37645D01*
Y38450D01*
X42500Y39000D02*
X43050Y38450D01*
X21214Y41804D02*
X21330Y41920D01*
X21214Y41447D02*
Y41804D01*
X21330Y41920D02*
X23345D01*
X23415Y41990D01*
X28642Y39685D02*
X29765D01*
X30110Y39340D01*
X30275Y37915D02*
X30300Y37890D01*
X29105Y37915D02*
X30275D01*
X29085Y37895D02*
X29105Y37915D01*
X29034Y39176D02*
X29065Y39145D01*
X28060Y39176D02*
Y39637D01*
Y39176D02*
X29034D01*
X32660Y37960D02*
X33320D01*
X33425Y37854D01*
X27608Y37618D02*
X28240Y38250D01*
X31327D01*
X31654Y37923D01*
X31780Y39340D02*
X31890Y39230D01*
X32180D01*
X32190Y39240D01*
X20839Y39991D02*
X21214D01*
Y39595D02*
Y39991D01*
X20839Y41447D02*
X21214D01*
X24956Y41194D02*
Y41444D01*
X24706Y41194D02*
X24956D01*
Y40944D02*
Y41194D01*
X30530Y31860D02*
Y32110D01*
X30280D02*
X30530D01*
Y32360D01*
X31371Y31670D02*
X31746D01*
X31386Y33179D02*
X31762D01*
X31381Y34660D02*
X31756D01*
X22428Y45579D02*
Y45979D01*
X22028D02*
X22428D01*
X22828D01*
X24741Y44300D02*
X25116D01*
Y43905D02*
Y44300D01*
Y44695D01*
X22428Y45979D02*
Y46379D01*
X22650Y47955D02*
Y48350D01*
X22255D02*
X22650D01*
X23045D01*
X22650D02*
Y48745D01*
X23255Y48350D02*
X23650D01*
X24045D01*
X23650Y47955D02*
Y48350D01*
Y48745D01*
X24255Y48350D02*
X24650D01*
Y47955D02*
Y48350D01*
X25045D01*
X25255D02*
X25650D01*
Y47955D02*
Y48350D01*
X24650D02*
Y48745D01*
X25650Y48350D02*
Y48745D01*
X26950Y41570D02*
Y41820D01*
Y41570D02*
X27200D01*
X25510Y43130D02*
X25760D01*
Y42880D02*
Y43130D01*
X26010D01*
X25760D02*
Y43380D01*
X30728Y41673D02*
Y42049D01*
X25650Y48350D02*
X26045D01*
X31746Y31275D02*
Y31670D01*
X31809Y36998D02*
X32028D01*
X34320Y37560D02*
X34570D01*
X34820D01*
X42050Y31405D02*
Y31800D01*
X41655D02*
X42050D01*
X42445D01*
X42050D02*
Y32195D01*
X32180Y39980D02*
X32430D01*
Y39730D02*
Y39980D01*
X32680D01*
X32430D02*
Y40230D01*
X34093Y40262D02*
X34685D01*
X32090Y41660D02*
X32340D01*
X32090D02*
Y41910D01*
X34093Y40762D02*
X34685D01*
X34093Y41262D02*
X34685D01*
Y41500D01*
X36614Y40762D02*
X37206D01*
X32100Y42570D02*
X32350D01*
Y42820D01*
Y42570D02*
X32600D01*
X35170D02*
Y42820D01*
Y42570D02*
X35420D01*
X35170Y42320D02*
Y42570D01*
X32341Y43440D02*
X32716D01*
X36994Y43455D02*
Y43850D01*
X38056Y43455D02*
Y43850D01*
Y44245D01*
X39538Y44766D02*
X40031D01*
X40525D01*
X42000Y45237D02*
Y45947D01*
D22*
X22780Y42680D02*
X23280D01*
X23520Y42440D01*
X25845D01*
X31306Y32110D02*
X31746Y31670D01*
X30530Y32110D02*
X31306D01*
X25845Y42440D02*
X25866Y42461D01*
X38306Y45384D02*
Y45404D01*
Y45689D01*
Y45404D02*
X38628Y45082D01*
X39178D01*
X40592Y46496D01*
X42621D01*
X43041Y46076D01*
Y43279D02*
Y46076D01*
X42719Y42958D02*
X43041Y43279D01*
X41208Y42958D02*
X42719D01*
X40980Y42730D02*
X41208Y42958D01*
X36582Y37882D02*
X37147D01*
X38235Y38425D02*
X39150Y37510D01*
X37424Y38425D02*
X38235D01*
X37333Y38334D02*
X37424Y38425D01*
X37333Y38068D02*
Y38334D01*
X37147Y37882D02*
X37333Y38068D01*
X36582Y37882D02*
Y37995D01*
X32716Y43520D02*
Y44473D01*
X38844Y43850D02*
Y44846D01*
X38306Y45384D02*
X38844Y44846D01*
X38306Y45689D02*
Y45984D01*
X29075Y36083D02*
Y37077D01*
X28533Y37618D02*
X29075Y37077D01*
X37400Y44890D02*
Y45689D01*
X36994Y44484D02*
X37400Y44890D01*
X36994Y43850D02*
Y44484D01*
Y43850D02*
X37806D01*
X40031Y43651D02*
Y44372D01*
X39563Y43183D02*
X40031Y43651D01*
X38630Y43183D02*
X39563D01*
X38056Y43757D02*
X38630Y43183D01*
X38056Y43757D02*
Y43850D01*
X41213Y45947D02*
X41606D01*
X40031Y44766D02*
X40228Y44963D01*
X40031Y45160D02*
X40228Y44963D01*
X40212Y43506D02*
X41508D01*
X39658Y42953D02*
X40212Y43506D01*
X37101Y42953D02*
X39658D01*
X36206Y43847D02*
X37101Y42953D01*
X36206Y43847D02*
Y43850D01*
X36494Y44138D02*
Y45689D01*
X36206Y43850D02*
X36494Y44138D01*
X27608Y32825D02*
Y37618D01*
Y32825D02*
X29075Y31358D01*
X40031Y44766D02*
X41213Y45947D01*
X40840Y42730D02*
X40980D01*
X39645Y41535D02*
X40840Y42730D01*
X22350Y40690D02*
X23470D01*
X42965Y41355D02*
X43520Y40800D01*
X42965Y41355D02*
Y41578D01*
X42553Y41990D02*
X42965Y41578D01*
X40730Y41990D02*
X42553D01*
X29753Y48130D02*
X29870Y48013D01*
X27747Y48130D02*
X29753D01*
X25610Y45993D02*
X27747Y48130D01*
X22878Y44878D02*
X23110Y45110D01*
X22878Y42778D02*
Y44878D01*
X22780Y42680D02*
X22878Y42778D01*
X22002Y41447D02*
X23383D01*
X23498Y41561D01*
X23700Y41359D01*
X23470Y40690D02*
X23700Y40920D01*
Y41359D01*
X29870Y44800D02*
Y48013D01*
Y44800D02*
X31540Y43130D01*
X25610Y45975D02*
Y45993D01*
X32480Y44710D02*
X32716Y44473D01*
X32480Y44710D02*
Y45573D01*
X34246Y45619D02*
X34839D01*
X35740Y46520D01*
X37770D01*
X38306Y45984D01*
X34685Y39762D02*
Y40262D01*
Y40762D01*
Y41262D01*
X35968Y40762D02*
X36614D01*
X35860Y40870D02*
X35968Y40762D01*
X35860Y40870D02*
Y41580D01*
X35360Y42080D02*
X35860Y41580D01*
X32716Y42936D02*
X33083Y42570D01*
X35360Y42080D02*
Y42320D01*
X35170Y42510D02*
X35360Y42320D01*
X33083Y42570D02*
X35170D01*
D23*
X37783Y37995D02*
X37945D01*
X38820Y37120D01*
X25740Y39250D02*
X25770Y39230D01*
X34073Y37975D02*
X35401D01*
X26880Y38480D02*
X27011Y38349D01*
X26752Y39685D02*
Y40422D01*
X26900Y40570D01*
X25770Y39230D02*
X26225Y39685D01*
X26437D01*
X27011Y38349D02*
X28077D01*
X28239Y38510D01*
X33538D01*
X34073Y37975D01*
D24*
X33504Y43440D02*
X35510D01*
X36620Y42330D01*
X37670D01*
X41400Y40800D02*
X41767Y40433D01*
X42500D01*
X33504Y43440D02*
Y44296D01*
X33340Y44460D02*
X33504Y44296D01*
X33340Y44460D02*
Y45619D01*
Y47941D01*
D25*
X21650Y47350D02*
D03*
X29134Y47421D02*
D03*
X21614Y31308D02*
D03*
Y33012D02*
D03*
D26*
X21650Y48350D02*
D03*
X22650Y47350D02*
D03*
Y48350D02*
D03*
X23650Y47350D02*
D03*
Y48350D02*
D03*
X24650Y47350D02*
D03*
Y48350D02*
D03*
X25650Y47350D02*
D03*
Y48350D02*
D03*
X28134Y47421D02*
D03*
X42050Y31800D02*
D03*
X43050Y32800D02*
D03*
X42050D02*
D03*
X43050Y33800D02*
D03*
X42050D02*
D03*
X43050Y34800D02*
D03*
X42050D02*
D03*
D27*
X23498Y39562D02*
D03*
Y41561D02*
D03*
D28*
X24200Y43420D02*
D03*
X22428Y45979D02*
D03*
Y43420D02*
D03*
X24200Y45979D02*
D03*
D29*
X29862Y33720D02*
D03*
X29075Y31358D02*
D03*
X24272D02*
D03*
Y36083D02*
D03*
X29075D02*
D03*
D30*
X40031Y44766D02*
D03*
D31*
X42000Y45947D02*
D03*
D32*
Y43506D02*
D03*
D33*
X43050Y31800D02*
D03*
D34*
X27432Y40500D02*
D03*
X26950Y41570D02*
D03*
X24956Y41194D02*
D03*
X29170Y43880D02*
D03*
X30690Y43250D02*
D03*
X32190Y39240D02*
D03*
X29920Y44280D02*
D03*
X25760Y43130D02*
D03*
X24450Y42750D02*
D03*
X29630Y37640D02*
D03*
X31850Y40200D02*
D03*
X30530Y32110D02*
D03*
X32430Y39980D02*
D03*
X34570Y37560D02*
D03*
X40980Y42730D02*
D03*
X39150Y37510D02*
D03*
X32350Y42570D02*
D03*
X32090Y41660D02*
D03*
X31370Y40100D02*
D03*
X38820Y37120D02*
D03*
X26880Y38480D02*
D03*
X30530Y39780D02*
D03*
X37670Y42330D02*
D03*
X41400Y40800D02*
D03*
X24540Y40260D02*
D03*
X28150Y40480D02*
D03*
X41760Y37340D02*
D03*
X22350Y40690D02*
D03*
X24620Y41990D02*
D03*
X27420Y41240D02*
D03*
X26900Y40570D02*
D03*
X25740Y39250D02*
D03*
X24850Y39870D02*
D03*
X24920Y40580D02*
D03*
X43520Y40800D02*
D03*
X40730Y41990D02*
D03*
X31540Y43130D02*
D03*
X25610Y45975D02*
D03*
X23110Y45110D02*
D03*
X22780Y42680D02*
D03*
X32660Y37960D02*
D03*
X30300Y37890D02*
D03*
X29085Y37895D02*
D03*
X29065Y39145D02*
D03*
X35170Y42570D02*
D03*
M02*
