%FSLAX24Y24*%
%MOIN*%
G70*
G01*
G75*
G04 Layer_Color=8388736*
%ADD10C,0.0080*%
%ADD11R,0.0571X0.0217*%
%ADD12R,0.0236X0.0571*%
%ADD13R,0.0551X0.0591*%
%ADD14O,0.0984X0.0276*%
%ADD15R,0.0591X0.0551*%
%ADD16R,0.1299X0.1063*%
%ADD17R,0.0394X0.1063*%
%ADD18R,0.0571X0.0236*%
%ADD19O,0.0768X0.0236*%
%ADD20O,0.0236X0.0768*%
%ADD21C,0.0100*%
%ADD22C,0.0150*%
%ADD23C,0.0120*%
%ADD24C,0.0200*%
%ADD25R,0.0591X0.0591*%
%ADD26C,0.0591*%
%ADD27C,0.0472*%
%ADD28C,0.0600*%
%ADD29C,0.0787*%
%ADD30O,0.0787X0.1575*%
%ADD31O,0.1575X0.0787*%
%ADD32O,0.1772X0.0787*%
%ADD33R,0.0591X0.0591*%
%ADD34C,0.0300*%
%ADD35C,0.0350*%
%ADD36C,0.0098*%
%ADD37C,0.0236*%
%ADD38C,0.0079*%
%ADD39C,0.0004*%
%ADD40C,0.0197*%
%ADD41C,0.0295*%
%ADD42R,0.0651X0.0297*%
%ADD43R,0.0316X0.0651*%
%ADD44R,0.0631X0.0671*%
%ADD45O,0.1064X0.0356*%
%ADD46R,0.0671X0.0631*%
%ADD47R,0.1379X0.1143*%
%ADD48R,0.0474X0.1143*%
%ADD49R,0.0651X0.0316*%
%ADD50O,0.0848X0.0316*%
%ADD51O,0.0316X0.0848*%
%ADD52R,0.0671X0.0671*%
%ADD53C,0.0671*%
%ADD54C,0.0552*%
%ADD55C,0.0680*%
%ADD56C,0.0867*%
%ADD57C,0.0080*%
%ADD58O,0.0867X0.1655*%
%ADD59O,0.1655X0.0867*%
%ADD60O,0.1852X0.0867*%
%ADD61R,0.0671X0.0671*%
%ADD62C,0.0380*%
D42*
X27608Y37618D02*
D03*
X28533D02*
D03*
D43*
X31654Y37923D02*
D03*
X32028Y36998D02*
D03*
X31280D02*
D03*
D44*
X25116Y44300D02*
D03*
X25904D02*
D03*
X36206Y43850D02*
D03*
X36994D02*
D03*
X38056D02*
D03*
X38844D02*
D03*
X32716Y43440D02*
D03*
X33504D02*
D03*
X27362Y44567D02*
D03*
X28150D02*
D03*
X21214Y39991D02*
D03*
X22002D02*
D03*
X21214Y41447D02*
D03*
X22002D02*
D03*
X31756Y34660D02*
D03*
X32544D02*
D03*
X31762Y33179D02*
D03*
X32549D02*
D03*
X31746Y31670D02*
D03*
X32534D02*
D03*
X39567Y40295D02*
D03*
X38780D02*
D03*
X39567Y41535D02*
D03*
X38780D02*
D03*
D45*
X34685Y41262D02*
D03*
Y40762D02*
D03*
Y40262D02*
D03*
Y39762D02*
D03*
X36614Y41262D02*
D03*
Y40762D02*
D03*
Y40262D02*
D03*
Y39762D02*
D03*
D46*
X33425Y37067D02*
D03*
Y37854D02*
D03*
X30728Y40886D02*
D03*
Y41673D02*
D03*
X42520Y41240D02*
D03*
Y40453D02*
D03*
X37783Y37995D02*
D03*
Y37207D02*
D03*
X36582Y37995D02*
D03*
Y37207D02*
D03*
X35401Y37975D02*
D03*
Y37188D02*
D03*
X42500Y38169D02*
D03*
Y37382D02*
D03*
D47*
X37400Y48011D02*
D03*
X33340Y47941D02*
D03*
D48*
X38306Y45689D02*
D03*
X37400D02*
D03*
X36494D02*
D03*
X34246Y45619D02*
D03*
X33340D02*
D03*
X32434D02*
D03*
D49*
X40108Y37736D02*
D03*
X41033Y38110D02*
D03*
Y37362D02*
D03*
D50*
X25866Y42461D02*
D03*
Y42146D02*
D03*
Y41831D02*
D03*
Y41516D02*
D03*
Y41201D02*
D03*
Y40886D02*
D03*
Y40571D02*
D03*
Y40256D02*
D03*
X29213D02*
D03*
Y40571D02*
D03*
Y40886D02*
D03*
Y41201D02*
D03*
Y41516D02*
D03*
Y41831D02*
D03*
Y42146D02*
D03*
Y42461D02*
D03*
D51*
X26437Y39685D02*
D03*
X26752D02*
D03*
X27067D02*
D03*
X27382D02*
D03*
X27697D02*
D03*
X28012D02*
D03*
X28327D02*
D03*
X28642D02*
D03*
Y43032D02*
D03*
X28327D02*
D03*
X28012D02*
D03*
X27697D02*
D03*
X27382D02*
D03*
X27067D02*
D03*
X26752D02*
D03*
X26437D02*
D03*
D52*
X21650Y47350D02*
D03*
X29134Y47421D02*
D03*
X21614Y31308D02*
D03*
Y33012D02*
D03*
D53*
X21650Y48350D02*
D03*
X22650Y47350D02*
D03*
Y48350D02*
D03*
X23650Y47350D02*
D03*
Y48350D02*
D03*
X24650Y47350D02*
D03*
Y48350D02*
D03*
X25650Y47350D02*
D03*
Y48350D02*
D03*
X28134Y47421D02*
D03*
X42050Y31800D02*
D03*
X43050Y32800D02*
D03*
X42050D02*
D03*
X43050Y33800D02*
D03*
X42050D02*
D03*
X43050Y34800D02*
D03*
X42050D02*
D03*
D54*
X23498Y39562D02*
D03*
Y41561D02*
D03*
D55*
X24200Y43420D02*
D03*
X22428Y45979D02*
D03*
Y43420D02*
D03*
X24200Y45979D02*
D03*
D56*
X29862Y33720D02*
D03*
X29075Y31358D02*
D03*
X24272D02*
D03*
Y36083D02*
D03*
X29075D02*
D03*
D57*
X41508Y43506D02*
D03*
X40031Y45160D02*
D03*
Y44372D02*
D03*
X42394Y45947D02*
D03*
X41606D02*
D03*
X42492Y43506D02*
D03*
D58*
X40031Y44766D02*
D03*
D59*
X42000Y45947D02*
D03*
D60*
Y43506D02*
D03*
D61*
X43050Y31800D02*
D03*
D62*
X27432Y40500D02*
D03*
X26950Y41570D02*
D03*
X24956Y41194D02*
D03*
X29170Y43880D02*
D03*
X30690Y43250D02*
D03*
X32190Y39240D02*
D03*
X29920Y44280D02*
D03*
X25760Y43130D02*
D03*
X24450Y42750D02*
D03*
X29630Y37640D02*
D03*
X31850Y40200D02*
D03*
X30530Y32110D02*
D03*
X32430Y39980D02*
D03*
X34570Y37560D02*
D03*
X40980Y42730D02*
D03*
X39150Y37510D02*
D03*
X32350Y42570D02*
D03*
X32090Y41660D02*
D03*
X31370Y40100D02*
D03*
X38820Y37120D02*
D03*
X26880Y38480D02*
D03*
X30530Y39780D02*
D03*
X37670Y42330D02*
D03*
X41400Y40800D02*
D03*
X24540Y40260D02*
D03*
X28150Y40480D02*
D03*
X41760Y37340D02*
D03*
X22350Y40690D02*
D03*
X24620Y41990D02*
D03*
X27420Y41240D02*
D03*
X26900Y40570D02*
D03*
X25740Y39250D02*
D03*
X24850Y39870D02*
D03*
X24920Y40580D02*
D03*
X43520Y40800D02*
D03*
X40730Y41990D02*
D03*
X31540Y43130D02*
D03*
X25610Y45975D02*
D03*
X23110Y45110D02*
D03*
X22780Y42680D02*
D03*
X32660Y37960D02*
D03*
X30300Y37890D02*
D03*
X29085Y37895D02*
D03*
X29065Y39145D02*
D03*
X35170Y42570D02*
D03*
M02*
