%FSLAX24Y24*%
%MOIN*%
G70*
G01*
G75*
G04 Layer_Color=65535*
%ADD10C,0.0080*%
%ADD11R,0.0571X0.0217*%
%ADD12R,0.0236X0.0571*%
%ADD13R,0.0551X0.0591*%
%ADD14O,0.0984X0.0276*%
%ADD15R,0.0591X0.0551*%
%ADD16R,0.1299X0.1063*%
%ADD17R,0.0394X0.1063*%
%ADD18R,0.0571X0.0236*%
%ADD19O,0.0768X0.0236*%
%ADD20O,0.0236X0.0768*%
%ADD21C,0.0100*%
%ADD22C,0.0150*%
%ADD23C,0.0120*%
%ADD24C,0.0200*%
%ADD25R,0.0591X0.0591*%
%ADD26C,0.0591*%
%ADD27C,0.0472*%
%ADD28C,0.0600*%
%ADD29C,0.0787*%
%ADD30O,0.0787X0.1575*%
%ADD31O,0.1575X0.0787*%
%ADD32O,0.1772X0.0787*%
%ADD33R,0.0591X0.0591*%
%ADD34C,0.0300*%
%ADD35C,0.0350*%
%ADD36C,0.0098*%
%ADD37C,0.0236*%
%ADD38C,0.0079*%
%ADD39C,0.0004*%
%ADD40C,0.0197*%
%ADD41C,0.0295*%
G36*
X41261Y34400D02*
X37460D01*
Y35567D01*
X41261D01*
Y34400D01*
D02*
G37*
G36*
X40074Y45694D02*
X39434D01*
Y47660D01*
X40074D01*
Y45694D01*
D02*
G37*
G36*
X35590Y43540D02*
X34070D01*
Y44237D01*
X35590D01*
Y43540D01*
D02*
G37*
G36*
X31490Y38150D02*
X27380D01*
Y38910D01*
X31490D01*
Y38150D01*
D02*
G37*
G36*
X27860Y46243D02*
X24885D01*
X24898Y46244D01*
X24911Y46245D01*
X24922Y46246D01*
X24933Y46249D01*
X24943Y46251D01*
X24953Y46254D01*
X24961Y46258D01*
X24968Y46261D01*
X24975Y46264D01*
X24981Y46268D01*
X24986Y46270D01*
X24990Y46273D01*
X24994Y46275D01*
X24996Y46277D01*
X24997Y46278D01*
X24998Y46279D01*
X25005Y46286D01*
X25011Y46293D01*
X25016Y46300D01*
X25021Y46307D01*
X25025Y46315D01*
X25028Y46322D01*
X25031Y46329D01*
X25033Y46336D01*
X25034Y46342D01*
X25036Y46348D01*
X25037Y46353D01*
X25037Y46357D01*
X25038Y46361D01*
Y46363D01*
Y46365D01*
Y46366D01*
Y46373D01*
X25037Y46380D01*
X25034Y46394D01*
X25029Y46405D01*
X25025Y46415D01*
X25019Y46423D01*
X25015Y46428D01*
X25012Y46432D01*
X25011Y46433D01*
X25010D01*
X25006Y46437D01*
X25002Y46440D01*
X24996Y46444D01*
X24989Y46448D01*
X24976Y46456D01*
X24961Y46464D01*
X24948Y46470D01*
X24942Y46473D01*
X24937Y46475D01*
X24933Y46477D01*
X24929Y46479D01*
X24927Y46479D01*
X24926Y46480D01*
X24918Y46483D01*
X24911Y46486D01*
X24905Y46490D01*
X24899Y46493D01*
X24894Y46495D01*
X24889Y46497D01*
X24881Y46502D01*
X24875Y46505D01*
X24872Y46508D01*
X24870Y46509D01*
X24869Y46510D01*
X24865Y46514D01*
X24862Y46519D01*
X24860Y46523D01*
X24858Y46528D01*
X24857Y46531D01*
X24857Y46534D01*
Y46537D01*
Y46537D01*
X24857Y46544D01*
X24859Y46550D01*
X24861Y46554D01*
X24864Y46558D01*
X24866Y46562D01*
X24868Y46564D01*
X24870Y46566D01*
X24871Y46566D01*
X24877Y46571D01*
X24884Y46574D01*
X24892Y46575D01*
X24899Y46577D01*
X24906Y46578D01*
X24912Y46578D01*
X24917D01*
X24929Y46578D01*
X24940Y46576D01*
X24948Y46574D01*
X24955Y46571D01*
X24961Y46568D01*
X24965Y46565D01*
X24967Y46564D01*
X24968Y46563D01*
X24974Y46557D01*
X24978Y46550D01*
X24982Y46543D01*
X24985Y46537D01*
X24987Y46530D01*
X24988Y46526D01*
X24988Y46522D01*
Y46521D01*
Y46521D01*
X25064Y46524D01*
X25063Y46534D01*
X25061Y46543D01*
X25056Y46559D01*
X25052Y46567D01*
X25049Y46574D01*
X25045Y46581D01*
X25042Y46586D01*
X25038Y46591D01*
X25034Y46596D01*
X25031Y46600D01*
X25028Y46603D01*
X25026Y46605D01*
X25024Y46607D01*
X25023Y46608D01*
X25022Y46609D01*
X25015Y46614D01*
X25007Y46619D01*
X24999Y46624D01*
X24991Y46627D01*
X24973Y46633D01*
X24956Y46637D01*
X24948Y46638D01*
X24941Y46639D01*
X24935Y46640D01*
X24929Y46640D01*
X24925Y46641D01*
X24918D01*
X24906Y46640D01*
X24895Y46640D01*
X24884Y46638D01*
X24874Y46636D01*
X24865Y46633D01*
X24857Y46631D01*
X24849Y46628D01*
X24842Y46625D01*
X24836Y46621D01*
X24831Y46619D01*
X24826Y46616D01*
X24823Y46614D01*
X24820Y46612D01*
X24818Y46610D01*
X24817Y46609D01*
X24816Y46609D01*
X24810Y46602D01*
X24805Y46596D01*
X24800Y46589D01*
X24796Y46582D01*
X24793Y46576D01*
X24790Y46569D01*
X24786Y46556D01*
X24783Y46545D01*
X24782Y46540D01*
X24782Y46536D01*
X24781Y46533D01*
Y46530D01*
Y46528D01*
Y46528D01*
X24782Y46518D01*
X24783Y46509D01*
X24785Y46500D01*
X24787Y46493D01*
X24789Y46488D01*
X24791Y46483D01*
X24792Y46480D01*
X24793Y46479D01*
X24798Y46472D01*
X24803Y46465D01*
X24808Y46459D01*
X24813Y46455D01*
X24818Y46451D01*
X24822Y46448D01*
X24824Y46446D01*
X24825Y46445D01*
X24834Y46440D01*
X24844Y46435D01*
X24855Y46430D01*
X24866Y46424D01*
X24875Y46420D01*
X24879Y46418D01*
X24884Y46417D01*
X24886Y46415D01*
X24889Y46414D01*
X24890Y46413D01*
X24891D01*
X24899Y46410D01*
X24906Y46406D01*
X24912Y46403D01*
X24918Y46401D01*
X24923Y46398D01*
X24928Y46396D01*
X24932Y46394D01*
X24935Y46392D01*
X24940Y46389D01*
X24943Y46387D01*
X24945Y46386D01*
X24946Y46385D01*
X24950Y46380D01*
X24954Y46376D01*
X24957Y46371D01*
X24958Y46366D01*
X24960Y46362D01*
X24960Y46359D01*
Y46357D01*
Y46356D01*
X24960Y46349D01*
X24957Y46343D01*
X24955Y46337D01*
X24951Y46332D01*
X24948Y46328D01*
X24946Y46325D01*
X24943Y46323D01*
X24943Y46323D01*
X24935Y46318D01*
X24926Y46315D01*
X24917Y46313D01*
X24908Y46311D01*
X24899Y46310D01*
X24892Y46309D01*
X24878D01*
X24870Y46310D01*
X24862Y46311D01*
X24856Y46313D01*
X24850Y46314D01*
X24845Y46316D01*
X24840Y46317D01*
X24837Y46320D01*
X24830Y46323D01*
X24826Y46327D01*
X24823Y46329D01*
X24822Y46330D01*
X24819Y46335D01*
X24816Y46342D01*
X24813Y46351D01*
X24812Y46358D01*
X24811Y46366D01*
X24810Y46372D01*
X24810Y46375D01*
Y46376D01*
Y46378D01*
Y46378D01*
X24734Y46374D01*
Y46360D01*
X24736Y46347D01*
X24738Y46335D01*
X24741Y46325D01*
X24743Y46317D01*
X24746Y46311D01*
X24747Y46308D01*
X24747Y46307D01*
X24748Y46306D01*
Y46306D01*
X24754Y46295D01*
X24762Y46286D01*
X24771Y46278D01*
X24779Y46271D01*
X24787Y46266D01*
X24793Y46262D01*
X24796Y46261D01*
X24798Y46260D01*
X24799Y46259D01*
X24799D01*
X24813Y46254D01*
X24828Y46250D01*
X24843Y46247D01*
X24856Y46245D01*
X24862Y46244D01*
X24868D01*
X24872Y46244D01*
X24877Y46243D01*
X24570D01*
Y46678D01*
X27860D01*
Y46243D01*
D02*
G37*
%LPC*%
G36*
X39506Y46071D02*
Y45732D01*
X39599Y45714D01*
Y45932D01*
X39625Y45910D01*
X39652Y45891D01*
X39677Y45873D01*
X39689Y45865D01*
X39700Y45858D01*
X39710Y45851D01*
X39719Y45846D01*
X39727Y45840D01*
X39734Y45836D01*
X39739Y45833D01*
X39744Y45831D01*
X39746Y45829D01*
X39747Y45828D01*
X39776Y45813D01*
X39805Y45800D01*
X39832Y45787D01*
X39844Y45782D01*
X39856Y45777D01*
X39867Y45772D01*
X39877Y45768D01*
X39885Y45765D01*
X39892Y45763D01*
X39899Y45761D01*
X39903Y45759D01*
X39906Y45757D01*
X39907D01*
X39930Y45750D01*
X39951Y45743D01*
X39969Y45738D01*
X39978Y45736D01*
X39985Y45734D01*
X39991Y45732D01*
X39996Y45731D01*
X40001Y45730D01*
X40005Y45729D01*
X40008Y45729D01*
X40010Y45728D01*
X40012D01*
Y45823D01*
X40004Y45825D01*
X39996Y45826D01*
X39978Y45832D01*
X39957Y45837D01*
X39939Y45843D01*
X39929Y45846D01*
X39921Y45850D01*
X39913Y45852D01*
X39907Y45854D01*
X39901Y45856D01*
X39896Y45857D01*
X39894Y45859D01*
X39893D01*
X39871Y45868D01*
X39850Y45876D01*
X39829Y45886D01*
X39810Y45894D01*
X39803Y45898D01*
X39795Y45901D01*
X39788Y45904D01*
X39782Y45907D01*
X39778Y45910D01*
X39775Y45911D01*
X39772Y45913D01*
X39771D01*
X39748Y45925D01*
X39726Y45939D01*
X39707Y45950D01*
X39689Y45961D01*
X39682Y45967D01*
X39675Y45971D01*
X39670Y45975D01*
X39665Y45978D01*
X39661Y45981D01*
X39658Y45983D01*
X39657Y45984D01*
X39656Y45985D01*
X39637Y45999D01*
X39621Y46013D01*
X39608Y46025D01*
X39596Y46035D01*
X39588Y46044D01*
X39582Y46051D01*
X39578Y46055D01*
X39577Y46057D01*
X39506Y46071D01*
D02*
G37*
G36*
X39778Y46279D02*
Y46085D01*
X39875Y46066D01*
Y46260D01*
X39778Y46279D01*
D02*
G37*
G36*
X29052Y38570D02*
X29047D01*
X29039Y38570D01*
X29031Y38569D01*
X29024Y38567D01*
X29018Y38566D01*
X29012Y38565D01*
X29008Y38563D01*
X29006Y38562D01*
X29005Y38562D01*
X28997Y38558D01*
X28990Y38554D01*
X28983Y38549D01*
X28976Y38545D01*
X28970Y38541D01*
X28966Y38538D01*
X28963Y38535D01*
X28962Y38535D01*
X28968Y38563D01*
X28897D01*
X28817Y38179D01*
X28891D01*
X28921Y38322D01*
X28927Y38315D01*
X28933Y38308D01*
X28939Y38302D01*
X28946Y38297D01*
X28953Y38292D01*
X28960Y38289D01*
X28967Y38286D01*
X28974Y38284D01*
X28986Y38280D01*
X28991Y38279D01*
X28996Y38278D01*
X28999D01*
X29002Y38278D01*
X29005D01*
X29015Y38278D01*
X29025Y38280D01*
X29033Y38282D01*
X29042Y38285D01*
X29059Y38292D01*
X29066Y38296D01*
X29072Y38300D01*
X29078Y38304D01*
X29083Y38308D01*
X29088Y38312D01*
X29091Y38315D01*
X29094Y38318D01*
X29097Y38320D01*
X29098Y38321D01*
X29098Y38322D01*
X29107Y38332D01*
X29114Y38342D01*
X29120Y38353D01*
X29125Y38364D01*
X29129Y38375D01*
X29133Y38386D01*
X29136Y38395D01*
X29139Y38405D01*
X29140Y38415D01*
X29142Y38423D01*
X29143Y38431D01*
X29144Y38437D01*
X29145Y38443D01*
Y38446D01*
Y38449D01*
Y38450D01*
Y38461D01*
X29143Y38471D01*
X29142Y38480D01*
X29140Y38489D01*
X29138Y38497D01*
X29136Y38505D01*
X29133Y38511D01*
X29131Y38517D01*
X29129Y38522D01*
X29126Y38527D01*
X29124Y38531D01*
X29122Y38534D01*
X29120Y38537D01*
X29119Y38539D01*
X29118Y38539D01*
X29118Y38540D01*
X29112Y38545D01*
X29107Y38550D01*
X29101Y38554D01*
X29095Y38557D01*
X29084Y38563D01*
X29073Y38567D01*
X29063Y38569D01*
X29059Y38569D01*
X29054Y38570D01*
X29052Y38570D01*
D02*
G37*
G36*
X28012Y38669D02*
X27937D01*
X27923Y38601D01*
X27998D01*
X28012Y38669D01*
D02*
G37*
G36*
X39496Y46641D02*
Y46579D01*
X39511Y46565D01*
X39524Y46550D01*
X39537Y46535D01*
X39549Y46518D01*
X39571Y46485D01*
X39582Y46468D01*
X39591Y46453D01*
X39600Y46438D01*
X39607Y46424D01*
X39613Y46411D01*
X39618Y46400D01*
X39623Y46392D01*
X39626Y46385D01*
X39628Y46381D01*
X39628Y46379D01*
X39718Y46360D01*
X39715Y46373D01*
X39712Y46385D01*
X39708Y46397D01*
X39704Y46409D01*
X39700Y46418D01*
X39698Y46426D01*
X39696Y46429D01*
X39696Y46431D01*
X39695Y46432D01*
Y46433D01*
X39689Y46448D01*
X39682Y46461D01*
X39675Y46474D01*
X39670Y46485D01*
X39664Y46493D01*
X39660Y46499D01*
X39658Y46503D01*
X39657Y46505D01*
X40012Y46431D01*
Y46533D01*
X39496Y46641D01*
D02*
G37*
G36*
X34433Y44074D02*
X34354D01*
X34274Y43690D01*
X34549D01*
X34562Y43754D01*
X34366D01*
X34433Y44074D01*
D02*
G37*
G36*
X34808D02*
X34680D01*
X34601Y43690D01*
X34754D01*
X34762Y43690D01*
X34769D01*
X34776Y43691D01*
X34783Y43691D01*
X34788Y43692D01*
X34793Y43693D01*
X34798D01*
X34801Y43693D01*
X34805Y43694D01*
X34807Y43694D01*
X34810D01*
X34811Y43695D01*
X34812D01*
X34827Y43700D01*
X34841Y43704D01*
X34853Y43710D01*
X34863Y43715D01*
X34872Y43720D01*
X34878Y43724D01*
X34880Y43725D01*
X34881Y43726D01*
X34882Y43728D01*
X34883D01*
X34896Y43739D01*
X34907Y43752D01*
X34917Y43764D01*
X34926Y43776D01*
X34933Y43787D01*
X34936Y43792D01*
X34938Y43795D01*
X34940Y43799D01*
X34941Y43801D01*
X34942Y43803D01*
Y43804D01*
X34951Y43822D01*
X34956Y43842D01*
X34960Y43860D01*
X34963Y43877D01*
X34965Y43885D01*
X34965Y43892D01*
X34966Y43898D01*
Y43904D01*
X34966Y43908D01*
Y43911D01*
Y43914D01*
Y43914D01*
Y43925D01*
X34965Y43935D01*
X34965Y43944D01*
X34963Y43951D01*
X34962Y43958D01*
X34961Y43963D01*
X34960Y43966D01*
X34960Y43967D01*
X34958Y43976D01*
X34955Y43984D01*
X34952Y43991D01*
X34949Y43998D01*
X34947Y44003D01*
X34945Y44007D01*
X34943Y44010D01*
X34943Y44010D01*
X34939Y44017D01*
X34934Y44023D01*
X34929Y44028D01*
X34925Y44033D01*
X34922Y44037D01*
X34919Y44039D01*
X34917Y44041D01*
X34916Y44042D01*
X34910Y44046D01*
X34904Y44051D01*
X34898Y44054D01*
X34893Y44057D01*
X34889Y44059D01*
X34885Y44061D01*
X34883Y44062D01*
X34882Y44062D01*
X34867Y44067D01*
X34860Y44069D01*
X34854Y44070D01*
X34848Y44071D01*
X34843Y44072D01*
X34841Y44072D01*
X34839D01*
X34837Y44073D01*
X34834D01*
X34826Y44073D01*
X34817D01*
X34808Y44074D01*
D02*
G37*
G36*
X35234Y44080D02*
X35227D01*
X35207Y44079D01*
X35189Y44077D01*
X35173Y44073D01*
X35166Y44072D01*
X35159Y44070D01*
X35153Y44068D01*
X35148Y44066D01*
X35143Y44064D01*
X35139Y44062D01*
X35135Y44061D01*
X35133Y44060D01*
X35132Y44059D01*
X35131D01*
X35117Y44050D01*
X35103Y44041D01*
X35091Y44031D01*
X35081Y44021D01*
X35073Y44013D01*
X35067Y44006D01*
X35065Y44003D01*
X35063Y44001D01*
X35063Y44000D01*
X35062Y44000D01*
X35053Y43985D01*
X35045Y43970D01*
X35038Y43955D01*
X35032Y43942D01*
X35029Y43935D01*
X35028Y43930D01*
X35026Y43925D01*
X35024Y43920D01*
X35023Y43917D01*
X35022Y43914D01*
X35022Y43912D01*
Y43912D01*
X35018Y43898D01*
X35016Y43884D01*
X35014Y43873D01*
X35013Y43862D01*
X35013Y43853D01*
Y43849D01*
X35012Y43846D01*
Y43843D01*
Y43842D01*
Y43841D01*
Y43840D01*
X35013Y43826D01*
X35014Y43813D01*
X35017Y43801D01*
X35020Y43790D01*
X35022Y43780D01*
X35023Y43776D01*
X35024Y43773D01*
X35025Y43770D01*
X35026Y43769D01*
X35027Y43767D01*
Y43767D01*
X35033Y43754D01*
X35041Y43742D01*
X35049Y43732D01*
X35058Y43724D01*
X35066Y43717D01*
X35072Y43711D01*
X35075Y43709D01*
X35076Y43708D01*
X35077Y43707D01*
X35078Y43707D01*
X35093Y43698D01*
X35108Y43693D01*
X35123Y43688D01*
X35137Y43686D01*
X35144Y43684D01*
X35150Y43684D01*
X35155Y43683D01*
X35160D01*
X35163Y43683D01*
X35169D01*
X35180Y43683D01*
X35191Y43684D01*
X35212Y43687D01*
X35221Y43690D01*
X35231Y43692D01*
X35240Y43695D01*
X35247Y43698D01*
X35254Y43701D01*
X35261Y43704D01*
X35266Y43706D01*
X35271Y43708D01*
X35275Y43710D01*
X35277Y43712D01*
X35279Y43712D01*
X35279Y43713D01*
X35288Y43719D01*
X35297Y43725D01*
X35312Y43739D01*
X35326Y43754D01*
X35337Y43768D01*
X35341Y43774D01*
X35345Y43781D01*
X35349Y43786D01*
X35352Y43791D01*
X35354Y43795D01*
X35356Y43798D01*
X35357Y43800D01*
X35357Y43800D01*
X35362Y43811D01*
X35366Y43822D01*
X35371Y43832D01*
X35373Y43843D01*
X35379Y43863D01*
X35380Y43872D01*
X35382Y43881D01*
X35383Y43889D01*
X35384Y43896D01*
X35385Y43903D01*
Y43908D01*
X35386Y43912D01*
Y43915D01*
Y43918D01*
Y43918D01*
X35385Y43932D01*
X35384Y43945D01*
X35382Y43956D01*
X35379Y43967D01*
X35375Y43978D01*
X35372Y43988D01*
X35368Y43997D01*
X35364Y44004D01*
X35359Y44012D01*
X35355Y44018D01*
X35352Y44024D01*
X35348Y44028D01*
X35345Y44031D01*
X35343Y44034D01*
X35342Y44035D01*
X35341Y44036D01*
X35333Y44044D01*
X35324Y44051D01*
X35314Y44056D01*
X35305Y44062D01*
X35295Y44066D01*
X35286Y44069D01*
X35276Y44073D01*
X35268Y44075D01*
X35259Y44077D01*
X35251Y44078D01*
X35244Y44079D01*
X35238Y44080D01*
X35234Y44080D01*
D02*
G37*
G36*
X39640Y47083D02*
X39635D01*
X39624Y47082D01*
X39613Y47081D01*
X39594Y47077D01*
X39577Y47069D01*
X39563Y47062D01*
X39551Y47055D01*
X39546Y47051D01*
X39543Y47048D01*
X39539Y47045D01*
X39537Y47043D01*
X39536Y47042D01*
X39536Y47041D01*
X39529Y47034D01*
X39522Y47025D01*
X39518Y47016D01*
X39513Y47007D01*
X39506Y46988D01*
X39501Y46970D01*
X39499Y46954D01*
X39497Y46947D01*
Y46941D01*
X39496Y46936D01*
Y46932D01*
Y46930D01*
Y46929D01*
X39497Y46917D01*
X39498Y46905D01*
X39503Y46884D01*
X39508Y46866D01*
X39515Y46850D01*
X39519Y46844D01*
X39522Y46838D01*
X39526Y46833D01*
X39529Y46828D01*
X39531Y46825D01*
X39533Y46823D01*
X39534Y46821D01*
X39535Y46820D01*
X39543Y46813D01*
X39550Y46806D01*
X39568Y46794D01*
X39586Y46784D01*
X39604Y46777D01*
X39620Y46772D01*
X39627Y46770D01*
X39633Y46768D01*
X39638Y46767D01*
X39642Y46766D01*
X39644Y46766D01*
X39645D01*
X39659Y46863D01*
X39643Y46867D01*
X39629Y46871D01*
X39618Y46876D01*
X39609Y46880D01*
X39602Y46884D01*
X39597Y46887D01*
X39595Y46889D01*
X39594Y46890D01*
X39588Y46897D01*
X39583Y46904D01*
X39580Y46911D01*
X39578Y46917D01*
X39576Y46923D01*
X39575Y46927D01*
Y46930D01*
Y46931D01*
X39576Y46940D01*
X39578Y46947D01*
X39581Y46954D01*
X39583Y46959D01*
X39586Y46963D01*
X39589Y46967D01*
X39591Y46969D01*
X39592Y46970D01*
X39598Y46975D01*
X39605Y46979D01*
X39612Y46981D01*
X39619Y46984D01*
X39625Y46984D01*
X39629Y46985D01*
X39640D01*
X39646Y46984D01*
X39658Y46980D01*
X39664Y46979D01*
X39668Y46977D01*
X39670Y46977D01*
X39671Y46976D01*
X39678Y46972D01*
X39686Y46966D01*
X39694Y46961D01*
X39701Y46955D01*
X39708Y46950D01*
X39713Y46946D01*
X39716Y46943D01*
X39718Y46942D01*
X39721Y46939D01*
X39725Y46936D01*
X39734Y46927D01*
X39745Y46916D01*
X39756Y46905D01*
X39766Y46895D01*
X39775Y46886D01*
X39778Y46882D01*
X39780Y46880D01*
X39782Y46878D01*
X39782Y46877D01*
X39794Y46865D01*
X39805Y46854D01*
X39815Y46843D01*
X39825Y46834D01*
X39833Y46825D01*
X39841Y46817D01*
X39848Y46810D01*
X39854Y46805D01*
X39860Y46799D01*
X39864Y46795D01*
X39871Y46788D01*
X39875Y46784D01*
X39877Y46783D01*
X39888Y46774D01*
X39899Y46766D01*
X39910Y46758D01*
X39920Y46752D01*
X39928Y46747D01*
X39935Y46743D01*
X39939Y46741D01*
X39940Y46740D01*
X39941D01*
X39953Y46734D01*
X39966Y46729D01*
X39978Y46726D01*
X39989Y46723D01*
X39999Y46720D01*
X40006Y46719D01*
X40010Y46718D01*
X40012D01*
Y47029D01*
X39921Y47048D01*
Y46871D01*
X39908Y46881D01*
X39903Y46886D01*
X39898Y46890D01*
X39893Y46894D01*
X39890Y46897D01*
X39889Y46898D01*
X39888Y46899D01*
X39881Y46906D01*
X39871Y46916D01*
X39861Y46926D01*
X39852Y46937D01*
X39842Y46946D01*
X39835Y46954D01*
X39832Y46957D01*
X39829Y46959D01*
X39828Y46961D01*
X39828Y46962D01*
X39812Y46978D01*
X39799Y46992D01*
X39787Y47004D01*
X39778Y47013D01*
X39770Y47020D01*
X39765Y47025D01*
X39761Y47028D01*
X39760Y47029D01*
X39748Y47039D01*
X39735Y47047D01*
X39725Y47054D01*
X39715Y47060D01*
X39707Y47064D01*
X39701Y47067D01*
X39697Y47069D01*
X39696Y47069D01*
X39684Y47074D01*
X39673Y47077D01*
X39663Y47080D01*
X39653Y47081D01*
X39646Y47082D01*
X39640Y47083D01*
D02*
G37*
G36*
X39499Y47640D02*
Y47536D01*
X39887Y47323D01*
X39499Y47259D01*
Y47154D01*
X40012Y47245D01*
Y47358D01*
X39499Y47640D01*
D02*
G37*
G36*
X31073Y38570D02*
X31067D01*
X31055Y38570D01*
X31042Y38569D01*
X31031Y38566D01*
X31020Y38563D01*
X31010Y38560D01*
X31000Y38556D01*
X30991Y38552D01*
X30984Y38548D01*
X30977Y38543D01*
X30971Y38539D01*
X30966Y38535D01*
X30961Y38531D01*
X30958Y38528D01*
X30955Y38526D01*
X30954Y38525D01*
X30953Y38524D01*
X30946Y38515D01*
X30939Y38505D01*
X30933Y38495D01*
X30928Y38486D01*
X30924Y38475D01*
X30921Y38464D01*
X30918Y38455D01*
X30915Y38445D01*
X30914Y38436D01*
X30912Y38427D01*
X30911Y38419D01*
X30911Y38413D01*
Y38408D01*
X30910Y38404D01*
Y38401D01*
Y38400D01*
X30911Y38388D01*
X30912Y38376D01*
X30915Y38366D01*
X30918Y38356D01*
X30920Y38349D01*
X30922Y38343D01*
X30924Y38340D01*
X30924Y38339D01*
X30925Y38338D01*
Y38338D01*
X30931Y38328D01*
X30938Y38318D01*
X30945Y38311D01*
X30953Y38305D01*
X30959Y38300D01*
X30965Y38296D01*
X30969Y38294D01*
X30969Y38293D01*
X30970D01*
X30981Y38288D01*
X30994Y38284D01*
X31005Y38281D01*
X31016Y38280D01*
X31025Y38278D01*
X31029D01*
X31033Y38278D01*
X31039D01*
X31053Y38278D01*
X31065Y38280D01*
X31077Y38283D01*
X31088Y38285D01*
X31098Y38290D01*
X31108Y38294D01*
X31117Y38298D01*
X31125Y38302D01*
X31132Y38307D01*
X31138Y38311D01*
X31143Y38316D01*
X31148Y38319D01*
X31151Y38322D01*
X31153Y38325D01*
X31155Y38326D01*
X31155Y38327D01*
X31163Y38336D01*
X31169Y38346D01*
X31175Y38356D01*
X31180Y38366D01*
X31184Y38376D01*
X31188Y38386D01*
X31191Y38395D01*
X31193Y38404D01*
X31195Y38413D01*
X31196Y38421D01*
X31197Y38428D01*
X31198Y38433D01*
X31198Y38438D01*
Y38442D01*
Y38444D01*
Y38445D01*
X31198Y38455D01*
X31197Y38465D01*
X31196Y38474D01*
X31193Y38483D01*
X31190Y38491D01*
X31187Y38498D01*
X31184Y38505D01*
X31182Y38512D01*
X31178Y38517D01*
X31175Y38522D01*
X31172Y38526D01*
X31169Y38529D01*
X31167Y38532D01*
X31166Y38534D01*
X31165Y38535D01*
X31164Y38536D01*
X31157Y38542D01*
X31150Y38548D01*
X31142Y38552D01*
X31134Y38556D01*
X31127Y38559D01*
X31118Y38562D01*
X31103Y38566D01*
X31096Y38567D01*
X31089Y38569D01*
X31083Y38569D01*
X31078Y38570D01*
X31073Y38570D01*
D02*
G37*
G36*
X27990Y38563D02*
X27915D01*
X27858Y38285D01*
X27932D01*
X27990Y38563D01*
D02*
G37*
G36*
X27849Y38669D02*
X27735D01*
X27615Y38405D01*
X27603Y38669D01*
X27491D01*
X27411Y38285D01*
X27482D01*
X27543Y38605D01*
X27557Y38285D01*
X27632D01*
X27774Y38603D01*
X27708Y38285D01*
X27779D01*
X27849Y38669D01*
D02*
G37*
G36*
X28688Y38570D02*
X28682D01*
X28670Y38570D01*
X28657Y38569D01*
X28646Y38566D01*
X28635Y38563D01*
X28624Y38560D01*
X28615Y38556D01*
X28606Y38552D01*
X28599Y38548D01*
X28592Y38543D01*
X28586Y38539D01*
X28581Y38535D01*
X28576Y38531D01*
X28573Y38528D01*
X28570Y38526D01*
X28569Y38525D01*
X28568Y38524D01*
X28561Y38515D01*
X28554Y38505D01*
X28548Y38495D01*
X28543Y38486D01*
X28539Y38475D01*
X28536Y38464D01*
X28533Y38455D01*
X28530Y38445D01*
X28529Y38436D01*
X28527Y38427D01*
X28526Y38419D01*
X28526Y38413D01*
Y38408D01*
X28525Y38404D01*
Y38401D01*
Y38400D01*
X28526Y38388D01*
X28527Y38376D01*
X28530Y38366D01*
X28533Y38356D01*
X28535Y38349D01*
X28537Y38343D01*
X28538Y38340D01*
X28539Y38339D01*
X28540Y38338D01*
Y38338D01*
X28546Y38328D01*
X28553Y38318D01*
X28560Y38311D01*
X28568Y38305D01*
X28574Y38300D01*
X28580Y38296D01*
X28584Y38294D01*
X28584Y38293D01*
X28585D01*
X28596Y38288D01*
X28609Y38284D01*
X28620Y38281D01*
X28631Y38280D01*
X28640Y38278D01*
X28644D01*
X28648Y38278D01*
X28654D01*
X28668Y38278D01*
X28680Y38280D01*
X28692Y38283D01*
X28703Y38285D01*
X28713Y38290D01*
X28723Y38294D01*
X28732Y38298D01*
X28740Y38302D01*
X28747Y38307D01*
X28753Y38311D01*
X28758Y38316D01*
X28763Y38319D01*
X28765Y38322D01*
X28768Y38325D01*
X28770Y38326D01*
X28770Y38327D01*
X28778Y38336D01*
X28784Y38346D01*
X28790Y38356D01*
X28795Y38366D01*
X28799Y38376D01*
X28803Y38386D01*
X28806Y38395D01*
X28808Y38404D01*
X28810Y38413D01*
X28811Y38421D01*
X28812Y38428D01*
X28813Y38433D01*
X28813Y38438D01*
Y38442D01*
Y38444D01*
Y38445D01*
X28813Y38455D01*
X28812Y38465D01*
X28811Y38474D01*
X28808Y38483D01*
X28805Y38491D01*
X28802Y38498D01*
X28799Y38505D01*
X28796Y38512D01*
X28793Y38517D01*
X28790Y38522D01*
X28787Y38526D01*
X28784Y38529D01*
X28782Y38532D01*
X28781Y38534D01*
X28780Y38535D01*
X28779Y38536D01*
X28772Y38542D01*
X28765Y38548D01*
X28757Y38552D01*
X28749Y38556D01*
X28741Y38559D01*
X28733Y38562D01*
X28718Y38566D01*
X28710Y38567D01*
X28704Y38569D01*
X28698Y38569D01*
X28693Y38570D01*
X28688Y38570D01*
D02*
G37*
G36*
X29552D02*
X29546D01*
X29534Y38570D01*
X29521Y38569D01*
X29510Y38566D01*
X29499Y38563D01*
X29489Y38560D01*
X29479Y38556D01*
X29470Y38552D01*
X29463Y38548D01*
X29456Y38543D01*
X29450Y38539D01*
X29445Y38535D01*
X29440Y38531D01*
X29437Y38528D01*
X29434Y38526D01*
X29433Y38525D01*
X29432Y38524D01*
X29425Y38515D01*
X29418Y38505D01*
X29412Y38495D01*
X29407Y38486D01*
X29403Y38475D01*
X29400Y38464D01*
X29397Y38455D01*
X29394Y38445D01*
X29393Y38436D01*
X29391Y38427D01*
X29390Y38419D01*
X29390Y38413D01*
Y38408D01*
X29389Y38404D01*
Y38401D01*
Y38400D01*
X29390Y38388D01*
X29391Y38376D01*
X29394Y38366D01*
X29397Y38356D01*
X29399Y38349D01*
X29401Y38343D01*
X29403Y38340D01*
X29403Y38339D01*
X29404Y38338D01*
Y38338D01*
X29410Y38328D01*
X29417Y38318D01*
X29424Y38311D01*
X29432Y38305D01*
X29438Y38300D01*
X29444Y38296D01*
X29448Y38294D01*
X29448Y38293D01*
X29449D01*
X29460Y38288D01*
X29473Y38284D01*
X29484Y38281D01*
X29495Y38280D01*
X29504Y38278D01*
X29508D01*
X29512Y38278D01*
X29518D01*
X29532Y38278D01*
X29544Y38280D01*
X29556Y38283D01*
X29567Y38285D01*
X29577Y38290D01*
X29587Y38294D01*
X29596Y38298D01*
X29604Y38302D01*
X29611Y38307D01*
X29617Y38311D01*
X29622Y38316D01*
X29627Y38319D01*
X29630Y38322D01*
X29632Y38325D01*
X29634Y38326D01*
X29634Y38327D01*
X29642Y38336D01*
X29648Y38346D01*
X29654Y38356D01*
X29659Y38366D01*
X29663Y38376D01*
X29667Y38386D01*
X29670Y38395D01*
X29672Y38404D01*
X29674Y38413D01*
X29675Y38421D01*
X29676Y38428D01*
X29677Y38433D01*
X29677Y38438D01*
Y38442D01*
Y38444D01*
Y38445D01*
X29677Y38455D01*
X29676Y38465D01*
X29675Y38474D01*
X29672Y38483D01*
X29669Y38491D01*
X29666Y38498D01*
X29663Y38505D01*
X29661Y38512D01*
X29657Y38517D01*
X29654Y38522D01*
X29651Y38526D01*
X29648Y38529D01*
X29646Y38532D01*
X29645Y38534D01*
X29644Y38535D01*
X29643Y38536D01*
X29636Y38542D01*
X29629Y38548D01*
X29621Y38552D01*
X29613Y38556D01*
X29606Y38559D01*
X29597Y38562D01*
X29582Y38566D01*
X29575Y38567D01*
X29568Y38569D01*
X29562Y38569D01*
X29557Y38570D01*
X29552Y38570D01*
D02*
G37*
G36*
X30173D02*
X30168D01*
X30154Y38570D01*
X30140Y38568D01*
X30127Y38565D01*
X30115Y38561D01*
X30104Y38556D01*
X30094Y38551D01*
X30085Y38546D01*
X30076Y38540D01*
X30069Y38534D01*
X30063Y38529D01*
X30057Y38524D01*
X30053Y38519D01*
X30050Y38515D01*
X30047Y38512D01*
X30045Y38510D01*
X30045Y38510D01*
X30040Y38501D01*
X30034Y38493D01*
X30030Y38484D01*
X30027Y38475D01*
X30021Y38458D01*
X30017Y38442D01*
X30016Y38435D01*
X30015Y38428D01*
X30014Y38422D01*
X30014Y38418D01*
X30013Y38414D01*
Y38410D01*
Y38408D01*
Y38408D01*
X30014Y38397D01*
X30015Y38387D01*
X30017Y38377D01*
X30019Y38368D01*
X30021Y38360D01*
X30024Y38352D01*
X30027Y38345D01*
X30031Y38338D01*
X30034Y38332D01*
X30037Y38328D01*
X30040Y38323D01*
X30043Y38319D01*
X30045Y38316D01*
X30047Y38315D01*
X30048Y38314D01*
X30048Y38313D01*
X30055Y38307D01*
X30062Y38301D01*
X30070Y38297D01*
X30078Y38292D01*
X30085Y38290D01*
X30093Y38287D01*
X30107Y38283D01*
X30114Y38281D01*
X30120Y38280D01*
X30126Y38279D01*
X30130Y38278D01*
X30134Y38278D01*
X30140D01*
X30155Y38278D01*
X30168Y38281D01*
X30181Y38284D01*
X30192Y38288D01*
X30201Y38291D01*
X30205Y38293D01*
X30207Y38295D01*
X30210Y38296D01*
X30212Y38297D01*
X30213Y38298D01*
X30213D01*
X30225Y38307D01*
X30236Y38316D01*
X30245Y38326D01*
X30253Y38336D01*
X30258Y38345D01*
X30261Y38349D01*
X30263Y38353D01*
X30265Y38355D01*
X30265Y38357D01*
X30267Y38359D01*
Y38359D01*
X30199Y38370D01*
X30195Y38363D01*
X30191Y38357D01*
X30186Y38352D01*
X30181Y38348D01*
X30176Y38344D01*
X30171Y38341D01*
X30162Y38336D01*
X30153Y38334D01*
X30147Y38332D01*
X30144Y38332D01*
X30140D01*
X30132Y38332D01*
X30124Y38335D01*
X30118Y38337D01*
X30112Y38340D01*
X30107Y38343D01*
X30104Y38346D01*
X30102Y38348D01*
X30101Y38349D01*
X30096Y38356D01*
X30092Y38363D01*
X30089Y38370D01*
X30087Y38377D01*
X30086Y38384D01*
X30085Y38389D01*
Y38393D01*
Y38393D01*
Y38394D01*
Y38396D01*
X30086Y38398D01*
Y38400D01*
Y38401D01*
X30275D01*
X30278Y38418D01*
X30279Y38426D01*
X30279Y38433D01*
X30280Y38440D01*
Y38445D01*
Y38449D01*
Y38449D01*
Y38450D01*
X30279Y38460D01*
X30279Y38470D01*
X30277Y38479D01*
X30275Y38488D01*
X30273Y38495D01*
X30271Y38503D01*
X30268Y38510D01*
X30265Y38515D01*
X30262Y38521D01*
X30259Y38525D01*
X30257Y38529D01*
X30254Y38532D01*
X30253Y38535D01*
X30251Y38537D01*
X30250Y38538D01*
X30250Y38538D01*
X30244Y38544D01*
X30237Y38549D01*
X30231Y38553D01*
X30224Y38557D01*
X30210Y38563D01*
X30198Y38566D01*
X30186Y38569D01*
X30181Y38569D01*
X30176Y38570D01*
X30173Y38570D01*
D02*
G37*
G36*
X28181D02*
X28176D01*
X28159Y38569D01*
X28144Y38567D01*
X28130Y38563D01*
X28117Y38559D01*
X28112Y38556D01*
X28107Y38555D01*
X28103Y38552D01*
X28099Y38550D01*
X28097Y38549D01*
X28094Y38548D01*
X28093Y38547D01*
X28093D01*
X28079Y38538D01*
X28068Y38527D01*
X28058Y38517D01*
X28050Y38506D01*
X28044Y38497D01*
X28041Y38493D01*
X28039Y38490D01*
X28038Y38487D01*
X28037Y38484D01*
X28036Y38483D01*
Y38483D01*
X28030Y38467D01*
X28025Y38452D01*
X28022Y38438D01*
X28020Y38425D01*
X28019Y38419D01*
X28018Y38414D01*
X28018Y38409D01*
Y38405D01*
X28017Y38402D01*
Y38399D01*
Y38398D01*
Y38397D01*
X28018Y38387D01*
X28018Y38377D01*
X28020Y38369D01*
X28022Y38360D01*
X28024Y38352D01*
X28027Y38345D01*
X28030Y38338D01*
X28033Y38332D01*
X28035Y38327D01*
X28038Y38322D01*
X28041Y38318D01*
X28044Y38315D01*
X28045Y38313D01*
X28047Y38311D01*
X28048Y38310D01*
X28048Y38309D01*
X28054Y38304D01*
X28061Y38299D01*
X28068Y38295D01*
X28075Y38291D01*
X28089Y38285D01*
X28102Y38282D01*
X28114Y38280D01*
X28119Y38279D01*
X28124Y38278D01*
X28127Y38278D01*
X28133D01*
X28141Y38278D01*
X28149Y38279D01*
X28165Y38282D01*
X28179Y38286D01*
X28191Y38291D01*
X28196Y38293D01*
X28201Y38295D01*
X28205Y38297D01*
X28208Y38299D01*
X28211Y38301D01*
X28213Y38302D01*
X28214Y38303D01*
X28214D01*
X28227Y38314D01*
X28238Y38325D01*
X28247Y38338D01*
X28255Y38350D01*
X28261Y38360D01*
X28263Y38365D01*
X28265Y38369D01*
X28266Y38373D01*
X28268Y38375D01*
X28268Y38377D01*
Y38377D01*
X28195Y38390D01*
X28191Y38380D01*
X28187Y38372D01*
X28182Y38366D01*
X28178Y38360D01*
X28174Y38356D01*
X28171Y38352D01*
X28169Y38350D01*
X28168Y38350D01*
X28162Y38346D01*
X28156Y38342D01*
X28150Y38340D01*
X28145Y38339D01*
X28140Y38338D01*
X28137Y38337D01*
X28134D01*
X28127Y38338D01*
X28121Y38339D01*
X28117Y38341D01*
X28112Y38343D01*
X28109Y38346D01*
X28106Y38348D01*
X28104Y38349D01*
X28104Y38350D01*
X28100Y38355D01*
X28097Y38362D01*
X28095Y38368D01*
X28094Y38374D01*
X28093Y38380D01*
X28092Y38384D01*
Y38387D01*
Y38388D01*
X28093Y38399D01*
X28094Y38410D01*
X28095Y38420D01*
X28097Y38429D01*
X28099Y38438D01*
X28100Y38444D01*
X28101Y38446D01*
X28101Y38448D01*
X28102Y38449D01*
Y38449D01*
X28106Y38461D01*
X28111Y38471D01*
X28116Y38479D01*
X28120Y38486D01*
X28124Y38491D01*
X28128Y38495D01*
X28130Y38498D01*
X28131Y38498D01*
X28138Y38504D01*
X28145Y38508D01*
X28152Y38511D01*
X28158Y38513D01*
X28164Y38514D01*
X28168Y38515D01*
X28172D01*
X28178Y38514D01*
X28185Y38513D01*
X28190Y38511D01*
X28194Y38510D01*
X28197Y38507D01*
X28200Y38505D01*
X28202Y38504D01*
X28202Y38504D01*
X28206Y38499D01*
X28209Y38494D01*
X28212Y38488D01*
X28214Y38482D01*
X28215Y38477D01*
X28216Y38473D01*
X28217Y38470D01*
Y38469D01*
X28288Y38477D01*
X28287Y38484D01*
X28286Y38491D01*
X28281Y38505D01*
X28276Y38517D01*
X28270Y38526D01*
X28264Y38534D01*
X28259Y38539D01*
X28256Y38543D01*
X28255Y38544D01*
X28255D01*
X28249Y38549D01*
X28243Y38553D01*
X28230Y38559D01*
X28217Y38564D01*
X28204Y38567D01*
X28193Y38569D01*
X28189Y38570D01*
X28185D01*
X28181Y38570D01*
D02*
G37*
G36*
X28506D02*
X28503D01*
X28495Y38570D01*
X28486Y38568D01*
X28478Y38565D01*
X28470Y38561D01*
X28463Y38556D01*
X28456Y38552D01*
X28443Y38541D01*
X28438Y38535D01*
X28433Y38529D01*
X28429Y38525D01*
X28425Y38520D01*
X28422Y38516D01*
X28420Y38513D01*
X28419Y38511D01*
X28418Y38511D01*
X28429Y38563D01*
X28359D01*
X28301Y38285D01*
X28375D01*
X28393Y38372D01*
X28396Y38382D01*
X28398Y38391D01*
X28400Y38399D01*
X28402Y38407D01*
X28403Y38414D01*
X28405Y38420D01*
X28407Y38426D01*
X28409Y38431D01*
X28410Y38435D01*
X28412Y38439D01*
X28413Y38443D01*
X28414Y38445D01*
X28414Y38448D01*
X28415Y38449D01*
X28416Y38450D01*
X28420Y38459D01*
X28426Y38466D01*
X28431Y38473D01*
X28436Y38479D01*
X28440Y38483D01*
X28444Y38486D01*
X28447Y38488D01*
X28447Y38489D01*
X28455Y38494D01*
X28462Y38498D01*
X28469Y38501D01*
X28475Y38503D01*
X28480Y38504D01*
X28484Y38504D01*
X28487D01*
X28495Y38504D01*
X28503Y38503D01*
X28505Y38501D01*
X28507Y38501D01*
X28509Y38500D01*
X28509D01*
X28538Y38562D01*
X28531Y38565D01*
X28524Y38567D01*
X28519Y38569D01*
X28513Y38569D01*
X28509Y38570D01*
X28506Y38570D01*
D02*
G37*
G36*
X29370D02*
X29367D01*
X29359Y38570D01*
X29350Y38568D01*
X29342Y38565D01*
X29334Y38561D01*
X29327Y38556D01*
X29320Y38552D01*
X29307Y38541D01*
X29302Y38535D01*
X29297Y38529D01*
X29293Y38525D01*
X29289Y38520D01*
X29286Y38516D01*
X29284Y38513D01*
X29283Y38511D01*
X29282Y38511D01*
X29293Y38563D01*
X29223D01*
X29165Y38285D01*
X29239D01*
X29257Y38372D01*
X29260Y38382D01*
X29262Y38391D01*
X29264Y38399D01*
X29266Y38407D01*
X29267Y38414D01*
X29269Y38420D01*
X29271Y38426D01*
X29273Y38431D01*
X29274Y38435D01*
X29276Y38439D01*
X29277Y38443D01*
X29278Y38445D01*
X29279Y38448D01*
X29279Y38449D01*
X29280Y38450D01*
X29284Y38459D01*
X29290Y38466D01*
X29295Y38473D01*
X29300Y38479D01*
X29304Y38483D01*
X29308Y38486D01*
X29311Y38488D01*
X29311Y38489D01*
X29319Y38494D01*
X29326Y38498D01*
X29333Y38501D01*
X29339Y38503D01*
X29344Y38504D01*
X29348Y38504D01*
X29351D01*
X29359Y38504D01*
X29367Y38503D01*
X29369Y38501D01*
X29372Y38501D01*
X29373Y38500D01*
X29373D01*
X29402Y38562D01*
X29395Y38565D01*
X29388Y38567D01*
X29383Y38569D01*
X29377Y38569D01*
X29373Y38570D01*
X29370Y38570D01*
D02*
G37*
G36*
X31427D02*
X31424D01*
X31416Y38570D01*
X31407Y38568D01*
X31400Y38565D01*
X31392Y38561D01*
X31385Y38556D01*
X31377Y38552D01*
X31365Y38541D01*
X31359Y38535D01*
X31354Y38529D01*
X31350Y38525D01*
X31346Y38520D01*
X31344Y38516D01*
X31341Y38513D01*
X31340Y38511D01*
X31339Y38511D01*
X31350Y38563D01*
X31280D01*
X31222Y38285D01*
X31297D01*
X31315Y38372D01*
X31317Y38382D01*
X31319Y38391D01*
X31321Y38399D01*
X31323Y38407D01*
X31325Y38414D01*
X31327Y38420D01*
X31328Y38426D01*
X31330Y38431D01*
X31332Y38435D01*
X31333Y38439D01*
X31334Y38443D01*
X31335Y38445D01*
X31336Y38448D01*
X31337Y38449D01*
X31337Y38450D01*
X31342Y38459D01*
X31347Y38466D01*
X31352Y38473D01*
X31358Y38479D01*
X31362Y38483D01*
X31365Y38486D01*
X31368Y38488D01*
X31369Y38489D01*
X31376Y38494D01*
X31383Y38498D01*
X31390Y38501D01*
X31396Y38503D01*
X31401Y38504D01*
X31405Y38504D01*
X31409D01*
X31417Y38504D01*
X31424Y38503D01*
X31427Y38501D01*
X31429Y38501D01*
X31430Y38500D01*
X31431D01*
X31459Y38562D01*
X31452Y38565D01*
X31446Y38567D01*
X31440Y38569D01*
X31435Y38569D01*
X31431Y38570D01*
X31427Y38570D01*
D02*
G37*
G36*
X29880D02*
X29875D01*
X29858Y38569D01*
X29843Y38567D01*
X29829Y38563D01*
X29816Y38559D01*
X29811Y38556D01*
X29806Y38555D01*
X29801Y38552D01*
X29798Y38550D01*
X29796Y38549D01*
X29793Y38548D01*
X29792Y38547D01*
X29792D01*
X29778Y38538D01*
X29766Y38527D01*
X29757Y38517D01*
X29749Y38506D01*
X29743Y38497D01*
X29740Y38493D01*
X29738Y38490D01*
X29737Y38487D01*
X29736Y38484D01*
X29735Y38483D01*
Y38483D01*
X29728Y38467D01*
X29724Y38452D01*
X29721Y38438D01*
X29718Y38425D01*
X29718Y38419D01*
X29717Y38414D01*
X29717Y38409D01*
Y38405D01*
X29716Y38402D01*
Y38399D01*
Y38398D01*
Y38397D01*
X29717Y38387D01*
X29717Y38377D01*
X29719Y38369D01*
X29721Y38360D01*
X29723Y38352D01*
X29726Y38345D01*
X29729Y38338D01*
X29732Y38332D01*
X29734Y38327D01*
X29737Y38322D01*
X29740Y38318D01*
X29742Y38315D01*
X29744Y38313D01*
X29746Y38311D01*
X29747Y38310D01*
X29747Y38309D01*
X29753Y38304D01*
X29759Y38299D01*
X29766Y38295D01*
X29773Y38291D01*
X29787Y38285D01*
X29801Y38282D01*
X29813Y38280D01*
X29818Y38279D01*
X29823Y38278D01*
X29826Y38278D01*
X29831D01*
X29840Y38278D01*
X29848Y38279D01*
X29864Y38282D01*
X29878Y38286D01*
X29890Y38291D01*
X29895Y38293D01*
X29900Y38295D01*
X29904Y38297D01*
X29907Y38299D01*
X29910Y38301D01*
X29911Y38302D01*
X29913Y38303D01*
X29913D01*
X29926Y38314D01*
X29937Y38325D01*
X29946Y38338D01*
X29954Y38350D01*
X29959Y38360D01*
X29962Y38365D01*
X29964Y38369D01*
X29965Y38373D01*
X29966Y38375D01*
X29967Y38377D01*
Y38377D01*
X29894Y38390D01*
X29890Y38380D01*
X29886Y38372D01*
X29881Y38366D01*
X29877Y38360D01*
X29873Y38356D01*
X29870Y38352D01*
X29868Y38350D01*
X29867Y38350D01*
X29861Y38346D01*
X29855Y38342D01*
X29849Y38340D01*
X29844Y38339D01*
X29839Y38338D01*
X29835Y38337D01*
X29833D01*
X29826Y38338D01*
X29820Y38339D01*
X29816Y38341D01*
X29811Y38343D01*
X29807Y38346D01*
X29805Y38348D01*
X29803Y38349D01*
X29803Y38350D01*
X29799Y38355D01*
X29796Y38362D01*
X29794Y38368D01*
X29793Y38374D01*
X29792Y38380D01*
X29791Y38384D01*
Y38387D01*
Y38388D01*
X29792Y38399D01*
X29793Y38410D01*
X29794Y38420D01*
X29796Y38429D01*
X29798Y38438D01*
X29799Y38444D01*
X29800Y38446D01*
X29800Y38448D01*
X29801Y38449D01*
Y38449D01*
X29805Y38461D01*
X29810Y38471D01*
X29814Y38479D01*
X29819Y38486D01*
X29823Y38491D01*
X29827Y38495D01*
X29829Y38498D01*
X29830Y38498D01*
X29837Y38504D01*
X29844Y38508D01*
X29851Y38511D01*
X29857Y38513D01*
X29863Y38514D01*
X29867Y38515D01*
X29871D01*
X29877Y38514D01*
X29883Y38513D01*
X29889Y38511D01*
X29893Y38510D01*
X29896Y38507D01*
X29899Y38505D01*
X29900Y38504D01*
X29901Y38504D01*
X29905Y38499D01*
X29908Y38494D01*
X29911Y38488D01*
X29913Y38482D01*
X29914Y38477D01*
X29915Y38473D01*
X29916Y38470D01*
Y38469D01*
X29987Y38477D01*
X29986Y38484D01*
X29985Y38491D01*
X29980Y38505D01*
X29975Y38517D01*
X29969Y38526D01*
X29963Y38534D01*
X29958Y38539D01*
X29955Y38543D01*
X29954Y38544D01*
X29954D01*
X29948Y38549D01*
X29942Y38553D01*
X29929Y38559D01*
X29916Y38564D01*
X29903Y38567D01*
X29892Y38569D01*
X29887Y38570D01*
X29883D01*
X29880Y38570D01*
D02*
G37*
G36*
X30469D02*
X30460D01*
X30448Y38570D01*
X30436Y38569D01*
X30426Y38567D01*
X30416Y38565D01*
X30406Y38563D01*
X30398Y38560D01*
X30391Y38556D01*
X30384Y38553D01*
X30378Y38550D01*
X30373Y38547D01*
X30368Y38544D01*
X30365Y38542D01*
X30362Y38539D01*
X30360Y38538D01*
X30359Y38537D01*
X30358Y38536D01*
X30350Y38527D01*
X30344Y38518D01*
X30340Y38508D01*
X30337Y38499D01*
X30335Y38491D01*
X30334Y38485D01*
X30334Y38483D01*
Y38481D01*
Y38480D01*
Y38480D01*
X30334Y38474D01*
X30335Y38468D01*
X30338Y38457D01*
X30342Y38448D01*
X30347Y38440D01*
X30351Y38434D01*
X30355Y38429D01*
X30358Y38427D01*
X30359Y38426D01*
X30363Y38424D01*
X30367Y38421D01*
X30373Y38418D01*
X30379Y38415D01*
X30393Y38409D01*
X30408Y38403D01*
X30422Y38398D01*
X30427Y38396D01*
X30433Y38394D01*
X30437Y38393D01*
X30441Y38391D01*
X30443Y38390D01*
X30444D01*
X30453Y38387D01*
X30459Y38384D01*
X30465Y38382D01*
X30469Y38380D01*
X30472Y38378D01*
X30474Y38377D01*
X30475Y38376D01*
X30478Y38371D01*
X30480Y38367D01*
X30481Y38363D01*
Y38363D01*
Y38362D01*
X30480Y38358D01*
X30479Y38354D01*
X30475Y38348D01*
X30473Y38346D01*
X30471Y38345D01*
X30470Y38343D01*
X30470Y38343D01*
X30464Y38339D01*
X30457Y38336D01*
X30450Y38335D01*
X30443Y38333D01*
X30437Y38332D01*
X30432Y38332D01*
X30428D01*
X30419Y38332D01*
X30412Y38333D01*
X30405Y38335D01*
X30399Y38336D01*
X30395Y38338D01*
X30392Y38340D01*
X30389Y38340D01*
X30389Y38341D01*
X30384Y38345D01*
X30379Y38350D01*
X30375Y38356D01*
X30371Y38361D01*
X30368Y38366D01*
X30367Y38370D01*
X30365Y38373D01*
X30365Y38374D01*
X30292Y38362D01*
X30298Y38348D01*
X30304Y38335D01*
X30312Y38325D01*
X30319Y38316D01*
X30326Y38309D01*
X30332Y38304D01*
X30334Y38302D01*
X30336Y38301D01*
X30336Y38300D01*
X30337D01*
X30343Y38296D01*
X30350Y38292D01*
X30365Y38287D01*
X30381Y38283D01*
X30396Y38281D01*
X30402Y38280D01*
X30409Y38279D01*
X30415Y38278D01*
X30420D01*
X30424Y38278D01*
X30430D01*
X30441Y38278D01*
X30451Y38279D01*
X30461Y38281D01*
X30470Y38283D01*
X30478Y38284D01*
X30487Y38287D01*
X30494Y38290D01*
X30500Y38292D01*
X30505Y38295D01*
X30511Y38298D01*
X30515Y38300D01*
X30518Y38302D01*
X30520Y38304D01*
X30522Y38305D01*
X30523Y38306D01*
X30524Y38307D01*
X30530Y38312D01*
X30535Y38318D01*
X30539Y38323D01*
X30543Y38330D01*
X30547Y38336D01*
X30549Y38341D01*
X30553Y38352D01*
X30556Y38362D01*
X30556Y38366D01*
X30557Y38369D01*
X30557Y38371D01*
Y38374D01*
Y38375D01*
Y38376D01*
Y38381D01*
X30556Y38387D01*
X30553Y38397D01*
X30549Y38406D01*
X30544Y38414D01*
X30539Y38420D01*
X30535Y38424D01*
X30532Y38427D01*
X30532Y38428D01*
X30531D01*
X30527Y38431D01*
X30522Y38434D01*
X30512Y38440D01*
X30499Y38445D01*
X30487Y38450D01*
X30475Y38454D01*
X30471Y38456D01*
X30466Y38457D01*
X30463Y38458D01*
X30460Y38459D01*
X30458Y38460D01*
X30457D01*
X30451Y38462D01*
X30445Y38463D01*
X30440Y38465D01*
X30436Y38467D01*
X30428Y38469D01*
X30423Y38471D01*
X30419Y38473D01*
X30416Y38474D01*
X30415Y38474D01*
X30415D01*
X30411Y38477D01*
X30409Y38480D01*
X30407Y38483D01*
X30406Y38486D01*
X30405Y38488D01*
X30405Y38490D01*
Y38491D01*
Y38492D01*
X30405Y38496D01*
X30406Y38499D01*
X30410Y38505D01*
X30412Y38507D01*
X30413Y38509D01*
X30414Y38510D01*
X30415Y38510D01*
X30419Y38513D01*
X30425Y38515D01*
X30436Y38517D01*
X30440Y38518D01*
X30445Y38518D01*
X30449D01*
X30457Y38518D01*
X30465Y38517D01*
X30471Y38515D01*
X30478Y38513D01*
X30482Y38511D01*
X30486Y38510D01*
X30488Y38508D01*
X30489Y38508D01*
X30493Y38505D01*
X30497Y38501D01*
X30500Y38497D01*
X30502Y38494D01*
X30505Y38491D01*
X30506Y38488D01*
X30507Y38486D01*
Y38486D01*
X30577Y38497D01*
X30573Y38509D01*
X30568Y38519D01*
X30562Y38529D01*
X30556Y38536D01*
X30551Y38542D01*
X30546Y38547D01*
X30543Y38549D01*
X30542Y38550D01*
X30542D01*
X30536Y38554D01*
X30530Y38557D01*
X30517Y38562D01*
X30503Y38566D01*
X30491Y38568D01*
X30479Y38569D01*
X30474Y38570D01*
X30469Y38570D01*
D02*
G37*
G36*
X30767D02*
X30759D01*
X30746Y38570D01*
X30735Y38569D01*
X30724Y38567D01*
X30714Y38565D01*
X30705Y38563D01*
X30697Y38560D01*
X30689Y38556D01*
X30683Y38553D01*
X30676Y38550D01*
X30671Y38547D01*
X30667Y38544D01*
X30663Y38542D01*
X30660Y38539D01*
X30659Y38538D01*
X30657Y38537D01*
X30657Y38536D01*
X30649Y38527D01*
X30643Y38518D01*
X30638Y38508D01*
X30635Y38499D01*
X30633Y38491D01*
X30633Y38485D01*
X30632Y38483D01*
Y38481D01*
Y38480D01*
Y38480D01*
X30633Y38474D01*
X30633Y38468D01*
X30636Y38457D01*
X30640Y38448D01*
X30645Y38440D01*
X30649Y38434D01*
X30653Y38429D01*
X30656Y38427D01*
X30657Y38426D01*
X30661Y38424D01*
X30666Y38421D01*
X30671Y38418D01*
X30678Y38415D01*
X30691Y38409D01*
X30706Y38403D01*
X30720Y38398D01*
X30726Y38396D01*
X30731Y38394D01*
X30736Y38393D01*
X30739Y38391D01*
X30742Y38390D01*
X30742D01*
X30751Y38387D01*
X30757Y38384D01*
X30763Y38382D01*
X30767Y38380D01*
X30770Y38378D01*
X30772Y38377D01*
X30773Y38376D01*
X30777Y38371D01*
X30778Y38367D01*
X30779Y38363D01*
Y38363D01*
Y38362D01*
X30778Y38358D01*
X30777Y38354D01*
X30774Y38348D01*
X30771Y38346D01*
X30770Y38345D01*
X30769Y38343D01*
X30768Y38343D01*
X30762Y38339D01*
X30755Y38336D01*
X30748Y38335D01*
X30742Y38333D01*
X30736Y38332D01*
X30730Y38332D01*
X30726D01*
X30718Y38332D01*
X30710Y38333D01*
X30703Y38335D01*
X30698Y38336D01*
X30693Y38338D01*
X30690Y38340D01*
X30688Y38340D01*
X30687Y38341D01*
X30682Y38345D01*
X30677Y38350D01*
X30673Y38356D01*
X30670Y38361D01*
X30667Y38366D01*
X30665Y38370D01*
X30664Y38373D01*
X30663Y38374D01*
X30591Y38362D01*
X30596Y38348D01*
X30602Y38335D01*
X30610Y38325D01*
X30618Y38316D01*
X30624Y38309D01*
X30630Y38304D01*
X30632Y38302D01*
X30634Y38301D01*
X30635Y38300D01*
X30635D01*
X30642Y38296D01*
X30649Y38292D01*
X30664Y38287D01*
X30679Y38283D01*
X30694Y38281D01*
X30701Y38280D01*
X30707Y38279D01*
X30713Y38278D01*
X30718D01*
X30722Y38278D01*
X30728D01*
X30739Y38278D01*
X30750Y38279D01*
X30760Y38281D01*
X30769Y38283D01*
X30777Y38284D01*
X30785Y38287D01*
X30792Y38290D01*
X30798Y38292D01*
X30804Y38295D01*
X30809Y38298D01*
X30813Y38300D01*
X30816Y38302D01*
X30819Y38304D01*
X30821Y38305D01*
X30822Y38306D01*
X30822Y38307D01*
X30828Y38312D01*
X30833Y38318D01*
X30838Y38323D01*
X30842Y38330D01*
X30845Y38336D01*
X30847Y38341D01*
X30852Y38352D01*
X30854Y38362D01*
X30854Y38366D01*
X30855Y38369D01*
X30856Y38371D01*
Y38374D01*
Y38375D01*
Y38376D01*
Y38381D01*
X30854Y38387D01*
X30852Y38397D01*
X30847Y38406D01*
X30843Y38414D01*
X30838Y38420D01*
X30833Y38424D01*
X30831Y38427D01*
X30830Y38428D01*
X30829D01*
X30825Y38431D01*
X30821Y38434D01*
X30810Y38440D01*
X30798Y38445D01*
X30785Y38450D01*
X30774Y38454D01*
X30769Y38456D01*
X30764Y38457D01*
X30761Y38458D01*
X30758Y38459D01*
X30756Y38460D01*
X30756D01*
X30749Y38462D01*
X30743Y38463D01*
X30739Y38465D01*
X30734Y38467D01*
X30726Y38469D01*
X30721Y38471D01*
X30717Y38473D01*
X30715Y38474D01*
X30714Y38474D01*
X30713D01*
X30709Y38477D01*
X30707Y38480D01*
X30705Y38483D01*
X30704Y38486D01*
X30704Y38488D01*
X30703Y38490D01*
Y38491D01*
Y38492D01*
X30704Y38496D01*
X30705Y38499D01*
X30708Y38505D01*
X30710Y38507D01*
X30711Y38509D01*
X30712Y38510D01*
X30713Y38510D01*
X30718Y38513D01*
X30723Y38515D01*
X30734Y38517D01*
X30739Y38518D01*
X30743Y38518D01*
X30747D01*
X30755Y38518D01*
X30763Y38517D01*
X30770Y38515D01*
X30776Y38513D01*
X30781Y38511D01*
X30784Y38510D01*
X30787Y38508D01*
X30787Y38508D01*
X30791Y38505D01*
X30795Y38501D01*
X30798Y38497D01*
X30801Y38494D01*
X30803Y38491D01*
X30804Y38488D01*
X30805Y38486D01*
Y38486D01*
X30875Y38497D01*
X30871Y38509D01*
X30866Y38519D01*
X30860Y38529D01*
X30854Y38536D01*
X30849Y38542D01*
X30845Y38547D01*
X30841Y38549D01*
X30840Y38550D01*
X30840D01*
X30835Y38554D01*
X30829Y38557D01*
X30815Y38562D01*
X30802Y38566D01*
X30789Y38568D01*
X30777Y38569D01*
X30772Y38570D01*
X30767Y38570D01*
D02*
G37*
G36*
X24729Y46634D02*
X24650D01*
X24570Y46250D01*
X24648D01*
X24729Y46634D01*
D02*
G37*
G36*
X25327D02*
X25160D01*
X25080Y46250D01*
X25159D01*
X25190Y46397D01*
X25266D01*
X25273Y46397D01*
X25285D01*
X25290Y46398D01*
X25298D01*
X25301Y46399D01*
X25307D01*
X25309Y46399D01*
X25310D01*
X25321Y46401D01*
X25331Y46403D01*
X25340Y46406D01*
X25347Y46407D01*
X25353Y46409D01*
X25357Y46411D01*
X25360Y46411D01*
X25360Y46412D01*
X25367Y46416D01*
X25374Y46420D01*
X25380Y46424D01*
X25385Y46428D01*
X25390Y46431D01*
X25393Y46434D01*
X25395Y46437D01*
X25396Y46437D01*
X25402Y46444D01*
X25407Y46451D01*
X25412Y46458D01*
X25416Y46465D01*
X25419Y46472D01*
X25422Y46476D01*
X25423Y46480D01*
X25424Y46480D01*
Y46481D01*
X25428Y46492D01*
X25431Y46502D01*
X25432Y46511D01*
X25434Y46520D01*
X25435Y46527D01*
X25435Y46533D01*
Y46535D01*
Y46537D01*
Y46537D01*
Y46538D01*
X25435Y46549D01*
X25433Y46559D01*
X25431Y46568D01*
X25428Y46576D01*
X25425Y46583D01*
X25423Y46588D01*
X25421Y46590D01*
X25421Y46592D01*
X25415Y46600D01*
X25409Y46606D01*
X25402Y46612D01*
X25396Y46617D01*
X25391Y46620D01*
X25386Y46623D01*
X25383Y46624D01*
X25382Y46624D01*
X25372Y46628D01*
X25362Y46630D01*
X25351Y46632D01*
X25340Y46633D01*
X25331Y46634D01*
X25327Y46634D01*
D02*
G37*
G36*
X41082Y35296D02*
X41075D01*
X41053Y35295D01*
X41030Y35291D01*
X41010Y35285D01*
X40991Y35277D01*
X40974Y35269D01*
X40957Y35258D01*
X40942Y35247D01*
X40928Y35236D01*
X40915Y35225D01*
X40905Y35214D01*
X40896Y35204D01*
X40888Y35194D01*
X40882Y35187D01*
X40878Y35181D01*
X40875Y35177D01*
X40874Y35176D01*
X40861Y35152D01*
X40850Y35129D01*
X40839Y35105D01*
X40831Y35079D01*
X40824Y35055D01*
X40818Y35030D01*
X40813Y35007D01*
X40809Y34985D01*
X40805Y34963D01*
X40803Y34945D01*
X40801Y34927D01*
X40800Y34912D01*
Y34900D01*
X40799Y34891D01*
Y34885D01*
Y34884D01*
Y34883D01*
X40800Y34853D01*
X40803Y34825D01*
X40806Y34802D01*
X40808Y34791D01*
X40811Y34783D01*
X40813Y34774D01*
X40815Y34766D01*
X40817Y34760D01*
X40818Y34755D01*
X40820Y34751D01*
X40821Y34747D01*
X40822Y34746D01*
Y34745D01*
X40831Y34727D01*
X40842Y34711D01*
X40853Y34698D01*
X40864Y34687D01*
X40873Y34678D01*
X40881Y34671D01*
X40886Y34667D01*
X40888Y34666D01*
X40905Y34658D01*
X40922Y34651D01*
X40938Y34647D01*
X40953Y34643D01*
X40966Y34641D01*
X40977Y34640D01*
X40986D01*
X41006Y34641D01*
X41026Y34645D01*
X41043Y34649D01*
X41059Y34655D01*
X41072Y34660D01*
X41082Y34664D01*
X41086Y34665D01*
X41089Y34667D01*
X41090Y34668D01*
X41091D01*
X41110Y34680D01*
X41126Y34695D01*
X41140Y34709D01*
X41152Y34724D01*
X41162Y34738D01*
X41170Y34748D01*
X41172Y34752D01*
X41174Y34755D01*
X41176Y34757D01*
Y34758D01*
X41188Y34782D01*
X41195Y34805D01*
X41201Y34827D01*
X41206Y34848D01*
X41208Y34865D01*
X41209Y34872D01*
Y34878D01*
X41210Y34883D01*
Y34887D01*
Y34889D01*
Y34890D01*
X41209Y34906D01*
X41208Y34921D01*
X41202Y34948D01*
X41198Y34961D01*
X41194Y34973D01*
X41191Y34983D01*
X41186Y34992D01*
X41181Y35000D01*
X41177Y35008D01*
X41173Y35014D01*
X41169Y35020D01*
X41166Y35024D01*
X41163Y35027D01*
X41162Y35028D01*
X41161Y35029D01*
X41152Y35037D01*
X41143Y35045D01*
X41132Y35052D01*
X41122Y35058D01*
X41102Y35067D01*
X41082Y35073D01*
X41066Y35076D01*
X41058Y35077D01*
X41052Y35078D01*
X41046Y35079D01*
X41039D01*
X41023Y35078D01*
X41006Y35075D01*
X40991Y35070D01*
X40979Y35066D01*
X40968Y35061D01*
X40959Y35056D01*
X40954Y35053D01*
X40952Y35052D01*
X40956Y35067D01*
X40961Y35080D01*
X40966Y35093D01*
X40971Y35105D01*
X40975Y35115D01*
X40980Y35124D01*
X40989Y35141D01*
X40997Y35153D01*
X41004Y35162D01*
X41008Y35167D01*
X41010Y35169D01*
X41020Y35178D01*
X41029Y35185D01*
X41038Y35189D01*
X41047Y35192D01*
X41055Y35194D01*
X41061Y35195D01*
X41067D01*
X41075Y35194D01*
X41083Y35193D01*
X41090Y35191D01*
X41096Y35188D01*
X41101Y35185D01*
X41104Y35183D01*
X41106Y35181D01*
X41107Y35180D01*
X41111Y35173D01*
X41115Y35165D01*
X41121Y35148D01*
X41123Y35140D01*
X41124Y35133D01*
X41125Y35129D01*
Y35127D01*
X41242Y35136D01*
X41240Y35150D01*
X41237Y35164D01*
X41230Y35189D01*
X41222Y35209D01*
X41212Y35227D01*
X41203Y35239D01*
X41196Y35248D01*
X41192Y35254D01*
X41191Y35256D01*
X41190D01*
X41173Y35270D01*
X41154Y35279D01*
X41135Y35286D01*
X41116Y35291D01*
X41101Y35294D01*
X41094Y35295D01*
X41087D01*
X41082Y35296D01*
D02*
G37*
G36*
X38413Y35304D02*
X38402D01*
X38382Y35303D01*
X38363Y35302D01*
X38345Y35299D01*
X38329Y35295D01*
X38313Y35291D01*
X38300Y35287D01*
X38287Y35282D01*
X38275Y35277D01*
X38265Y35272D01*
X38257Y35267D01*
X38249Y35263D01*
X38243Y35259D01*
X38238Y35255D01*
X38235Y35252D01*
X38233Y35251D01*
X38232Y35250D01*
X38222Y35239D01*
X38213Y35229D01*
X38205Y35218D01*
X38198Y35206D01*
X38193Y35195D01*
X38188Y35184D01*
X38182Y35162D01*
X38177Y35144D01*
X38176Y35136D01*
X38175Y35129D01*
X38174Y35123D01*
Y35119D01*
Y35116D01*
Y35115D01*
X38175Y35099D01*
X38177Y35083D01*
X38180Y35069D01*
X38183Y35058D01*
X38187Y35048D01*
X38190Y35040D01*
X38192Y35036D01*
X38193Y35034D01*
X38201Y35022D01*
X38210Y35011D01*
X38219Y35001D01*
X38227Y34993D01*
X38235Y34987D01*
X38241Y34982D01*
X38245Y34979D01*
X38247Y34978D01*
X38262Y34969D01*
X38279Y34960D01*
X38297Y34951D01*
X38315Y34943D01*
X38331Y34936D01*
X38338Y34932D01*
X38345Y34930D01*
X38349Y34927D01*
X38353Y34925D01*
X38355Y34924D01*
X38356D01*
X38370Y34918D01*
X38382Y34912D01*
X38392Y34907D01*
X38402Y34904D01*
X38411Y34899D01*
X38419Y34895D01*
X38425Y34892D01*
X38430Y34889D01*
X38439Y34884D01*
X38444Y34880D01*
X38447Y34878D01*
X38448Y34877D01*
X38456Y34869D01*
X38462Y34862D01*
X38467Y34854D01*
X38469Y34846D01*
X38471Y34839D01*
X38472Y34834D01*
Y34830D01*
Y34829D01*
X38471Y34818D01*
X38467Y34807D01*
X38464Y34797D01*
X38458Y34788D01*
X38453Y34782D01*
X38448Y34777D01*
X38444Y34774D01*
X38443Y34773D01*
X38430Y34765D01*
X38416Y34760D01*
X38400Y34756D01*
X38385Y34753D01*
X38371Y34751D01*
X38359Y34750D01*
X38335D01*
X38321Y34752D01*
X38309Y34753D01*
X38299Y34756D01*
X38289Y34758D01*
X38280Y34761D01*
X38272Y34764D01*
X38266Y34768D01*
X38255Y34774D01*
X38248Y34780D01*
X38243Y34784D01*
X38242Y34785D01*
X38236Y34794D01*
X38231Y34806D01*
X38227Y34820D01*
X38224Y34832D01*
X38223Y34845D01*
X38223Y34856D01*
X38222Y34860D01*
Y34863D01*
Y34865D01*
Y34866D01*
X38096Y34859D01*
Y34835D01*
X38099Y34814D01*
X38101Y34794D01*
X38106Y34778D01*
X38110Y34764D01*
X38114Y34753D01*
X38116Y34749D01*
X38117Y34746D01*
X38118Y34745D01*
Y34744D01*
X38129Y34727D01*
X38142Y34711D01*
X38156Y34699D01*
X38171Y34687D01*
X38183Y34679D01*
X38194Y34672D01*
X38198Y34670D01*
X38201Y34668D01*
X38203Y34667D01*
X38204D01*
X38227Y34659D01*
X38252Y34652D01*
X38276Y34647D01*
X38299Y34644D01*
X38308Y34642D01*
X38318D01*
X38326Y34641D01*
X38334Y34640D01*
X38347D01*
X38369Y34641D01*
X38390Y34643D01*
X38409Y34646D01*
X38427Y34650D01*
X38444Y34654D01*
X38460Y34659D01*
X38473Y34664D01*
X38486Y34670D01*
X38498Y34675D01*
X38507Y34681D01*
X38515Y34686D01*
X38522Y34691D01*
X38528Y34694D01*
X38532Y34697D01*
X38534Y34699D01*
X38535Y34700D01*
X38547Y34711D01*
X38557Y34723D01*
X38566Y34736D01*
X38574Y34747D01*
X38581Y34760D01*
X38586Y34772D01*
X38590Y34784D01*
X38593Y34795D01*
X38596Y34805D01*
X38598Y34815D01*
X38600Y34824D01*
X38601Y34830D01*
X38602Y34837D01*
Y34841D01*
Y34844D01*
Y34845D01*
Y34858D01*
X38600Y34869D01*
X38595Y34892D01*
X38588Y34910D01*
X38580Y34927D01*
X38571Y34940D01*
X38563Y34949D01*
X38558Y34955D01*
X38557Y34957D01*
X38556D01*
X38549Y34963D01*
X38542Y34969D01*
X38532Y34976D01*
X38521Y34983D01*
X38499Y34995D01*
X38474Y35008D01*
X38452Y35019D01*
X38442Y35024D01*
X38433Y35028D01*
X38426Y35030D01*
X38421Y35033D01*
X38417Y35034D01*
X38416Y35035D01*
X38402Y35041D01*
X38390Y35046D01*
X38380Y35052D01*
X38370Y35057D01*
X38361Y35061D01*
X38353Y35065D01*
X38341Y35072D01*
X38331Y35077D01*
X38325Y35082D01*
X38321Y35084D01*
X38320Y35085D01*
X38313Y35093D01*
X38308Y35100D01*
X38304Y35108D01*
X38303Y35115D01*
X38301Y35121D01*
X38300Y35126D01*
Y35130D01*
Y35131D01*
X38301Y35142D01*
X38304Y35151D01*
X38307Y35159D01*
X38311Y35166D01*
X38315Y35172D01*
X38319Y35176D01*
X38322Y35179D01*
X38323Y35180D01*
X38333Y35187D01*
X38345Y35191D01*
X38358Y35194D01*
X38371Y35197D01*
X38383Y35198D01*
X38392Y35199D01*
X38401D01*
X38421Y35198D01*
X38438Y35195D01*
X38452Y35191D01*
X38464Y35187D01*
X38473Y35182D01*
X38480Y35178D01*
X38484Y35175D01*
X38485Y35174D01*
X38495Y35164D01*
X38503Y35152D01*
X38508Y35141D01*
X38513Y35130D01*
X38516Y35119D01*
X38518Y35111D01*
X38519Y35106D01*
Y35105D01*
Y35104D01*
X38645Y35109D01*
X38643Y35125D01*
X38640Y35140D01*
X38631Y35168D01*
X38626Y35181D01*
X38620Y35192D01*
X38614Y35203D01*
X38608Y35213D01*
X38602Y35221D01*
X38596Y35229D01*
X38590Y35235D01*
X38586Y35240D01*
X38582Y35244D01*
X38579Y35248D01*
X38577Y35249D01*
X38576Y35250D01*
X38564Y35260D01*
X38550Y35268D01*
X38537Y35275D01*
X38523Y35281D01*
X38494Y35291D01*
X38466Y35297D01*
X38453Y35299D01*
X38441Y35301D01*
X38430Y35302D01*
X38421Y35303D01*
X38413Y35304D01*
D02*
G37*
G36*
X40584Y35296D02*
X40578D01*
X40555Y35295D01*
X40533Y35291D01*
X40512Y35285D01*
X40494Y35277D01*
X40476Y35269D01*
X40459Y35258D01*
X40444Y35247D01*
X40430Y35236D01*
X40418Y35225D01*
X40407Y35214D01*
X40398Y35204D01*
X40390Y35194D01*
X40384Y35187D01*
X40380Y35181D01*
X40378Y35177D01*
X40377Y35176D01*
X40363Y35152D01*
X40352Y35129D01*
X40341Y35105D01*
X40334Y35079D01*
X40326Y35055D01*
X40320Y35030D01*
X40315Y35007D01*
X40311Y34985D01*
X40307Y34963D01*
X40305Y34945D01*
X40303Y34927D01*
X40302Y34912D01*
Y34900D01*
X40301Y34891D01*
Y34885D01*
Y34884D01*
Y34883D01*
X40302Y34853D01*
X40305Y34825D01*
X40308Y34802D01*
X40310Y34791D01*
X40313Y34783D01*
X40315Y34774D01*
X40317Y34766D01*
X40319Y34760D01*
X40320Y34755D01*
X40322Y34751D01*
X40323Y34747D01*
X40324Y34746D01*
Y34745D01*
X40334Y34727D01*
X40344Y34711D01*
X40355Y34698D01*
X40366Y34687D01*
X40376Y34678D01*
X40383Y34671D01*
X40388Y34667D01*
X40390Y34666D01*
X40407Y34658D01*
X40424Y34651D01*
X40440Y34647D01*
X40456Y34643D01*
X40468Y34641D01*
X40479Y34640D01*
X40488D01*
X40508Y34641D01*
X40528Y34645D01*
X40545Y34649D01*
X40561Y34655D01*
X40575Y34660D01*
X40584Y34664D01*
X40588Y34665D01*
X40591Y34667D01*
X40592Y34668D01*
X40593D01*
X40612Y34680D01*
X40628Y34695D01*
X40642Y34709D01*
X40655Y34724D01*
X40664Y34738D01*
X40672Y34748D01*
X40674Y34752D01*
X40676Y34755D01*
X40678Y34757D01*
Y34758D01*
X40690Y34782D01*
X40698Y34805D01*
X40704Y34827D01*
X40708Y34848D01*
X40710Y34865D01*
X40711Y34872D01*
Y34878D01*
X40712Y34883D01*
Y34887D01*
Y34889D01*
Y34890D01*
X40711Y34906D01*
X40710Y34921D01*
X40704Y34948D01*
X40701Y34961D01*
X40697Y34973D01*
X40693Y34983D01*
X40688Y34992D01*
X40683Y35000D01*
X40679Y35008D01*
X40675Y35014D01*
X40671Y35020D01*
X40668Y35024D01*
X40665Y35027D01*
X40664Y35028D01*
X40663Y35029D01*
X40655Y35037D01*
X40645Y35045D01*
X40634Y35052D01*
X40624Y35058D01*
X40604Y35067D01*
X40584Y35073D01*
X40568Y35076D01*
X40560Y35077D01*
X40554Y35078D01*
X40548Y35079D01*
X40541D01*
X40525Y35078D01*
X40508Y35075D01*
X40494Y35070D01*
X40481Y35066D01*
X40470Y35061D01*
X40461Y35056D01*
X40457Y35053D01*
X40455Y35052D01*
X40459Y35067D01*
X40463Y35080D01*
X40468Y35093D01*
X40473Y35105D01*
X40477Y35115D01*
X40482Y35124D01*
X40492Y35141D01*
X40500Y35153D01*
X40506Y35162D01*
X40510Y35167D01*
X40512Y35169D01*
X40522Y35178D01*
X40532Y35185D01*
X40541Y35189D01*
X40549Y35192D01*
X40557Y35194D01*
X40563Y35195D01*
X40569D01*
X40578Y35194D01*
X40585Y35193D01*
X40592Y35191D01*
X40598Y35188D01*
X40603Y35185D01*
X40606Y35183D01*
X40608Y35181D01*
X40609Y35180D01*
X40614Y35173D01*
X40618Y35165D01*
X40623Y35148D01*
X40625Y35140D01*
X40626Y35133D01*
X40627Y35129D01*
Y35127D01*
X40744Y35136D01*
X40743Y35150D01*
X40740Y35164D01*
X40732Y35189D01*
X40724Y35209D01*
X40714Y35227D01*
X40705Y35239D01*
X40699Y35248D01*
X40694Y35254D01*
X40693Y35256D01*
X40692D01*
X40675Y35270D01*
X40657Y35279D01*
X40637Y35286D01*
X40619Y35291D01*
X40603Y35294D01*
X40596Y35295D01*
X40589D01*
X40584Y35296D01*
D02*
G37*
G36*
X26340Y46634D02*
X26055D01*
X25975Y46250D01*
X26275D01*
X26289Y46314D01*
X26065D01*
X26087Y46418D01*
X26288D01*
X26302Y46483D01*
X26102D01*
X26121Y46570D01*
X26327D01*
X26340Y46634D01*
D02*
G37*
G36*
X27728D02*
X27546D01*
X27467Y46250D01*
X27545D01*
X27579Y46409D01*
X27611D01*
X27621Y46409D01*
X27629Y46408D01*
X27636Y46407D01*
X27641Y46406D01*
X27645Y46404D01*
X27648Y46403D01*
X27650Y46402D01*
X27651Y46402D01*
X27657Y46396D01*
X27663Y46388D01*
X27669Y46380D01*
X27675Y46372D01*
X27679Y46363D01*
X27682Y46357D01*
X27683Y46355D01*
X27685Y46353D01*
X27685Y46352D01*
Y46351D01*
X27690Y46339D01*
X27696Y46327D01*
X27700Y46316D01*
X27704Y46306D01*
X27708Y46297D01*
X27711Y46289D01*
X27714Y46282D01*
X27717Y46275D01*
X27718Y46269D01*
X27721Y46264D01*
X27722Y46259D01*
X27723Y46256D01*
X27724Y46254D01*
X27725Y46252D01*
X27725Y46251D01*
Y46250D01*
X27810D01*
X27804Y46265D01*
X27799Y46279D01*
X27793Y46292D01*
X27787Y46304D01*
X27782Y46316D01*
X27777Y46326D01*
X27773Y46335D01*
X27769Y46344D01*
X27765Y46352D01*
X27761Y46358D01*
X27758Y46364D01*
X27756Y46369D01*
X27754Y46372D01*
X27752Y46375D01*
X27752Y46376D01*
X27751Y46377D01*
X27746Y46385D01*
X27741Y46392D01*
X27736Y46398D01*
X27732Y46403D01*
X27728Y46407D01*
X27725Y46411D01*
X27723Y46413D01*
X27723Y46413D01*
X27734Y46415D01*
X27744Y46417D01*
X27753Y46420D01*
X27762Y46423D01*
X27769Y46425D01*
X27777Y46429D01*
X27783Y46433D01*
X27789Y46435D01*
X27795Y46439D01*
X27799Y46442D01*
X27803Y46445D01*
X27806Y46447D01*
X27809Y46449D01*
X27810Y46451D01*
X27811Y46452D01*
X27811Y46452D01*
X27817Y46459D01*
X27821Y46465D01*
X27825Y46472D01*
X27828Y46479D01*
X27834Y46492D01*
X27837Y46505D01*
X27839Y46516D01*
X27840Y46521D01*
Y46525D01*
X27841Y46528D01*
Y46531D01*
Y46533D01*
Y46533D01*
X27840Y46545D01*
X27838Y46557D01*
X27836Y46567D01*
X27833Y46575D01*
X27830Y46582D01*
X27828Y46588D01*
X27826Y46590D01*
X27826Y46592D01*
X27820Y46600D01*
X27813Y46607D01*
X27806Y46613D01*
X27800Y46617D01*
X27795Y46621D01*
X27790Y46623D01*
X27787Y46624D01*
X27786Y46625D01*
X27776Y46628D01*
X27765Y46630D01*
X27754Y46632D01*
X27742Y46633D01*
X27733Y46634D01*
X27728Y46634D01*
D02*
G37*
G36*
X25975D02*
X25896D01*
X25865Y46486D01*
X25716D01*
X25747Y46634D01*
X25668D01*
X25588Y46250D01*
X25667D01*
X25703Y46421D01*
X25852D01*
X25816Y46250D01*
X25894D01*
X25975Y46634D01*
D02*
G37*
G36*
X27473D02*
X27187D01*
X27108Y46250D01*
X27408D01*
X27421Y46314D01*
X27198D01*
X27220Y46418D01*
X27421D01*
X27434Y46483D01*
X27234D01*
X27253Y46570D01*
X27459D01*
X27473Y46634D01*
D02*
G37*
G36*
X26610D02*
X26520D01*
X26304Y46250D01*
X26386D01*
X26432Y46335D01*
X26584D01*
X26597Y46250D01*
X26672D01*
X26610Y46634D01*
D02*
G37*
G36*
X26928D02*
X26801D01*
X26721Y46250D01*
X26874D01*
X26883Y46251D01*
X26890D01*
X26897Y46251D01*
X26903Y46252D01*
X26908Y46252D01*
X26914Y46253D01*
X26918D01*
X26922Y46254D01*
X26925Y46254D01*
X26928Y46255D01*
X26930D01*
X26931Y46255D01*
X26932D01*
X26947Y46260D01*
X26961Y46265D01*
X26974Y46270D01*
X26984Y46276D01*
X26992Y46280D01*
X26998Y46285D01*
X27000Y46286D01*
X27002Y46287D01*
X27002Y46288D01*
X27003D01*
X27016Y46299D01*
X27028Y46312D01*
X27038Y46324D01*
X27046Y46337D01*
X27053Y46348D01*
X27056Y46352D01*
X27059Y46356D01*
X27060Y46359D01*
X27062Y46362D01*
X27063Y46363D01*
Y46364D01*
X27071Y46383D01*
X27077Y46402D01*
X27081Y46420D01*
X27084Y46438D01*
X27085Y46445D01*
X27085Y46452D01*
X27086Y46459D01*
Y46464D01*
X27087Y46469D01*
Y46472D01*
Y46474D01*
Y46475D01*
Y46485D01*
X27085Y46495D01*
X27085Y46504D01*
X27084Y46512D01*
X27083Y46518D01*
X27081Y46523D01*
X27081Y46526D01*
X27080Y46527D01*
X27078Y46536D01*
X27075Y46544D01*
X27072Y46552D01*
X27070Y46558D01*
X27067Y46564D01*
X27065Y46567D01*
X27064Y46570D01*
X27063Y46571D01*
X27059Y46578D01*
X27055Y46583D01*
X27050Y46589D01*
X27046Y46593D01*
X27042Y46597D01*
X27039Y46600D01*
X27037Y46602D01*
X27036Y46602D01*
X27031Y46607D01*
X27025Y46611D01*
X27019Y46614D01*
X27014Y46617D01*
X27009Y46620D01*
X27005Y46621D01*
X27003Y46622D01*
X27002Y46623D01*
X26988Y46627D01*
X26981Y46629D01*
X26974Y46630D01*
X26969Y46631D01*
X26964Y46632D01*
X26961Y46633D01*
X26960D01*
X26957Y46633D01*
X26954D01*
X26946Y46634D01*
X26937D01*
X26928Y46634D01*
D02*
G37*
G36*
X39084Y35293D02*
X38805D01*
X38672Y34652D01*
X38803D01*
X38855Y34897D01*
X38982D01*
X38994Y34898D01*
X39014D01*
X39022Y34899D01*
X39036D01*
X39041Y34900D01*
X39050D01*
X39054Y34901D01*
X39056D01*
X39075Y34904D01*
X39091Y34907D01*
X39106Y34911D01*
X39118Y34914D01*
X39127Y34917D01*
X39134Y34920D01*
X39139Y34921D01*
X39140Y34922D01*
X39152Y34928D01*
X39162Y34935D01*
X39173Y34942D01*
X39182Y34948D01*
X39189Y34954D01*
X39195Y34959D01*
X39199Y34963D01*
X39199Y34964D01*
X39209Y34975D01*
X39218Y34988D01*
X39226Y34999D01*
X39233Y35011D01*
X39239Y35022D01*
X39242Y35029D01*
X39244Y35035D01*
X39245Y35036D01*
Y35037D01*
X39252Y35055D01*
X39257Y35071D01*
X39260Y35087D01*
X39263Y35102D01*
X39264Y35114D01*
X39265Y35123D01*
Y35127D01*
Y35130D01*
Y35131D01*
Y35132D01*
X39264Y35150D01*
X39261Y35168D01*
X39257Y35183D01*
X39253Y35196D01*
X39248Y35207D01*
X39244Y35215D01*
X39241Y35220D01*
X39240Y35222D01*
X39231Y35235D01*
X39221Y35246D01*
X39210Y35256D01*
X39199Y35264D01*
X39191Y35270D01*
X39183Y35273D01*
X39178Y35275D01*
X39176Y35276D01*
X39159Y35282D01*
X39142Y35286D01*
X39124Y35289D01*
X39107Y35291D01*
X39091Y35292D01*
X39084Y35293D01*
D02*
G37*
G36*
X40058Y35296D02*
X40050D01*
X40035Y35295D01*
X40020Y35294D01*
X39994Y35288D01*
X39971Y35281D01*
X39951Y35273D01*
X39943Y35268D01*
X39935Y35264D01*
X39930Y35259D01*
X39924Y35256D01*
X39920Y35253D01*
X39917Y35250D01*
X39915Y35249D01*
X39914Y35248D01*
X39904Y35238D01*
X39895Y35229D01*
X39881Y35206D01*
X39869Y35184D01*
X39859Y35161D01*
X39853Y35142D01*
X39850Y35133D01*
X39849Y35125D01*
X39848Y35119D01*
X39847Y35114D01*
X39846Y35111D01*
Y35110D01*
X39968Y35093D01*
X39972Y35113D01*
X39977Y35130D01*
X39983Y35145D01*
X39988Y35155D01*
X39993Y35164D01*
X39997Y35170D01*
X40000Y35173D01*
X40001Y35174D01*
X40010Y35182D01*
X40018Y35188D01*
X40027Y35191D01*
X40035Y35194D01*
X40042Y35196D01*
X40048Y35197D01*
X40053D01*
X40063Y35196D01*
X40072Y35194D01*
X40081Y35191D01*
X40088Y35188D01*
X40093Y35184D01*
X40097Y35180D01*
X40099Y35178D01*
X40100Y35177D01*
X40107Y35169D01*
X40112Y35160D01*
X40115Y35151D01*
X40118Y35143D01*
X40119Y35136D01*
X40120Y35130D01*
Y35125D01*
Y35124D01*
Y35116D01*
X40118Y35109D01*
X40114Y35094D01*
X40112Y35087D01*
X40110Y35082D01*
X40109Y35079D01*
X40108Y35078D01*
X40103Y35069D01*
X40096Y35059D01*
X40090Y35049D01*
X40083Y35040D01*
X40076Y35031D01*
X40071Y35026D01*
X40067Y35022D01*
X40066Y35020D01*
X40062Y35016D01*
X40058Y35011D01*
X40047Y34999D01*
X40033Y34986D01*
X40019Y34972D01*
X40007Y34959D01*
X39996Y34948D01*
X39991Y34945D01*
X39988Y34942D01*
X39986Y34940D01*
X39985Y34939D01*
X39970Y34924D01*
X39956Y34910D01*
X39942Y34898D01*
X39931Y34886D01*
X39920Y34875D01*
X39910Y34866D01*
X39901Y34857D01*
X39894Y34849D01*
X39888Y34842D01*
X39882Y34836D01*
X39874Y34827D01*
X39869Y34823D01*
X39867Y34821D01*
X39855Y34807D01*
X39846Y34792D01*
X39836Y34779D01*
X39828Y34767D01*
X39822Y34756D01*
X39817Y34748D01*
X39814Y34743D01*
X39813Y34742D01*
Y34741D01*
X39807Y34725D01*
X39800Y34709D01*
X39796Y34694D01*
X39792Y34680D01*
X39789Y34668D01*
X39787Y34660D01*
X39786Y34654D01*
Y34653D01*
Y34652D01*
X40175D01*
X40198Y34766D01*
X39977D01*
X39990Y34782D01*
X39996Y34788D01*
X40001Y34794D01*
X40006Y34800D01*
X40010Y34804D01*
X40012Y34806D01*
X40012Y34807D01*
X40021Y34816D01*
X40033Y34827D01*
X40046Y34840D01*
X40059Y34852D01*
X40071Y34864D01*
X40081Y34873D01*
X40085Y34877D01*
X40088Y34880D01*
X40090Y34881D01*
X40091Y34882D01*
X40111Y34902D01*
X40129Y34918D01*
X40143Y34933D01*
X40155Y34945D01*
X40164Y34954D01*
X40170Y34960D01*
X40174Y34965D01*
X40175Y34966D01*
X40187Y34982D01*
X40197Y34997D01*
X40206Y35011D01*
X40214Y35023D01*
X40218Y35032D01*
X40222Y35040D01*
X40224Y35045D01*
X40225Y35047D01*
X40231Y35062D01*
X40235Y35075D01*
X40238Y35088D01*
X40240Y35100D01*
X40241Y35110D01*
X40242Y35116D01*
Y35121D01*
Y35123D01*
X40241Y35137D01*
X40240Y35150D01*
X40234Y35174D01*
X40225Y35195D01*
X40216Y35213D01*
X40207Y35228D01*
X40202Y35233D01*
X40198Y35238D01*
X40195Y35242D01*
X40192Y35245D01*
X40191Y35246D01*
X40190Y35247D01*
X40180Y35256D01*
X40170Y35264D01*
X40158Y35270D01*
X40147Y35275D01*
X40124Y35284D01*
X40101Y35290D01*
X40081Y35293D01*
X40072Y35295D01*
X40064D01*
X40058Y35296D01*
D02*
G37*
G36*
X39566D02*
X39559D01*
X39537Y35295D01*
X39517Y35292D01*
X39499Y35288D01*
X39483Y35283D01*
X39470Y35278D01*
X39460Y35274D01*
X39457Y35273D01*
X39454Y35272D01*
X39453Y35271D01*
X39452D01*
X39436Y35261D01*
X39422Y35250D01*
X39409Y35238D01*
X39400Y35228D01*
X39392Y35218D01*
X39387Y35210D01*
X39383Y35205D01*
X39382Y35204D01*
Y35203D01*
X39374Y35188D01*
X39368Y35172D01*
X39364Y35158D01*
X39362Y35146D01*
X39360Y35135D01*
X39359Y35126D01*
Y35121D01*
Y35120D01*
Y35119D01*
X39360Y35107D01*
X39362Y35095D01*
X39363Y35083D01*
X39367Y35074D01*
X39370Y35066D01*
X39372Y35060D01*
X39374Y35056D01*
X39375Y35055D01*
X39382Y35044D01*
X39390Y35034D01*
X39399Y35026D01*
X39406Y35018D01*
X39414Y35012D01*
X39420Y35007D01*
X39424Y35004D01*
X39426Y35003D01*
X39403Y34994D01*
X39384Y34984D01*
X39367Y34972D01*
X39354Y34960D01*
X39342Y34949D01*
X39334Y34940D01*
X39329Y34934D01*
X39327Y34933D01*
Y34932D01*
X39316Y34912D01*
X39307Y34893D01*
X39301Y34873D01*
X39297Y34856D01*
X39294Y34840D01*
X39293Y34833D01*
Y34827D01*
X39292Y34823D01*
Y34820D01*
Y34818D01*
Y34817D01*
X39293Y34803D01*
X39294Y34789D01*
X39300Y34764D01*
X39308Y34743D01*
X39318Y34724D01*
X39327Y34709D01*
X39331Y34703D01*
X39335Y34699D01*
X39338Y34695D01*
X39341Y34692D01*
X39342Y34691D01*
X39343Y34690D01*
X39353Y34681D01*
X39363Y34673D01*
X39375Y34666D01*
X39386Y34662D01*
X39409Y34652D01*
X39431Y34646D01*
X39450Y34643D01*
X39458Y34642D01*
X39466Y34641D01*
X39472Y34640D01*
X39480D01*
X39501Y34641D01*
X39522Y34644D01*
X39540Y34648D01*
X39558Y34654D01*
X39574Y34660D01*
X39590Y34667D01*
X39604Y34674D01*
X39616Y34683D01*
X39627Y34691D01*
X39637Y34699D01*
X39645Y34705D01*
X39651Y34711D01*
X39657Y34717D01*
X39661Y34721D01*
X39663Y34724D01*
X39664Y34725D01*
X39672Y34737D01*
X39680Y34747D01*
X39691Y34771D01*
X39699Y34793D01*
X39705Y34813D01*
X39709Y34830D01*
X39710Y34838D01*
Y34845D01*
X39711Y34850D01*
Y34854D01*
Y34856D01*
Y34857D01*
X39710Y34872D01*
X39708Y34888D01*
X39705Y34901D01*
X39701Y34912D01*
X39697Y34922D01*
X39694Y34929D01*
X39692Y34933D01*
X39691Y34935D01*
X39684Y34947D01*
X39674Y34959D01*
X39664Y34969D01*
X39654Y34978D01*
X39646Y34985D01*
X39639Y34989D01*
X39634Y34992D01*
X39632Y34993D01*
X39651Y35003D01*
X39668Y35013D01*
X39682Y35023D01*
X39693Y35032D01*
X39702Y35040D01*
X39709Y35047D01*
X39713Y35051D01*
X39714Y35053D01*
X39723Y35067D01*
X39729Y35081D01*
X39734Y35096D01*
X39738Y35109D01*
X39740Y35120D01*
X39741Y35129D01*
Y35135D01*
Y35136D01*
Y35137D01*
X39740Y35150D01*
X39739Y35161D01*
X39733Y35184D01*
X39726Y35203D01*
X39717Y35220D01*
X39708Y35233D01*
X39700Y35243D01*
X39697Y35246D01*
X39694Y35249D01*
X39693Y35250D01*
X39692Y35251D01*
X39683Y35259D01*
X39673Y35266D01*
X39651Y35277D01*
X39629Y35285D01*
X39607Y35290D01*
X39588Y35294D01*
X39580Y35295D01*
X39573D01*
X39566Y35296D01*
D02*
G37*
G36*
X38088Y35293D02*
X37612D01*
X37479Y34652D01*
X37979D01*
X38002Y34759D01*
X37629D01*
X37666Y34933D01*
X38001D01*
X38023Y35040D01*
X37690D01*
X37722Y35186D01*
X38065D01*
X38088Y35293D01*
D02*
G37*
%LPD*%
G36*
X34814Y44010D02*
X34823Y44009D01*
X34829Y44008D01*
X34835Y44007D01*
X34838Y44006D01*
X34840Y44006D01*
X34841D01*
X34848Y44003D01*
X34854Y43998D01*
X34859Y43994D01*
X34864Y43989D01*
X34868Y43985D01*
X34871Y43982D01*
X34873Y43979D01*
X34873Y43978D01*
X34878Y43969D01*
X34881Y43960D01*
X34883Y43949D01*
X34885Y43939D01*
X34886Y43931D01*
Y43927D01*
X34887Y43924D01*
Y43921D01*
Y43918D01*
Y43917D01*
Y43917D01*
X34886Y43899D01*
X34884Y43883D01*
X34881Y43869D01*
X34879Y43857D01*
X34877Y43852D01*
X34876Y43847D01*
X34874Y43843D01*
X34873Y43839D01*
X34872Y43836D01*
X34871Y43835D01*
X34870Y43834D01*
Y43833D01*
X34864Y43821D01*
X34857Y43810D01*
X34851Y43800D01*
X34845Y43792D01*
X34839Y43786D01*
X34835Y43781D01*
X34832Y43778D01*
X34831Y43777D01*
X34825Y43772D01*
X34819Y43767D01*
X34812Y43764D01*
X34807Y43762D01*
X34802Y43759D01*
X34798Y43758D01*
X34796Y43757D01*
X34795D01*
X34787Y43755D01*
X34777Y43754D01*
X34767Y43753D01*
X34756Y43752D01*
X34747D01*
X34743Y43752D01*
X34692D01*
X34746Y44011D01*
X34804D01*
X34814Y44010D01*
D02*
G37*
G36*
X26935Y46571D02*
X26943Y46569D01*
X26950Y46569D01*
X26955Y46568D01*
X26959Y46566D01*
X26960Y46566D01*
X26961D01*
X26968Y46563D01*
X26974Y46559D01*
X26980Y46554D01*
X26984Y46550D01*
X26988Y46545D01*
X26991Y46542D01*
X26993Y46540D01*
X26994Y46538D01*
X26998Y46530D01*
X27001Y46520D01*
X27004Y46510D01*
X27005Y46500D01*
X27007Y46491D01*
Y46487D01*
X27007Y46484D01*
Y46481D01*
Y46479D01*
Y46478D01*
Y46477D01*
X27007Y46459D01*
X27005Y46444D01*
X27002Y46430D01*
X26999Y46417D01*
X26997Y46412D01*
X26996Y46407D01*
X26995Y46403D01*
X26993Y46400D01*
X26992Y46397D01*
X26991Y46395D01*
X26991Y46394D01*
Y46393D01*
X26984Y46381D01*
X26978Y46370D01*
X26971Y46360D01*
X26965Y46352D01*
X26960Y46346D01*
X26956Y46341D01*
X26953Y46338D01*
X26952Y46337D01*
X26945Y46332D01*
X26939Y46328D01*
X26933Y46324D01*
X26928Y46322D01*
X26922Y46320D01*
X26919Y46318D01*
X26916Y46317D01*
X26915D01*
X26907Y46316D01*
X26897Y46314D01*
X26887Y46313D01*
X26877Y46313D01*
X26867D01*
X26863Y46312D01*
X26812D01*
X26867Y46571D01*
X26925D01*
X26935Y46571D01*
D02*
G37*
G36*
X28692Y38513D02*
X28699Y38511D01*
X28706Y38508D01*
X28712Y38505D01*
X28717Y38503D01*
X28720Y38500D01*
X28722Y38498D01*
X28723Y38497D01*
X28728Y38491D01*
X28732Y38484D01*
X28734Y38476D01*
X28737Y38470D01*
X28738Y38463D01*
X28739Y38459D01*
Y38455D01*
Y38455D01*
Y38454D01*
X28738Y38444D01*
X28737Y38435D01*
X28734Y38417D01*
X28729Y38401D01*
X28726Y38394D01*
X28724Y38388D01*
X28721Y38382D01*
X28718Y38377D01*
X28716Y38373D01*
X28713Y38369D01*
X28712Y38366D01*
X28710Y38364D01*
X28709Y38363D01*
X28709Y38362D01*
X28705Y38357D01*
X28701Y38353D01*
X28692Y38347D01*
X28683Y38342D01*
X28675Y38339D01*
X28668Y38337D01*
X28663Y38336D01*
X28660Y38336D01*
X28657D01*
X28648Y38336D01*
X28640Y38339D01*
X28633Y38342D01*
X28627Y38345D01*
X28623Y38348D01*
X28619Y38350D01*
X28617Y38353D01*
X28616Y38353D01*
X28611Y38360D01*
X28607Y38368D01*
X28605Y38376D01*
X28602Y38384D01*
X28601Y38390D01*
X28600Y38396D01*
Y38400D01*
Y38400D01*
Y38401D01*
X28601Y38410D01*
X28602Y38419D01*
X28603Y38428D01*
X28606Y38436D01*
X28608Y38443D01*
X28609Y38449D01*
X28610Y38453D01*
X28610Y38453D01*
Y38454D01*
X28615Y38464D01*
X28619Y38473D01*
X28624Y38481D01*
X28629Y38487D01*
X28633Y38492D01*
X28637Y38495D01*
X28639Y38498D01*
X28640Y38498D01*
X28647Y38504D01*
X28654Y38507D01*
X28662Y38510D01*
X28668Y38512D01*
X28674Y38513D01*
X28679Y38514D01*
X28683D01*
X28692Y38513D01*
D02*
G37*
G36*
X29026Y38516D02*
X29034Y38514D01*
X29040Y38511D01*
X29046Y38508D01*
X29050Y38505D01*
X29053Y38503D01*
X29056Y38500D01*
X29056Y38500D01*
X29061Y38493D01*
X29065Y38485D01*
X29068Y38477D01*
X29070Y38469D01*
X29071Y38462D01*
X29071Y38457D01*
Y38455D01*
Y38453D01*
Y38452D01*
Y38452D01*
X29071Y38442D01*
X29070Y38431D01*
X29068Y38421D01*
X29066Y38412D01*
X29063Y38405D01*
X29061Y38398D01*
X29061Y38396D01*
X29060Y38394D01*
X29060Y38394D01*
Y38393D01*
X29055Y38382D01*
X29050Y38373D01*
X29045Y38365D01*
X29041Y38359D01*
X29037Y38354D01*
X29033Y38350D01*
X29031Y38349D01*
X29030Y38348D01*
X29024Y38343D01*
X29018Y38340D01*
X29012Y38338D01*
X29006Y38336D01*
X29002Y38335D01*
X28998Y38335D01*
X28995D01*
X28987Y38335D01*
X28980Y38338D01*
X28974Y38340D01*
X28968Y38343D01*
X28964Y38347D01*
X28960Y38349D01*
X28958Y38352D01*
X28957Y38352D01*
X28952Y38360D01*
X28948Y38368D01*
X28946Y38376D01*
X28943Y38385D01*
X28942Y38392D01*
X28942Y38398D01*
Y38401D01*
Y38402D01*
Y38403D01*
Y38404D01*
X28942Y38412D01*
X28943Y38421D01*
X28944Y38430D01*
X28946Y38438D01*
X28948Y38445D01*
X28950Y38450D01*
X28950Y38453D01*
Y38455D01*
X28951Y38455D01*
Y38456D01*
X28955Y38466D01*
X28960Y38476D01*
X28964Y38483D01*
X28968Y38490D01*
X28973Y38494D01*
X28975Y38498D01*
X28978Y38500D01*
X28978Y38501D01*
X28985Y38506D01*
X28992Y38510D01*
X28999Y38512D01*
X29005Y38515D01*
X29011Y38516D01*
X29015Y38517D01*
X29018D01*
X29026Y38516D01*
D02*
G37*
G36*
X27722Y46569D02*
X27730Y46568D01*
X27736Y46567D01*
X27740Y46566D01*
X27743Y46565D01*
X27745Y46564D01*
X27745Y46564D01*
X27751Y46559D01*
X27755Y46554D01*
X27759Y46549D01*
X27761Y46544D01*
X27762Y46539D01*
X27763Y46535D01*
Y46533D01*
Y46532D01*
X27762Y46526D01*
X27761Y46519D01*
X27759Y46513D01*
X27757Y46509D01*
X27755Y46504D01*
X27752Y46501D01*
X27751Y46499D01*
X27751Y46498D01*
X27746Y46492D01*
X27741Y46488D01*
X27735Y46483D01*
X27730Y46480D01*
X27725Y46478D01*
X27721Y46476D01*
X27719Y46475D01*
X27718Y46474D01*
X27713Y46473D01*
X27708Y46472D01*
X27702Y46471D01*
X27696Y46470D01*
X27682Y46469D01*
X27668Y46468D01*
X27654Y46468D01*
X27648Y46467D01*
X27591D01*
X27612Y46570D01*
X27712D01*
X27722Y46569D01*
D02*
G37*
G36*
X35234Y44013D02*
X35246Y44010D01*
X35256Y44006D01*
X35265Y44001D01*
X35272Y43996D01*
X35278Y43992D01*
X35281Y43989D01*
X35282Y43989D01*
Y43988D01*
X35290Y43977D01*
X35296Y43966D01*
X35301Y43954D01*
X35304Y43943D01*
X35306Y43933D01*
X35306Y43928D01*
Y43925D01*
X35307Y43921D01*
Y43919D01*
Y43918D01*
Y43917D01*
X35306Y43902D01*
X35304Y43887D01*
X35301Y43873D01*
X35297Y43860D01*
X35295Y43855D01*
X35293Y43849D01*
X35292Y43845D01*
X35290Y43841D01*
X35289Y43838D01*
X35288Y43835D01*
X35287Y43834D01*
Y43834D01*
X35280Y43818D01*
X35272Y43805D01*
X35263Y43794D01*
X35256Y43786D01*
X35249Y43779D01*
X35244Y43774D01*
X35240Y43771D01*
X35239Y43770D01*
X35238D01*
X35227Y43763D01*
X35217Y43757D01*
X35206Y43754D01*
X35197Y43752D01*
X35189Y43750D01*
X35182Y43749D01*
X35180Y43749D01*
X35177D01*
X35170Y43749D01*
X35163Y43750D01*
X35151Y43753D01*
X35139Y43757D01*
X35131Y43762D01*
X35124Y43767D01*
X35118Y43771D01*
X35115Y43774D01*
X35114Y43775D01*
X35114D01*
X35106Y43786D01*
X35100Y43797D01*
X35096Y43808D01*
X35093Y43818D01*
X35091Y43828D01*
X35090Y43832D01*
Y43835D01*
X35090Y43838D01*
Y43840D01*
Y43841D01*
Y43842D01*
X35090Y43853D01*
X35091Y43865D01*
X35093Y43877D01*
X35096Y43887D01*
X35098Y43898D01*
X35101Y43907D01*
X35104Y43917D01*
X35108Y43925D01*
X35111Y43932D01*
X35114Y43939D01*
X35118Y43945D01*
X35120Y43951D01*
X35122Y43955D01*
X35124Y43958D01*
X35125Y43959D01*
X35126Y43960D01*
X35133Y43969D01*
X35141Y43978D01*
X35148Y43985D01*
X35156Y43991D01*
X35164Y43997D01*
X35172Y44001D01*
X35179Y44004D01*
X35187Y44007D01*
X35194Y44010D01*
X35200Y44011D01*
X35206Y44013D01*
X35211Y44014D01*
X35214D01*
X35218Y44014D01*
X35227D01*
X35234Y44013D01*
D02*
G37*
G36*
X26575Y46399D02*
X26467D01*
X26552Y46554D01*
X26575Y46399D01*
D02*
G37*
G36*
X25301Y46571D02*
X25307D01*
X25315Y46570D01*
X25322Y46569D01*
X25327Y46568D01*
X25330Y46568D01*
X25332Y46567D01*
X25332D01*
X25340Y46564D01*
X25345Y46559D01*
X25349Y46555D01*
X25350Y46555D01*
Y46554D01*
X25352Y46551D01*
X25353Y46547D01*
X25356Y46540D01*
Y46536D01*
X25356Y46534D01*
Y46532D01*
Y46531D01*
X25356Y46524D01*
X25354Y46517D01*
X25352Y46510D01*
X25350Y46504D01*
X25348Y46500D01*
X25346Y46496D01*
X25345Y46494D01*
X25344Y46493D01*
X25339Y46488D01*
X25333Y46482D01*
X25328Y46478D01*
X25323Y46475D01*
X25318Y46472D01*
X25314Y46471D01*
X25312Y46469D01*
X25311Y46469D01*
X25306Y46468D01*
X25301Y46466D01*
X25295Y46465D01*
X25289Y46465D01*
X25275Y46463D01*
X25261Y46462D01*
X25248Y46462D01*
X25242Y46461D01*
X25203D01*
X25226Y46571D01*
X25296D01*
X25301Y46571D01*
D02*
G37*
G36*
X41029Y34995D02*
X41039Y34992D01*
X41047Y34988D01*
X41054Y34985D01*
X41060Y34980D01*
X41064Y34976D01*
X41067Y34973D01*
X41068Y34972D01*
X41074Y34962D01*
X41079Y34950D01*
X41083Y34938D01*
X41085Y34926D01*
X41087Y34915D01*
X41088Y34906D01*
Y34900D01*
Y34899D01*
Y34898D01*
X41086Y34870D01*
X41082Y34846D01*
X41076Y34825D01*
X41070Y34807D01*
X41064Y34793D01*
X41061Y34787D01*
X41058Y34784D01*
X41055Y34780D01*
X41054Y34777D01*
X41052Y34776D01*
Y34775D01*
X41042Y34763D01*
X41031Y34755D01*
X41021Y34749D01*
X41011Y34744D01*
X41002Y34743D01*
X40995Y34742D01*
X40991Y34741D01*
X40989D01*
X40979Y34742D01*
X40969Y34744D01*
X40961Y34748D01*
X40953Y34752D01*
X40947Y34756D01*
X40944Y34760D01*
X40941Y34763D01*
X40940Y34764D01*
X40933Y34775D01*
X40928Y34786D01*
X40925Y34798D01*
X40923Y34811D01*
X40921Y34822D01*
X40920Y34831D01*
Y34837D01*
Y34838D01*
Y34839D01*
X40921Y34855D01*
X40922Y34869D01*
X40924Y34882D01*
X40927Y34895D01*
X40930Y34905D01*
X40932Y34912D01*
X40933Y34917D01*
X40934Y34919D01*
X40940Y34933D01*
X40946Y34946D01*
X40952Y34955D01*
X40958Y34963D01*
X40963Y34970D01*
X40968Y34974D01*
X40971Y34977D01*
X40972Y34978D01*
X40981Y34984D01*
X40989Y34988D01*
X40998Y34991D01*
X41005Y34994D01*
X41011Y34995D01*
X41016Y34996D01*
X41020D01*
X41029Y34995D01*
D02*
G37*
G36*
X39041Y35187D02*
X39050D01*
X39065Y35186D01*
X39076Y35185D01*
X39084Y35183D01*
X39089Y35182D01*
X39092Y35181D01*
X39093D01*
X39106Y35175D01*
X39115Y35167D01*
X39120Y35161D01*
X39122Y35160D01*
Y35159D01*
X39126Y35153D01*
X39128Y35148D01*
X39132Y35135D01*
Y35129D01*
X39133Y35125D01*
Y35122D01*
Y35121D01*
X39132Y35109D01*
X39130Y35097D01*
X39126Y35086D01*
X39123Y35076D01*
X39119Y35069D01*
X39116Y35063D01*
X39114Y35059D01*
X39113Y35058D01*
X39105Y35048D01*
X39095Y35039D01*
X39086Y35032D01*
X39077Y35027D01*
X39070Y35023D01*
X39063Y35020D01*
X39059Y35018D01*
X39057Y35017D01*
X39049Y35015D01*
X39041Y35013D01*
X39031Y35011D01*
X39021Y35010D01*
X38997Y35007D01*
X38974Y35006D01*
X38953Y35005D01*
X38943Y35004D01*
X38877D01*
X38915Y35188D01*
X39033D01*
X39041Y35187D01*
D02*
G37*
G36*
X39528Y34947D02*
X39538Y34945D01*
X39548Y34941D01*
X39555Y34937D01*
X39562Y34933D01*
X39565Y34929D01*
X39568Y34927D01*
X39569Y34926D01*
X39576Y34918D01*
X39581Y34909D01*
X39585Y34901D01*
X39587Y34892D01*
X39589Y34885D01*
X39590Y34879D01*
Y34874D01*
Y34873D01*
X39589Y34855D01*
X39586Y34838D01*
X39581Y34823D01*
X39576Y34808D01*
X39571Y34797D01*
X39566Y34788D01*
X39564Y34783D01*
X39563Y34782D01*
Y34781D01*
X39558Y34773D01*
X39552Y34767D01*
X39540Y34756D01*
X39527Y34749D01*
X39515Y34744D01*
X39504Y34741D01*
X39495Y34740D01*
X39489Y34739D01*
X39487D01*
X39477Y34740D01*
X39466Y34742D01*
X39458Y34744D01*
X39450Y34748D01*
X39444Y34752D01*
X39441Y34755D01*
X39438Y34757D01*
X39437Y34758D01*
X39430Y34767D01*
X39425Y34776D01*
X39422Y34785D01*
X39420Y34794D01*
X39418Y34802D01*
X39417Y34809D01*
Y34813D01*
Y34815D01*
X39418Y34836D01*
X39422Y34855D01*
X39427Y34871D01*
X39433Y34885D01*
X39438Y34896D01*
X39443Y34904D01*
X39446Y34908D01*
X39447Y34910D01*
X39459Y34923D01*
X39471Y34932D01*
X39483Y34939D01*
X39493Y34943D01*
X39503Y34946D01*
X39510Y34947D01*
X39515Y34947D01*
X39517D01*
X39528Y34947D01*
D02*
G37*
G36*
X40532Y34995D02*
X40541Y34992D01*
X40549Y34988D01*
X40556Y34985D01*
X40562Y34980D01*
X40566Y34976D01*
X40569Y34973D01*
X40570Y34972D01*
X40577Y34962D01*
X40581Y34950D01*
X40585Y34938D01*
X40587Y34926D01*
X40589Y34915D01*
X40590Y34906D01*
Y34900D01*
Y34899D01*
Y34898D01*
X40588Y34870D01*
X40584Y34846D01*
X40579Y34825D01*
X40573Y34807D01*
X40566Y34793D01*
X40563Y34787D01*
X40560Y34784D01*
X40557Y34780D01*
X40556Y34777D01*
X40554Y34776D01*
Y34775D01*
X40544Y34763D01*
X40534Y34755D01*
X40523Y34749D01*
X40513Y34744D01*
X40504Y34743D01*
X40498Y34742D01*
X40494Y34741D01*
X40492D01*
X40481Y34742D01*
X40471Y34744D01*
X40463Y34748D01*
X40456Y34752D01*
X40450Y34756D01*
X40446Y34760D01*
X40443Y34763D01*
X40442Y34764D01*
X40435Y34775D01*
X40430Y34786D01*
X40427Y34798D01*
X40425Y34811D01*
X40423Y34822D01*
X40422Y34831D01*
Y34837D01*
Y34838D01*
Y34839D01*
X40423Y34855D01*
X40424Y34869D01*
X40426Y34882D01*
X40429Y34895D01*
X40432Y34905D01*
X40434Y34912D01*
X40435Y34917D01*
X40436Y34919D01*
X40442Y34933D01*
X40448Y34946D01*
X40455Y34955D01*
X40460Y34963D01*
X40465Y34970D01*
X40470Y34974D01*
X40473Y34977D01*
X40474Y34978D01*
X40483Y34984D01*
X40492Y34988D01*
X40500Y34991D01*
X40507Y34994D01*
X40513Y34995D01*
X40518Y34996D01*
X40522D01*
X40532Y34995D01*
D02*
G37*
G36*
X31077Y38513D02*
X31084Y38511D01*
X31091Y38508D01*
X31097Y38505D01*
X31102Y38503D01*
X31105Y38500D01*
X31107Y38498D01*
X31108Y38497D01*
X31113Y38491D01*
X31117Y38484D01*
X31120Y38476D01*
X31122Y38470D01*
X31123Y38463D01*
X31124Y38459D01*
Y38455D01*
Y38455D01*
Y38454D01*
X31123Y38444D01*
X31122Y38435D01*
X31119Y38417D01*
X31114Y38401D01*
X31111Y38394D01*
X31109Y38388D01*
X31106Y38382D01*
X31103Y38377D01*
X31101Y38373D01*
X31098Y38369D01*
X31097Y38366D01*
X31095Y38364D01*
X31094Y38363D01*
X31094Y38362D01*
X31090Y38357D01*
X31086Y38353D01*
X31077Y38347D01*
X31068Y38342D01*
X31060Y38339D01*
X31053Y38337D01*
X31048Y38336D01*
X31045Y38336D01*
X31042D01*
X31034Y38336D01*
X31025Y38339D01*
X31018Y38342D01*
X31012Y38345D01*
X31008Y38348D01*
X31004Y38350D01*
X31002Y38353D01*
X31001Y38353D01*
X30996Y38360D01*
X30992Y38368D01*
X30990Y38376D01*
X30987Y38384D01*
X30986Y38390D01*
X30986Y38396D01*
Y38400D01*
Y38400D01*
Y38401D01*
X30986Y38410D01*
X30987Y38419D01*
X30988Y38428D01*
X30991Y38436D01*
X30993Y38443D01*
X30994Y38449D01*
X30995Y38453D01*
X30995Y38453D01*
Y38454D01*
X31000Y38464D01*
X31004Y38473D01*
X31010Y38481D01*
X31014Y38487D01*
X31018Y38492D01*
X31022Y38495D01*
X31024Y38498D01*
X31025Y38498D01*
X31032Y38504D01*
X31039Y38507D01*
X31047Y38510D01*
X31053Y38512D01*
X31059Y38513D01*
X31064Y38514D01*
X31068D01*
X31077Y38513D01*
D02*
G37*
G36*
X29556D02*
X29563Y38511D01*
X29570Y38508D01*
X29576Y38505D01*
X29581Y38503D01*
X29584Y38500D01*
X29586Y38498D01*
X29587Y38497D01*
X29592Y38491D01*
X29596Y38484D01*
X29599Y38476D01*
X29601Y38470D01*
X29602Y38463D01*
X29603Y38459D01*
Y38455D01*
Y38455D01*
Y38454D01*
X29602Y38444D01*
X29601Y38435D01*
X29598Y38417D01*
X29593Y38401D01*
X29590Y38394D01*
X29588Y38388D01*
X29585Y38382D01*
X29582Y38377D01*
X29580Y38373D01*
X29577Y38369D01*
X29576Y38366D01*
X29574Y38364D01*
X29573Y38363D01*
X29573Y38362D01*
X29569Y38357D01*
X29565Y38353D01*
X29556Y38347D01*
X29547Y38342D01*
X29539Y38339D01*
X29532Y38337D01*
X29527Y38336D01*
X29524Y38336D01*
X29521D01*
X29513Y38336D01*
X29504Y38339D01*
X29497Y38342D01*
X29491Y38345D01*
X29487Y38348D01*
X29483Y38350D01*
X29481Y38353D01*
X29480Y38353D01*
X29475Y38360D01*
X29471Y38368D01*
X29469Y38376D01*
X29466Y38384D01*
X29465Y38390D01*
X29465Y38396D01*
Y38400D01*
Y38400D01*
Y38401D01*
X29465Y38410D01*
X29466Y38419D01*
X29467Y38428D01*
X29470Y38436D01*
X29472Y38443D01*
X29473Y38449D01*
X29474Y38453D01*
X29474Y38453D01*
Y38454D01*
X29479Y38464D01*
X29483Y38473D01*
X29489Y38481D01*
X29493Y38487D01*
X29497Y38492D01*
X29501Y38495D01*
X29503Y38498D01*
X29504Y38498D01*
X29511Y38504D01*
X29518Y38507D01*
X29526Y38510D01*
X29532Y38512D01*
X29538Y38513D01*
X29543Y38514D01*
X29547D01*
X29556Y38513D01*
D02*
G37*
G36*
X30168Y38516D02*
X30176Y38514D01*
X30182Y38511D01*
X30188Y38509D01*
X30192Y38506D01*
X30195Y38503D01*
X30197Y38501D01*
X30198Y38501D01*
X30202Y38494D01*
X30206Y38487D01*
X30208Y38479D01*
X30210Y38472D01*
X30211Y38464D01*
X30212Y38459D01*
Y38457D01*
Y38455D01*
Y38455D01*
Y38454D01*
Y38452D01*
Y38449D01*
Y38447D01*
Y38446D01*
X30093D01*
X30096Y38459D01*
X30100Y38469D01*
X30104Y38478D01*
X30108Y38486D01*
X30112Y38491D01*
X30115Y38495D01*
X30117Y38498D01*
X30118Y38498D01*
X30125Y38504D01*
X30133Y38509D01*
X30140Y38512D01*
X30146Y38514D01*
X30152Y38515D01*
X30156Y38517D01*
X30160D01*
X30168Y38516D01*
D02*
G37*
G36*
X39567Y35198D02*
X39576Y35196D01*
X39585Y35193D01*
X39592Y35190D01*
X39597Y35186D01*
X39602Y35183D01*
X39604Y35181D01*
X39605Y35180D01*
X39611Y35172D01*
X39616Y35163D01*
X39619Y35155D01*
X39622Y35148D01*
X39623Y35140D01*
X39624Y35134D01*
Y35130D01*
Y35129D01*
X39623Y35116D01*
X39620Y35106D01*
X39615Y35095D01*
X39611Y35086D01*
X39606Y35079D01*
X39602Y35074D01*
X39599Y35070D01*
X39598Y35069D01*
X39588Y35061D01*
X39578Y35055D01*
X39568Y35050D01*
X39559Y35047D01*
X39551Y35045D01*
X39545Y35044D01*
X39539D01*
X39528Y35045D01*
X39520Y35047D01*
X39511Y35050D01*
X39504Y35054D01*
X39499Y35057D01*
X39494Y35060D01*
X39492Y35062D01*
X39491Y35063D01*
X39485Y35070D01*
X39482Y35078D01*
X39478Y35086D01*
X39476Y35094D01*
X39475Y35101D01*
X39474Y35107D01*
Y35110D01*
Y35111D01*
X39475Y35124D01*
X39478Y35136D01*
X39482Y35147D01*
X39486Y35155D01*
X39490Y35163D01*
X39494Y35168D01*
X39497Y35172D01*
X39498Y35173D01*
X39508Y35182D01*
X39518Y35189D01*
X39527Y35192D01*
X39536Y35196D01*
X39545Y35198D01*
X39551Y35199D01*
X39557D01*
X39567Y35198D01*
D02*
G37*
D10*
X20983Y48150D02*
X20650D01*
X20983Y48483D01*
Y48567D01*
X20900Y48650D01*
X20733D01*
X20650Y48567D01*
X20850Y47150D02*
X21017D01*
X20933D01*
Y47650D01*
X20850Y47567D01*
X26250Y47233D02*
X26333Y47150D01*
X26500D01*
X26583Y47233D01*
Y47567D01*
X26500Y47650D01*
X26333D01*
X26250Y47567D01*
Y47483D01*
X26333Y47400D01*
X26583D01*
X26250Y48150D02*
X26417D01*
X26333D01*
Y48650D01*
X26250Y48567D01*
X26667D02*
X26750Y48650D01*
X26916D01*
X27000Y48567D01*
Y48233D01*
X26916Y48150D01*
X26750D01*
X26667Y48233D01*
Y48567D01*
X41833Y35400D02*
X41750Y35483D01*
Y35650D01*
X41833Y35733D01*
X41917D01*
X42000Y35650D01*
X42083Y35733D01*
X42167D01*
X42250Y35650D01*
Y35483D01*
X42167Y35400D01*
X42083D01*
X42000Y35483D01*
X41917Y35400D01*
X41833D01*
X42000Y35483D02*
Y35650D01*
X42750Y35400D02*
Y35733D01*
X42833D01*
X43167Y35400D01*
X43250D01*
Y31000D02*
Y31167D01*
Y31083D01*
X42750D01*
X42833Y31000D01*
X42250Y31133D02*
Y30800D01*
X41917Y31133D01*
X41833D01*
X41750Y31050D01*
Y30883D01*
X41833Y30800D01*
D21*
X23612Y44680D02*
G03*
X23612Y44680I-317J0D01*
G01*
X23070Y30490D02*
Y34140D01*
X23060Y34150D02*
X23070Y34140D01*
X20580Y34150D02*
X23060D01*
X22428Y43892D02*
X24200D01*
Y45507D01*
X22428D02*
X24200D01*
X22428Y43892D02*
Y45507D01*
X30453Y30768D02*
Y36713D01*
X30217D02*
X30453D01*
X23406D02*
X30217D01*
X23406Y30768D02*
Y36713D01*
Y30768D02*
X30453D01*
X33976Y36378D02*
X43819D01*
X33976Y30531D02*
Y36378D01*
Y30531D02*
X34048Y30603D01*
X43890D01*
X43819Y30531D02*
X43890Y30603D01*
X43819Y30531D02*
Y36378D01*
X38071Y31969D02*
Y33071D01*
Y31969D02*
X39094D01*
X38504D02*
X39094D01*
X38504D02*
X39094D01*
Y33071D01*
X39114Y33091D01*
X38091D02*
X39114D01*
X37677Y32126D02*
X37835D01*
X37677Y32323D02*
X37835D01*
X37677Y32520D02*
X37835D01*
X37677Y32717D02*
X37835D01*
X37677Y32913D02*
X37835D01*
X38976Y31634D02*
Y31791D01*
X38780Y31634D02*
Y31791D01*
X38583Y31634D02*
Y31791D01*
X38386Y31634D02*
Y31791D01*
X38189Y31634D02*
Y31791D01*
X39311Y32913D02*
X39469D01*
X39311Y32717D02*
X39469D01*
X39311Y32520D02*
X39469D01*
X39311Y32323D02*
X39469D01*
X39311Y32126D02*
X39469D01*
X38228Y33287D02*
Y33445D01*
X38425Y33287D02*
Y33445D01*
X38622Y33287D02*
Y33445D01*
X38819Y33287D02*
Y33445D01*
X39016Y33287D02*
Y33445D01*
X25460Y45420D02*
X25360Y45520D01*
X25160D01*
X25060Y45420D01*
Y45020D01*
X25160Y44920D01*
X25360D01*
X25460Y45020D01*
X25660Y45520D02*
X26060D01*
Y45420D01*
X25660Y45020D01*
Y44920D01*
X21840Y44940D02*
X21740Y45040D01*
X21540D01*
X21440Y44940D01*
Y44840D01*
X21540Y44740D01*
X21740D01*
X21840Y44640D01*
Y44540D01*
X21740Y44440D01*
X21540D01*
X21440Y44540D01*
X22040Y44440D02*
X22240D01*
X22140D01*
Y45040D01*
X22040Y44940D01*
X36699Y44811D02*
X36599Y44911D01*
X36399D01*
X36299Y44811D01*
Y44411D01*
X36399Y44311D01*
X36599D01*
X36699Y44411D01*
X36899Y44311D02*
X37099D01*
X36999D01*
Y44911D01*
X36899Y44811D01*
X38377Y44830D02*
X38277Y44930D01*
X38077D01*
X37977Y44830D01*
Y44430D01*
X38077Y44330D01*
X38277D01*
X38377Y44430D01*
X38977Y44330D02*
X38577D01*
X38977Y44730D01*
Y44830D01*
X38877Y44930D01*
X38677D01*
X38577Y44830D01*
X32990Y44510D02*
X32890Y44610D01*
X32690D01*
X32590Y44510D01*
Y44110D01*
X32690Y44010D01*
X32890D01*
X32990Y44110D01*
X33190Y44510D02*
X33290Y44610D01*
X33490D01*
X33590Y44510D01*
Y44410D01*
X33490Y44310D01*
X33390D01*
X33490D01*
X33590Y44210D01*
Y44110D01*
X33490Y44010D01*
X33290D01*
X33190Y44110D01*
X30600Y42620D02*
X30500Y42720D01*
X30300D01*
X30200Y42620D01*
Y42220D01*
X30300Y42120D01*
X30500D01*
X30600Y42220D01*
X31100Y42120D02*
Y42720D01*
X30800Y42420D01*
X31200D01*
X21575Y39250D02*
X21475Y39350D01*
X21275D01*
X21175Y39250D01*
Y38850D01*
X21275Y38750D01*
X21475D01*
X21575Y38850D01*
X22174Y39350D02*
X21775D01*
Y39050D01*
X21975Y39150D01*
X22075D01*
X22174Y39050D01*
Y38850D01*
X22075Y38750D01*
X21875D01*
X21775Y38850D01*
X21594Y42577D02*
X21494Y42677D01*
X21294D01*
X21194Y42577D01*
Y42177D01*
X21294Y42077D01*
X21494D01*
X21594Y42177D01*
X22194Y42677D02*
X21994Y42577D01*
X21794Y42377D01*
Y42177D01*
X21894Y42077D01*
X22094D01*
X22194Y42177D01*
Y42277D01*
X22094Y42377D01*
X21794D01*
X26290Y37870D02*
Y37270D01*
X26590D01*
X26690Y37370D01*
Y37770D01*
X26590Y37870D01*
X26290D01*
X26890Y37270D02*
X27090D01*
X26990D01*
Y37870D01*
X26890Y37770D01*
X30685Y32016D02*
Y31416D01*
X30985D01*
X31085Y31516D01*
Y31616D01*
X30985Y31716D01*
X30685D01*
X30985D01*
X31085Y31816D01*
Y31916D01*
X30985Y32016D01*
X30685D01*
X31100Y33380D02*
X31000Y33480D01*
X30800D01*
X30700Y33380D01*
Y32980D01*
X30800Y32880D01*
X31000D01*
X31100Y32980D01*
Y33180D01*
X30900D01*
X30694Y34335D02*
Y34935D01*
X30994D01*
X31094Y34835D01*
Y34635D01*
X30994Y34535D01*
X30694D01*
X30894D02*
X31094Y34335D01*
X22290Y32970D02*
Y32770D01*
Y32870D01*
X22790D01*
X22890Y32770D01*
Y32670D01*
X22790Y32570D01*
X22890Y33170D02*
Y33370D01*
Y33270D01*
X22290D01*
X22390Y33170D01*
X22320Y31190D02*
Y30990D01*
Y31090D01*
X22820D01*
X22920Y30990D01*
Y30890D01*
X22820Y30790D01*
X22920Y31790D02*
Y31390D01*
X22520Y31790D01*
X22420D01*
X22320Y31690D01*
Y31490D01*
X22420Y31390D01*
X39400Y48200D02*
Y48000D01*
Y48100D01*
X39900D01*
X40000Y48000D01*
Y47900D01*
X39900Y47800D01*
X39500Y48400D02*
X39400Y48500D01*
Y48700D01*
X39500Y48800D01*
X39600D01*
X39700Y48700D01*
Y48600D01*
Y48700D01*
X39800Y48800D01*
X39900D01*
X40000Y48700D01*
Y48500D01*
X39900Y48400D01*
X23455Y37662D02*
Y37063D01*
Y37263D01*
X23855Y37662D01*
X23555Y37363D01*
X23855Y37063D01*
X24055D02*
X24255D01*
X24155D01*
Y37662D01*
X24055Y37563D01*
X27690Y48260D02*
Y48860D01*
X27990D01*
X28090Y48760D01*
Y48560D01*
X27990Y48460D01*
X27690D01*
X28290Y48760D02*
X28390Y48860D01*
X28590D01*
X28690Y48760D01*
Y48660D01*
X28590Y48560D01*
X28490D01*
X28590D01*
X28690Y48460D01*
Y48360D01*
X28590Y48260D01*
X28390D01*
X28290Y48360D01*
X31680Y35860D02*
Y36260D01*
X31580Y36360D01*
X31380D01*
X31280Y36260D01*
Y35860D01*
X31380Y35760D01*
X31580D01*
X31480Y35960D02*
X31680Y35760D01*
X31580D02*
X31680Y35860D01*
X31880Y35760D02*
X32080D01*
X31980D01*
Y36360D01*
X31880Y36260D01*
X40570Y38680D02*
Y39080D01*
X40470Y39180D01*
X40270D01*
X40170Y39080D01*
Y38680D01*
X40270Y38580D01*
X40470D01*
X40370Y38780D02*
X40570Y38580D01*
X40470D02*
X40570Y38680D01*
X41170Y38580D02*
X40770D01*
X41170Y38980D01*
Y39080D01*
X41070Y39180D01*
X40870D01*
X40770Y39080D01*
X33010Y38644D02*
Y39244D01*
X33310D01*
X33410Y39144D01*
Y38944D01*
X33310Y38844D01*
X33010D01*
X33210D02*
X33410Y38644D01*
X33610D02*
X33810D01*
X33710D01*
Y39244D01*
X33610Y39144D01*
X40050Y41230D02*
Y41830D01*
X40350D01*
X40450Y41730D01*
Y41530D01*
X40350Y41430D01*
X40050D01*
X40250D02*
X40450Y41230D01*
X41050D02*
X40650D01*
X41050Y41630D01*
Y41730D01*
X40950Y41830D01*
X40750D01*
X40650Y41730D01*
X37360Y38590D02*
Y39190D01*
X37660D01*
X37760Y39090D01*
Y38890D01*
X37660Y38790D01*
X37360D01*
X37560D02*
X37760Y38590D01*
X37960Y39090D02*
X38060Y39190D01*
X38260D01*
X38360Y39090D01*
Y38990D01*
X38260Y38890D01*
X38160D01*
X38260D01*
X38360Y38790D01*
Y38690D01*
X38260Y38590D01*
X38060D01*
X37960Y38690D01*
X36150Y38590D02*
Y39190D01*
X36450D01*
X36550Y39090D01*
Y38890D01*
X36450Y38790D01*
X36150D01*
X36350D02*
X36550Y38590D01*
X37050D02*
Y39190D01*
X36750Y38890D01*
X37150D01*
X34950Y38590D02*
Y39190D01*
X35250D01*
X35350Y39090D01*
Y38890D01*
X35250Y38790D01*
X34950D01*
X35150D02*
X35350Y38590D01*
X35950Y39190D02*
X35550D01*
Y38890D01*
X35750Y38990D01*
X35850D01*
X35950Y38890D01*
Y38690D01*
X35850Y38590D01*
X35650D01*
X35550Y38690D01*
X42100Y38730D02*
Y39330D01*
X42400D01*
X42500Y39230D01*
Y39030D01*
X42400Y38930D01*
X42100D01*
X42300D02*
X42500Y38730D01*
X43100Y39330D02*
X42900Y39230D01*
X42700Y39030D01*
Y38830D01*
X42800Y38730D01*
X43000D01*
X43100Y38830D01*
Y38930D01*
X43000Y39030D01*
X42700D01*
X42160Y41800D02*
Y42400D01*
X42460D01*
X42560Y42300D01*
Y42100D01*
X42460Y42000D01*
X42160D01*
X42360D02*
X42560Y41800D01*
X42760Y42400D02*
X43160D01*
Y42300D01*
X42760Y41900D01*
Y41800D01*
X40050Y39940D02*
Y40540D01*
X40350D01*
X40450Y40440D01*
Y40240D01*
X40350Y40140D01*
X40050D01*
X40250D02*
X40450Y39940D01*
X40650Y40440D02*
X40750Y40540D01*
X40950D01*
X41050Y40440D01*
Y40340D01*
X40950Y40240D01*
X41050Y40140D01*
Y40040D01*
X40950Y39940D01*
X40750D01*
X40650Y40040D01*
Y40140D01*
X40750Y40240D01*
X40650Y40340D01*
Y40440D01*
X40750Y40240D02*
X40950D01*
X29409Y44035D02*
X28810D01*
Y44335D01*
X28910Y44435D01*
X29110D01*
X29210Y44335D01*
Y44035D01*
Y44235D02*
X29409Y44435D01*
X29309Y44635D02*
X29409Y44735D01*
Y44935D01*
X29309Y45035D01*
X28910D01*
X28810Y44935D01*
Y44735D01*
X28910Y44635D01*
X29010D01*
X29110Y44735D01*
Y45035D01*
X35590Y48750D02*
Y48250D01*
X35690Y48150D01*
X35890D01*
X35990Y48250D01*
Y48750D01*
X36190Y48150D02*
X36390D01*
X36290D01*
Y48750D01*
X36190Y48650D01*
X30900Y48800D02*
Y48300D01*
X31000Y48200D01*
X31200D01*
X31300Y48300D01*
Y48800D01*
X31900Y48200D02*
X31500D01*
X31900Y48600D01*
Y48700D01*
X31800Y48800D01*
X31600D01*
X31500Y48700D01*
X28930Y39830D02*
Y39330D01*
X29030Y39230D01*
X29230D01*
X29330Y39330D01*
Y39830D01*
X29530Y39730D02*
X29630Y39830D01*
X29830D01*
X29930Y39730D01*
Y39630D01*
X29830Y39530D01*
X29730D01*
X29830D01*
X29930Y39430D01*
Y39330D01*
X29830Y39230D01*
X29630D01*
X29530Y39330D01*
X34075Y42617D02*
Y42117D01*
X34175Y42017D01*
X34375D01*
X34474Y42117D01*
Y42617D01*
X34974Y42017D02*
Y42617D01*
X34674Y42317D01*
X35074D01*
X22930Y43220D02*
Y43120D01*
X23130Y42920D01*
X23330Y43120D01*
Y43220D01*
X23130Y42920D02*
Y42620D01*
X23530D02*
X23730D01*
X23630D01*
Y43220D01*
X23530Y43120D01*
D36*
X30994Y36998D02*
G03*
X30994Y36998I-49J0D01*
G01*
X34734Y41616D02*
G03*
X34734Y41616I-49J0D01*
G01*
X21663Y32115D02*
G03*
X21663Y32115I-49J0D01*
G01*
Y33819D02*
G03*
X21663Y33819I-49J0D01*
G01*
X36130Y45689D02*
G03*
X36130Y45689I-49J0D01*
G01*
X41083Y37028D02*
G03*
X41083Y37028I-49J0D01*
G01*
X25915Y42795D02*
G03*
X25915Y42795I-49J0D01*
G01*
X32070Y45619D02*
G03*
X32070Y45619I-49J0D01*
G01*
D37*
X26929Y42087D02*
G03*
X26929Y42087I-118J0D01*
G01*
D38*
X26150Y46850D02*
Y48850D01*
X21150Y46850D02*
Y48850D01*
X26150D01*
X21150Y46850D02*
X26150D01*
X22748Y38812D02*
Y42312D01*
Y38812D02*
X24248D01*
Y42312D01*
X22748D02*
X24248D01*
X27697Y37835D02*
Y37913D01*
X28445Y37835D02*
Y37913D01*
X27697Y37323D02*
Y37402D01*
X28445Y37323D02*
Y37402D01*
X27697Y37913D02*
X28445D01*
X27697Y37323D02*
X28445D01*
X27697Y37402D02*
X27854D01*
Y37323D02*
Y37402D01*
Y37835D02*
Y37913D01*
X27697Y37835D02*
X27854D01*
X31929Y37736D02*
X32244D01*
Y37421D02*
Y37736D01*
X31063D02*
X31378D01*
X31063Y37421D02*
Y37736D01*
X25510Y44044D02*
Y44556D01*
X27634Y46921D02*
X29634D01*
Y47921D01*
X27634D02*
X29634D01*
X27634Y46921D02*
Y47921D01*
X35335Y39528D02*
Y41496D01*
X35965Y39528D02*
Y41496D01*
X35335D02*
X35965D01*
X35335Y39528D02*
X35965D01*
X33169Y37461D02*
X33681D01*
X42866Y43152D02*
X43772Y43152D01*
Y48900D01*
X40228D02*
X43772D01*
X40228Y43152D02*
X41134D01*
X40228D02*
Y43900D01*
Y45632D02*
Y48900D01*
X36600Y43594D02*
Y44106D01*
X38450Y43594D02*
Y44106D01*
X33110Y43184D02*
Y43696D01*
X41550Y35300D02*
X43550D01*
X41550Y31300D02*
X43550D01*
X41550D02*
Y35300D01*
X43550Y31300D02*
Y35300D01*
X27756Y44311D02*
Y44823D01*
X30472Y41280D02*
X30984D01*
X21608Y39735D02*
Y40247D01*
Y41191D02*
Y41703D01*
X42264Y40846D02*
X42776D01*
X21063Y31859D02*
X22165D01*
Y30757D02*
Y31859D01*
X21063Y30757D02*
X22165D01*
X21063Y30757D02*
Y31859D01*
Y33563D02*
X22165D01*
Y32461D02*
Y33563D01*
X21063Y32461D02*
X22165D01*
X21063D02*
Y33563D01*
X32150Y34404D02*
Y34916D01*
X32156Y32923D02*
Y33434D01*
X32140Y31414D02*
Y31926D01*
X37527Y37601D02*
X38039D01*
X36326D02*
X36838D01*
X35145Y37581D02*
X35657D01*
X39173Y40039D02*
Y40551D01*
Y41280D02*
Y41791D01*
X38719Y46338D02*
Y47362D01*
X36081Y46338D02*
Y47362D01*
X38719D01*
X36081Y46338D02*
X38719D01*
X40295Y38012D02*
Y38327D01*
X40610D01*
X40295Y37146D02*
Y37461D01*
Y37146D02*
X40610D01*
X26417Y40236D02*
Y42480D01*
X28661Y40236D02*
Y42480D01*
X26417D02*
X28661D01*
X26417Y40236D02*
X28661D01*
X42244Y37776D02*
X42756D01*
X34659Y46268D02*
Y47292D01*
X32021Y46268D02*
Y47292D01*
X34659D01*
X32021Y46268D02*
X34659D01*
D39*
X21606Y36962D02*
X21676D01*
X21567Y36959D02*
X21718D01*
X21543Y36955D02*
X21742D01*
X21522Y36952D02*
X21764D01*
X21504Y36948D02*
X21781D01*
X21490Y36945D02*
X21795D01*
X21477Y36941D02*
X21809D01*
X21463Y36938D02*
X21823D01*
X21452Y36934D02*
X21834D01*
X21442Y36931D02*
X21844D01*
X21431Y36927D02*
X21855D01*
X21421Y36924D02*
X21865D01*
X21410Y36920D02*
X21872D01*
X21403Y36917D02*
X21883D01*
X21393Y36913D02*
X21893D01*
X21386Y36910D02*
X21900D01*
X21375Y36906D02*
X21907D01*
X21372Y36903D02*
X21914D01*
X21365Y36899D02*
X21921D01*
X21354Y36896D02*
X21928D01*
X21347Y36892D02*
X21935D01*
X21344Y36889D02*
X21942D01*
X21337Y36885D02*
X21949D01*
X21330Y36882D02*
X21956D01*
X21323Y36878D02*
X21960D01*
X21316Y36875D02*
X21967D01*
X21312Y36872D02*
X21974D01*
X21305Y36868D02*
X21977D01*
X21302Y36865D02*
X21984D01*
X21295Y36861D02*
X21991D01*
X21288Y36858D02*
X21995D01*
X21284Y36854D02*
X22002D01*
X21281Y36851D02*
X22005D01*
X21274Y36847D02*
X22012D01*
X21270Y36844D02*
X22016D01*
X21263Y36840D02*
X22023D01*
X21260Y36837D02*
X22026D01*
X21256Y36833D02*
X22030D01*
X21249Y36830D02*
X22033D01*
X21246Y36826D02*
X22040D01*
X21239Y36823D02*
X22043D01*
X21235Y36819D02*
X22047D01*
X21232Y36816D02*
X22054D01*
X21228Y36812D02*
X22057D01*
X21225Y36809D02*
X22061D01*
X21221Y36805D02*
X22064D01*
X21218Y36802D02*
X22068D01*
X21214Y36798D02*
X22071D01*
X21207Y36795D02*
X22075D01*
X21207Y36791D02*
X22078D01*
X21200Y36788D02*
X22082D01*
X21196Y36784D02*
X22085D01*
X21193Y36781D02*
X22089D01*
X21189Y36777D02*
X22092D01*
X21186Y36774D02*
X22096D01*
X21182Y36770D02*
X22099D01*
X21179Y36767D02*
X21785D01*
X21809D02*
X22103D01*
X21179Y36763D02*
X21739D01*
X21858D02*
X22106D01*
X21175Y36760D02*
X21714D01*
X21879D02*
X22110D01*
X21172Y36756D02*
X21700D01*
X21897D02*
X22113D01*
X21168Y36753D02*
X21683D01*
X21911D02*
X22117D01*
X21165Y36749D02*
X21669D01*
X21928D02*
X22120D01*
X21161Y36746D02*
X21658D01*
X21935D02*
X22124D01*
X21158Y36742D02*
X21648D01*
X21949D02*
X22127D01*
X21154Y36739D02*
X21637D01*
X21960D02*
X22127D01*
X21154Y36735D02*
X21627D01*
X21970D02*
X22131D01*
X21151Y36732D02*
X21620D01*
X21977D02*
X22134D01*
X21147Y36728D02*
X21613D01*
X21984D02*
X22138D01*
X21144Y36725D02*
X21602D01*
X21991D02*
X22141D01*
X21140Y36721D02*
X21595D01*
X22002D02*
X22141D01*
X21140Y36718D02*
X21588D01*
X22009D02*
X22145D01*
X21137Y36714D02*
X21581D01*
X22016D02*
X22148D01*
X21133Y36711D02*
X21574D01*
X22023D02*
X22152D01*
X21130Y36707D02*
X21567D01*
X22026D02*
X22152D01*
X21130Y36704D02*
X21560D01*
X22036D02*
X22155D01*
X21126Y36700D02*
X21557D01*
X22040D02*
X22159D01*
X21123Y36697D02*
X21550D01*
X22047D02*
X22159D01*
X21123Y36693D02*
X21543D01*
X22050D02*
X22162D01*
X21119Y36690D02*
X21539D01*
X22057D02*
X22166D01*
X21116Y36686D02*
X21532D01*
X22061D02*
X22166D01*
X21116Y36683D02*
X21529D01*
X22068D02*
X22169D01*
X21112Y36679D02*
X21522D01*
X22071D02*
X22173D01*
X21109Y36676D02*
X21518D01*
X22075D02*
X22173D01*
X21105Y36672D02*
X21515D01*
X22082D02*
X22176D01*
X21105Y36669D02*
X21508D01*
X22085D02*
X22180D01*
X21102Y36665D02*
X21504D01*
X22092D02*
X22180D01*
X21102Y36662D02*
X21501D01*
X22096D02*
X22183D01*
X21098Y36658D02*
X21497D01*
X22099D02*
X22187D01*
X21095Y36655D02*
X21490D01*
X22103D02*
X22187D01*
X21095Y36651D02*
X21487D01*
X22110D02*
X22190D01*
X21091Y36648D02*
X21484D01*
X22113D02*
X22190D01*
X21091Y36644D02*
X21480D01*
X22117D02*
X22194D01*
X21088Y36641D02*
X21477D01*
X22120D02*
X22197D01*
X21088Y36637D02*
X21473D01*
X22124D02*
X22197D01*
X21084Y36634D02*
X21470D01*
X21862D02*
X21876D01*
X22127D02*
X22201D01*
X21084Y36630D02*
X21466D01*
X21816D02*
X21925D01*
X22131D02*
X22201D01*
X21081Y36627D02*
X21463D01*
X21802D02*
X21942D01*
X22134D02*
X22204D01*
X21081Y36623D02*
X21459D01*
X21788D02*
X21956D01*
X22138D02*
X22204D01*
X21077Y36620D02*
X21456D01*
X21774D02*
X21970D01*
X22141D02*
X22204D01*
X21077Y36616D02*
X21452D01*
X21764D02*
X21981D01*
X22145D02*
X22208D01*
X21074Y36613D02*
X21449D01*
X21753D02*
X21991D01*
X22145D02*
X22211D01*
X21074Y36609D02*
X21445D01*
X21742D02*
X22002D01*
X22152D02*
X22211D01*
X21070Y36606D02*
X21442D01*
X21735D02*
X22009D01*
X22152D02*
X22211D01*
X21070Y36602D02*
X21438D01*
X21725D02*
X22016D01*
X22155D02*
X22215D01*
X21067Y36598D02*
X21438D01*
X21718D02*
X22023D01*
X22159D02*
X22215D01*
X21067Y36595D02*
X21435D01*
X21714D02*
X22033D01*
X22162D02*
X22218D01*
X21063Y36591D02*
X21431D01*
X21707D02*
X22036D01*
X22166D02*
X22218D01*
X21063Y36588D02*
X21428D01*
X21700D02*
X22043D01*
X22166D02*
X22222D01*
X21063Y36584D02*
X21424D01*
X21693D02*
X22050D01*
X22169D02*
X22222D01*
X21060Y36581D02*
X21424D01*
X21690D02*
X22054D01*
X22173D02*
X22225D01*
X21060Y36577D02*
X21421D01*
X21683D02*
X22061D01*
X22176D02*
X22225D01*
X21056Y36574D02*
X21417D01*
X21676D02*
X22064D01*
X22176D02*
X22225D01*
X21056Y36570D02*
X21414D01*
X21672D02*
X22068D01*
X22180D02*
X22229D01*
X21056Y36567D02*
X21414D01*
X21669D02*
X22075D01*
X22183D02*
X22229D01*
X21053Y36563D02*
X21410D01*
X21665D02*
X22082D01*
X22183D02*
X22229D01*
X21053Y36560D02*
X21410D01*
X21658D02*
X21749D01*
X21823D02*
X22085D01*
X22187D02*
X22232D01*
X21053Y36556D02*
X21407D01*
X21655D02*
X21735D01*
X21841D02*
X22089D01*
X22190D02*
X22232D01*
X21049Y36553D02*
X21403D01*
X21651D02*
X21718D01*
X21858D02*
X22092D01*
X22190D02*
X22236D01*
X21049Y36549D02*
X21403D01*
X21648D02*
X21711D01*
X21865D02*
X22096D01*
X22194D02*
X22236D01*
X21046Y36546D02*
X21400D01*
X21641D02*
X21697D01*
X21876D02*
X22099D01*
X22197D02*
X22236D01*
X21046Y36542D02*
X21396D01*
X21637D02*
X21690D01*
X21886D02*
X22103D01*
X22197D02*
X22239D01*
X21046Y36539D02*
X21396D01*
X21634D02*
X21679D01*
X21893D02*
X22106D01*
X22201D02*
X22239D01*
X21042Y36535D02*
X21393D01*
X21630D02*
X21672D01*
X21900D02*
X22110D01*
X22204D02*
X22239D01*
X21042Y36532D02*
X21393D01*
X21627D02*
X21669D01*
X21907D02*
X22113D01*
X22204D02*
X22243D01*
X21042Y36528D02*
X21389D01*
X21623D02*
X21662D01*
X21914D02*
X22120D01*
X22208D02*
X22243D01*
X21039Y36525D02*
X21389D01*
X21620D02*
X21655D01*
X21918D02*
X22120D01*
X22208D02*
X22243D01*
X21039Y36521D02*
X21386D01*
X21620D02*
X21648D01*
X21925D02*
X22124D01*
X22211D02*
X22243D01*
X21039Y36518D02*
X21382D01*
X21616D02*
X21644D01*
X21928D02*
X22127D01*
X22211D02*
X22246D01*
X21039Y36514D02*
X21382D01*
X21613D02*
X21641D01*
X21935D02*
X22131D01*
X22215D02*
X22246D01*
X21039Y36511D02*
X21379D01*
X21609D02*
X21634D01*
X21939D02*
X22134D01*
X22215D02*
X22246D01*
X21035Y36507D02*
X21379D01*
X21606D02*
X21630D01*
X21946D02*
X22138D01*
X22218D02*
X22250D01*
X21035Y36504D02*
X21379D01*
X21602D02*
X21627D01*
X21949D02*
X22138D01*
X22218D02*
X22250D01*
X21032Y36500D02*
X21375D01*
X21602D02*
X21623D01*
X21953D02*
X22141D01*
X22222D02*
X22250D01*
X21032Y36497D02*
X21372D01*
X21599D02*
X21616D01*
X21956D02*
X22145D01*
X22222D02*
X22250D01*
X21032Y36493D02*
X21372D01*
X21595D02*
X21613D01*
X21960D02*
X22148D01*
X22225D02*
X22253D01*
X21032Y36490D02*
X21368D01*
X21592D02*
X21609D01*
X21963D02*
X22148D01*
X22225D02*
X22253D01*
X21028Y36486D02*
X21368D01*
X21592D02*
X21606D01*
X21967D02*
X22152D01*
X22225D02*
X22253D01*
X21028Y36483D02*
X21368D01*
X21588D02*
X21606D01*
X21970D02*
X22152D01*
X22229D02*
X22253D01*
X21028Y36479D02*
X21365D01*
X21585D02*
X21602D01*
X21974D02*
X22155D01*
X22229D02*
X22257D01*
X21028Y36476D02*
X21365D01*
X21585D02*
X21599D01*
X21977D02*
X22159D01*
X22232D02*
X22257D01*
X21028Y36472D02*
X21361D01*
X21581D02*
X21595D01*
X21981D02*
X22159D01*
X22232D02*
X22257D01*
X21025Y36469D02*
X21361D01*
X21581D02*
X21592D01*
X21981D02*
X22162D01*
X22232D02*
X22257D01*
X21025Y36465D02*
X21361D01*
X21578D02*
X21588D01*
X21984D02*
X22166D01*
X22236D02*
X22257D01*
X21025Y36462D02*
X21358D01*
X21578D02*
X21585D01*
X21988D02*
X22166D01*
X22236D02*
X22260D01*
X21025Y36458D02*
X21358D01*
X21574D02*
X21585D01*
X21991D02*
X22169D01*
X22239D02*
X22260D01*
X21025Y36455D02*
X21358D01*
X21571D02*
X21581D01*
X21991D02*
X22169D01*
X22239D02*
X22260D01*
X21025Y36451D02*
X21354D01*
X21571D02*
X21578D01*
X21995D02*
X22173D01*
X22239D02*
X22260D01*
X21021Y36448D02*
X21354D01*
X21567D02*
X21578D01*
X21998D02*
X22173D01*
X22239D02*
X22260D01*
X21021Y36444D02*
X21354D01*
X21567D02*
X21574D01*
X21998D02*
X22176D01*
X22243D02*
X22260D01*
X21021Y36441D02*
X21354D01*
X21567D02*
X21571D01*
X22002D02*
X22176D01*
X22243D02*
X22264D01*
X21021Y36437D02*
X21351D01*
X21564D02*
X21571D01*
X22002D02*
X22180D01*
X22246D02*
X22264D01*
X21021Y36434D02*
X21351D01*
X21564D02*
X21567D01*
X22005D02*
X22180D01*
X22246D02*
X22264D01*
X21021Y36430D02*
X21351D01*
X21560D02*
X21567D01*
X22009D02*
X22183D01*
X22246D02*
X22264D01*
X21021Y36427D02*
X21347D01*
X21560D02*
X21564D01*
X22009D02*
X22183D01*
X22246D02*
X22264D01*
X21018Y36423D02*
X21347D01*
X22012D02*
X22183D01*
X22250D02*
X22264D01*
X21018Y36420D02*
X21347D01*
X22012D02*
X22187D01*
X22250D02*
X22264D01*
X21018Y36416D02*
X21347D01*
X22012D02*
X22187D01*
X22250D02*
X22264D01*
X21018Y36413D02*
X21344D01*
X22016D02*
X22187D01*
X22250D02*
X22267D01*
X21018Y36409D02*
X21344D01*
X22016D02*
X22190D01*
X22253D02*
X22267D01*
X21018Y36406D02*
X21344D01*
X22019D02*
X22190D01*
X22253D02*
X22267D01*
X21018Y36402D02*
X21344D01*
X22019D02*
X22190D01*
X22253D02*
X22267D01*
X21018Y36399D02*
X21344D01*
X22019D02*
X22194D01*
X22253D02*
X22267D01*
X21014Y36395D02*
X21340D01*
X22023D02*
X22194D01*
X22253D02*
X22267D01*
X21014Y36392D02*
X21340D01*
X22023D02*
X22194D01*
X22253D02*
X22267D01*
X21014Y36388D02*
X21340D01*
X22026D02*
X22197D01*
X22257D02*
X22267D01*
X21014Y36385D02*
X21340D01*
X22026D02*
X22197D01*
X22257D02*
X22267D01*
X21014Y36381D02*
X21340D01*
X22026D02*
X22197D01*
X22257D02*
X22267D01*
X21014Y36378D02*
X21337D01*
X22026D02*
X22197D01*
X22257D02*
X22267D01*
X21014Y36374D02*
X21337D01*
X22026D02*
X22197D01*
X22257D02*
X22267D01*
X21014Y36371D02*
X21337D01*
X22030D02*
X22201D01*
X22257D02*
X22271D01*
X21014Y36367D02*
X21337D01*
X22030D02*
X22201D01*
X22260D02*
X22271D01*
X21014Y36364D02*
X21337D01*
X22030D02*
X22201D01*
X22260D02*
X22271D01*
X21014Y36360D02*
X21337D01*
X22030D02*
X22201D01*
X22260D02*
X22271D01*
X21014Y36357D02*
X21337D01*
X22033D02*
X22201D01*
X22260D02*
X22267D01*
X21014Y36353D02*
X21337D01*
X22033D02*
X22204D01*
X22260D02*
X22267D01*
X21014Y36350D02*
X21337D01*
X22033D02*
X22204D01*
X22260D02*
X22267D01*
X21014Y36346D02*
X21333D01*
X22033D02*
X22204D01*
X22260D02*
X22267D01*
X21014Y36343D02*
X21333D01*
X22033D02*
X22204D01*
X22260D02*
X22267D01*
X21014Y36339D02*
X21333D01*
X22033D02*
X22204D01*
X22260D02*
X22271D01*
X21014Y36336D02*
X21333D01*
X22033D02*
X22204D01*
X22260D02*
X22271D01*
X21014Y36332D02*
X21333D01*
X22033D02*
X22204D01*
X22260D02*
X22267D01*
X21014Y36329D02*
X21333D01*
X22033D02*
X22204D01*
X22260D02*
X22267D01*
X21014Y36326D02*
X21333D01*
X22033D02*
X22204D01*
X22260D02*
X22267D01*
X21014Y36322D02*
X21333D01*
X22033D02*
X22204D01*
X22260D02*
X22267D01*
X21014Y36319D02*
X21333D01*
X22033D02*
X22204D01*
X22264D02*
X22267D01*
X21014Y36315D02*
X21333D01*
X22033D02*
X22204D01*
X22264D02*
X22267D01*
X21018Y36312D02*
X21333D01*
X22033D02*
X22204D01*
X22264D02*
X22267D01*
X21018Y36308D02*
X21333D01*
X22033D02*
X22204D01*
X22264D02*
X22267D01*
X21018Y36305D02*
X21333D01*
X22033D02*
X22204D01*
X22264D02*
X22267D01*
X21018Y36301D02*
X21333D01*
X22033D02*
X22204D01*
X22260D02*
X22267D01*
X21018Y36298D02*
X21333D01*
X22033D02*
X22204D01*
X22264D02*
X22267D01*
X21018Y36294D02*
X21333D01*
X22033D02*
X22204D01*
X22260D02*
X22267D01*
X21018Y36291D02*
X21333D01*
X22033D02*
X22204D01*
X22260D02*
X22267D01*
X21018Y36287D02*
X21333D01*
X21539D02*
X21543D01*
X22033D02*
X22204D01*
X21018Y36284D02*
X21337D01*
X21539D02*
X21543D01*
X22030D02*
X22204D01*
X21021Y36280D02*
X21337D01*
X21539D02*
X21543D01*
X22030D02*
X22204D01*
X21021Y36277D02*
X21337D01*
X21539D02*
X21543D01*
X22030D02*
X22204D01*
X21021Y36273D02*
X21337D01*
X21539D02*
X21546D01*
X22030D02*
X22204D01*
X21021Y36270D02*
X21337D01*
X21539D02*
X21546D01*
X22026D02*
X22204D01*
X21021Y36266D02*
X21337D01*
X21539D02*
X21546D01*
X22026D02*
X22204D01*
X21021Y36263D02*
X21337D01*
X21539D02*
X21546D01*
X22026D02*
X22204D01*
X21021Y36259D02*
X21337D01*
X21539D02*
X21550D01*
X22026D02*
X22201D01*
X21025Y36256D02*
X21337D01*
X21543D02*
X21550D01*
X22026D02*
X22201D01*
X21025Y36252D02*
X21337D01*
X21543D02*
X21550D01*
X22023D02*
X22201D01*
X21025Y36249D02*
X21340D01*
X21543D02*
X21553D01*
X22023D02*
X22201D01*
X21025Y36245D02*
X21340D01*
X21543D02*
X21553D01*
X22019D02*
X22201D01*
X21025Y36242D02*
X21340D01*
X21543D02*
X21553D01*
X22019D02*
X22197D01*
X21025Y36238D02*
X21340D01*
X21546D02*
X21557D01*
X22019D02*
X22197D01*
X21028Y36235D02*
X21340D01*
X21546D02*
X21557D01*
X22016D02*
X22197D01*
X21028Y36231D02*
X21340D01*
X21546D02*
X21557D01*
X22016D02*
X22197D01*
X21028Y36228D02*
X21344D01*
X21546D02*
X21560D01*
X22012D02*
X22194D01*
X21028Y36224D02*
X21344D01*
X21550D02*
X21560D01*
X22012D02*
X22194D01*
X21032Y36221D02*
X21344D01*
X21550D02*
X21564D01*
X22012D02*
X22194D01*
X21032Y36217D02*
X21344D01*
X21550D02*
X21564D01*
X22009D02*
X22194D01*
X21032Y36214D02*
X21347D01*
X21553D02*
X21567D01*
X22009D02*
X22190D01*
X21032Y36210D02*
X21347D01*
X21553D02*
X21567D01*
X22005D02*
X22190D01*
X21035Y36207D02*
X21347D01*
X21553D02*
X21571D01*
X22002D02*
X22190D01*
X21035Y36203D02*
X21347D01*
X21557D02*
X21571D01*
X22002D02*
X22187D01*
X21035Y36200D02*
X21347D01*
X21557D02*
X21574D01*
X21998D02*
X22187D01*
X21035Y36196D02*
X21351D01*
X21557D02*
X21578D01*
X21998D02*
X22187D01*
X21039Y36193D02*
X21351D01*
X21557D02*
X21578D01*
X21995D02*
X22183D01*
X21039Y36189D02*
X21351D01*
X21560D02*
X21581D01*
X21991D02*
X22183D01*
X21039Y36186D02*
X21354D01*
X21560D02*
X21585D01*
X21988D02*
X22180D01*
X21039Y36182D02*
X21354D01*
X21564D02*
X21588D01*
X21988D02*
X22180D01*
X21042Y36179D02*
X21354D01*
X21564D02*
X21588D01*
X21984D02*
X22176D01*
X21042Y36175D02*
X21358D01*
X21564D02*
X21592D01*
X21981D02*
X22176D01*
X21046Y36172D02*
X21358D01*
X21567D02*
X21595D01*
X21981D02*
X22176D01*
X21046Y36168D02*
X21361D01*
X21567D02*
X21599D01*
X21977D02*
X22173D01*
X21046Y36165D02*
X21361D01*
X21571D02*
X21602D01*
X21974D02*
X22173D01*
X21046Y36161D02*
X21361D01*
X21574D02*
X21606D01*
X21970D02*
X22169D01*
X21049Y36158D02*
X21361D01*
X21574D02*
X21606D01*
X21967D02*
X22169D01*
X21049Y36154D02*
X21365D01*
X21578D02*
X21613D01*
X21963D02*
X22166D01*
X21053Y36151D02*
X21365D01*
X21578D02*
X21613D01*
X21960D02*
X22166D01*
X21053Y36147D02*
X21368D01*
X21581D02*
X21616D01*
X21956D02*
X22162D01*
X21053Y36144D02*
X21368D01*
X21581D02*
X21620D01*
X21953D02*
X22159D01*
X21056Y36140D02*
X21372D01*
X21585D02*
X21627D01*
X21949D02*
X22159D01*
X21056Y36137D02*
X21372D01*
X21588D02*
X21630D01*
X21942D02*
X22155D01*
X21056Y36133D02*
X21372D01*
X21588D02*
X21634D01*
X21939D02*
X22152D01*
X21060Y36130D02*
X21375D01*
X21592D02*
X21641D01*
X21935D02*
X22152D01*
X21060Y36126D02*
X21375D01*
X21595D02*
X21644D01*
X21928D02*
X22148D01*
X21063Y36123D02*
X21379D01*
X21595D02*
X21651D01*
X21925D02*
X22145D01*
X21063Y36119D02*
X21379D01*
X21599D02*
X21655D01*
X21921D02*
X22145D01*
X21067Y36116D02*
X21382D01*
X21602D02*
X21662D01*
X21914D02*
X22141D01*
X22215D02*
X22218D01*
X21067Y36112D02*
X21382D01*
X21606D02*
X21669D01*
X21907D02*
X22138D01*
X22211D02*
X22218D01*
X21067Y36109D02*
X21386D01*
X21606D02*
X21672D01*
X21900D02*
X22134D01*
X22211D02*
X22215D01*
X21070Y36105D02*
X21386D01*
X21609D02*
X21679D01*
X21893D02*
X22134D01*
X22208D02*
X22215D01*
X21070Y36102D02*
X21389D01*
X21613D02*
X21690D01*
X21886D02*
X22131D01*
X22208D02*
X22211D01*
X21074Y36098D02*
X21389D01*
X21616D02*
X21697D01*
X21876D02*
X22127D01*
X22204D02*
X22211D01*
X21074Y36095D02*
X21393D01*
X21620D02*
X21711D01*
X21865D02*
X22124D01*
X22201D02*
X22211D01*
X21077Y36091D02*
X21393D01*
X21623D02*
X21718D01*
X21858D02*
X22120D01*
X22201D02*
X22208D01*
X21077Y36088D02*
X21396D01*
X21627D02*
X21732D01*
X21841D02*
X22117D01*
X22201D02*
X22204D01*
X21081Y36084D02*
X21400D01*
X21627D02*
X21749D01*
X21823D02*
X22113D01*
X22197D02*
X22204D01*
X21081Y36081D02*
X21400D01*
X21634D02*
X22110D01*
X22194D02*
X22201D01*
X21084Y36077D02*
X21403D01*
X21634D02*
X22106D01*
X22194D02*
X22201D01*
X21084Y36074D02*
X21407D01*
X21641D02*
X22103D01*
X22190D02*
X22197D01*
X21088Y36070D02*
X21407D01*
X21644D02*
X22099D01*
X22187D02*
X22197D01*
X21088Y36067D02*
X21410D01*
X21648D02*
X22096D01*
X22183D02*
X22194D01*
X21091Y36063D02*
X21414D01*
X21651D02*
X22092D01*
X22183D02*
X22194D01*
X21091Y36060D02*
X21414D01*
X21655D02*
X22085D01*
X22180D02*
X22190D01*
X21095Y36056D02*
X21417D01*
X21658D02*
X22082D01*
X22176D02*
X22190D01*
X21098Y36052D02*
X21421D01*
X21665D02*
X22078D01*
X22176D02*
X22187D01*
X21098Y36049D02*
X21421D01*
X21669D02*
X22075D01*
X22173D02*
X22187D01*
X21102Y36045D02*
X21424D01*
X21672D02*
X22068D01*
X22169D02*
X22183D01*
X21102Y36042D02*
X21428D01*
X21679D02*
X22064D01*
X22169D02*
X22180D01*
X21105Y36038D02*
X21431D01*
X21683D02*
X22057D01*
X22166D02*
X22180D01*
X21109Y36035D02*
X21431D01*
X21690D02*
X22054D01*
X22162D02*
X22176D01*
X21109Y36031D02*
X21438D01*
X21693D02*
X22047D01*
X22159D02*
X22176D01*
X21112Y36028D02*
X21438D01*
X21700D02*
X22040D01*
X22155D02*
X22173D01*
X21116Y36024D02*
X21442D01*
X21707D02*
X22036D01*
X22152D02*
X22169D01*
X21116Y36021D02*
X21445D01*
X21714D02*
X22026D01*
X22152D02*
X22166D01*
X21119Y36017D02*
X21449D01*
X21721D02*
X22023D01*
X22148D02*
X22166D01*
X21123Y36014D02*
X21452D01*
X21728D02*
X22016D01*
X22145D02*
X22162D01*
X21123Y36010D02*
X21456D01*
X21735D02*
X22009D01*
X22141D02*
X22159D01*
X21126Y36007D02*
X21459D01*
X21746D02*
X21998D01*
X22138D02*
X22159D01*
X21130Y36003D02*
X21463D01*
X21753D02*
X21988D01*
X22134D02*
X22155D01*
X21130Y36000D02*
X21466D01*
X21764D02*
X21981D01*
X22131D02*
X22152D01*
X21133Y35996D02*
X21470D01*
X21774D02*
X21970D01*
X22127D02*
X22152D01*
X21137Y35993D02*
X21473D01*
X21788D02*
X21956D01*
X22124D02*
X22148D01*
X21140Y35989D02*
X21477D01*
X21802D02*
X21942D01*
X22120D02*
X22145D01*
X21140Y35986D02*
X21480D01*
X21823D02*
X21921D01*
X22117D02*
X22141D01*
X21144Y35982D02*
X21484D01*
X22113D02*
X22138D01*
X21147Y35979D02*
X21487D01*
X22110D02*
X22138D01*
X21151Y35975D02*
X21490D01*
X22103D02*
X22134D01*
X21151Y35972D02*
X21494D01*
X22099D02*
X22131D01*
X21154Y35968D02*
X21501D01*
X22096D02*
X22127D01*
X21158Y35965D02*
X21504D01*
X22092D02*
X22124D01*
X21161Y35961D02*
X21508D01*
X22089D02*
X22120D01*
X21165Y35958D02*
X21511D01*
X22082D02*
X22120D01*
X21168Y35954D02*
X21518D01*
X22075D02*
X22117D01*
X21172Y35951D02*
X21522D01*
X22075D02*
X22113D01*
X21175Y35947D02*
X21529D01*
X22068D02*
X22110D01*
X21175Y35944D02*
X21532D01*
X22064D02*
X22106D01*
X21179Y35940D02*
X21539D01*
X22057D02*
X22103D01*
X21182Y35937D02*
X21543D01*
X22054D02*
X22099D01*
X21186Y35933D02*
X21550D01*
X22047D02*
X22096D01*
X21189Y35930D02*
X21557D01*
X22040D02*
X22092D01*
X21193Y35926D02*
X21560D01*
X22036D02*
X22089D01*
X21196Y35923D02*
X21567D01*
X22030D02*
X22085D01*
X21200Y35919D02*
X21574D01*
X22023D02*
X22082D01*
X21203Y35916D02*
X21578D01*
X22016D02*
X22078D01*
X21207Y35912D02*
X21588D01*
X22009D02*
X22075D01*
X21214Y35909D02*
X21595D01*
X22002D02*
X22071D01*
X21218Y35905D02*
X21602D01*
X21995D02*
X22068D01*
X21221Y35902D02*
X21609D01*
X21988D02*
X22064D01*
X21225Y35898D02*
X21616D01*
X21977D02*
X22061D01*
X21228Y35895D02*
X21627D01*
X21970D02*
X22054D01*
X21232Y35891D02*
X21634D01*
X21960D02*
X22050D01*
X21235Y35888D02*
X21648D01*
X21949D02*
X22047D01*
X21242Y35884D02*
X21655D01*
X21942D02*
X22043D01*
X21246Y35881D02*
X21669D01*
X21928D02*
X22040D01*
X21249Y35877D02*
X21679D01*
X21918D02*
X22033D01*
X21253Y35874D02*
X21697D01*
X21900D02*
X22030D01*
X21260Y35870D02*
X21711D01*
X21883D02*
X22026D01*
X21263Y35867D02*
X21735D01*
X21858D02*
X22019D01*
X21270Y35863D02*
X21778D01*
X21813D02*
X22016D01*
X21274Y35860D02*
X22012D01*
X21277Y35856D02*
X22005D01*
X21284Y35853D02*
X22002D01*
X21288Y35849D02*
X21995D01*
X21295Y35846D02*
X21991D01*
X21298Y35842D02*
X21984D01*
X21305Y35839D02*
X21977D01*
X21312Y35835D02*
X21974D01*
X21319Y35832D02*
X21967D01*
X21323Y35828D02*
X21960D01*
X21330Y35825D02*
X21956D01*
X21337Y35821D02*
X21949D01*
X21344Y35818D02*
X21942D01*
X21347Y35814D02*
X21935D01*
X21354Y35811D02*
X21928D01*
X21365Y35807D02*
X21921D01*
X21372Y35804D02*
X21914D01*
X21379Y35800D02*
X21907D01*
X21386Y35797D02*
X21900D01*
X21396Y35793D02*
X21890D01*
X21403Y35790D02*
X21883D01*
X21414Y35786D02*
X21872D01*
X21421Y35783D02*
X21865D01*
X21431Y35780D02*
X21855D01*
X21442Y35776D02*
X21844D01*
X21452Y35773D02*
X21834D01*
X21466Y35769D02*
X21820D01*
X21473Y35766D02*
X21809D01*
X21494Y35762D02*
X21795D01*
X21504Y35759D02*
X21781D01*
X21522Y35755D02*
X21760D01*
X21539Y35752D02*
X21746D01*
X21567Y35748D02*
X21714D01*
X21592Y35745D02*
X21679D01*
X21553Y35741D02*
X21693D01*
X21522Y35738D02*
X21714D01*
X21501Y35734D02*
X21728D01*
X21480Y35731D02*
X21746D01*
X21466Y35727D02*
X21739D01*
X21746D02*
X21753D01*
X21449Y35724D02*
X21749D01*
X21438Y35720D02*
X21753D01*
X21424Y35717D02*
X21756D01*
X21414Y35713D02*
X21756D01*
X21403Y35710D02*
X21760D01*
X21396Y35706D02*
X21764D01*
X21386Y35703D02*
X21764D01*
X21375Y35699D02*
X21767D01*
X21368Y35696D02*
X21767D01*
X21365Y35692D02*
X21781D01*
X21358Y35689D02*
X21606D01*
X21690D02*
X21767D01*
X21358Y35685D02*
X21578D01*
X21739D02*
X21774D01*
X21361Y35682D02*
X21560D01*
X21767D02*
X21781D01*
X21351Y35678D02*
X21539D01*
X21351Y35675D02*
X21529D01*
X21358Y35671D02*
X21515D01*
X21351Y35668D02*
X21504D01*
X21351Y35664D02*
X21494D01*
X21351Y35661D02*
X21484D01*
X21351Y35657D02*
X21477D01*
X21351Y35654D02*
X21466D01*
X21347Y35650D02*
X21459D01*
X21347Y35647D02*
X21449D01*
X21347Y35643D02*
X21445D01*
X21347Y35640D02*
X21435D01*
X21347Y35636D02*
X21431D01*
X21344Y35633D02*
X21424D01*
X21344Y35629D02*
X21417D01*
X21344Y35626D02*
X21410D01*
X21344Y35622D02*
X21403D01*
X21340Y35619D02*
X21400D01*
X21340Y35615D02*
X21393D01*
X21340Y35612D02*
X21386D01*
X21340Y35608D02*
X21382D01*
X21340Y35605D02*
X21375D01*
X21340Y35601D02*
X21372D01*
X21340Y35598D02*
X21368D01*
X21340Y35594D02*
X21361D01*
X21340Y35591D02*
X21354D01*
X21340Y35587D02*
X21354D01*
X21333Y35584D02*
X21344D01*
X22295Y35461D02*
X22362D01*
X22366D02*
X22390D01*
X22422D02*
X22443D01*
X22295Y35457D02*
X22362D01*
X22366D02*
X22390D01*
X22422D02*
X22446D01*
X22295Y35454D02*
X22359D01*
X22366D02*
X22394D01*
X22418D02*
X22443D01*
X22295Y35450D02*
X22306D01*
X22320D02*
X22338D01*
X22352D02*
X22362D01*
X22369D02*
X22394D01*
X22418D02*
X22439D01*
X22295Y35447D02*
X22302D01*
X22320D02*
X22338D01*
X22352D02*
X22359D01*
X22369D02*
X22394D01*
X22415D02*
X22439D01*
X22320Y35443D02*
X22338D01*
X22369D02*
X22397D01*
X22415D02*
X22439D01*
X22320Y35440D02*
X22338D01*
X22369D02*
X22397D01*
X22411D02*
X22439D01*
X22320Y35436D02*
X22338D01*
X22369D02*
X22401D01*
X22411D02*
X22439D01*
X22320Y35433D02*
X22338D01*
X22369D02*
X22401D01*
X22411D02*
X22439D01*
X22320Y35429D02*
X22338D01*
X22369D02*
X22383D01*
X22387D02*
X22404D01*
X22408D02*
X22418D01*
X22422D02*
X22439D01*
X22320Y35426D02*
X22338D01*
X22369D02*
X22383D01*
X22387D02*
X22404D01*
X22408D02*
X22418D01*
X22422D02*
X22439D01*
X22320Y35422D02*
X22338D01*
X22369D02*
X22383D01*
X22390D02*
X22415D01*
X22422D02*
X22439D01*
X21042Y35419D02*
X21063D01*
X21316D02*
X21368D01*
X21599D02*
X21623D01*
X21795D02*
X21809D01*
X21981D02*
X22005D01*
X22061D02*
X22257D01*
X22320D02*
X22338D01*
X22369D02*
X22383D01*
X22390D02*
X22415D01*
X22422D02*
X22439D01*
X21039Y35415D02*
X21063D01*
X21298D02*
X21386D01*
X21599D02*
X21623D01*
X21792D02*
X21813D01*
X21981D02*
X22009D01*
X22057D02*
X22257D01*
X22320D02*
X22338D01*
X22369D02*
X22383D01*
X22394D02*
X22411D01*
X22422D02*
X22439D01*
X21039Y35412D02*
X21063D01*
X21288D02*
X21396D01*
X21599D02*
X21627D01*
X21792D02*
X21813D01*
X21977D02*
X22005D01*
X22057D02*
X22257D01*
X22320D02*
X22338D01*
X22369D02*
X22383D01*
X22394D02*
X22411D01*
X22422D02*
X22439D01*
X21039Y35408D02*
X21063D01*
X21281D02*
X21403D01*
X21599D02*
X21627D01*
X21792D02*
X21813D01*
X21977D02*
X22005D01*
X22057D02*
X22257D01*
X22320D02*
X22338D01*
X22369D02*
X22383D01*
X22397D02*
X22411D01*
X22422D02*
X22439D01*
X21039Y35405D02*
X21063D01*
X21274D02*
X21410D01*
X21602D02*
X21627D01*
X21788D02*
X21816D01*
X21977D02*
X22005D01*
X22057D02*
X22257D01*
X22317D02*
X22338D01*
X22369D02*
X22387D01*
X22397D02*
X22408D01*
X22422D02*
X22439D01*
X21039Y35401D02*
X21063D01*
X21267D02*
X21414D01*
X21602D02*
X21630D01*
X21788D02*
X21816D01*
X21974D02*
X22002D01*
X22057D02*
X22257D01*
X22313D02*
X22345D01*
X22366D02*
X22390D01*
X22401D02*
X22404D01*
X22418D02*
X22443D01*
X21039Y35398D02*
X21063D01*
X21263D02*
X21309D01*
X21372D02*
X21417D01*
X21602D02*
X21630D01*
X21788D02*
X21816D01*
X21974D02*
X22002D01*
X22057D02*
X22257D01*
X22313D02*
X22345D01*
X22366D02*
X22390D01*
X22418D02*
X22446D01*
X21039Y35394D02*
X21063D01*
X21260D02*
X21302D01*
X21386D02*
X21421D01*
X21606D02*
X21630D01*
X21785D02*
X21820D01*
X21974D02*
X21998D01*
X22057D02*
X22082D01*
X21039Y35391D02*
X21063D01*
X21256D02*
X21291D01*
X21393D02*
X21424D01*
X21606D02*
X21634D01*
X21785D02*
X21820D01*
X21970D02*
X21998D01*
X22057D02*
X22082D01*
X21039Y35387D02*
X21063D01*
X21253D02*
X21284D01*
X21396D02*
X21428D01*
X21609D02*
X21634D01*
X21785D02*
X21820D01*
X21970D02*
X21998D01*
X22057D02*
X22082D01*
X21039Y35384D02*
X21063D01*
X21249D02*
X21281D01*
X21400D02*
X21428D01*
X21609D02*
X21634D01*
X21781D02*
X21823D01*
X21970D02*
X21995D01*
X22057D02*
X22082D01*
X21039Y35380D02*
X21063D01*
X21249D02*
X21277D01*
X21403D02*
X21431D01*
X21609D02*
X21637D01*
X21781D02*
X21823D01*
X21967D02*
X21995D01*
X22057D02*
X22082D01*
X21039Y35377D02*
X21063D01*
X21246D02*
X21274D01*
X21407D02*
X21431D01*
X21613D02*
X21637D01*
X21781D02*
X21823D01*
X21967D02*
X21995D01*
X22057D02*
X22082D01*
X21039Y35373D02*
X21063D01*
X21246D02*
X21270D01*
X21407D02*
X21431D01*
X21613D02*
X21641D01*
X21778D02*
X21827D01*
X21967D02*
X21991D01*
X22057D02*
X22082D01*
X21039Y35370D02*
X21063D01*
X21242D02*
X21270D01*
X21410D02*
X21431D01*
X21613D02*
X21641D01*
X21778D02*
X21827D01*
X21963D02*
X21991D01*
X22057D02*
X22082D01*
X21039Y35366D02*
X21063D01*
X21242D02*
X21267D01*
X21410D02*
X21431D01*
X21616D02*
X21641D01*
X21778D02*
X21799D01*
X21806D02*
X21827D01*
X21963D02*
X21991D01*
X22057D02*
X22082D01*
X21039Y35363D02*
X21063D01*
X21242D02*
X21267D01*
X21410D02*
X21435D01*
X21616D02*
X21641D01*
X21774D02*
X21799D01*
X21806D02*
X21830D01*
X21963D02*
X21988D01*
X22057D02*
X22082D01*
X21039Y35359D02*
X21063D01*
X21242D02*
X21263D01*
X21410D02*
X21435D01*
X21616D02*
X21644D01*
X21774D02*
X21799D01*
X21806D02*
X21830D01*
X21960D02*
X21988D01*
X22057D02*
X22082D01*
X21039Y35356D02*
X21063D01*
X21242D02*
X21263D01*
X21410D02*
X21435D01*
X21616D02*
X21644D01*
X21774D02*
X21795D01*
X21809D02*
X21830D01*
X21960D02*
X21988D01*
X22057D02*
X22082D01*
X21039Y35352D02*
X21063D01*
X21239D02*
X21263D01*
X21414D02*
X21435D01*
X21620D02*
X21648D01*
X21771D02*
X21795D01*
X21809D02*
X21834D01*
X21956D02*
X21984D01*
X22057D02*
X22082D01*
X21039Y35349D02*
X21063D01*
X21239D02*
X21263D01*
X21623D02*
X21648D01*
X21771D02*
X21795D01*
X21809D02*
X21834D01*
X21956D02*
X21984D01*
X22057D02*
X22082D01*
X21039Y35345D02*
X21063D01*
X21239D02*
X21263D01*
X21623D02*
X21648D01*
X21771D02*
X21792D01*
X21813D02*
X21837D01*
X21956D02*
X21981D01*
X22057D02*
X22082D01*
X21039Y35342D02*
X21063D01*
X21239D02*
X21263D01*
X21623D02*
X21651D01*
X21767D02*
X21792D01*
X21813D02*
X21837D01*
X21953D02*
X21981D01*
X22057D02*
X22082D01*
X21039Y35338D02*
X21063D01*
X21239D02*
X21263D01*
X21623D02*
X21651D01*
X21767D02*
X21792D01*
X21813D02*
X21837D01*
X21953D02*
X21981D01*
X22057D02*
X22082D01*
X21039Y35335D02*
X21063D01*
X21242D02*
X21263D01*
X21627D02*
X21651D01*
X21767D02*
X21788D01*
X21816D02*
X21837D01*
X21953D02*
X21977D01*
X22057D02*
X22082D01*
X21039Y35331D02*
X21063D01*
X21242D02*
X21267D01*
X21627D02*
X21655D01*
X21764D02*
X21788D01*
X21816D02*
X21841D01*
X21949D02*
X21977D01*
X22057D02*
X22082D01*
X21039Y35328D02*
X21063D01*
X21242D02*
X21267D01*
X21630D02*
X21655D01*
X21764D02*
X21788D01*
X21816D02*
X21841D01*
X21949D02*
X21977D01*
X22057D02*
X22082D01*
X21039Y35324D02*
X21063D01*
X21242D02*
X21270D01*
X21630D02*
X21655D01*
X21764D02*
X21785D01*
X21820D02*
X21841D01*
X21949D02*
X21974D01*
X22057D02*
X22082D01*
X21039Y35321D02*
X21063D01*
X21246D02*
X21270D01*
X21630D02*
X21658D01*
X21760D02*
X21785D01*
X21820D02*
X21844D01*
X21946D02*
X21974D01*
X22057D02*
X22082D01*
X21039Y35317D02*
X21063D01*
X21246D02*
X21274D01*
X21634D02*
X21658D01*
X21760D02*
X21785D01*
X21820D02*
X21844D01*
X21946D02*
X21970D01*
X22057D02*
X22082D01*
X21039Y35314D02*
X21063D01*
X21249D02*
X21277D01*
X21634D02*
X21658D01*
X21760D02*
X21781D01*
X21823D02*
X21848D01*
X21946D02*
X21970D01*
X22057D02*
X22082D01*
X21039Y35310D02*
X21063D01*
X21253D02*
X21281D01*
X21634D02*
X21662D01*
X21756D02*
X21781D01*
X21823D02*
X21848D01*
X21942D02*
X21970D01*
X22057D02*
X22082D01*
X21039Y35307D02*
X21063D01*
X21253D02*
X21284D01*
X21637D02*
X21662D01*
X21756D02*
X21781D01*
X21823D02*
X21848D01*
X21942D02*
X21967D01*
X22057D02*
X22082D01*
X21039Y35303D02*
X21063D01*
X21256D02*
X21295D01*
X21637D02*
X21662D01*
X21753D02*
X21778D01*
X21823D02*
X21851D01*
X21942D02*
X21967D01*
X22057D02*
X22082D01*
X21039Y35300D02*
X21063D01*
X21260D02*
X21298D01*
X21637D02*
X21665D01*
X21753D02*
X21778D01*
X21827D02*
X21851D01*
X21939D02*
X21967D01*
X22057D02*
X22082D01*
X21039Y35296D02*
X21063D01*
X21263D02*
X21316D01*
X21641D02*
X21665D01*
X21753D02*
X21778D01*
X21827D02*
X21851D01*
X21939D02*
X21963D01*
X22057D02*
X22082D01*
X21039Y35293D02*
X21063D01*
X21270D02*
X21358D01*
X21424D02*
X21438D01*
X21641D02*
X21665D01*
X21749D02*
X21774D01*
X21830D02*
X21855D01*
X21939D02*
X21963D01*
X22057D02*
X22085D01*
X21039Y35289D02*
X21063D01*
X21274D02*
X21463D01*
X21644D02*
X21669D01*
X21749D02*
X21774D01*
X21830D02*
X21855D01*
X21935D02*
X21963D01*
X22057D02*
X22250D01*
X21039Y35286D02*
X21063D01*
X21281D02*
X21466D01*
X21644D02*
X21669D01*
X21749D02*
X21774D01*
X21830D02*
X21855D01*
X21935D02*
X21960D01*
X22057D02*
X22250D01*
X21039Y35282D02*
X21063D01*
X21284D02*
X21463D01*
X21644D02*
X21672D01*
X21746D02*
X21771D01*
X21834D02*
X21858D01*
X21932D02*
X21960D01*
X22057D02*
X22250D01*
X21039Y35279D02*
X21063D01*
X21281D02*
X21463D01*
X21648D02*
X21672D01*
X21746D02*
X21771D01*
X21834D02*
X21858D01*
X21932D02*
X21960D01*
X22057D02*
X22250D01*
X21039Y35275D02*
X21063D01*
X21274D02*
X21463D01*
X21648D02*
X21672D01*
X21746D02*
X21771D01*
X21834D02*
X21858D01*
X21932D02*
X21956D01*
X22057D02*
X22250D01*
X21039Y35272D02*
X21063D01*
X21267D02*
X21323D01*
X21417D02*
X21438D01*
X21648D02*
X21672D01*
X21742D02*
X21771D01*
X21834D02*
X21862D01*
X21928D02*
X21956D01*
X22057D02*
X22250D01*
X21039Y35268D02*
X21063D01*
X21263D02*
X21305D01*
X21417D02*
X21438D01*
X21651D02*
X21676D01*
X21742D02*
X21767D01*
X21837D02*
X21862D01*
X21928D02*
X21953D01*
X22057D02*
X22082D01*
X21039Y35265D02*
X21063D01*
X21256D02*
X21298D01*
X21417D02*
X21438D01*
X21651D02*
X21676D01*
X21742D02*
X21767D01*
X21837D02*
X21862D01*
X21928D02*
X21953D01*
X22057D02*
X22082D01*
X21039Y35261D02*
X21063D01*
X21256D02*
X21288D01*
X21417D02*
X21438D01*
X21651D02*
X21679D01*
X21739D02*
X21764D01*
X21841D02*
X21865D01*
X21925D02*
X21953D01*
X22057D02*
X22082D01*
X21039Y35258D02*
X21063D01*
X21253D02*
X21284D01*
X21417D02*
X21438D01*
X21655D02*
X21679D01*
X21739D02*
X21764D01*
X21841D02*
X21865D01*
X21925D02*
X21949D01*
X22057D02*
X22082D01*
X21039Y35254D02*
X21063D01*
X21249D02*
X21277D01*
X21417D02*
X21438D01*
X21655D02*
X21679D01*
X21739D02*
X21764D01*
X21841D02*
X21869D01*
X21925D02*
X21949D01*
X22057D02*
X22082D01*
X21039Y35251D02*
X21063D01*
X21246D02*
X21277D01*
X21417D02*
X21438D01*
X21655D02*
X21683D01*
X21735D02*
X21760D01*
X21844D02*
X21869D01*
X21921D02*
X21949D01*
X22057D02*
X22082D01*
X21039Y35247D02*
X21063D01*
X21242D02*
X21270D01*
X21417D02*
X21438D01*
X21658D02*
X21683D01*
X21735D02*
X21760D01*
X21844D02*
X21869D01*
X21921D02*
X21946D01*
X22057D02*
X22082D01*
X21039Y35244D02*
X21063D01*
X21242D02*
X21270D01*
X21417D02*
X21438D01*
X21658D02*
X21683D01*
X21735D02*
X21760D01*
X21844D02*
X21869D01*
X21921D02*
X21946D01*
X22057D02*
X22082D01*
X21039Y35240D02*
X21063D01*
X21239D02*
X21267D01*
X21417D02*
X21438D01*
X21662D02*
X21686D01*
X21732D02*
X21756D01*
X21848D02*
X21872D01*
X21918D02*
X21946D01*
X22057D02*
X22082D01*
X21039Y35237D02*
X21063D01*
X21239D02*
X21263D01*
X21417D02*
X21438D01*
X21662D02*
X21686D01*
X21732D02*
X21756D01*
X21848D02*
X21872D01*
X21918D02*
X21942D01*
X22057D02*
X22082D01*
X21039Y35234D02*
X21063D01*
X21239D02*
X21263D01*
X21417D02*
X21438D01*
X21662D02*
X21686D01*
X21732D02*
X21756D01*
X21848D02*
X21872D01*
X21918D02*
X21942D01*
X22057D02*
X22082D01*
X21039Y35230D02*
X21063D01*
X21235D02*
X21260D01*
X21417D02*
X21438D01*
X21665D02*
X21690D01*
X21728D02*
X21753D01*
X21851D02*
X21876D01*
X21914D02*
X21939D01*
X22057D02*
X22082D01*
X21039Y35227D02*
X21063D01*
X21235D02*
X21260D01*
X21417D02*
X21438D01*
X21665D02*
X21690D01*
X21728D02*
X21753D01*
X21851D02*
X21876D01*
X21914D02*
X21939D01*
X22057D02*
X22082D01*
X21039Y35223D02*
X21063D01*
X21235D02*
X21260D01*
X21417D02*
X21438D01*
X21665D02*
X21690D01*
X21728D02*
X21753D01*
X21851D02*
X21876D01*
X21914D02*
X21939D01*
X22057D02*
X22082D01*
X21039Y35220D02*
X21063D01*
X21235D02*
X21256D01*
X21417D02*
X21438D01*
X21669D02*
X21693D01*
X21725D02*
X21749D01*
X21855D02*
X21879D01*
X21911D02*
X21935D01*
X22057D02*
X22082D01*
X21039Y35216D02*
X21063D01*
X21235D02*
X21256D01*
X21417D02*
X21438D01*
X21669D02*
X21693D01*
X21725D02*
X21749D01*
X21855D02*
X21879D01*
X21911D02*
X21935D01*
X22057D02*
X22082D01*
X21039Y35213D02*
X21063D01*
X21235D02*
X21256D01*
X21417D02*
X21438D01*
X21669D02*
X21697D01*
X21721D02*
X21749D01*
X21858D02*
X21883D01*
X21911D02*
X21935D01*
X22057D02*
X22082D01*
X21039Y35209D02*
X21063D01*
X21235D02*
X21260D01*
X21417D02*
X21438D01*
X21672D02*
X21697D01*
X21721D02*
X21746D01*
X21858D02*
X21883D01*
X21907D02*
X21932D01*
X22057D02*
X22082D01*
X21039Y35206D02*
X21063D01*
X21235D02*
X21260D01*
X21417D02*
X21438D01*
X21672D02*
X21697D01*
X21721D02*
X21746D01*
X21858D02*
X21883D01*
X21907D02*
X21932D01*
X22057D02*
X22082D01*
X21039Y35202D02*
X21063D01*
X21235D02*
X21260D01*
X21417D02*
X21438D01*
X21676D02*
X21697D01*
X21718D02*
X21742D01*
X21858D02*
X21886D01*
X21907D02*
X21932D01*
X22057D02*
X22082D01*
X21039Y35199D02*
X21063D01*
X21235D02*
X21260D01*
X21414D02*
X21438D01*
X21676D02*
X21700D01*
X21718D02*
X21742D01*
X21862D02*
X21886D01*
X21904D02*
X21928D01*
X22057D02*
X22082D01*
X21039Y35195D02*
X21063D01*
X21235D02*
X21263D01*
X21414D02*
X21438D01*
X21676D02*
X21700D01*
X21718D02*
X21742D01*
X21862D02*
X21886D01*
X21904D02*
X21928D01*
X22057D02*
X22082D01*
X21039Y35192D02*
X21063D01*
X21239D02*
X21263D01*
X21410D02*
X21438D01*
X21679D02*
X21700D01*
X21714D02*
X21739D01*
X21865D02*
X21890D01*
X21904D02*
X21925D01*
X22057D02*
X22082D01*
X21039Y35188D02*
X21063D01*
X21239D02*
X21267D01*
X21410D02*
X21442D01*
X21679D02*
X21704D01*
X21714D02*
X21739D01*
X21865D02*
X21890D01*
X21900D02*
X21925D01*
X22057D02*
X22082D01*
X21039Y35185D02*
X21063D01*
X21242D02*
X21270D01*
X21410D02*
X21442D01*
X21679D02*
X21704D01*
X21714D02*
X21739D01*
X21865D02*
X21890D01*
X21900D02*
X21925D01*
X22057D02*
X22082D01*
X21039Y35181D02*
X21063D01*
X21242D02*
X21270D01*
X21403D02*
X21445D01*
X21683D02*
X21707D01*
X21711D02*
X21735D01*
X21869D02*
X21893D01*
X21897D02*
X21921D01*
X22057D02*
X22082D01*
X21039Y35178D02*
X21063D01*
X21246D02*
X21277D01*
X21400D02*
X21445D01*
X21683D02*
X21707D01*
X21711D02*
X21735D01*
X21869D02*
X21893D01*
X21897D02*
X21921D01*
X22057D02*
X22082D01*
X21039Y35174D02*
X21063D01*
X21246D02*
X21281D01*
X21396D02*
X21445D01*
X21683D02*
X21707D01*
X21711D02*
X21735D01*
X21869D02*
X21893D01*
X21897D02*
X21921D01*
X22057D02*
X22082D01*
X21039Y35171D02*
X21063D01*
X21249D02*
X21284D01*
X21393D02*
X21449D01*
X21686D02*
X21732D01*
X21872D02*
X21918D01*
X22057D02*
X22082D01*
X21039Y35167D02*
X21063D01*
X21253D02*
X21291D01*
X21386D02*
X21417D01*
X21424D02*
X21452D01*
X21686D02*
X21732D01*
X21872D02*
X21918D01*
X22057D02*
X22082D01*
X21039Y35164D02*
X21063D01*
X21256D02*
X21302D01*
X21372D02*
X21414D01*
X21428D02*
X21456D01*
X21690D02*
X21732D01*
X21872D02*
X21914D01*
X22057D02*
X22260D01*
X21039Y35160D02*
X21063D01*
X21260D02*
X21319D01*
X21358D02*
X21410D01*
X21431D02*
X21470D01*
X21690D02*
X21728D01*
X21876D02*
X21914D01*
X22057D02*
X22264D01*
X21039Y35157D02*
X21063D01*
X21263D02*
X21407D01*
X21431D02*
X21473D01*
X21690D02*
X21728D01*
X21876D02*
X21914D01*
X22057D02*
X22260D01*
X21039Y35153D02*
X21063D01*
X21270D02*
X21403D01*
X21435D02*
X21473D01*
X21690D02*
X21728D01*
X21876D02*
X21914D01*
X22057D02*
X22264D01*
X21039Y35150D02*
X21063D01*
X21277D02*
X21396D01*
X21438D02*
X21473D01*
X21693D02*
X21725D01*
X21879D02*
X21911D01*
X22057D02*
X22264D01*
X21039Y35146D02*
X21067D01*
X21284D02*
X21389D01*
X21445D02*
X21473D01*
X21693D02*
X21725D01*
X21879D02*
X21911D01*
X22057D02*
X22264D01*
X21042Y35143D02*
X21063D01*
X21295D02*
X21379D01*
X21452D02*
X21473D01*
X21693D02*
X21725D01*
X21879D02*
X21907D01*
X22061D02*
X22260D01*
X21319Y35139D02*
X21358D01*
D40*
X34685Y31220D02*
X36555D01*
X36535Y31240D02*
X36555Y31220D01*
X36535Y31240D02*
Y32067D01*
X34744D02*
X36535D01*
X34744D02*
X34764Y32087D01*
Y32815D01*
X36516D01*
X36535Y32835D01*
Y33622D01*
X36555Y33642D01*
X34705D02*
X36555D01*
X34705D02*
Y34449D01*
X36555D01*
Y35197D01*
X34705D02*
X36555D01*
X34705D02*
Y35728D01*
D41*
X38169Y32992D02*
X38898D01*
X38957Y32933D01*
Y32717D02*
Y32933D01*
Y32717D02*
X38976Y32697D01*
Y32106D02*
Y32697D01*
X38957Y32087D02*
X38976Y32106D01*
X38189Y32087D02*
X38957D01*
X38169Y32106D02*
X38189Y32087D01*
X38169Y32106D02*
Y32756D01*
X38228Y32815D01*
X38701D01*
X38799Y32717D01*
Y32441D02*
Y32717D01*
X38760Y32402D02*
X38799Y32441D01*
X38760Y32323D02*
Y32402D01*
X38701Y32264D02*
X38760Y32323D01*
X38425Y32264D02*
X38701D01*
X38406Y32283D02*
X38425Y32264D01*
X38406Y32283D02*
Y32480D01*
X38465Y32539D01*
Y32618D01*
X38602D01*
Y32500D02*
Y32618D01*
X38465Y32638D02*
X38602Y32500D01*
M02*
