%FSLAX24Y24*%
%MOIN*%
G70*
G01*
G75*
G04 Layer_Physical_Order=2*
G04 Layer_Color=16711680*
%ADD10C,0.0080*%
%ADD11R,0.0571X0.0217*%
%ADD12R,0.0236X0.0571*%
%ADD13R,0.0551X0.0591*%
%ADD14O,0.0984X0.0276*%
%ADD15R,0.0591X0.0551*%
%ADD16R,0.1299X0.1063*%
%ADD17R,0.0394X0.1063*%
%ADD18R,0.0571X0.0236*%
%ADD19O,0.0768X0.0236*%
%ADD20O,0.0236X0.0768*%
%ADD21C,0.0100*%
%ADD22C,0.0150*%
%ADD23C,0.0120*%
%ADD24C,0.0200*%
%ADD25R,0.0591X0.0591*%
%ADD26C,0.0591*%
%ADD27C,0.0472*%
%ADD28C,0.0600*%
%ADD29C,0.0787*%
%ADD30O,0.0787X0.1575*%
%ADD31O,0.1575X0.0787*%
%ADD32O,0.1772X0.0787*%
%ADD33R,0.0591X0.0591*%
%ADD34C,0.0300*%
%ADD35C,0.0350*%
D10*
X23854Y31068D02*
G03*
X24780Y31358I418J290D01*
G01*
D02*
G03*
X23854Y31648I-509J0D01*
G01*
X24972Y32722D02*
G03*
X25177Y32807I0J290D01*
G01*
X24972Y32722D02*
G03*
X25177Y32807I0J290D01*
G01*
X24780Y36083D02*
G03*
X24780Y36083I-509J0D01*
G01*
X25680Y34010D02*
G03*
X25475Y33926I0J-290D01*
G01*
X25565Y38710D02*
G03*
X25616Y38586I175J0D01*
G01*
X25565Y38710D02*
G03*
X25616Y38586I175J0D01*
G01*
X25680Y34010D02*
G03*
X25475Y33926I0J-290D01*
G01*
X25915Y39051D02*
G03*
X26005Y39250I-175J199D01*
G01*
X22663Y40143D02*
G03*
X22780Y40095I117J117D01*
G01*
X22663Y40143D02*
G03*
X22780Y40095I117J117D01*
G01*
X23808Y39727D02*
G03*
X23808Y39397I-310J-165D01*
G01*
X22615Y40690D02*
G03*
X22380Y40427I-265J0D01*
G01*
X22613Y40660D02*
G03*
X22615Y40690I-263J30D01*
G01*
X23849Y41561D02*
G03*
X23849Y41561I-351J0D01*
G01*
X24333Y40095D02*
G03*
X24624Y40009I207J165D01*
G01*
X24541Y39397D02*
G03*
X24658Y39445I0J165D01*
G01*
X24541Y39397D02*
G03*
X24658Y39445I0J165D01*
G01*
X24624Y40009D02*
G03*
X24587Y39840I226J-139D01*
G01*
X24766Y40121D02*
G03*
X24805Y40260I-226J139D01*
G01*
X24671Y40491D02*
G03*
X24333Y40425I-131J-231D01*
G01*
X24805Y40260D02*
G03*
X24789Y40349I-265J0D01*
G01*
X24945Y40844D02*
G03*
X24671Y40491I-25J-264D01*
G01*
X24820Y39607D02*
G03*
X25115Y39870I30J263D01*
G01*
X26005Y39250D02*
G03*
X25565Y39051I-265J0D01*
G01*
X25115Y39870D02*
G03*
X24766Y40121I-265J0D01*
G01*
X24789Y40349D02*
G03*
X25185Y40580I131J231D01*
G01*
X24640Y41077D02*
G03*
X24714Y41034I117J117D01*
G01*
X24455Y41330D02*
G03*
X24503Y41213I165J0D01*
G01*
X24455Y41330D02*
G03*
X24503Y41213I165J0D01*
G01*
X24714Y41034D02*
G03*
X25010Y40909I242J160D01*
G01*
X24640Y41077D02*
G03*
X24714Y41034I117J117D01*
G01*
X24849Y41463D02*
G03*
X24785Y41428I107J-270D01*
G01*
X24508Y42258D02*
G03*
X24455Y41752I112J-268D01*
G01*
X24795Y41586D02*
G03*
X24843Y41469I165J0D01*
G01*
X24795Y41586D02*
G03*
X24843Y41469I165J0D01*
G01*
X25185Y40580D02*
G03*
X25183Y40615I-265J0D01*
G01*
X25353Y40785D02*
G03*
X25401Y40902I-117J117D01*
G01*
X25353Y40785D02*
G03*
X25401Y40902I-117J117D01*
G01*
X26653Y40733D02*
G03*
X26677Y40714I117J117D01*
G01*
X26653Y40733D02*
G03*
X26677Y40714I117J117D01*
G01*
X25401Y41310D02*
G03*
X25353Y41426I-165J0D01*
G01*
X25401Y41310D02*
G03*
X25353Y41426I-165J0D01*
G01*
X26705Y38679D02*
G03*
X27145Y38480I175J-199D01*
G01*
X27096Y37106D02*
G03*
X27220Y37055I124J124D01*
G01*
X27096Y37106D02*
G03*
X27220Y37055I124J124D01*
G01*
X27145Y38480D02*
G03*
X27055Y38679I-265J0D01*
G01*
X29583Y31358D02*
G03*
X29583Y31358I-509J0D01*
G01*
X29547Y36273D02*
G03*
X29547Y35893I-472J-190D01*
G01*
X30371Y33720D02*
G03*
X29444Y34010I-509J0D01*
G01*
Y33430D02*
G03*
X30371Y33720I418J290D01*
G01*
X29752Y37405D02*
G03*
X29895Y37640I-122J235D01*
G01*
X28900Y38085D02*
G03*
X29350Y37895I185J-190D01*
G01*
D02*
G03*
X29230Y38117I-265J0D01*
G01*
X29483Y37860D02*
G03*
X29508Y37405I147J-220D01*
G01*
X29523Y37927D02*
G03*
X29483Y37860I117J-117D01*
G01*
X29523Y37927D02*
G03*
X29483Y37860I117J-117D01*
G01*
X29895Y37640D02*
G03*
X29850Y37787I-265J0D01*
G01*
X30055Y37992D02*
G03*
X30547Y37795I245J-102D01*
G01*
X26677Y40714D02*
G03*
X26705Y40391I223J-144D01*
G01*
X27057Y41300D02*
G03*
X27109Y41327I-107J270D01*
G01*
D02*
G03*
X27131Y41227I164J-17D01*
G01*
X27109Y41327D02*
G03*
X27131Y41227I164J-17D01*
G01*
X26785Y41808D02*
G03*
X26680Y41677I165J-238D01*
G01*
X27193Y40233D02*
G03*
X27427Y40233I117J117D01*
G01*
X27193D02*
G03*
X27427Y40233I117J117D01*
G01*
X27240Y41570D02*
G03*
X27115Y41808I-290J0D01*
G01*
X27334Y40746D02*
G03*
X27317Y40779I-154J-60D01*
G01*
X27231Y41497D02*
G03*
X27240Y41570I-281J73D01*
G01*
X27403Y41504D02*
G03*
X27231Y41497I-80J-144D01*
G01*
X27403Y41504D02*
G03*
X27231Y41497I-80J-144D01*
G01*
X29330Y39145D02*
G03*
X28900Y38938I-265J0D01*
G01*
X29230D02*
G03*
X29330Y39145I-165J207D01*
G01*
X28643Y39663D02*
G03*
X28760Y39615I117J117D01*
G01*
X28643Y39663D02*
G03*
X28760Y39615I117J117D01*
G01*
X27428Y40235D02*
G03*
X27683Y40413I4J265D01*
G01*
X27732Y40363D02*
G03*
X27848Y40315I117J117D01*
G01*
X27732Y40363D02*
G03*
X27848Y40315I117J117D01*
G01*
X28265Y40110D02*
G03*
X28313Y39993I165J0D01*
G01*
X28265Y40110D02*
G03*
X28313Y39993I165J0D01*
G01*
X27943Y40315D02*
G03*
X28265Y40241I207J165D01*
G01*
X27334Y40746D02*
G03*
X27317Y40779I-154J-60D01*
G01*
X27685Y41240D02*
G03*
X27403Y41504I-265J0D01*
G01*
X27668Y41148D02*
G03*
X27685Y41240I-248J92D01*
G01*
X28383Y40877D02*
G03*
X28266Y40925I-117J-117D01*
G01*
X28034D02*
G03*
X27929Y40887I0J-165D01*
G01*
X28034Y40925D02*
G03*
X27929Y40887I0J-165D01*
G01*
X28595Y40596D02*
G03*
X28547Y40713I-165J0D01*
G01*
X28595Y40596D02*
G03*
X28547Y40713I-165J0D01*
G01*
X28383Y40877D02*
G03*
X28266Y40925I-117J-117D01*
G01*
X22843Y43420D02*
G03*
X22843Y43420I-415J0D01*
G01*
X23045Y42680D02*
G03*
X23045Y42680I-265J0D01*
G01*
X21485Y45750D02*
G03*
X21533Y45633I165J0D01*
G01*
X20745Y45820D02*
G03*
X20793Y45703I165J0D01*
G01*
X20745Y45820D02*
G03*
X20793Y45703I165J0D01*
G01*
X21485Y45750D02*
G03*
X21533Y45633I165J0D01*
G01*
X22238Y46376D02*
G03*
X22868Y45979I190J-397D01*
G01*
X23863Y42633D02*
G03*
X23980Y42585I117J117D01*
G01*
X23863Y42633D02*
G03*
X23980Y42585I117J117D01*
G01*
X23433Y43733D02*
G03*
X23550Y43685I117J117D01*
G01*
X23433Y43733D02*
G03*
X23550Y43685I117J117D01*
G01*
X24285Y42543D02*
G03*
X24333Y42432I165J6D01*
G01*
X24243Y42585D02*
G03*
X24285Y42543I207J165D01*
G01*
D02*
G03*
X24333Y42432I165J6D01*
G01*
X24653Y42579D02*
G03*
X24706Y42681I-203J171D01*
G01*
X24381Y43006D02*
G03*
X24243Y42915I69J-256D01*
G01*
X23881Y43685D02*
G03*
X24353Y43034I319J-265D01*
G01*
X24795Y43598D02*
G03*
X24747Y43715I-165J0D01*
G01*
X24795Y43598D02*
G03*
X24747Y43715I-165J0D01*
G01*
X23106Y45375D02*
G03*
X23375Y45106I4J-265D01*
G01*
X22868Y45979D02*
G03*
X22618Y46376I-440J0D01*
G01*
X23529Y45719D02*
G03*
X23394Y45663I0J-190D01*
G01*
X23529Y45719D02*
G03*
X23395Y45663I0J-190D01*
G01*
X24495Y43967D02*
G03*
X24378Y44015I-117J-117D01*
G01*
X24495Y43967D02*
G03*
X24378Y44015I-117J-117D01*
G01*
X24386Y45339D02*
G03*
X24521Y45395I0J190D01*
G01*
X24386Y45339D02*
G03*
X24521Y45395I0J190D01*
G01*
X24613Y46024D02*
G03*
X23877Y45719I-413J-45D01*
G01*
X24832Y46165D02*
G03*
X24698Y46109I0J-190D01*
G01*
X24832Y46165D02*
G03*
X24697Y46109I0J-190D01*
G01*
X22065Y48034D02*
G03*
X22010Y47900I134J-134D01*
G01*
X20793Y48067D02*
G03*
X20745Y47950I117J-117D01*
G01*
X20793Y48067D02*
G03*
X20745Y47950I117J-117D01*
G01*
X21272Y48511D02*
G03*
X21193Y48467I37J-161D01*
G01*
X21272Y48511D02*
G03*
X21193Y48467I37J-161D01*
G01*
X21665Y48760D02*
G03*
X21272Y48511I-15J-410D01*
G01*
X21312Y48118D02*
G03*
X22060Y48350I338J232D01*
G01*
X22066Y48034D02*
G03*
X22010Y47900I134J-135D01*
G01*
X22060Y48350D02*
G03*
X21995Y48572I-410J0D01*
G01*
X22301Y48610D02*
G03*
X22239Y48207I349J-260D01*
G01*
X21830Y48940D02*
G03*
X21665Y48775I0J-165D01*
G01*
X21830Y48940D02*
G03*
X21665Y48775I0J-165D01*
G01*
X22618Y46941D02*
G03*
X23060Y47350I32J409D01*
G01*
D02*
G03*
X22390Y47667I-410J0D01*
G01*
X24060Y47350D02*
G03*
X24060Y47350I-410J0D01*
G01*
X22507Y47939D02*
G03*
X23053Y48185I143J411D01*
G01*
Y48515D02*
G03*
X22999Y48610I-403J-165D01*
G01*
X23301D02*
G03*
X23247Y48515I349J-260D01*
G01*
Y48185D02*
G03*
X24053Y48185I403J165D01*
G01*
Y48515D02*
G03*
X23999Y48610I-403J-165D01*
G01*
X24301D02*
G03*
X24247Y48515I349J-260D01*
G01*
X25125Y42039D02*
G03*
X25077Y42156I-165J0D01*
G01*
X25125Y42039D02*
G03*
X25077Y42156I-165J0D01*
G01*
X25833Y42823D02*
G03*
X25906Y42781I117J117D01*
G01*
X25833Y42823D02*
G03*
X25906Y42781I117J117D01*
G01*
X26047Y43091D02*
G03*
X26050Y43130I-287J39D01*
G01*
X26097Y43057D02*
G03*
X26047Y43091I-117J-117D01*
G01*
X26097Y43057D02*
G03*
X26047Y43091I-117J-117D01*
G01*
X26050Y43130D02*
G03*
X25812Y42845I-290J0D01*
G01*
X25425Y45785D02*
G03*
X25865Y45902I185J190D01*
G01*
X25537Y46229D02*
G03*
X25425Y46165I73J-255D01*
G01*
X25032Y47201D02*
G03*
X25060Y47350I-382J149D01*
G01*
X27115Y41970D02*
G03*
X27067Y42087I-165J0D01*
G01*
X27115Y41970D02*
G03*
X27067Y42087I-165J0D01*
G01*
X28403Y43363D02*
G03*
X28520Y43315I117J117D01*
G01*
X28403Y43363D02*
G03*
X28520Y43315I117J117D01*
G01*
X29292Y43645D02*
G03*
X29348Y43684I-122J235D01*
G01*
X29399Y44014D02*
G03*
X29048Y43645I-229J-134D01*
G01*
X29913Y43597D02*
G03*
X29796Y43645I-117J-117D01*
G01*
X29913Y43597D02*
G03*
X29796Y43645I-117J-117D01*
G01*
X26727Y47467D02*
G03*
X26610Y47515I-117J-117D01*
G01*
X26727Y47467D02*
G03*
X26610Y47515I-117J-117D01*
G01*
X29563Y44163D02*
G03*
X29680Y44115I117J117D01*
G01*
X29713D02*
G03*
X30185Y44280I207J165D01*
G01*
X29563Y44163D02*
G03*
X29680Y44115I117J117D01*
G01*
X30185Y44280D02*
G03*
X29729Y44464I-265J0D01*
G01*
X25060Y47350D02*
G03*
X24799Y46968I-410J0D01*
G01*
X26026Y47515D02*
G03*
X26026Y47185I-376J-165D01*
G01*
X24247Y48185D02*
G03*
X25053Y48185I403J165D01*
G01*
X25301Y48610D02*
G03*
X25247Y48515I349J-260D01*
G01*
Y48185D02*
G03*
X26053Y48185I403J165D01*
G01*
X28544Y47421D02*
G03*
X28544Y47421I-410J0D01*
G01*
X25053Y48515D02*
G03*
X24999Y48610I-403J-165D01*
G01*
X26053Y48515D02*
G03*
X25999Y48610I-403J-165D01*
G01*
X28513Y48013D02*
G03*
X28630Y47965I117J117D01*
G01*
X28513Y48013D02*
G03*
X28630Y47965I117J117D01*
G01*
X28527Y48467D02*
G03*
X28410Y48515I-117J-117D01*
G01*
X28527Y48467D02*
G03*
X28410Y48515I-117J-117D01*
G01*
X30798Y32221D02*
G03*
X30640Y31842I-268J-111D01*
G01*
X30815Y31666D02*
G03*
X30950Y31610I135J134D01*
G01*
X30816Y31666D02*
G03*
X30950Y31610I134J134D01*
G01*
X38256Y36326D02*
G03*
X38478Y36305I124J124D01*
G01*
X38757Y35893D02*
G03*
X38891Y35948I0J190D01*
G01*
X38757Y35893D02*
G03*
X38891Y35949I0J190D01*
G01*
X38256Y36326D02*
G03*
X38478Y36305I124J124D01*
G01*
X39259Y36317D02*
G03*
X39315Y36451I-134J134D01*
G01*
X39259Y36316D02*
G03*
X39315Y36451I-134J135D01*
G01*
X30422Y38125D02*
G03*
X30198Y38135I-122J-235D01*
G01*
X32925Y37960D02*
G03*
X32453Y38125I-265J0D01*
G01*
Y37795D02*
G03*
X32925Y37960I207J165D01*
G01*
X32455Y39240D02*
G03*
X32365Y39439I-265J0D01*
G01*
X32035Y39455D02*
G03*
X32455Y39240I155J-215D01*
G01*
X34285Y37612D02*
G03*
X34325Y37405I285J-52D01*
G01*
X37724Y37354D02*
G03*
X37600Y37405I-124J-124D01*
G01*
X37724Y37354D02*
G03*
X37600Y37405I-124J-124D01*
G01*
X38931Y37361D02*
G03*
X38645Y36921I-111J-241D01*
G01*
X39315Y37303D02*
G03*
X39415Y37506I-165J207D01*
G01*
X39146Y37775D02*
G03*
X38931Y37361I4J-265D01*
G01*
X34815Y37405D02*
G03*
X34860Y37560I-245J155D01*
G01*
D02*
G03*
X34518Y37845I-290J0D01*
G01*
X41658Y31610D02*
G03*
X42485Y31800I392J190D01*
G01*
D02*
G03*
X41658Y31990I-435J0D01*
G01*
X42223Y33183D02*
G03*
X42340Y33135I117J117D01*
G01*
X42223Y33183D02*
G03*
X42340Y33135I117J117D01*
G01*
X42199Y34182D02*
G03*
X42015Y33391I-149J-382D01*
G01*
X42460Y33800D02*
G03*
X42432Y33949I-410J0D01*
G01*
X42460Y32800D02*
G03*
X42460Y32800I-410J0D01*
G01*
X42352Y33522D02*
G03*
X42460Y33800I-302J278D01*
G01*
X42668Y32949D02*
G03*
X43410Y32603I382J-149D01*
G01*
X43734Y32296D02*
G03*
X43790Y32430I-134J134D01*
G01*
X43734Y32295D02*
G03*
X43790Y32430I-134J135D01*
G01*
X42667Y33417D02*
G03*
X42550Y33465I-117J-117D01*
G01*
X42667Y33417D02*
G03*
X42550Y33465I-117J-117D01*
G01*
X43410Y32997D02*
G03*
X42901Y33182I-360J-197D01*
G01*
X42885Y34176D02*
G03*
X43410Y33603I165J-376D01*
G01*
Y33997D02*
G03*
X43215Y34176I-360J-197D01*
G01*
Y34424D02*
G03*
X43410Y34603I-165J376D01*
G01*
X41164Y39255D02*
G03*
X41220Y39390I-134J135D01*
G01*
X41483Y37447D02*
G03*
X41483Y37213I117J-117D01*
G01*
X41164Y39256D02*
G03*
X41220Y39390I-134J134D01*
G01*
X42460Y34800D02*
G03*
X42460Y34800I-410J0D01*
G01*
X42885Y35176D02*
G03*
X42668Y34651I165J-376D01*
G01*
X43215Y35880D02*
G03*
X43167Y35997I-165J0D01*
G01*
X43215Y35880D02*
G03*
X43167Y35997I-165J0D01*
G01*
X43410Y34997D02*
G03*
X43215Y35176I-360J-197D01*
G01*
X41483Y37447D02*
G03*
X41483Y37213I117J-117D01*
G01*
X42025Y37340D02*
G03*
X41542Y37490I-265J0D01*
G01*
D02*
G03*
X41493Y37457I68J-150D01*
G01*
X41542Y37490D02*
G03*
X41493Y37457I68J-150D01*
G01*
X41976Y37187D02*
G03*
X42025Y37340I-216J153D01*
G01*
X30453Y40034D02*
G03*
X30323Y39945I77J-254D01*
G01*
Y39615D02*
G03*
X30795Y39780I207J165D01*
G01*
D02*
G03*
X30758Y39915I-265J0D01*
G01*
X30185Y40370D02*
G03*
X30233Y40253I165J0D01*
G01*
X30185Y40370D02*
G03*
X30233Y40253I165J0D01*
G01*
X31180Y39915D02*
G03*
X31441Y39845I190J185D01*
G01*
X31589Y40249D02*
G03*
X31148Y40245I-219J-149D01*
G01*
X31985Y40428D02*
G03*
X31589Y40249I-135J-228D01*
G01*
X30515Y42926D02*
G03*
X30467Y43043I-165J0D01*
G01*
X30515Y42926D02*
G03*
X30467Y43043I-165J0D01*
G01*
X30955Y43250D02*
G03*
X30720Y42987I-265J0D01*
G01*
X30953Y43220D02*
G03*
X30955Y43250I-263J30D01*
G01*
X31645Y41544D02*
G03*
X31693Y41427I165J0D01*
G01*
X31645Y41544D02*
G03*
X31693Y41427I165J0D01*
G01*
X31975Y42130D02*
G03*
X31927Y42247I-165J0D01*
G01*
X31975Y42130D02*
G03*
X31927Y42247I-165J0D01*
G01*
X31666Y42736D02*
G03*
X31800Y42680I135J134D01*
G01*
X31805Y43134D02*
G03*
X31537Y42865I-265J-4D01*
G01*
X31666Y42736D02*
G03*
X31800Y42680I134J134D01*
G01*
X31985Y39630D02*
G03*
X32033Y39513I165J0D01*
G01*
X31985Y39630D02*
G03*
X32033Y39513I165J0D01*
G01*
X32197Y41390D02*
G03*
X32380Y41660I-107J270D01*
G01*
X32315Y41204D02*
G03*
X32267Y41321I-165J0D01*
G01*
X32315Y41204D02*
G03*
X32267Y41321I-165J0D01*
G01*
X32380Y41660D02*
G03*
X32375Y41712I-290J0D01*
G01*
X32720Y39980D02*
G03*
X32315Y40246I-290J0D01*
G01*
X32610Y39753D02*
G03*
X32720Y39980I-180J227D01*
G01*
X33455Y41796D02*
G03*
X33590Y41740I135J134D01*
G01*
X33456Y41796D02*
G03*
X33590Y41740I134J134D01*
G01*
X32477Y41813D02*
G03*
X32525Y41930I-117J117D01*
G01*
X32477Y41813D02*
G03*
X32525Y41930I-117J117D01*
G01*
X32142Y41945D02*
G03*
X31975Y41926I-52J-285D01*
G01*
X32082Y42680D02*
G03*
X32195Y42325I268J-110D01*
G01*
X32525Y42339D02*
G03*
X32640Y42570I-175J231D01*
G01*
D02*
G03*
X32637Y42615I-290J0D01*
G01*
X32785Y43004D02*
G03*
X32650Y43060I-135J-134D01*
G01*
X32784Y43004D02*
G03*
X32650Y43060I-134J-134D01*
G01*
X35460Y42570D02*
G03*
X35460Y42570I-290J0D01*
G01*
X37825Y42545D02*
G03*
X37508Y42120I-155J-215D01*
G01*
X40159D02*
G03*
X40265Y42178I-46J210D01*
G01*
X40159Y42120D02*
G03*
X40265Y42178I-46J210D01*
G01*
X40642Y41740D02*
G03*
X40828Y41744I88J250D01*
G01*
X40840Y42231D02*
G03*
X40499Y42120I-110J-241D01*
G01*
X39498Y44372D02*
G03*
X39636Y44014I534J0D01*
G01*
X40843Y43275D02*
G03*
X40691Y43212I0J-215D01*
G01*
X40843Y43275D02*
G03*
X40691Y43212I0J-215D01*
G01*
X40248Y43684D02*
G03*
X40365Y43732I0J165D01*
G01*
X40248Y43684D02*
G03*
X40365Y43732I0J165D01*
G01*
X40672Y44039D02*
G03*
X40720Y44156I-117J117D01*
G01*
X40672Y44039D02*
G03*
X40720Y44156I-117J117D01*
G01*
X41665Y40800D02*
G03*
X41525Y41034I-265J0D01*
G01*
X41220Y40606D02*
G03*
X41665Y40800I180J194D01*
G01*
X43608Y41050D02*
G03*
X43410Y40559I-88J-250D01*
G01*
X43790Y40860D02*
G03*
X43608Y41050I-190J0D01*
G01*
X43790Y40860D02*
G03*
X43608Y41050I-190J0D01*
G01*
X40730Y42642D02*
G03*
X40840Y42505I250J88D01*
G01*
X41525Y42867D02*
G03*
X41480Y42998I-215J0D01*
G01*
X41525Y42867D02*
G03*
X41480Y42998I-215J0D01*
G01*
X41508Y44015D02*
G03*
X41055Y43275I0J-509D01*
G01*
X42492Y42998D02*
G03*
X43001Y43506I0J509D01*
G01*
D02*
G03*
X42492Y44015I-509J0D01*
G01*
X38116Y48892D02*
G03*
X37999Y48940I-117J-117D01*
G01*
X38116Y48892D02*
G03*
X37999Y48940I-117J-117D01*
G01*
X39866Y45667D02*
G03*
X39498Y45160I165J-508D01*
G01*
X40390Y45555D02*
G03*
X40196Y45667I-359J-395D01*
G01*
X41606Y46481D02*
G03*
X41606Y45414I0J-534D01*
G01*
X42394D02*
G03*
X42927Y45947I0J534D01*
G01*
D02*
G03*
X42394Y46481I-534J0D01*
G01*
X40720Y46219D02*
G03*
X40672Y46336I-165J0D01*
G01*
X40720Y46219D02*
G03*
X40672Y46336I-165J0D01*
G01*
X20686Y30791D02*
X20949Y30528D01*
X20686Y31074D02*
X21232Y30528D01*
X20686Y30585D02*
X21204Y31103D01*
X20686Y30585D02*
X21204Y31103D01*
X20912Y30528D02*
X21281Y30898D01*
X21195Y30528D02*
X21564Y30898D01*
X20686Y31640D02*
X21204Y31122D01*
X20686Y31357D02*
X21515Y30528D01*
X20686Y30868D02*
X21204Y31386D01*
X20686Y31923D02*
X21204Y31405D01*
X20686Y31151D02*
X21204Y31669D01*
X20686Y32206D02*
X21204Y31688D01*
X20686Y32489D02*
X21456Y31719D01*
X21204Y30898D02*
Y31719D01*
Y31669D02*
X21253Y31719D01*
X20686Y32000D02*
X21288Y32602D01*
X20686Y31717D02*
X21571Y32602D01*
X20686Y32771D02*
X21739Y31719D01*
X21477Y30528D02*
X21847Y30898D01*
X21711D02*
X22080Y30528D01*
X21428Y30898D02*
X21798Y30528D01*
X21204Y30898D02*
X22024D01*
X21760Y30528D02*
X22300Y31068D01*
X21994Y30898D02*
X22363Y30528D01*
X22024Y31648D02*
Y31719D01*
Y31068D02*
X23854D01*
X22024Y31716D02*
X22092Y31648D01*
X20686Y31434D02*
X21854Y32602D01*
X21421D02*
X22375Y31648D01*
X20686Y33054D02*
X22022Y31719D01*
X21204D02*
X22024D01*
X21253D02*
X22257Y32722D01*
X21704Y32602D02*
X22658Y31648D01*
X21987Y32602D02*
X22940Y31648D01*
X21536Y31719D02*
X22539Y32722D01*
X21819Y31719D02*
X22822Y32722D01*
X21819Y31719D02*
X22822Y32722D01*
X20686Y32565D02*
X21204Y33083D01*
X20686Y32282D02*
X21204Y32800D01*
X20686Y32848D02*
X21204Y33366D01*
X20686Y33337D02*
X21204Y32819D01*
Y32602D02*
Y33422D01*
Y32602D02*
X22024D01*
X21204Y33366D02*
X21260Y33422D01*
X22024Y33413D02*
X22135Y33302D01*
X21204Y33422D02*
X22024D01*
X20686Y35034D02*
X22418Y33302D01*
X20686Y35317D02*
X22701Y33302D01*
X20686Y35600D02*
X22984Y33302D01*
X20686Y35883D02*
X23267Y33302D01*
X20686Y36525D02*
X23388Y39228D01*
X20686Y33903D02*
X21204Y33385D01*
X20686Y33620D02*
X21204Y33102D01*
X20686Y34186D02*
X21449Y33422D01*
X20686Y34468D02*
X21732Y33422D01*
X20686Y34751D02*
X22015Y33422D01*
X20686Y36448D02*
X23832Y33302D01*
X20686Y36731D02*
X24115Y33302D01*
X20686Y37014D02*
X24398Y33302D01*
X20686Y37297D02*
X24681Y33302D01*
X20686Y36166D02*
X23550Y33302D01*
X20686Y33131D02*
X23785Y36230D01*
X21260Y33422D02*
X23782Y35944D01*
X21826Y33422D02*
X24036Y35632D01*
X21543Y33422D02*
X23879Y35759D01*
X20686Y38711D02*
X25473Y33924D01*
X20686Y33697D02*
X25598Y38608D01*
X20686Y38994D02*
X23809Y35870D01*
X20686Y33979D02*
X25565Y38859D01*
X20686Y34262D02*
X25522Y39099D01*
X20686Y37580D02*
X24908Y33358D01*
X20686Y33414D02*
X25737Y38465D01*
X20686Y37863D02*
X25049Y33499D01*
X20686Y38145D02*
X25191Y33641D01*
X20686Y38428D02*
X25332Y33782D01*
X22106Y31068D02*
X22646Y30528D01*
X22326D02*
X22866Y31068D01*
X22024Y30898D02*
Y31068D01*
X22043Y30528D02*
X22583Y31068D01*
X22892Y30528D02*
X23432Y31068D01*
X23457Y30528D02*
X23920Y30991D01*
X22389Y31068D02*
X22929Y30528D01*
X22672Y31068D02*
X23212Y30528D01*
X22609D02*
X23149Y31068D01*
X22150Y32722D02*
X23223Y31648D01*
X22433Y32722D02*
X23506Y31648D01*
X22032D02*
X23105Y32722D01*
X22024Y31648D02*
X23854D01*
X23174Y30528D02*
X23714Y31068D01*
X23238D02*
X23777Y30528D01*
X22955Y31068D02*
X23495Y30528D01*
X22715Y32722D02*
X23789Y31648D01*
X22597D02*
X23671Y32722D01*
X23520Y31068D02*
X24060Y30528D01*
X23740D02*
X24094Y30882D01*
X23803Y31068D02*
X24343Y30528D01*
X24674Y31046D02*
X25192Y30528D01*
X24766Y31237D02*
X25474Y30528D01*
X24023D02*
X24350Y30856D01*
X24304Y30851D02*
X24626Y30528D01*
X24522Y30915D02*
X24909Y30528D01*
X23729Y31648D02*
X24802Y32722D01*
X23847D02*
X26040Y30528D01*
X22880Y31648D02*
X23954Y32722D01*
X23446Y31648D02*
X24519Y32722D01*
X23163Y31648D02*
X24237Y32722D01*
X24130D02*
X26323Y30528D01*
X24412Y32722D02*
X26606Y30528D01*
X24747Y31538D02*
X25757Y30528D01*
X24748Y31536D02*
X26642Y33430D01*
X22314Y31648D02*
X23388Y32722D01*
X22998D02*
X23960Y31760D01*
X22024Y32602D02*
Y32722D01*
X24972D01*
X23281D02*
X24151Y31852D01*
X23564Y32722D02*
X24452Y31834D01*
X24228Y31865D02*
X25136Y32773D01*
X22024Y33302D02*
Y33422D01*
Y33302D02*
X24852D01*
X22024Y33338D02*
X24260Y35574D01*
X24059Y35620D02*
X25670Y34010D01*
X24852Y33302D02*
X25475Y33926D01*
X25565Y38710D02*
Y39051D01*
X24472Y31826D02*
X26077Y33430D01*
X22271Y33302D02*
X26586Y37617D01*
X24378Y35585D02*
X25952Y34010D01*
X24573Y35673D02*
X26235Y34010D01*
X25177Y32807D02*
X25801Y33430D01*
X24639Y31710D02*
X26359Y33430D01*
X24708Y35821D02*
X26518Y34010D01*
X24780Y36094D02*
X26444Y37758D01*
X24596Y36475D02*
X26162Y38041D01*
X24722Y36319D02*
X26303Y37900D01*
X24125Y36570D02*
X25879Y38324D01*
X24410Y36572D02*
X26020Y38182D01*
X26409Y38288D02*
X26615Y38495D01*
X26550Y38147D02*
X26694Y38291D01*
X25915Y38782D02*
Y39051D01*
X25957Y39097D02*
X26619Y38435D01*
X26126Y38571D02*
X26705Y39150D01*
X20686Y37091D02*
X23147Y39551D01*
X20686Y36808D02*
X23222Y39344D01*
X20686Y37939D02*
X22842Y40095D01*
X20686Y37656D02*
X23124Y40095D01*
X22979D02*
X23257Y39817D01*
X20686Y37374D02*
X23407Y40095D01*
X23262D02*
X23448Y39909D01*
X20686Y38505D02*
X22494Y40313D01*
X20686Y38222D02*
X22635Y40171D01*
X20686Y39071D02*
X22142Y40526D01*
X20686Y38788D02*
X22324Y40426D01*
X20686Y30528D02*
Y48999D01*
Y39353D02*
X22095Y40763D01*
X22380Y40427D02*
X22663Y40143D01*
X22366Y40425D02*
X23155Y39637D01*
X20686Y39919D02*
X23632Y42865D01*
X20686Y35677D02*
X24406Y39397D01*
X20686Y34545D02*
X25497Y39357D01*
X20686Y39277D02*
X23774Y36189D01*
X20686Y35959D02*
X24123Y39397D01*
X20686Y36242D02*
X23840Y39397D01*
X20686Y35394D02*
X24902Y39610D01*
X20686Y39560D02*
X23862Y36384D01*
X23808Y39397D02*
X24541D01*
X23808Y39727D02*
X24473D01*
X20686Y35111D02*
X26481Y40906D01*
X20686Y34828D02*
X26622Y40764D01*
X20686Y39636D02*
X23773Y42724D01*
X20686Y39842D02*
X24010Y36519D01*
X20686Y40125D02*
X24222Y36589D01*
X23545Y40095D02*
X23913Y39727D01*
X23508Y39913D02*
X23690Y40095D01*
X22780D02*
X24333D01*
X23715Y39837D02*
X23973Y40095D01*
X20686Y42105D02*
X22085Y40706D01*
X20686Y42388D02*
X22180Y40894D01*
X22514Y40898D02*
X23148Y41532D01*
X22613Y40660D02*
X22848Y40425D01*
X22609Y40748D02*
X22932Y40425D01*
X22727Y40546D02*
X23404Y41223D01*
X22614Y40716D02*
X23231Y41333D01*
X20686Y41616D02*
X22167Y43098D01*
X20686Y41051D02*
X23066Y43431D01*
X20686Y41899D02*
X22046Y43259D01*
X20686Y44085D02*
X23151Y41620D01*
X20686Y44368D02*
X23247Y41807D01*
X20686Y40485D02*
X22650Y42449D01*
X20686Y42954D02*
X23215Y40425D01*
X20686Y41333D02*
X22363Y43010D01*
X20686Y40768D02*
X22525Y42607D01*
X20686Y42671D02*
X22408Y40949D01*
X22848Y40425D02*
X24333D01*
X22889D02*
X24349Y41886D01*
X23172Y40425D02*
X24455Y41708D01*
X23454Y40425D02*
X24455Y41426D01*
X23737Y40425D02*
X24514Y41202D01*
X23726Y41828D02*
X24332Y42434D01*
X23556Y41215D02*
X24339Y40432D01*
X23743Y41311D02*
X24529Y40525D01*
X20686Y40202D02*
X23490Y43006D01*
X20686Y43237D02*
X23497Y40425D01*
X20686Y43519D02*
X23780Y40425D01*
X22277Y40945D02*
X23926Y42594D01*
X20686Y43802D02*
X24063Y40425D01*
X22748Y43155D02*
X24455Y41447D01*
X23029Y42590D02*
X24802Y40817D01*
X22895Y42441D02*
X23430Y41906D01*
X23527Y41912D02*
X24200Y42585D01*
X22837Y43348D02*
X24455Y41730D01*
X24170Y39727D02*
X24453Y40010D01*
X24453Y39727D02*
X24585Y39859D01*
X24473Y39727D02*
X24587Y39840D01*
X24488Y40000D02*
X24587Y39901D01*
X24658Y39445D02*
X24820Y39607D01*
X23827Y40095D02*
X24196Y39727D01*
X23887D02*
X24256Y40095D01*
X24110D02*
X24476Y39729D01*
X24303Y40425D02*
X24817Y40939D01*
X24020Y40425D02*
X24657Y41062D01*
X24805Y40249D02*
X24932Y40122D01*
X24881Y39607D02*
X25565Y38923D01*
X24709Y39496D02*
X25599Y38606D01*
X25061Y39710D02*
X25478Y39293D01*
X25985Y39352D02*
X26681Y38655D01*
X25985Y38713D02*
X26705Y39433D01*
X25102Y39952D02*
X25587Y39467D01*
X25915Y38926D02*
X26705Y39716D01*
X25007Y40330D02*
X25842Y39495D01*
X25051Y40042D02*
X26198Y41189D01*
X24861Y40135D02*
X26057Y41330D01*
X25157Y40462D02*
X26705Y38915D01*
Y38679D02*
Y40391D01*
X25110Y39818D02*
X26339Y41047D01*
X25633Y39493D02*
X26644Y40503D01*
X25394Y41356D02*
X26705Y40046D01*
X24503Y41213D02*
X24640Y41077D01*
X24945Y40844D02*
X25010Y40909D01*
X24455Y41330D02*
Y41752D01*
X23842Y41494D02*
X24670Y40667D01*
X23836Y41655D02*
X24473Y42292D01*
X24785Y41473D02*
X24817Y41504D01*
X24785Y41428D02*
Y41752D01*
X24795Y41586D02*
Y41759D01*
X25125Y41654D02*
Y42039D01*
X25183Y40615D02*
X25353Y40785D01*
X25401Y40902D02*
Y41310D01*
X24686Y42630D02*
X26652Y40664D01*
X24706Y42681D02*
X26653Y40733D01*
X25125Y41813D02*
X25349Y42037D01*
X25125Y41654D02*
X25353Y41426D01*
X24795Y43562D02*
X26680Y41677D01*
X25401Y41240D02*
X25774Y41613D01*
X25401Y40958D02*
X25915Y41472D01*
X25187Y41592D02*
X25491Y41896D01*
X25329Y41451D02*
X25632Y41754D01*
X26401Y41957D02*
X26565Y42122D01*
X24978Y32722D02*
X27172Y30528D01*
X25176Y32806D02*
X27454Y30528D01*
X24695Y32722D02*
X26889Y30528D01*
X24306D02*
X27208Y33430D01*
X25601Y33231D02*
X28303Y30528D01*
X27700D02*
X28567Y31396D01*
X25318Y32948D02*
X27737Y30528D01*
X25459Y33089D02*
X28020Y30528D01*
X25437D02*
X28339Y33430D01*
X23968Y33302D02*
X27721Y37055D01*
X24534Y33302D02*
X28287Y37055D01*
X22554Y33302D02*
X26727Y37475D01*
X22837Y33302D02*
X26869Y37334D01*
X24589Y30528D02*
X27491Y33430D01*
X24872Y30528D02*
X27774Y33430D01*
X24774Y31280D02*
X26925Y33430D01*
X26532D02*
X28567Y31395D01*
X25154Y30528D02*
X28056Y33430D01*
X25966D02*
X28869Y30528D01*
X26569D02*
X29455Y33415D01*
X25742Y33372D02*
X28586Y30528D01*
X20686D02*
X43842D01*
X26851D02*
X29605Y33282D01*
X27134Y30528D02*
X29819Y33214D01*
X27983Y30528D02*
X28609Y31154D01*
X28266Y30528D02*
X28726Y30988D01*
X27098Y33430D02*
X28766Y31762D01*
X25720Y30528D02*
X28622Y33430D01*
X26003Y30528D02*
X28905Y33430D01*
X26815D02*
X28634Y31612D01*
X26286Y30528D02*
X29188Y33430D01*
X26249D02*
X29151Y30528D01*
X27946Y33430D02*
X30848Y30528D01*
X27417D02*
X32781Y35893D01*
X27381Y33430D02*
X28958Y31853D01*
X28229Y33430D02*
X31131Y30528D01*
X27664Y33430D02*
X29263Y31831D01*
X23685Y33302D02*
X27438Y37055D01*
X24251Y33302D02*
X28004Y37055D01*
X23402Y33302D02*
X27165Y37064D01*
X23402Y33302D02*
X27165Y37064D01*
X24778Y36033D02*
X26801Y34010D01*
X24817Y33302D02*
X28570Y37055D01*
X27716D02*
X28578Y36193D01*
X26657Y34010D02*
X28586Y35940D01*
X26374Y34010D02*
X28586Y36222D01*
X23119Y33302D02*
X27010Y37192D01*
X25616Y38586D02*
X27096Y37106D01*
X26692Y38006D02*
X26902Y38216D01*
X26835Y38219D02*
X27649Y37405D01*
X27055Y38281D02*
X27932Y37405D01*
X27145Y38475D02*
X28215Y37405D01*
X25680Y34010D02*
X29444D01*
X25801Y33430D02*
X29444D01*
X26939Y34010D02*
X28685Y35756D01*
X25808Y34010D02*
X28853Y37055D01*
X28071Y34010D02*
X29953Y35893D01*
X28354Y34010D02*
X30236Y35893D01*
X27222Y34010D02*
X28842Y35630D01*
X27505Y34010D02*
X29069Y35574D01*
X27788Y34010D02*
X29670Y35893D01*
X26091Y34010D02*
X29135Y37055D01*
X27116Y37089D02*
X29993Y34212D01*
X27433Y37055D02*
X28608Y35880D01*
X27220Y37055D02*
X37528D01*
X27292Y37405D02*
X29508D01*
X27999Y37055D02*
X28667Y36387D01*
X28282Y37055D02*
X28816Y36521D01*
X28354Y37405D02*
X28821Y37872D01*
X28071Y37405D02*
X28900Y38234D01*
X27788Y37405D02*
X28900Y38517D01*
X29112Y30851D02*
X29434Y30528D01*
X29114D02*
X30425Y31840D01*
X28549Y30528D02*
X28900Y30880D01*
X28831Y30528D02*
X29160Y30857D01*
X29570Y31241D02*
X30283Y30528D01*
X29547Y31547D02*
X30566Y30528D01*
X29328Y30917D02*
X29717Y30528D01*
X29479Y31049D02*
X30000Y30528D01*
X29397D02*
X30675Y31806D01*
X29078Y33430D02*
X30270Y32238D01*
X28919Y34010D02*
X30802Y35893D01*
X28636Y34010D02*
X30519Y35893D01*
X29576Y31273D02*
X30275Y31972D01*
X29553Y31533D02*
X30285Y32264D01*
X29361Y33430D02*
X30415Y32376D01*
X28512Y33430D02*
X31414Y30528D01*
X28795Y33430D02*
X31697Y30528D01*
X28872Y35616D02*
X32498Y31990D01*
X29185Y35586D02*
X32781Y31990D01*
X29680Y30528D02*
X30816Y31665D01*
X29963Y30528D02*
X31044Y31610D01*
X29862Y33212D02*
X31084Y31990D01*
X30091Y33266D02*
X31367Y31990D01*
X29379Y35675D02*
X33064Y31990D01*
X29279Y31824D02*
X33347Y35893D01*
X29445Y31707D02*
X33630Y35893D01*
X29202Y34010D02*
X31084Y35893D01*
X29513Y35824D02*
X33347Y31990D01*
X29037Y31866D02*
X33064Y35893D01*
X29727D02*
X33630Y31990D01*
X30010Y35893D02*
X33912Y31990D01*
X29663Y34189D02*
X31367Y35893D01*
X29547D02*
X38757D01*
X29974Y34217D02*
X31650Y35893D01*
X28935Y36572D02*
X29418Y37055D01*
X28847D02*
X29630Y36273D01*
X28565Y37055D02*
X29030Y36589D01*
X28920Y37405D02*
X29154Y37639D01*
X29203Y37405D02*
X29373Y37575D01*
X29217Y36571D02*
X29701Y37055D01*
X29119Y37632D02*
X29346Y37405D01*
X29768D02*
X29800Y37437D01*
X28637Y37405D02*
X28920Y37688D01*
X29230Y38369D02*
X29598Y38001D01*
X29230Y38652D02*
X29739Y38143D01*
X29297Y37736D02*
X29366Y37667D01*
X29336Y37981D02*
X29467Y37849D01*
X29130Y37055D02*
X29913Y36273D01*
X29413Y37055D02*
X30195Y36273D01*
X29402Y36473D02*
X29984Y37055D01*
X29527Y36315D02*
X30267Y37055D01*
X29979D02*
X30761Y36273D01*
X30050D02*
X30832Y37055D01*
X29696D02*
X30478Y36273D01*
X29547D02*
X38678D01*
X29767D02*
X30550Y37055D01*
X29839Y37477D02*
X29912Y37405D01*
X29752D02*
X34325D01*
X29833Y37470D02*
X30091Y37727D01*
X29850Y37787D02*
X30055Y37992D01*
X29884Y37715D02*
X30194Y37405D01*
X30051D02*
X30273Y37626D01*
X29973Y37909D02*
X30039Y37843D01*
X29857Y37777D02*
X30046Y37966D01*
X25915Y38782D02*
X27292Y37405D01*
X25915Y38856D02*
X27366Y37405D01*
X25891Y39468D02*
X26705Y40281D01*
X26001Y39295D02*
X26705Y39999D01*
X26268Y38430D02*
X26705Y38867D01*
X27055Y38934D02*
X28265Y40144D01*
X27055Y39783D02*
X27523Y40251D01*
X27055Y39217D02*
X28066Y40229D01*
X27055Y39500D02*
X27870Y40315D01*
X20686Y40408D02*
X27084Y34010D01*
X20686Y41540D02*
X28215Y34010D01*
X20686Y40691D02*
X27366Y34010D01*
X20686Y40974D02*
X27649Y34010D01*
X27055Y38679D02*
Y40355D01*
X20686Y41257D02*
X27932Y34010D01*
X25401Y41067D02*
X26705Y39763D01*
X25235Y40667D02*
X26705Y39197D01*
X25374Y40811D02*
X26705Y39480D01*
X23573Y39218D02*
X28781Y34010D01*
X23753Y39321D02*
X29063Y34010D01*
X23960Y39397D02*
X29346Y34010D01*
X24243Y39397D02*
X29532Y34108D01*
X27055Y38847D02*
X28497Y37405D01*
X24526Y39397D02*
X29715Y34207D01*
X27055Y39130D02*
X28780Y37405D01*
X27258Y37440D02*
X28834Y39016D01*
X27055Y39413D02*
X29063Y37405D01*
X20686Y41822D02*
X28498Y34010D01*
X26975Y37723D02*
X28867Y39615D01*
X26833Y37864D02*
X28638Y39669D01*
X27055Y39696D02*
X28822Y37929D01*
X24636Y45509D02*
X30200Y39945D01*
X27055Y39979D02*
X28900Y38134D01*
X27116Y37581D02*
X29150Y39615D01*
X27069Y38666D02*
X28355Y39952D01*
X27144Y38458D02*
X28496Y39810D01*
X27055Y40262D02*
X28900Y38417D01*
X27055Y40066D02*
X27209Y40220D01*
X26838Y41015D02*
X26876D01*
X27057Y41300D02*
X27131Y41227D01*
X27064Y40362D02*
X27193Y40233D01*
X25125Y41909D02*
X26705Y40329D01*
X24594Y43289D02*
X26867Y41015D01*
X24779Y43669D02*
X26712Y41736D01*
X24586Y43267D02*
X26838Y41015D01*
X24596Y43295D02*
X26876Y41015D01*
X27115Y41808D02*
Y41970D01*
X26542Y41815D02*
X26707Y41980D01*
X26785Y41808D02*
Y41902D01*
X25906Y42781D02*
X26785Y41902D01*
X27115Y41899D02*
X27535Y41479D01*
X27317Y40779D02*
X27345Y40750D01*
X24240Y45339D02*
X29634Y39945D01*
X24491Y45371D02*
X29917Y39945D01*
X25209Y45785D02*
X30185Y40809D01*
X24777Y45651D02*
X30411Y40017D01*
X24926Y45785D02*
X30185Y40526D01*
X25991Y43306D02*
X29351Y39945D01*
X25562Y45714D02*
X30185Y41091D01*
X27115Y41823D02*
X28607Y43315D01*
X27228Y41653D02*
X28890Y43315D01*
X25784Y45775D02*
X30185Y41374D01*
X27506Y37405D02*
X28900Y38800D01*
X27506Y37405D02*
X28900Y38800D01*
Y38085D02*
Y38938D01*
X29230Y38117D02*
Y38938D01*
Y38935D02*
X29881Y38284D01*
X29319Y39219D02*
X29715Y39615D01*
X29319Y39219D02*
X29715Y39615D01*
X27593Y40289D02*
X28810Y39072D01*
X27392Y40207D02*
X28900Y38699D01*
X28313Y39993D02*
X28643Y39663D01*
X28595Y40178D02*
X28828Y39945D01*
X27850Y40315D02*
X28857Y39309D01*
X28833Y39615D02*
X29039Y39409D01*
X29194Y39376D02*
X29433Y39615D01*
X28595Y40419D02*
X29069Y39945D01*
X29116Y39615D02*
X30164Y38567D01*
X29230Y38281D02*
X30471Y39522D01*
X29230Y38847D02*
X29998Y39615D01*
X28760D02*
X30323D01*
X29329Y39119D02*
X30022Y38426D01*
X29230Y38564D02*
X30281Y39615D01*
X29399D02*
X30305Y38708D01*
X29964Y39615D02*
X30588Y38991D01*
X29681Y39615D02*
X30447Y38850D01*
X29292Y38060D02*
X31147Y39915D01*
X29341Y37826D02*
X31350Y39836D01*
X29197Y39945D02*
X30185Y40933D01*
X28828Y39945D02*
X30323D01*
X28914D02*
X30185Y41216D01*
X29480Y39945D02*
X30185Y40650D01*
X29523Y37927D02*
X31441Y39845D01*
X29763Y39945D02*
X30185Y40367D01*
X30045Y39945D02*
X30294Y40193D01*
X30045Y39945D02*
X30294Y40193D01*
X27848Y40315D02*
X27943D01*
X28223Y40225D02*
X28265Y40183D01*
Y40110D02*
Y40241D01*
X27668Y41148D02*
X27929Y40887D01*
X27659Y41355D02*
X28089Y40925D01*
X27683Y40413D02*
X27732Y40363D01*
X28034Y40925D02*
X28266D01*
X28383Y40877D02*
X28547Y40713D01*
X28595Y40178D02*
Y40596D01*
X28730Y40044D02*
X30185Y41499D01*
X28549Y40711D02*
X30185Y42347D01*
X28595Y40192D02*
X30185Y41782D01*
X28595Y40474D02*
X30185Y42064D01*
X27761Y41055D02*
X29875Y43168D01*
X27903Y40914D02*
X30016Y43027D01*
X27375Y41517D02*
X29173Y43315D01*
X27684Y41261D02*
X29733Y43310D01*
X27587Y41446D02*
X29456Y43315D01*
X28197Y40925D02*
X30157Y42885D01*
X28407Y40852D02*
X30185Y42630D01*
X28527Y43315D02*
X30185Y41657D01*
X28810Y43315D02*
X30185Y41940D01*
X29855Y43684D02*
X31645Y41894D01*
X20686Y42182D02*
X22026Y43522D01*
X20686Y42748D02*
X22217Y44279D01*
X20686Y43313D02*
X21935Y44562D01*
X20686Y43030D02*
X22076Y44421D01*
X20686Y44651D02*
X22029Y43308D01*
X20686Y44934D02*
X22044Y43576D01*
X20686Y43879D02*
X21652Y44845D01*
X20686Y43596D02*
X21793Y44703D01*
X22168Y44795D02*
X22270Y44897D01*
X20686Y44162D02*
X21510Y44986D01*
X20686Y45216D02*
X22163Y43739D01*
X20686Y44728D02*
X21228Y45269D01*
X20686Y44445D02*
X21369Y45128D01*
X20686Y45010D02*
X21086Y45411D01*
X22027Y44937D02*
X22128Y45038D01*
X20686Y45293D02*
X20945Y45552D01*
X21885Y45078D02*
X21987Y45180D01*
X21744Y45220D02*
X21845Y45321D01*
X20686Y42465D02*
X22359Y44138D01*
X22316Y43020D02*
X22541Y42795D01*
X22326Y43822D02*
X22500Y43996D01*
X22584Y43035D02*
X22690Y42929D01*
X22451Y44513D02*
X22552Y44614D01*
X22589Y43803D02*
X22642Y43855D01*
X22592Y44371D02*
X22694Y44473D01*
X20793Y45703D02*
X23863Y42633D01*
X20686Y45782D02*
X24357Y42111D01*
X20686Y45499D02*
X22356Y43829D01*
X21075Y45888D02*
X24048Y42915D01*
X21075Y45959D02*
X23893Y43141D01*
X21533Y45633D02*
X23433Y43733D01*
X21815Y45818D02*
X23618Y44015D01*
X22309Y44654D02*
X22411Y44756D01*
X22333Y45550D02*
X22860Y45022D01*
X22594Y45571D02*
X22897Y45268D01*
X20686Y45859D02*
X20745Y45918D01*
X20686Y45576D02*
X20803Y45693D01*
X20686Y46142D02*
X20745Y46201D01*
X20686Y46065D02*
X20745Y46006D01*
X21319Y45644D02*
X21485Y45809D01*
X21178Y45785D02*
X21485Y46092D01*
X20686Y46425D02*
X20745Y46484D01*
X20686Y46348D02*
X20745Y46289D01*
X20686Y46914D02*
X20745Y46854D01*
X20686Y46631D02*
X20745Y46572D01*
X20686Y46707D02*
X20745Y46767D01*
X21075Y45965D02*
X21485Y46375D01*
X21075Y46242D02*
X21485Y45832D01*
X21075Y46807D02*
X21485Y46397D01*
X21075Y46524D02*
X21485Y46114D01*
X21075Y46248D02*
X21485Y46658D01*
X21461Y45502D02*
X21562Y45604D01*
X21602Y45361D02*
X21704Y45463D01*
X21937Y45696D02*
X22031Y45790D01*
X22079Y45555D02*
X22157Y45633D01*
X22220Y45413D02*
X22353Y45546D01*
X21815Y45857D02*
X21992Y46033D01*
X21815Y46067D02*
X21999Y45883D01*
X21815Y46350D02*
X22021Y46144D01*
X21815Y46139D02*
X22238Y46563D01*
X21815Y46422D02*
X22238Y46846D01*
X21815Y46633D02*
X22138Y46310D01*
X21815Y46916D02*
X22238Y46492D01*
X22618Y46395D02*
X22661Y46352D01*
X22238Y46376D02*
Y46856D01*
X22853Y42935D02*
X23207Y43289D01*
X23011Y42810D02*
X23349Y43148D01*
X22838Y43486D02*
X22925Y43572D01*
X23724Y43240D02*
X23799Y43315D01*
X23865Y43098D02*
X23900Y43133D01*
X24006Y42957D02*
X24074Y43025D01*
X23921Y43113D02*
X24119Y42915D01*
X22751Y43681D02*
X22783Y43714D01*
X23299Y43664D02*
X23401Y43766D01*
X23016Y43947D02*
X23118Y44049D01*
X23158Y43805D02*
X23260Y43907D01*
X23632Y43685D02*
X23797Y43519D01*
X23582Y43381D02*
X23863Y43662D01*
X23550Y43685D02*
X23881D01*
X23441Y43523D02*
X23603Y43685D01*
X24166Y42585D02*
X24498Y42253D01*
X23980Y42585D02*
X24243D01*
X24333Y42432D02*
X24508Y42258D01*
X24707Y42526D02*
X24784Y42603D01*
X24048Y42915D02*
X24243D01*
X24299Y43017D02*
X24330Y42986D01*
X24303Y42970D02*
X24360Y43027D01*
X24353Y43034D02*
X24381Y43006D01*
X24795Y43562D02*
Y43598D01*
X24495Y43967D02*
X24747Y43715D01*
X22734Y44230D02*
X22835Y44331D01*
X22644Y44989D02*
X22864Y45209D01*
X22786Y44848D02*
X22894Y44956D01*
X22875Y44088D02*
X22977Y44190D01*
X23069Y44565D02*
X23843Y45339D01*
X22927Y44706D02*
X23069Y44848D01*
X23375Y45106D02*
X23608Y45339D01*
X23106Y45375D02*
X23394Y45663D01*
X22759Y45689D02*
X23075Y45373D01*
X22802Y46212D02*
X23372Y45641D01*
X22618Y46376D02*
Y46935D01*
Y46678D02*
X23577Y45719D01*
X22856Y45875D02*
X23231Y45500D01*
X23011Y45356D02*
X23839Y46183D01*
X23657Y45719D02*
X23801Y45863D01*
X23022Y44860D02*
X23867Y44015D01*
X23268Y44897D02*
X24150Y44015D01*
X23210Y44423D02*
X24126Y45339D01*
X23351Y44282D02*
X24410Y45341D01*
X23618Y44015D02*
X24378D01*
X23373Y45075D02*
X24449Y43999D01*
X23608Y45339D02*
X24386D01*
X23529Y45719D02*
X23877D01*
X24316Y46378D02*
X24852Y46914D01*
X24613Y46024D02*
X24697Y46109D01*
X24521Y45395D02*
X24911Y45785D01*
X24590Y46121D02*
X24650Y46061D01*
X20686Y47196D02*
X20745Y47137D01*
X20686Y46990D02*
X20745Y47049D01*
X20686Y47556D02*
X20745Y47615D01*
X20686Y47273D02*
X20745Y47332D01*
X21075Y47097D02*
X21240Y47261D01*
X21075Y46814D02*
X21240Y46978D01*
X20686Y47479D02*
X20745Y47420D01*
X21075Y47373D02*
X21240Y47208D01*
X21075Y47379D02*
X21240Y47544D01*
X20686Y47762D02*
X20745Y47703D01*
Y45820D02*
Y47950D01*
X20686Y47839D02*
X20745Y47898D01*
X21075Y47882D02*
X21312Y48118D01*
X21075Y45888D02*
Y47882D01*
X21240Y46940D02*
Y47760D01*
X21075Y47656D02*
X21240Y47491D01*
X21103Y47910D02*
X21253Y47760D01*
X21075Y47662D02*
X21422Y48009D01*
X21075Y46531D02*
X21484Y46940D01*
X21485Y45750D02*
Y46940D01*
X21240D02*
X21485D01*
X21815D02*
X22060D01*
X21815Y45818D02*
Y46940D01*
Y46705D02*
X22050Y46940D01*
X22060Y46950D02*
X22102Y46992D01*
X22060Y46953D02*
X22238Y46775D01*
X22066Y47029D02*
X22238Y46856D01*
X21075Y47090D02*
X21485Y46680D01*
X21240Y47760D02*
X22010D01*
X21245Y48052D02*
X21536Y47760D01*
X21639Y47940D02*
X21819Y47760D01*
X21456D02*
X21636Y47940D01*
X22060Y46940D02*
Y47034D01*
X21739Y47760D02*
X22227Y48248D01*
X22010Y47760D02*
Y47900D01*
X21863Y47999D02*
X22010Y47852D01*
X20686Y48045D02*
X20748Y47983D01*
X20686Y48328D02*
X20870Y48143D01*
X20686Y48611D02*
X21012Y48285D01*
X20793Y48067D02*
X21193Y48467D01*
X20686Y48404D02*
X21281Y48999D01*
X20686Y48122D02*
X21563Y48999D01*
X20686Y48970D02*
X20715Y48999D01*
X20686Y48893D02*
X21153Y48426D01*
X20686Y48687D02*
X20998Y48999D01*
X20863D02*
X21299Y48563D01*
X21146Y48999D02*
X21442Y48703D01*
X21429Y48999D02*
X21665Y48763D01*
X21605Y48758D02*
X21673Y48826D01*
X21712Y48999D02*
X21779Y48932D01*
X22003Y48142D02*
X22088Y48057D01*
X22060Y48368D02*
X22230Y48198D01*
X22066Y48034D02*
X22239Y48207D01*
X22060Y48364D02*
X22289Y48594D01*
X21995Y48610D02*
X22301D01*
X21994Y48999D02*
X22053Y48940D01*
X21779Y48932D02*
X21846Y48999D01*
X21995Y48572D02*
Y48610D01*
X22100D02*
X22234Y48477D01*
X21995Y48582D02*
X22023Y48610D01*
X22277Y48999D02*
X22336Y48940D01*
X22070D02*
X22129Y48999D01*
X22618Y46377D02*
X23332Y47091D01*
X22390Y47755D02*
X22442Y47703D01*
X22862Y46055D02*
X23762Y46955D01*
X22863Y46999D02*
X23795Y46068D01*
X22618Y46660D02*
X23245Y47286D01*
X22775Y46251D02*
X23494Y46970D01*
X23060Y47368D02*
X23316Y47112D01*
X22390Y47667D02*
Y47821D01*
X22777Y47934D02*
X23254Y47457D01*
X22390Y47821D02*
X22507Y47939D01*
X22582Y47755D02*
X22754Y47927D01*
X22498Y47930D02*
X22668Y47760D01*
X22983Y47590D02*
X23392Y47999D01*
X23059Y47383D02*
X23594Y47918D01*
X22829Y47719D02*
X23262Y48152D01*
X22955Y48039D02*
X23357Y47637D01*
X23091Y48185D02*
X23533Y47743D01*
X22362Y45272D02*
X24274Y47185D01*
X22503Y45130D02*
X24398Y47026D01*
X22639Y46940D02*
X23860Y45719D01*
X23003Y47142D02*
X23890Y46255D01*
X23996Y46340D02*
X24598Y46943D01*
X23937Y47057D02*
X24829Y46165D01*
X23412Y47016D02*
X24059Y46369D01*
X23757Y46954D02*
X24342Y46369D01*
X24045Y47238D02*
X24251Y47444D01*
X23869Y47974D02*
X24292Y47550D01*
X23644Y47915D02*
X23852Y47707D01*
X23909Y47668D02*
X24314Y48073D01*
X23714Y47755D02*
X24143Y48185D01*
X24007Y47552D02*
X24241Y47318D01*
X24030Y47506D02*
X24475Y47951D01*
X24014Y48111D02*
X24429Y47696D01*
X24556Y47749D02*
X24729Y47922D01*
X24438Y47970D02*
X24647Y47760D01*
X22999Y48610D02*
X23301D01*
X23053Y48185D02*
X23247D01*
X23059Y48515D02*
X23154Y48610D01*
X23053Y48515D02*
X23247D01*
X22843Y48999D02*
X22902Y48940D01*
X22919D02*
X22978Y48999D01*
X22353Y48940D02*
X22412Y48999D01*
X22636Y48940D02*
X22695Y48999D01*
X22560D02*
X22619Y48940D01*
X23202D02*
X23260Y48999D01*
X23232Y48610D02*
X23274Y48569D01*
X23126Y48999D02*
X23185Y48940D01*
X23484D02*
X23543Y48999D01*
X23409D02*
X23467Y48940D01*
X24053Y48185D02*
X24247D01*
X23999Y48610D02*
X24301D01*
X24223Y48185D02*
X24270Y48138D01*
X24080Y48610D02*
X24176Y48515D01*
X24053D02*
X24247D01*
X24191D02*
X24286Y48610D01*
X24050Y48940D02*
X24109Y48999D01*
X23691D02*
X23750Y48940D01*
X23974Y48999D02*
X24033Y48940D01*
X23767D02*
X23826Y48999D01*
X24616Y48940D02*
X24675Y48999D01*
X24823D02*
X24882Y48940D01*
X24257Y48999D02*
X24316Y48940D01*
X24540Y48999D02*
X24599Y48940D01*
X24333D02*
X24392Y48999D01*
X24653Y42579D02*
X25077Y42156D01*
X24848Y42384D02*
X24925Y42461D01*
X24989Y42243D02*
X25067Y42320D01*
X25117Y42088D02*
X25208Y42179D01*
X25693Y42664D02*
X25843Y42814D01*
X25411Y42947D02*
X25489Y43026D01*
X23500Y45231D02*
X25491Y43239D01*
X23675Y45339D02*
X25626Y43387D01*
X23957Y45339D02*
X25936Y43361D01*
X25552Y42805D02*
X25622Y42875D01*
X25812Y42845D02*
X25833Y42823D01*
X25835Y42523D02*
X25999Y42687D01*
X25976Y42381D02*
X26141Y42546D01*
X26259Y42098D02*
X26424Y42263D01*
X26097Y43057D02*
X27067Y42087D01*
X26118Y42240D02*
X26282Y42404D01*
X25269Y43088D02*
X26974Y44793D01*
X24986Y43371D02*
X26691Y45076D01*
X25864Y43401D02*
X27115Y44651D01*
X25128Y43230D02*
X26832Y44934D01*
X26233Y42921D02*
X27539Y44227D01*
X26374Y42779D02*
X27681Y44086D01*
X26015Y43268D02*
X27257Y44510D01*
X26091Y43062D02*
X27398Y44369D01*
X25865Y45902D02*
X28403Y43363D01*
X23650Y44015D02*
X25420Y45785D01*
X23933Y44015D02*
X25628Y45710D01*
X23493Y44140D02*
X25137Y45785D01*
X24832Y46165D02*
X25425D01*
X24911Y45785D02*
X25425D01*
X24951Y46165D02*
X25277Y46490D01*
X25234Y46165D02*
X25418Y46349D01*
X24043Y47233D02*
X25112Y46165D01*
X24599Y46095D02*
X25135Y46631D01*
X24494Y46272D02*
X24994Y46773D01*
X24618Y46941D02*
X25395Y46165D01*
X24799Y46968D02*
X25537Y46229D01*
X25369Y46865D02*
X25480Y46976D01*
X25510Y46723D02*
X25736Y46949D01*
X25227Y47006D02*
X25323Y47102D01*
X25086Y47148D02*
X25242Y47304D01*
X24614Y43847D02*
X26267Y45500D01*
X24755Y43706D02*
X26408Y45359D01*
X24216Y44015D02*
X25984Y45783D01*
X24471Y43987D02*
X26125Y45641D01*
X24845Y43513D02*
X26550Y45217D01*
X25741Y46950D02*
X28937Y43753D01*
X26076Y46158D02*
X26822Y46904D01*
X26359Y45875D02*
X27105Y46621D01*
X26217Y46016D02*
X26964Y46763D01*
X25032Y47201D02*
X28588Y43645D01*
X25060Y47347D02*
X28763Y43645D01*
X25651Y46582D02*
X26255Y47185D01*
X25927Y47047D02*
X28948Y44025D01*
X25793Y46440D02*
X26537Y47185D01*
X26071D02*
X29117Y44140D01*
X26354Y47185D02*
X29525Y44014D01*
X26026Y47185D02*
X26542D01*
X25934Y46299D02*
X26681Y47046D01*
X26026Y47515D02*
X26610D01*
X26798Y42355D02*
X28105Y43661D01*
X26940Y42213D02*
X28247Y43520D01*
X27080Y42071D02*
X28388Y43379D01*
X28588Y43645D02*
X29048D01*
X26516Y42638D02*
X27822Y43944D01*
X26657Y42496D02*
X27964Y43803D01*
X28654Y43645D02*
X28905Y43896D01*
X28480Y43753D02*
X29227Y44500D01*
X28338Y43895D02*
X29085Y44641D01*
X28937Y43645D02*
X28984Y43692D01*
X29503Y43645D02*
X29542Y43684D01*
X29573D02*
X29611Y43645D01*
X29589Y44014D02*
X29690Y44115D01*
X29376Y43315D02*
X30185Y42506D01*
X29093Y43315D02*
X30185Y42223D01*
X28520Y43315D02*
X29728D01*
X29292Y43645D02*
X29796D01*
X29728Y43315D02*
X30185Y42858D01*
X29658Y43315D02*
X30185Y42788D01*
X29913Y43597D02*
X30467Y43043D01*
X28405Y47114D02*
X31505Y44014D01*
X29348Y43684D02*
X40248D01*
X28217Y47019D02*
X31222Y44014D01*
X29399D02*
X39636D01*
X28791Y47011D02*
X31788Y44014D01*
X29786Y43645D02*
X29824Y43684D01*
X29966Y43543D02*
X30107Y43684D01*
X29707Y44115D02*
X29808Y44014D01*
X29544Y47106D02*
X32637Y44014D01*
X29544Y47389D02*
X32919Y44014D01*
X27066Y45168D02*
X27812Y45914D01*
X27207Y45026D02*
X27954Y45773D01*
X26783Y45450D02*
X27530Y46197D01*
X26924Y45309D02*
X27671Y46056D01*
X27773Y44461D02*
X28519Y45207D01*
X27914Y44319D02*
X28661Y45066D01*
X27349Y44885D02*
X28095Y45631D01*
X27631Y44602D02*
X28378Y45349D01*
X27490Y44743D02*
X28237Y45490D01*
X26500Y45733D02*
X27247Y46480D01*
X26641Y45592D02*
X27388Y46339D01*
X27339Y46855D02*
X27753Y47269D01*
X27763Y46430D02*
X28724Y47391D01*
X27904Y46289D02*
X28724Y47108D01*
X27480Y46713D02*
X27872Y47105D01*
X27621Y46572D02*
X28066Y47017D01*
X28520Y47282D02*
X28724Y47078D01*
X28197Y44036D02*
X28944Y44783D01*
X29358Y44066D02*
X29509Y44217D01*
X29154Y44145D02*
X29368Y44359D01*
X30054Y44051D02*
X30091Y44014D01*
X29680Y44115D02*
X29713D01*
X28056Y44178D02*
X28802Y44924D01*
X26542Y47185D02*
X29563Y44163D01*
X28046Y46148D02*
X28909Y47011D01*
X28187Y46006D02*
X29192Y47011D01*
X26727Y47467D02*
X29729Y44464D01*
X29074Y47011D02*
X32071Y44014D01*
X29357Y47011D02*
X32354Y44014D01*
X28724Y47078D02*
X28791Y47011D01*
X28724D02*
X29544D01*
X28329Y45865D02*
X29475Y47011D01*
X24761Y47929D02*
X25250Y47441D01*
X24944Y48029D02*
X25347Y47627D01*
X24974Y47602D02*
X25381Y48008D01*
X25057Y47402D02*
X25576Y47921D01*
X25624Y47916D02*
X25812Y47727D01*
X25856Y47966D02*
X26307Y47515D01*
X26006Y48099D02*
X26590Y47515D01*
X24815Y47726D02*
X25256Y48166D01*
X25071Y48185D02*
X25518Y47738D01*
X25053Y48185D02*
X25247D01*
X25696Y47758D02*
X26123Y48185D01*
X25898Y47677D02*
X26406Y48185D01*
X26585Y47515D02*
X27255Y48185D01*
X26768D02*
X30940Y44014D01*
X26024Y47520D02*
X26689Y48185D01*
X26302Y47515D02*
X26972Y48185D01*
X27197Y46996D02*
X27741Y47540D01*
X26773Y47420D02*
X27537Y48185D01*
X26914Y47279D02*
X27820Y48185D01*
X27051D02*
X27732Y47504D01*
X26203Y48185D02*
X29852Y44536D01*
X26485Y48185D02*
X30657Y44014D01*
X26626Y48610D02*
X26721Y48515D01*
X26053Y48185D02*
X28342D01*
X26736Y48515D02*
X26831Y48610D01*
X27334Y48185D02*
X27826Y47693D01*
X27056Y47138D02*
X28103Y48185D01*
X26909Y48610D02*
X27004Y48515D01*
X27617Y48185D02*
X27995Y47807D01*
X27019Y48515D02*
X27114Y48610D01*
X25049Y48525D02*
X25134Y48610D01*
X24899Y48940D02*
X24958Y48999D01*
X24999Y48610D02*
X25301D01*
X25053Y48515D02*
X25247D01*
X25212Y48610D02*
X25266Y48556D01*
X26170Y48515D02*
X26266Y48610D01*
X26060D02*
X26155Y48515D01*
X25464Y48940D02*
X25523Y48999D01*
X25671D02*
X25730Y48940D01*
X25106Y48999D02*
X25165Y48940D01*
X25388Y48999D02*
X25447Y48940D01*
X25181D02*
X25240Y48999D01*
X26237D02*
X26296Y48940D01*
X26313D02*
X26372Y48999D01*
X25747Y48940D02*
X25806Y48999D01*
X26030Y48940D02*
X26089Y48999D01*
X25954D02*
X26013Y48940D01*
X26343Y48610D02*
X26438Y48515D01*
X26053D02*
X28410D01*
X25999Y48610D02*
X37931D01*
X21830Y48940D02*
X37999D01*
X27474Y48610D02*
X27570Y48515D01*
X27585D02*
X27680Y48610D01*
X26453Y48515D02*
X26549Y48610D01*
X27302Y48515D02*
X27397Y48610D01*
X27192D02*
X27287Y48515D01*
X26803Y48999D02*
X26862Y48940D01*
X26879D02*
X26937Y48999D01*
X26520D02*
X26579Y48940D01*
X20686Y48999D02*
X43842D01*
X26596Y48940D02*
X26655Y48999D01*
X27444Y48940D02*
X27503Y48999D01*
X27651D02*
X27710Y48940D01*
X27086Y48999D02*
X27144Y48940D01*
X27368Y48999D02*
X27427Y48940D01*
X27161D02*
X27220Y48999D01*
X28517Y47568D02*
X28724Y47361D01*
Y47011D02*
Y47832D01*
X28539Y47489D02*
X28724Y47674D01*
X28450Y47683D02*
X28732Y47965D01*
X29251D02*
X29385Y47832D01*
X29544Y47011D02*
Y47832D01*
X28968Y47965D02*
X29102Y47832D01*
X28724D02*
X29544D01*
X29164D02*
X29297Y47965D01*
X28286Y47802D02*
X28505Y48021D01*
X28183Y48185D02*
X28724Y47644D01*
X27900Y48185D02*
X28280Y47805D01*
X28015Y47814D02*
X28364Y48163D01*
X28342Y48185D02*
X28513Y48013D01*
X28685Y47965D02*
X28819Y47832D01*
X28881D02*
X29015Y47965D01*
X28527Y48467D02*
X28698Y48295D01*
X28753Y45441D02*
X31277Y47965D01*
X28894Y45299D02*
X31560Y47965D01*
X28470Y45723D02*
X30712Y47965D01*
X28611Y45582D02*
X30994Y47965D01*
X29036Y45158D02*
X31843Y47965D01*
X29544Y47672D02*
X33202Y44014D01*
X29447Y47832D02*
X29580Y47965D01*
X29544Y47363D02*
X30146Y47965D01*
X29544Y47646D02*
X29863Y47965D01*
X29460Y44733D02*
X32691Y47965D01*
X29534D02*
X33485Y44014D01*
X29177Y45016D02*
X32126Y47965D01*
X28630D02*
X38322D01*
X29318Y44875D02*
X32409Y47965D01*
X30072Y44497D02*
X33540Y47965D01*
X29817D02*
X33768Y44014D01*
X29544Y47080D02*
X30429Y47965D01*
X29816Y44524D02*
X33257Y47965D01*
X29601Y44592D02*
X32974Y47965D01*
X28040Y48610D02*
X28135Y48515D01*
X28150D02*
X28246Y48610D01*
X27757D02*
X27853Y48515D01*
X27867D02*
X27963Y48610D01*
X28597Y48396D02*
X28811Y48610D01*
X28606D02*
X28921Y48295D01*
X28323Y48610D02*
X28418Y48515D01*
X28217Y48999D02*
X28276Y48940D01*
X28293D02*
X28352Y48999D01*
X27727Y48940D02*
X27786Y48999D01*
X28010Y48940D02*
X28069Y48999D01*
X27934D02*
X27993Y48940D01*
X28432Y48514D02*
X28528Y48610D01*
X28500Y48999D02*
X28559Y48940D01*
X28576D02*
X28634Y48999D01*
X28858Y48940D02*
X28917Y48999D01*
X28783D02*
X28841Y48940D01*
X29062Y48295D02*
X29377Y48610D01*
X29171D02*
X29487Y48295D01*
X28889Y48610D02*
X29204Y48295D01*
X28698D02*
X38246D01*
X29737Y48610D02*
X30052Y48295D01*
X29910D02*
X30225Y48610D01*
X29345Y48295D02*
X29660Y48610D01*
X29627Y48295D02*
X29943Y48610D01*
X29454D02*
X29770Y48295D01*
X28779D02*
X29094Y48610D01*
X29065Y48999D02*
X29124Y48940D01*
X29141D02*
X29200Y48999D01*
X29424Y48940D02*
X29483Y48999D01*
X29348D02*
X29407Y48940D01*
X29990D02*
X30049Y48999D01*
X30020Y48610D02*
X30335Y48295D01*
X29631Y48999D02*
X29690Y48940D01*
X29914Y48999D02*
X29973Y48940D01*
X29707D02*
X29766Y48999D01*
X30811Y30528D02*
X31893Y31610D01*
X31094Y30528D02*
X32176Y31610D01*
X30246Y30528D02*
X31327Y31610D01*
X30528Y30528D02*
X31610Y31610D01*
X31943Y30528D02*
X33024Y31610D01*
X32030D02*
X33111Y30528D01*
X31181Y31610D02*
X32263Y30528D01*
X31747Y31610D02*
X32828Y30528D01*
X31377D02*
X32459Y31610D01*
X30640Y31842D02*
X30815Y31666D01*
X30798Y32221D02*
X31029Y31990D01*
X31464Y31610D02*
X32546Y30528D01*
X31660D02*
X32741Y31610D01*
X30888Y31620D02*
X31980Y30528D01*
X32508D02*
X33590Y31610D01*
X32595D02*
X33677Y30528D01*
X32225D02*
X33307Y31610D01*
X32312D02*
X33394Y30528D01*
X33161Y31610D02*
X34243Y30528D01*
X33357D02*
X34438Y31610D01*
X32791Y30528D02*
X33873Y31610D01*
X33074Y30528D02*
X34156Y31610D01*
X32878D02*
X33960Y30528D01*
X31424Y35893D02*
X35327Y31990D01*
X31424D02*
X35327Y35893D01*
X30858D02*
X34761Y31990D01*
X31141D02*
X35044Y35893D01*
X31141D02*
X35044Y31990D01*
X33444Y31610D02*
X34525Y30528D01*
X33640D02*
X34721Y31610D01*
X31707Y35893D02*
X35609Y31990D01*
X32839D02*
X36741Y35893D01*
X31707Y31990D02*
X35610Y35893D01*
X30249Y33390D02*
X31650Y31990D01*
X30168Y34127D02*
X31933Y35893D01*
X30301Y33978D02*
X32216Y35893D01*
X30349Y33573D02*
X31932Y31990D01*
X30354Y33852D02*
X32215Y31990D01*
X30376Y32355D02*
X33913Y35893D01*
X30369Y33763D02*
X32499Y35893D01*
X32241Y37055D02*
X33024Y36273D01*
X32313D02*
X33095Y37055D01*
X31747Y36273D02*
X32530Y37055D01*
X32030Y36273D02*
X32812Y37055D01*
X31959D02*
X32741Y36273D01*
X33161D02*
X33944Y37055D01*
X33373D02*
X34155Y36273D01*
X32524Y37055D02*
X33307Y36273D01*
X33090Y37055D02*
X33872Y36273D01*
X32596D02*
X33378Y37055D01*
X30293Y35893D02*
X34195Y31990D01*
X30575Y35893D02*
X34478Y31990D01*
X30668Y32365D02*
X34196Y35893D01*
X30802Y32216D02*
X34478Y35893D01*
X32272D02*
X36175Y31990D01*
X32273D02*
X36176Y35893D01*
X30944Y32075D02*
X34761Y35893D01*
X31990Y31990D02*
X35893Y35893D01*
X31990D02*
X35892Y31990D01*
X33121Y35893D02*
X37024Y31990D01*
X33121D02*
X37024Y35893D01*
X32555D02*
X36458Y31990D01*
X32838Y35893D02*
X36741Y31990D01*
X32556D02*
X36458Y35893D01*
X33404D02*
X37306Y31990D01*
X33404D02*
X37307Y35893D01*
X33444Y36273D02*
X34227Y37055D01*
X33687Y35893D02*
X37589Y31990D01*
X33656Y37055D02*
X34438Y36273D01*
X35337Y30528D02*
X36418Y31610D01*
X35424D02*
X36505Y30528D01*
X35054D02*
X36135Y31610D01*
X35141D02*
X36223Y30528D01*
X35989Y31610D02*
X37071Y30528D01*
X36185D02*
X37267Y31610D01*
X35620Y30528D02*
X36701Y31610D01*
X35902Y30528D02*
X36984Y31610D01*
X35707D02*
X36788Y30528D01*
X34010Y31610D02*
X35091Y30528D01*
X34205D02*
X35287Y31610D01*
X33727D02*
X34808Y30528D01*
X33923D02*
X35004Y31610D01*
X34771Y30528D02*
X35853Y31610D01*
X34858D02*
X35940Y30528D01*
X34292Y31610D02*
X35374Y30528D01*
X34575Y31610D02*
X35657Y30528D01*
X34488D02*
X35570Y31610D01*
X36555D02*
X37637Y30528D01*
X36751D02*
X37833Y31610D01*
X36272D02*
X37354Y30528D01*
X36468D02*
X37550Y31610D01*
X37317Y30528D02*
X38398Y31610D01*
X37404D02*
X38485Y30528D01*
X36838Y31610D02*
X37920Y30528D01*
X37121Y31610D02*
X38202Y30528D01*
X37034D02*
X38115Y31610D01*
X37882Y30528D02*
X38964Y31610D01*
X37969D02*
X39051Y30528D01*
X33970Y31990D02*
X37873Y35893D01*
X37686Y31610D02*
X38768Y30528D01*
X37599D02*
X38681Y31610D01*
X38535D02*
X39617Y30528D01*
X38731D02*
X39812Y31610D01*
X38165Y30528D02*
X39247Y31610D01*
X38448Y30528D02*
X39530Y31610D01*
X38252D02*
X39334Y30528D01*
X34252Y35893D02*
X38155Y31990D01*
X34253D02*
X38155Y35893D01*
X33687Y31990D02*
X37590Y35893D01*
X33969D02*
X37872Y31990D01*
X34535Y35893D02*
X38438Y31990D01*
X34536D02*
X38438Y35893D01*
X37970Y36273D02*
X38140Y36443D01*
X38253Y36273D02*
X38284Y36304D01*
X36838Y36273D02*
X37574Y37008D01*
X37050Y37055D02*
X37832Y36273D01*
X33727D02*
X34509Y37055D01*
X34221D02*
X35004Y36273D01*
X34010D02*
X34792Y37055D01*
X37121Y36273D02*
X37716Y36867D01*
X37333Y37055D02*
X38115Y36273D01*
X37404D02*
X37857Y36726D01*
X37687Y36273D02*
X37998Y36584D01*
X37528Y37055D02*
X38256Y36326D01*
X35101Y35893D02*
X39004Y31990D01*
X35384Y35893D02*
X39286Y31990D01*
X34818Y35893D02*
X38721Y31990D01*
X34818D02*
X38721Y35893D01*
X35667D02*
X39569Y31990D01*
X35949Y35893D02*
X39852Y31990D01*
X38535Y36273D02*
X38568Y36305D01*
X38478D02*
X38710D01*
X38387Y36690D02*
X38631Y36934D01*
X38422Y36655D02*
X38645D01*
Y36921D01*
X38678Y36273D02*
X38710Y36305D01*
X38891Y35949D02*
X39259Y36316D01*
X38648Y36305D02*
X38679Y36274D01*
X30262Y37055D02*
X31044Y36273D01*
X30333D02*
X31115Y37055D01*
X30253Y37629D02*
X30477Y37405D01*
X30475Y37691D02*
X30760Y37405D01*
X30899Y36273D02*
X31681Y37055D01*
X31110D02*
X31892Y36273D01*
X30544Y37055D02*
X31327Y36273D01*
X30827Y37055D02*
X31610Y36273D01*
X30616D02*
X31398Y37055D01*
X30653Y37795D02*
X31043Y37405D01*
X30900D02*
X31290Y37795D01*
X30334Y37405D02*
X30724Y37795D01*
X30617Y37405D02*
X31007Y37795D01*
X31465Y37405D02*
X31855Y37795D01*
X31501D02*
X31891Y37405D01*
X30936Y37795D02*
X31326Y37405D01*
X31219Y37795D02*
X31609Y37405D01*
X31182D02*
X31572Y37795D01*
X31464Y36273D02*
X32247Y37055D01*
X31676D02*
X32458Y36273D01*
X31182D02*
X31964Y37055D01*
X31393D02*
X32175Y36273D01*
X32314Y37405D02*
X32609Y37700D01*
X32350Y37795D02*
X32740Y37405D01*
X31748D02*
X32138Y37795D01*
X32067D02*
X32457Y37405D01*
X31784Y37795D02*
X32174Y37405D01*
X32431Y39129D02*
X34154Y37405D01*
X32384Y41721D02*
X36700Y37405D01*
X32284Y38992D02*
X33871Y37405D01*
X32315Y40941D02*
X35851Y37405D01*
X32314Y41226D02*
X36134Y37405D01*
X32597D02*
X33544Y38352D01*
X32639Y42597D02*
X38581Y36655D01*
X32515Y41873D02*
X36983Y37405D01*
X32525Y42145D02*
X37265Y37405D01*
X32571Y42382D02*
X37548Y37405D01*
X30397Y38334D02*
X30606Y38125D01*
X30256Y38192D02*
X30293Y38155D01*
X30538Y38475D02*
X30889Y38125D01*
X31337D02*
X32187Y38975D01*
X32031Y37405D02*
X32421Y37795D01*
X30680Y38617D02*
X31171Y38125D01*
X30821Y38758D02*
X31454Y38125D01*
X30963Y38899D02*
X31737Y38125D01*
X30198Y38135D02*
X31967Y39903D01*
X30488Y38125D02*
X31985Y39622D01*
X30247Y39615D02*
X30729Y39133D01*
X30616Y39529D02*
X30871Y39274D01*
X30224Y38144D02*
X31985Y39905D01*
X30771Y38125D02*
X31928Y39282D01*
X31054Y38125D02*
X31992Y39063D01*
X31670Y39607D02*
X31942Y39334D01*
X31104Y39041D02*
X32020Y38125D01*
X31246Y39182D02*
X32303Y38125D01*
X30422D02*
X32453D01*
X30547Y37795D02*
X32453D01*
X31387Y39324D02*
X32524Y38187D01*
X31620Y38125D02*
X32696Y39201D01*
X31902Y38125D02*
X32837Y39060D01*
X32539Y38196D02*
X33120Y38777D01*
X32185Y38125D02*
X32978Y38918D01*
X32315Y40658D02*
X35568Y37405D01*
X32328Y41494D02*
X36417Y37405D01*
X31528Y39465D02*
X32832Y38162D01*
X32365Y39477D02*
X34280Y37562D01*
X32365Y39532D02*
X34285Y37612D01*
X32455Y39243D02*
X32554Y39342D01*
X32610Y39753D02*
X34518Y37845D01*
X32634Y39774D02*
X34558Y37850D01*
X33939Y37055D02*
X34721Y36273D01*
X34293D02*
X35075Y37055D01*
X32807D02*
X33589Y36273D01*
X32879D02*
X33661Y37055D01*
X35424Y36273D02*
X36206Y37055D01*
X35707Y36273D02*
X36489Y37055D01*
X34504D02*
X35287Y36273D01*
X34787Y37055D02*
X35569Y36273D01*
X34576D02*
X35358Y37055D01*
X34011Y37405D02*
X34251Y37645D01*
X32880Y37405D02*
X33686Y38211D01*
X33728Y37405D02*
X34110Y37787D01*
X33162Y37405D02*
X33827Y38070D01*
X35353Y37055D02*
X36135Y36273D01*
X35636Y37055D02*
X36418Y36273D01*
X34858D02*
X35641Y37055D01*
X35141Y36273D02*
X35924Y37055D01*
X35070D02*
X35852Y36273D01*
X36201Y37055D02*
X36984Y36273D01*
X36273D02*
X37055Y37055D01*
X35918D02*
X36701Y36273D01*
X35990D02*
X36772Y37055D01*
X36484D02*
X37266Y36273D01*
X36556D02*
X37338Y37055D01*
X36767D02*
X37549Y36273D01*
X38246Y36832D02*
X38556Y37142D01*
X39315Y36451D02*
Y37303D01*
X34062Y41740D02*
X38577Y37225D01*
X33779Y41740D02*
X38645Y36874D01*
X34345Y41740D02*
X38719Y37365D01*
X37724Y37354D02*
X38422Y36655D01*
X38798Y37384D02*
X38888Y37473D01*
X32725Y37703D02*
X33023Y37405D01*
X32887Y37824D02*
X33306Y37405D01*
X33445D02*
X33968Y37928D01*
X34860Y37548D02*
X35003Y37405D01*
X32862Y38132D02*
X33589Y37405D01*
X32720Y39971D02*
X35286Y37405D01*
X32807Y38181D02*
X33261Y38635D01*
X32920Y38011D02*
X33403Y38494D01*
X33070Y39293D02*
X35517Y41740D01*
X33636Y38727D02*
X36649Y41740D01*
X33778Y38586D02*
X36932Y41740D01*
X33212Y39152D02*
X35800Y41740D01*
X33495Y38869D02*
X36366Y41740D01*
X33353Y39010D02*
X36083Y41740D01*
X34202Y38162D02*
X37780Y41740D01*
X34343Y38020D02*
X38063Y41740D01*
X33919Y38444D02*
X37215Y41740D01*
X34060Y38303D02*
X37497Y41740D01*
X34815Y37405D02*
X37600D01*
X34628Y41740D02*
X38887Y37481D01*
X34485Y37879D02*
X38346Y41740D01*
X34839Y37668D02*
X38912Y41740D01*
X34705Y37817D02*
X38629Y41740D01*
X34859Y37405D02*
X39194Y41740D01*
X35142Y37405D02*
X39477Y41740D01*
X34910D02*
X38958Y37693D01*
X35425Y37405D02*
X39760Y41740D01*
X35193D02*
X39152Y37781D01*
X35476Y41740D02*
X39294Y37922D01*
X35759Y41740D02*
X39435Y38064D01*
X36042Y41740D02*
X39577Y38205D01*
X36607Y41740D02*
X39859Y38488D01*
X36325Y41740D02*
X39718Y38347D01*
X39101Y31610D02*
X40182Y30528D01*
X39297D02*
X40378Y31610D01*
X38818D02*
X39899Y30528D01*
X39014D02*
X40095Y31610D01*
X39862Y30528D02*
X40944Y31610D01*
X40711Y30528D02*
X41710Y31528D01*
X39384Y31610D02*
X40465Y30528D01*
X39666Y31610D02*
X40748Y30528D01*
X39579D02*
X40661Y31610D01*
X40145Y30528D02*
X41227Y31610D01*
X40232D02*
X41314Y30528D01*
X39949Y31610D02*
X41031Y30528D01*
X30950Y31610D02*
X41658D01*
X40428Y30528D02*
X41510Y31610D01*
X40515D02*
X41597Y30528D01*
X41646Y31610D02*
X41672Y31584D01*
X41324Y31990D02*
X41805Y32471D01*
X41041Y31990D02*
X41678Y32627D01*
X41559Y30528D02*
X42640Y31609D01*
X41834Y31422D02*
X42728Y30528D01*
X40994D02*
X41869Y31404D01*
X41276Y30528D02*
X42118Y31370D01*
X42408Y30528D02*
X43269Y31390D01*
X42343Y31479D02*
X43294Y30528D01*
X41842D02*
X42703Y31390D01*
X42160Y31379D02*
X43011Y30528D01*
X42125D02*
X42986Y31390D01*
X40798Y31610D02*
X41879Y30528D01*
X41081Y31610D02*
X42162Y30528D01*
X41363Y31610D02*
X42445Y30528D01*
X42458Y31647D02*
X42640Y31465D01*
X42446Y31981D02*
X42640Y32175D01*
X40758Y31990D02*
X41647Y32879D01*
X41607Y31990D02*
X42009Y32392D01*
X31029Y31990D02*
X41658D01*
X40475D02*
X41902Y33417D01*
X41994Y32394D02*
X42169Y32219D01*
X41971Y33203D02*
X42087Y33319D01*
X42015Y33391D02*
X42223Y33183D01*
X39910Y31990D02*
X41646Y33727D01*
X40192Y31990D02*
X41737Y33535D01*
X39061Y31990D02*
X41685Y34613D01*
X39627Y31990D02*
X42027Y34390D01*
X39344Y31990D02*
X41817Y34463D01*
X42352Y33522D02*
X42408Y33465D01*
X41970Y34398D02*
X42178Y34190D01*
X42223Y34428D02*
X42334Y34317D01*
X42236Y32434D02*
X42640Y32031D01*
X42322Y32140D02*
X42728Y32546D01*
X42128Y32228D02*
X42644Y32744D01*
X42384Y33135D02*
X42646Y32873D01*
X42387Y32566D02*
X42743Y32210D01*
X42379Y33045D02*
X42469Y33135D01*
X42340D02*
X42482D01*
X42408Y33465D02*
X42550D01*
X42432Y33949D02*
X42885Y34402D01*
X42379Y34555D02*
X42475Y34458D01*
X42199Y34182D02*
X42668Y34651D01*
X42123Y34204D02*
X42646Y34727D01*
X42440Y33671D02*
X42647Y33879D01*
X42433Y33652D02*
X42902Y33183D01*
X42458Y34758D02*
X42616Y34600D01*
X42440Y33928D02*
X42648Y33720D01*
X42433Y33948D02*
X42885Y34400D01*
X42480Y31732D02*
X42640Y31892D01*
Y31390D02*
Y32210D01*
X42469Y31919D02*
X42640Y31748D01*
Y32175D02*
X42675Y32210D01*
X42640Y31390D02*
X43460D01*
X42715D02*
X43576Y30528D01*
X42640Y32210D02*
X43112D01*
X43460Y31390D02*
Y32022D01*
X43734Y32295D01*
X42675Y32210D02*
X42888Y32423D01*
X42460Y32777D02*
X43026Y32210D01*
X42458Y32841D02*
X42617Y33000D01*
X42482Y33135D02*
X42668Y32949D01*
X42958Y32210D02*
X43150Y32402D01*
X43112Y32210D02*
X43410Y32509D01*
X43123Y32396D02*
X43210Y32309D01*
X43315Y32487D02*
X43352Y32450D01*
X43410Y32509D02*
Y32603D01*
X42691Y30528D02*
X43842Y31679D01*
X42973Y30528D02*
X43842Y31397D01*
X42998Y31390D02*
X43842Y30546D01*
X43256Y30528D02*
X43842Y31114D01*
X43281Y31390D02*
X43842Y30829D01*
X43539Y30528D02*
X43842Y30831D01*
X43460Y31581D02*
X43842Y31962D01*
X43460Y31493D02*
X43842Y31112D01*
X43460Y31776D02*
X43842Y31394D01*
X43460Y31864D02*
X43842Y32245D01*
X43479Y32040D02*
X43842Y31677D01*
X43620Y32182D02*
X43842Y31960D01*
X43790Y32476D02*
X43842Y32528D01*
X43759Y32326D02*
X43842Y32243D01*
X43790Y32860D02*
X43842Y32809D01*
X43790Y32578D02*
X43842Y32526D01*
X43790Y32759D02*
X43842Y32811D01*
X42709Y33375D02*
X42805Y33471D01*
X42667Y33417D02*
X42901Y33182D01*
X43304Y33122D02*
X43410Y33228D01*
X42850Y33233D02*
X43008Y33392D01*
X42970Y33398D02*
X43178Y33190D01*
X43223Y33428D02*
X43410Y33240D01*
X42516Y33465D02*
X42678Y33627D01*
X42567Y34084D02*
X42678Y33973D01*
X42708Y34225D02*
X42804Y34129D01*
X42850Y34366D02*
X42885Y34331D01*
X43106Y33206D02*
X43410Y33510D01*
Y32997D02*
Y33603D01*
X42885Y34176D02*
Y34402D01*
X43379Y33554D02*
X43410Y33523D01*
X43215Y34176D02*
Y34424D01*
X43790Y33890D02*
X43842Y33942D01*
X43790Y33709D02*
X43842Y33657D01*
X43379Y34045D02*
X43410Y34076D01*
X43790Y33992D02*
X43842Y33940D01*
X43790Y33143D02*
X43842Y33092D01*
X43790Y33042D02*
X43842Y33094D01*
X43790Y33608D02*
X43842Y33659D01*
X43790Y33325D02*
X43842Y33376D01*
X43790Y33426D02*
X43842Y33374D01*
X43215Y34284D02*
X43410Y34089D01*
X43223Y34172D02*
X43410Y34359D01*
X43304Y34478D02*
X43410Y34372D01*
Y33997D02*
Y34603D01*
X43790Y34173D02*
X43842Y34225D01*
X43790Y34557D02*
X43842Y34506D01*
X43790Y34275D02*
X43842Y34223D01*
X43790Y34456D02*
X43842Y34508D01*
X36798Y35893D02*
X40701Y31990D01*
X37081Y35893D02*
X40983Y31990D01*
X36232Y35893D02*
X40135Y31990D01*
X36515Y35893D02*
X40418Y31990D01*
X37364Y35893D02*
X41266Y31990D01*
X37646Y35893D02*
X41549Y31990D01*
X38778D02*
X41643Y34855D01*
X37929Y35893D02*
X41729Y32093D01*
X38495Y35893D02*
X41644Y32744D01*
X36233Y31990D02*
X41470Y37228D01*
X36516Y31990D02*
X41611Y37086D01*
X38777Y35894D02*
X41684Y32986D01*
X36798Y31990D02*
X41753Y36944D01*
X39231Y36288D02*
X41646Y33873D01*
X39315Y36487D02*
X41737Y34065D01*
X39315Y37053D02*
X41648Y34720D01*
X39333Y37318D02*
X41678Y34973D01*
X39421Y37512D02*
X41804Y35129D01*
X37364Y31990D02*
X42035Y36661D01*
X37647Y31990D02*
X42177Y36520D01*
X38212Y35893D02*
X41897Y32208D01*
X37930Y31990D02*
X42318Y36378D01*
X38213Y31990D02*
X42460Y36237D01*
X38495Y31990D02*
X42601Y36096D01*
X38948Y36005D02*
X41816Y33137D01*
X39089Y36147D02*
X42027Y33210D01*
X39315Y36770D02*
X41902Y34183D01*
X37081Y31990D02*
X41894Y36803D01*
X35950Y31990D02*
X43410Y39450D01*
X35101Y31990D02*
X43410Y40299D01*
X35667Y31990D02*
X43410Y39733D01*
X35384Y31990D02*
X43410Y40016D01*
X39704Y37795D02*
X42643Y34855D01*
X39845Y37937D02*
X42728Y35054D01*
X39562Y37654D02*
X42008Y35208D01*
X39987Y38078D02*
X42885Y35180D01*
X40128Y38219D02*
X42885Y35462D01*
X37405Y37405D02*
X40840Y40840D01*
X37672Y37389D02*
X40840Y40557D01*
X36839Y37405D02*
X40840Y41406D01*
X37122Y37405D02*
X40840Y41123D01*
X37963Y37114D02*
X40840Y39991D01*
X38104Y36973D02*
X40840Y39709D01*
X37822Y37256D02*
X40840Y40274D01*
X39415Y37506D02*
X41164Y39255D01*
X39146Y37775D02*
X40840Y39469D01*
X35708Y37405D02*
X40043Y41740D01*
X35991Y37405D02*
X40326Y41740D01*
X36890D02*
X40001Y38629D01*
X36556Y37405D02*
X40840Y41689D01*
X36274Y37405D02*
X40609Y41740D01*
X37173D02*
X40142Y38771D01*
X37456Y41740D02*
X40284Y38912D01*
X37739Y41740D02*
X40425Y39054D01*
X38304Y41740D02*
X40708Y39337D01*
X38022Y41740D02*
X40566Y39195D01*
X40269Y38361D02*
X42885Y35745D01*
X40694Y38785D02*
X43410Y36069D01*
X40411Y38502D02*
X41475Y37438D01*
X40552Y38644D02*
X41627Y37569D01*
X40977Y39068D02*
X43410Y36634D01*
X40835Y38926D02*
X43410Y36352D01*
X41118Y39209D02*
X43410Y36917D01*
X39315Y36769D02*
X43267Y40721D01*
X39315Y36487D02*
X43395Y40566D01*
X39315Y37052D02*
X43842Y41579D01*
X39399Y37419D02*
X43842Y41862D01*
X41220Y39673D02*
X43410Y37483D01*
X41220Y39390D02*
X43410Y37200D01*
X41220Y40522D02*
X43410Y38332D01*
X41220Y39956D02*
X43410Y37766D01*
X41220Y40239D02*
X43410Y38049D01*
X42460Y34823D02*
X42885Y35248D01*
X42237Y35165D02*
X42884Y35813D01*
X42387Y35033D02*
X42885Y35531D01*
Y35176D02*
Y35812D01*
X43215Y35698D02*
X43410Y35503D01*
X43215Y35415D02*
X43410Y35220D01*
X43215Y35295D02*
X43410Y35490D01*
X41995Y35207D02*
X42742Y35954D01*
X41483Y37213D02*
X42885Y35812D01*
X41976Y37187D02*
X43167Y35997D01*
X43117Y36046D02*
X43410Y36339D01*
X42834Y36329D02*
X43410Y36905D01*
X43215Y35176D02*
Y35880D01*
X43410Y34997D02*
Y40559D01*
X43215Y35861D02*
X43410Y36056D01*
X43790Y34739D02*
X43842Y34791D01*
X43315Y35113D02*
X43410Y35208D01*
X43790Y35022D02*
X43842Y35074D01*
X43790Y35123D02*
X43842Y35071D01*
X43790Y34840D02*
X43842Y34789D01*
X43790Y35588D02*
X43842Y35639D01*
X43790Y35305D02*
X43842Y35356D01*
X43790Y35406D02*
X43842Y35354D01*
X41989Y37207D02*
X43410Y35786D01*
X43215Y35578D02*
X43410Y35773D01*
X42976Y36188D02*
X43410Y36622D01*
X43790Y35870D02*
X43842Y35922D01*
X43790Y35972D02*
X43842Y35920D01*
X43790Y32430D02*
Y40860D01*
X43842Y30528D02*
Y48999D01*
X43790Y36254D02*
X43842Y36203D01*
X43790Y35689D02*
X43842Y35637D01*
X43790Y36153D02*
X43842Y36205D01*
X42552Y36612D02*
X43410Y37470D01*
X42693Y36470D02*
X43410Y37187D01*
X43790Y37103D02*
X43842Y37051D01*
X42410Y36753D02*
X43410Y37753D01*
X41836Y37594D02*
X43410Y39167D01*
X41986Y37178D02*
X43410Y38602D01*
X41525Y41065D02*
X43410Y39180D01*
X41478Y40547D02*
X43410Y38614D01*
X41633Y40674D02*
X43410Y38897D01*
X42127Y37036D02*
X43410Y38319D01*
X42269Y36895D02*
X43410Y38036D01*
X41993Y37467D02*
X43410Y38884D01*
X43790Y38982D02*
X43842Y39033D01*
X43790Y39083D02*
X43842Y39031D01*
X43790Y37386D02*
X43842Y37334D01*
X43790Y37285D02*
X43842Y37336D01*
X43790Y37669D02*
X43842Y37617D01*
X43790Y37567D02*
X43842Y37619D01*
X43790Y36537D02*
X43842Y36486D01*
X43790Y36436D02*
X43842Y36488D01*
X43790Y37002D02*
X43842Y37053D01*
X43790Y36719D02*
X43842Y36771D01*
X43790Y36820D02*
X43842Y36768D01*
X43790Y38699D02*
X43842Y38751D01*
X43790Y38517D02*
X43842Y38466D01*
X43790Y39366D02*
X43842Y39314D01*
X43790Y38800D02*
X43842Y38748D01*
X43790Y39265D02*
X43842Y39316D01*
X43790Y37952D02*
X43842Y37900D01*
X43790Y37850D02*
X43842Y37902D01*
X43790Y38416D02*
X43842Y38468D01*
X43790Y38133D02*
X43842Y38185D01*
X43790Y38234D02*
X43842Y38183D01*
X30385Y40002D02*
X30435Y40052D01*
X30708Y40245D02*
X31148D01*
X30767Y39661D02*
X31012Y39416D01*
X30796Y39915D02*
X31154Y39557D01*
X30758Y39915D02*
X31180D01*
X30788Y39839D02*
X30864Y39915D01*
X30233Y40253D02*
X30453Y40034D01*
X30185Y40370D02*
Y42858D01*
X30515Y40438D02*
X30708Y40245D01*
X30515Y40479D02*
X30749Y40245D01*
X30515Y40438D02*
Y42926D01*
Y40761D02*
X31031Y40245D01*
X30515Y41044D02*
X31233Y40327D01*
X31079Y39915D02*
X31295Y39698D01*
X30911Y40245D02*
X31893Y41227D01*
X31953Y39889D02*
X31985Y39857D01*
X31811Y39748D02*
X32002Y39557D01*
X31306Y40357D02*
X31985Y41036D01*
X31537Y40305D02*
X31985Y40753D01*
X30515Y41327D02*
X31534Y40308D01*
X30515Y41610D02*
X31704Y40421D01*
X30515Y40697D02*
X31645Y41827D01*
X30515Y41893D02*
X31973Y40435D01*
X30515Y42458D02*
X31985Y40988D01*
X30527Y40426D02*
X31645Y41544D01*
X30668Y40285D02*
X31752Y41369D01*
X30515Y40980D02*
X31621Y42086D01*
X30527Y40426D02*
X31645Y41544D01*
X30515Y42176D02*
X31985Y40706D01*
X30515Y41546D02*
X31338Y42369D01*
X30515Y41263D02*
X31479Y42227D01*
X30515Y42112D02*
X31055Y42652D01*
X30515Y41829D02*
X31196Y42510D01*
X30515Y42741D02*
X31645Y41611D01*
Y41544D02*
Y42062D01*
X30515Y42677D02*
X30772Y42934D01*
X30515Y42394D02*
X30914Y42793D01*
X31430Y42744D02*
X31544Y42858D01*
X30391Y43119D02*
X30439Y43166D01*
X30512Y42957D02*
X30569Y43014D01*
X31288Y42885D02*
X31350Y42946D01*
X30720Y42987D02*
X31645Y42062D01*
X31147Y43026D02*
X31277Y43156D01*
X30774Y43501D02*
X30956Y43684D01*
X31693Y41427D02*
X31985Y41136D01*
X31571Y42602D02*
X31687Y42718D01*
X31713Y42461D02*
X31932Y42680D01*
X31854Y42319D02*
X32063Y42528D01*
X31800Y42680D02*
X32082D01*
X30953Y43220D02*
X31927Y42247D01*
X31522Y42866D02*
X32195Y42193D01*
X31537Y42865D02*
X31666Y42736D01*
X31805Y43148D02*
X31893Y43060D01*
X31805Y43134D02*
X31879Y43060D01*
X32650D01*
X31724Y43321D02*
X32087Y43684D01*
X31957Y40442D02*
X31985Y40470D01*
Y39630D02*
Y39925D01*
X32365Y39439D02*
Y39532D01*
X32367Y39438D02*
X32413Y39484D01*
X32035Y39455D02*
Y39512D01*
X32315Y40376D02*
X32421Y40270D01*
X31985Y40428D02*
Y41136D01*
X32197Y41390D02*
X32267Y41321D01*
X32315Y40246D02*
Y41204D01*
X32375Y41712D02*
X32477Y41813D01*
X32334Y40254D02*
X33820Y41740D01*
X32587Y40224D02*
X34103Y41740D01*
X32788Y39576D02*
X34952Y41740D01*
X32929Y39434D02*
X35235Y41740D01*
X32646Y39717D02*
X34669Y41740D01*
X32708Y40062D02*
X34386Y41740D01*
X32315Y40800D02*
X33383Y41868D01*
X32315Y40517D02*
X33543Y41746D01*
X32376Y41710D02*
X32959Y42293D01*
X32315Y41083D02*
X33242Y42010D01*
X32268Y41319D02*
X33100Y42151D01*
X32637Y42615D02*
X33455Y41796D01*
X31975Y41926D02*
Y42130D01*
Y42130D02*
X32151Y41954D01*
X31973Y42155D02*
X32165Y42347D01*
X32142Y41945D02*
X32195Y41998D01*
X32525Y41930D02*
Y42339D01*
X32195Y41998D02*
Y42325D01*
X32047Y41947D02*
X32195Y42094D01*
X32047Y41947D02*
X32195Y42094D01*
X31990Y42680D02*
X32062Y42608D01*
X32638Y42538D02*
X32676Y42575D01*
X32638Y42538D02*
X32676Y42575D01*
X34483Y42120D02*
X34884Y42521D01*
X34766Y42120D02*
X34989Y42343D01*
X32525Y42142D02*
X32817Y42434D01*
X35049Y42120D02*
X35212Y42283D01*
X35215Y42284D02*
X35379Y42120D01*
X35395Y42387D02*
X35662Y42120D01*
X32785Y43004D02*
X33669Y42120D01*
X32967Y43684D02*
X34530Y42120D01*
X33227Y42561D02*
X34350Y43684D01*
X34098D02*
X34987Y42795D01*
X33369Y42420D02*
X34633Y43684D01*
X35458Y42607D02*
X35945Y42120D01*
X34947Y43684D02*
X36510Y42120D01*
X35397Y42751D02*
X36330Y43684D01*
X31552D02*
X32176Y43060D01*
X31813Y43126D02*
X32370Y43684D01*
X31270D02*
X31559Y43394D01*
X31514Y43394D02*
X31804Y43684D01*
X32029Y43060D02*
X32653Y43684D01*
X32118D02*
X33682Y42120D01*
X31835Y43684D02*
X32459Y43060D01*
X32595D02*
X33219Y43684D01*
X32312Y43060D02*
X32936Y43684D01*
X30138D02*
X30453Y43369D01*
X30249Y43260D02*
X30673Y43684D01*
X30176Y44212D02*
X30374Y44014D01*
X30108Y43401D02*
X30390Y43684D01*
X30704D02*
X31276Y43112D01*
X31006Y43168D02*
X31521Y43684D01*
X30421D02*
X30604Y43501D01*
X30987Y43684D02*
X31353Y43317D01*
X30926Y43371D02*
X31239Y43684D01*
X30382Y47965D02*
X34334Y44014D01*
X30437D02*
X34389Y47965D01*
X30100D02*
X34051Y44014D01*
X30154D02*
X34106Y47965D01*
X32401Y43684D02*
X33965Y42120D01*
X31003Y44014D02*
X34954Y47965D01*
X30665D02*
X34617Y44014D01*
X30948Y47965D02*
X34899Y44014D01*
X30720D02*
X34671Y47965D01*
X31569Y44014D02*
X35520Y47965D01*
X31797D02*
X35748Y44014D01*
X31231Y47965D02*
X35182Y44014D01*
X31514Y47965D02*
X35465Y44014D01*
X31286D02*
X35237Y47965D01*
X32417Y44014D02*
X36368Y47965D01*
X32645D02*
X36596Y44014D01*
X32079Y47965D02*
X36031Y44014D01*
X32362Y47965D02*
X36314Y44014D01*
X32134D02*
X36086Y47965D01*
X30476Y48295D02*
X30791Y48610D01*
X30586D02*
X30901Y48295D01*
X30193D02*
X30508Y48610D01*
X30303D02*
X30618Y48295D01*
X31151Y48610D02*
X31467Y48295D01*
X31324D02*
X31640Y48610D01*
X30759Y48295D02*
X31074Y48610D01*
X31042Y48295D02*
X31357Y48610D01*
X30869D02*
X31184Y48295D01*
X30555Y48940D02*
X30614Y48999D01*
X30762D02*
X30821Y48940D01*
X30197Y48999D02*
X30256Y48940D01*
X30480Y48999D02*
X30539Y48940D01*
X30273D02*
X30332Y48999D01*
X31328D02*
X31387Y48940D01*
X31404D02*
X31463Y48999D01*
X30838Y48940D02*
X30897Y48999D01*
X31121Y48940D02*
X31180Y48999D01*
X31045D02*
X31104Y48940D01*
X31434Y48610D02*
X31749Y48295D01*
X30181Y44324D02*
X33823Y47965D01*
X31607Y48295D02*
X31923Y48610D01*
X31717D02*
X32032Y48295D01*
X32000Y48610D02*
X32315Y48295D01*
X31851Y44014D02*
X35803Y47965D01*
X32173Y48295D02*
X32488Y48610D01*
X32566D02*
X32881Y48295D01*
X32456D02*
X32771Y48610D01*
X31687Y48940D02*
X31746Y48999D01*
X31890Y48295D02*
X32205Y48610D01*
X31611Y48999D02*
X31670Y48940D01*
X31970D02*
X32029Y48999D01*
X31894D02*
X31953Y48940D01*
X32253D02*
X32311Y48999D01*
X32283Y48610D02*
X32598Y48295D01*
X32177Y48999D02*
X32236Y48940D01*
X32535D02*
X32594Y48999D01*
X32460D02*
X32518Y48940D01*
X32945Y42844D02*
X33784Y43684D01*
X32684D02*
X34248Y42120D01*
X32739Y48295D02*
X33054Y48610D01*
X32803Y42986D02*
X33501Y43684D01*
X33086Y42703D02*
X34067Y43684D01*
X33249D02*
X34813Y42120D01*
X33304Y48295D02*
X33620Y48610D01*
X32945Y42844D02*
X33784Y43684D01*
X33414Y48610D02*
X33729Y48295D01*
X33587D02*
X33902Y48610D01*
X33697D02*
X34012Y48295D01*
X32848Y48610D02*
X33164Y48295D01*
X33131Y48610D02*
X33447Y48295D01*
X33021D02*
X33337Y48610D01*
X34263D02*
X34578Y48295D01*
X34436D02*
X34751Y48610D01*
X33870Y48295D02*
X34185Y48610D01*
X34153Y48295D02*
X34468Y48610D01*
X33980D02*
X34295Y48295D01*
X33532Y43684D02*
X35096Y42120D01*
X33652Y42137D02*
X35198Y43684D01*
X33815D02*
X34884Y42615D01*
X33510Y42278D02*
X34916Y43684D01*
X33918Y42120D02*
X35481Y43684D01*
X34200Y42120D02*
X35764Y43684D01*
X34381D02*
X35207Y42858D01*
X35229Y43684D02*
X36793Y42120D01*
X35457Y42528D02*
X36613Y43684D01*
X34664D02*
X36227Y42120D01*
X32700Y44014D02*
X36651Y47965D01*
X34545Y48610D02*
X34861Y48295D01*
X35111Y48610D02*
X35426Y48295D01*
X34719D02*
X35034Y48610D01*
X35284Y48295D02*
X35600Y48610D01*
X35219Y42856D02*
X36047Y43684D01*
X35394Y48610D02*
X35709Y48295D01*
X36243Y48610D02*
X36558Y48295D01*
X35567D02*
X35882Y48610D01*
X34439Y48999D02*
X34498Y48940D01*
X34515D02*
X34574Y48999D01*
X34157D02*
X34215Y48940D01*
X34232D02*
X34291Y48999D01*
X34798Y48940D02*
X34857Y48999D01*
X34828Y48610D02*
X35144Y48295D01*
X34722Y48999D02*
X34781Y48940D01*
X35081D02*
X35140Y48999D01*
X35005D02*
X35064Y48940D01*
X33101D02*
X33160Y48999D01*
X33308D02*
X33367Y48940D01*
X32742Y48999D02*
X32801Y48940D01*
X33025Y48999D02*
X33084Y48940D01*
X32818D02*
X32877Y48999D01*
X33874D02*
X33933Y48940D01*
X33950D02*
X34009Y48999D01*
X33384Y48940D02*
X33443Y48999D01*
X33667Y48940D02*
X33726Y48999D01*
X33591D02*
X33650Y48940D01*
X35001Y48295D02*
X35317Y48610D01*
X35677D02*
X35992Y48295D01*
X35647Y48940D02*
X35706Y48999D01*
X35850Y48295D02*
X36165Y48610D01*
X36416Y48295D02*
X36731Y48610D01*
X36525D02*
X36841Y48295D01*
X35854Y48999D02*
X35913Y48940D01*
X36133Y48295D02*
X36448Y48610D01*
X35960D02*
X36275Y48295D01*
X35930Y48940D02*
X35988Y48999D01*
X36137D02*
X36195Y48940D01*
X35288Y48999D02*
X35347Y48940D01*
X35571Y48999D02*
X35630Y48940D01*
X35364D02*
X35423Y48999D01*
X36702D02*
X36761Y48940D01*
X36778D02*
X36837Y48999D01*
X36212Y48940D02*
X36271Y48999D01*
X36495Y48940D02*
X36554Y48999D01*
X36419D02*
X36478Y48940D01*
X35512Y43684D02*
X37076Y42120D01*
X35795Y43684D02*
X37359Y42120D01*
X35332D02*
X36896Y43684D01*
X33669Y42120D02*
X37508D01*
X37312D02*
X37424Y42232D01*
X35897Y42120D02*
X37461Y43684D01*
X36078D02*
X37406Y42355D01*
X37825Y42545D02*
X40024D01*
X35615Y42120D02*
X37178Y43684D01*
X36180Y42120D02*
X37744Y43684D01*
X36361D02*
X37506Y42538D01*
X36463Y42120D02*
X38027Y43684D01*
X36746Y42120D02*
X38310Y43684D01*
X37029Y42120D02*
X38593Y43684D01*
X37775D02*
X38914Y42545D01*
X38868D02*
X40007Y43684D01*
X38302Y42545D02*
X39441Y43684D01*
X38870Y41740D02*
X40840Y39770D01*
X38587Y41740D02*
X40840Y39487D01*
X33590Y41740D02*
X40642D01*
X39153D02*
X40840Y40053D01*
X39719Y41740D02*
X40840Y40619D01*
X39436Y41740D02*
X40840Y40336D01*
X40567Y41740D02*
X40840Y41467D01*
X40002Y41740D02*
X40840Y40902D01*
X40284Y41740D02*
X40840Y41184D01*
X40339Y42251D02*
X40470Y42120D01*
X40159D02*
X40499D01*
X40265Y42178D02*
X40730Y42642D01*
X40423Y42120D02*
X40821Y42518D01*
X40480Y42393D02*
X40635Y42238D01*
X40622Y42534D02*
X40840Y42316D01*
X37209Y43684D02*
X38348Y42545D01*
X37492Y43684D02*
X38631Y42545D01*
X36644Y43684D02*
X37742Y42585D01*
X36926Y43684D02*
X38065Y42545D01*
X38341Y43684D02*
X39479Y42545D01*
X38623Y43684D02*
X39762Y42545D01*
X37768Y42576D02*
X38875Y43684D01*
X38058D02*
X39197Y42545D01*
X38020D02*
X39158Y43684D01*
X38585Y42545D02*
X39724Y43684D01*
X38906D02*
X40035Y42555D01*
X38640Y44014D02*
X39498Y44872D01*
X38923Y44014D02*
X39498Y44589D01*
X38357Y44014D02*
X39498Y45155D01*
X39488Y44014D02*
X39573Y44099D01*
X39498Y44372D02*
Y45160D01*
X39205Y44014D02*
X39501Y44310D01*
X39189Y43684D02*
X40176Y42697D01*
X39151Y42545D02*
X40297Y43691D01*
X39472Y43684D02*
X40318Y42838D01*
X39755Y43684D02*
X40459Y42980D01*
X40024Y42545D02*
X40691Y43212D01*
X39999Y42545D02*
X41001Y43546D01*
X40038Y43684D02*
X40600Y43121D01*
X39434Y42545D02*
X42302Y45414D01*
X39717Y42545D02*
X42652Y45480D01*
X40309Y43695D02*
X40750Y43254D01*
X40602Y43968D02*
X41003Y43567D01*
X40460Y43827D02*
X41012Y43275D01*
X40365Y43732D02*
X40672Y44039D01*
X41220Y39390D02*
Y40606D01*
Y40371D02*
X41384Y40535D01*
X41525Y41348D02*
X43410Y39463D01*
X43599Y41053D02*
X43842Y41296D01*
X40840Y39469D02*
Y41747D01*
X41525Y41631D02*
X43410Y39746D01*
X41525Y42196D02*
X43410Y40311D01*
X41525Y41914D02*
X43410Y40029D01*
X41220Y39806D02*
X43842Y42427D01*
X41525Y42479D02*
X43261Y40743D01*
X41525Y42762D02*
X43317Y40970D01*
X41525Y41034D02*
Y42867D01*
X41572Y42998D02*
X43505Y41065D01*
X41525Y41242D02*
X43842Y43559D01*
X43790Y40396D02*
X43842Y40448D01*
X43790Y40214D02*
X43842Y40163D01*
X43790Y40679D02*
X43842Y40730D01*
X43790Y40497D02*
X43842Y40445D01*
X43790Y39649D02*
X43842Y39597D01*
X43790Y39547D02*
X43842Y39599D01*
X43790Y40113D02*
X43842Y40165D01*
X43790Y39830D02*
X43842Y39882D01*
X43790Y39931D02*
X43842Y39880D01*
X41220Y40089D02*
X43842Y42710D01*
X41220Y39523D02*
X43842Y42145D01*
X41525Y41525D02*
X43842Y43842D01*
X41665Y40816D02*
X43842Y42993D01*
X41569Y41004D02*
X43842Y43276D01*
X43771Y40943D02*
X43842Y41013D01*
X43790Y40780D02*
X43842Y40728D01*
X42421Y42998D02*
X43842Y41577D01*
X41855Y42998D02*
X43842Y41011D01*
X42138Y42998D02*
X43842Y41294D01*
X40840Y42231D02*
Y42505D01*
X41012Y43275D02*
X41041Y43304D01*
X40843Y43275D02*
X41055D01*
X41525Y42656D02*
X41866Y42998D01*
X41525Y42374D02*
X42149Y42998D01*
X41516Y42930D02*
X41583Y42998D01*
X40719Y44134D02*
X41077Y43776D01*
X40720Y44415D02*
X41214Y43922D01*
X40720Y44698D02*
X41413Y44006D01*
X40720Y44981D02*
X41686Y44015D01*
X40713Y44107D02*
X42019Y45414D01*
X40720Y45264D02*
X41969Y44015D01*
X40720Y44680D02*
X41471Y45431D01*
X41606Y45414D02*
X42394D01*
X40720Y44397D02*
X41737Y45414D01*
X41525Y42091D02*
X42432Y42998D01*
X41508D02*
X42492D01*
X41508Y44015D02*
X42492D01*
X42845Y43140D02*
X43842Y42143D01*
X42671Y43030D02*
X43842Y41860D01*
X42960Y43307D02*
X43842Y42425D01*
X42999Y43551D02*
X43842Y42708D01*
X41358Y45475D02*
X43842Y42991D01*
X41525Y41808D02*
X43842Y44125D01*
X42268Y45414D02*
X43842Y43840D01*
X41702Y45414D02*
X43842Y43274D01*
X41985Y45414D02*
X43842Y43557D01*
X42925Y43774D02*
X43842Y44690D01*
X42998Y43563D02*
X43842Y44407D01*
X42532Y45432D02*
X43842Y44122D01*
X42788Y43920D02*
X43842Y44973D01*
X42591Y44005D02*
X43842Y45256D01*
X33494Y47965D02*
X37445Y44014D01*
X33549D02*
X37500Y47965D01*
X32983Y44014D02*
X36934Y47965D01*
X33266Y44014D02*
X37217Y47965D01*
X34963Y44014D02*
X38618Y47669D01*
X35246Y44014D02*
X38759Y47527D01*
X33777Y47965D02*
X37728Y44014D01*
X34680D02*
X38476Y47810D01*
X34397Y44014D02*
X38335Y47952D01*
X33831Y44014D02*
X37783Y47965D01*
X34059D02*
X38011Y44014D01*
X32928Y47965D02*
X36879Y44014D01*
X33211Y47965D02*
X37162Y44014D01*
X34625Y47965D02*
X38576Y44014D01*
X34908Y47965D02*
X38859Y44014D01*
X34114D02*
X38066Y47965D01*
X34342D02*
X38293Y44014D01*
X34114D02*
X38066Y47965D01*
X36377Y44014D02*
X39325Y46962D01*
X36660Y44014D02*
X39466Y46820D01*
X35811Y44014D02*
X39042Y47245D01*
X36094Y44014D02*
X39184Y47103D01*
X37791Y44014D02*
X39866Y46089D01*
X38074Y44014D02*
X39866Y45806D01*
X36943Y44014D02*
X39608Y46679D01*
X37508Y44014D02*
X39866Y46372D01*
X37226Y44014D02*
X39749Y46537D01*
X35191Y47965D02*
X39142Y44014D01*
X35474Y47965D02*
X39425Y44014D01*
X35528D02*
X38901Y47386D01*
X35756Y47965D02*
X39529Y44192D01*
X36039Y47965D02*
X39498Y44507D01*
X36605Y47965D02*
X39498Y45072D01*
X36322Y47965D02*
X39498Y44789D01*
X36888Y47965D02*
X39525Y45328D01*
X37454Y47965D02*
X39785Y45633D01*
X37171Y47965D02*
X39627Y45508D01*
X36981Y48295D02*
X37297Y48610D01*
X37091D02*
X37406Y48295D01*
X36698D02*
X37014Y48610D01*
X36808D02*
X37124Y48295D01*
X37657Y48610D02*
X37972Y48295D01*
X37830D02*
X38038Y48503D01*
X37264Y48295D02*
X37579Y48610D01*
X37547Y48295D02*
X37862Y48610D01*
X37374D02*
X37689Y48295D01*
X37344Y48940D02*
X37403Y48999D01*
X37551D02*
X37610Y48940D01*
X36985Y48999D02*
X37044Y48940D01*
X37268Y48999D02*
X37327Y48940D01*
X37061D02*
X37120Y48999D01*
X37627Y48940D02*
X37685Y48999D01*
X37909Y48940D02*
X37968Y48999D01*
X37834D02*
X37892Y48940D01*
X38019Y47965D02*
X39866Y46118D01*
X37736Y47965D02*
X39866Y45835D01*
X38113Y48295D02*
X38179Y48362D01*
X37931Y48610D02*
X38246Y48295D01*
X38302Y47965D02*
X39866Y46401D01*
X38116Y48892D02*
X40672Y46336D01*
X38554Y48454D02*
X39100Y48999D01*
X38322Y47965D02*
X39866Y46420D01*
X38554Y48454D02*
X39100Y48999D01*
X38116D02*
X41080Y46036D01*
X38399Y48999D02*
X41159Y46239D01*
X38130Y48878D02*
X38251Y48999D01*
X38413Y48595D02*
X38817Y48999D01*
X38271Y48737D02*
X38534Y48999D01*
X38682D02*
X41298Y46383D01*
X38965Y48999D02*
X41495Y46469D01*
X38696Y48312D02*
X39383Y48999D01*
X38978Y48029D02*
X39948Y48999D01*
X38837Y48171D02*
X39665Y48999D01*
X40265Y45640D02*
X40390Y45764D01*
X40196Y45788D02*
X40390Y45594D01*
X40720Y44963D02*
X41281Y45524D01*
X40720Y45529D02*
X41076Y45885D01*
X40720Y45246D02*
X41148Y45674D01*
X40196Y45667D02*
Y46345D01*
X40390Y45555D02*
Y46151D01*
X39866Y45667D02*
Y46420D01*
X40196Y45853D02*
X40390Y46047D01*
X40196Y46071D02*
X40390Y45877D01*
X40720Y44156D02*
Y46219D01*
Y46113D02*
X41134Y45699D01*
X40720Y45811D02*
X41190Y46281D01*
X40720Y45547D02*
X42252Y44015D01*
X40720Y45830D02*
X42537Y44013D01*
X42035Y44015D02*
X43842Y45822D01*
X42721Y45526D02*
X43842Y44405D01*
X42318Y44015D02*
X43842Y45539D01*
X42853Y45676D02*
X43842Y44688D01*
X42924Y45888D02*
X43842Y44971D01*
X40379Y48999D02*
X43842Y45537D01*
X41468Y44013D02*
X43842Y46387D01*
X40720Y46094D02*
X43625Y48999D01*
X40945D02*
X43842Y46102D01*
X40662Y48999D02*
X43842Y45819D01*
X42780Y46315D02*
X43842Y45254D01*
X41752Y44015D02*
X43842Y46104D01*
X42861Y45689D02*
X43842Y46670D01*
X42921Y46032D02*
X43842Y46953D01*
X39544Y47464D02*
X41080Y48999D01*
X39686Y47322D02*
X41362Y48999D01*
X39120Y47888D02*
X40231Y48999D01*
X39403Y47605D02*
X40797Y48999D01*
X40196Y46136D02*
X40301Y46240D01*
X40196Y46345D02*
X40390Y46151D01*
X41606Y46481D02*
X42394D01*
X39248Y48999D02*
X41766Y46481D01*
X39531Y48999D02*
X42049Y46481D01*
X39261Y47747D02*
X40514Y48999D01*
X39813D02*
X42332Y46481D01*
X39827Y47181D02*
X41645Y48999D01*
X40096D02*
X42762Y46334D01*
X40393Y46615D02*
X42777Y48999D01*
X39968Y47039D02*
X41928Y48999D01*
X40251Y46757D02*
X42494Y48999D01*
X40110Y46898D02*
X42211Y48999D01*
X40534Y46474D02*
X43059Y48999D01*
X41273Y46364D02*
X43842Y48933D01*
X41673Y46481D02*
X43842Y48650D01*
X41955Y46481D02*
X43842Y48367D01*
X42704Y46381D02*
X43842Y47519D01*
X42842Y46236D02*
X43842Y47236D01*
X43773Y48999D02*
X43842Y48931D01*
X42509Y46468D02*
X43842Y47801D01*
X42238Y46481D02*
X43842Y48084D01*
X40675Y46332D02*
X43342Y48999D01*
X41228D02*
X43842Y46385D01*
X42076Y48999D02*
X43842Y47234D01*
X41511Y48999D02*
X43842Y46668D01*
X41793Y48999D02*
X43842Y46951D01*
X42642Y48999D02*
X43842Y47799D01*
X42359Y48999D02*
X43842Y47517D01*
X43490Y48999D02*
X43842Y48648D01*
X42925Y48999D02*
X43842Y48082D01*
X43208Y48999D02*
X43842Y48365D01*
D21*
X27273Y41310D02*
X27323Y41360D01*
X27420Y41263D01*
Y41240D02*
Y41263D01*
X27432Y40472D02*
Y40500D01*
X27867Y40716D02*
X27990D01*
X28034Y40760D01*
X28266D01*
X24630Y43494D02*
Y43598D01*
X25980Y42940D02*
X26950Y41970D01*
Y41570D02*
Y41970D01*
X43050Y33800D02*
Y34800D01*
X29170Y43849D02*
Y43880D01*
X30690Y43250D02*
X31810Y42130D01*
Y41544D02*
Y42130D01*
Y41544D02*
X32150Y41204D01*
X29680Y44280D02*
X29920D01*
X26610Y47350D02*
X29680Y44280D01*
X25650Y47350D02*
X26610D01*
X21830Y48350D02*
Y48775D01*
X23980Y42750D02*
X24450D01*
X20910Y45820D02*
X23980Y42750D01*
X40555Y44156D02*
Y46219D01*
X29170Y43849D02*
X40248D01*
X40555Y44156D01*
X21650Y48350D02*
X21830D01*
X24960Y41586D02*
X25236Y41310D01*
X24378Y43850D02*
X24630Y43598D01*
X23550Y43850D02*
X24378D01*
X21650Y45750D02*
X23550Y43850D01*
X29630Y37640D02*
X29640Y37650D01*
Y37810D01*
X32430Y39700D02*
Y39980D01*
Y39700D02*
X34570Y37560D01*
X32360Y41930D02*
Y42570D01*
X32350D02*
X32360D01*
X32090Y41660D02*
X32360Y41930D01*
X31350Y40080D02*
X31370Y40100D01*
X30640Y40080D02*
X31350D01*
X30350Y40370D02*
X30640Y40080D01*
X30350Y40370D02*
Y42926D01*
X29796Y43480D02*
X30350Y42926D01*
X28520Y43480D02*
X29796D01*
X24650Y47350D02*
X28520Y43480D01*
X40031Y44766D02*
Y46488D01*
X24650Y48350D02*
X25650D01*
X23650D02*
X24650D01*
X22650D02*
X23650D01*
X25650D02*
X28410D01*
X21650Y45750D02*
Y47350D01*
X42050Y33800D02*
X43050Y34800D01*
X28760Y39780D02*
X30530D01*
X43050Y34800D02*
Y35880D01*
X24920Y40580D02*
Y40585D01*
X28430Y40110D02*
X28760Y39780D01*
X28430Y40110D02*
Y40596D01*
X28266Y40760D02*
X28430Y40596D01*
X27310Y40350D02*
X27432Y40472D01*
X37999Y48775D02*
X40555Y46219D01*
X21830Y48775D02*
X37999D01*
X38390Y48130D02*
X40031Y46488D01*
X28410Y48350D02*
X28630Y48130D01*
X38390D01*
X41600Y37330D02*
X43050Y35880D01*
X41600Y37330D02*
X41610Y37340D01*
X41760D01*
X24450Y42549D02*
Y42750D01*
Y42549D02*
X24960Y42039D01*
Y41586D02*
Y42039D01*
X27273Y41310D02*
X27867Y40716D01*
X24630Y43494D02*
X27164Y40960D01*
X27368D01*
X27848Y40480D01*
X27180D02*
Y40686D01*
Y40480D02*
X27310Y40350D01*
X23498Y39562D02*
X24541D01*
X24850Y39870D01*
X24620Y41330D02*
Y41990D01*
Y41330D02*
X24756Y41194D01*
X24956D01*
X22780Y40260D02*
X24540D01*
X22350Y40690D02*
X22780Y40260D01*
X29640Y37810D02*
X31850Y40020D01*
Y40200D01*
X24920Y40585D02*
X25236Y40902D01*
Y41310D01*
X20910Y45820D02*
Y47950D01*
X21310Y48350D01*
X21650D01*
X42550Y33300D02*
X43050Y32800D01*
X42340Y33300D02*
X42550D01*
X42050Y33590D02*
X42340Y33300D01*
X42050Y33590D02*
Y33800D01*
X25950Y42940D02*
X25980D01*
X25760Y43130D02*
X25950Y42940D01*
X27848Y40480D02*
X28150D01*
X30300Y37890D02*
Y37960D01*
X29085Y37895D02*
Y37905D01*
X29065D02*
Y39145D01*
X30300Y37960D02*
X32660D01*
X29065Y37905D02*
X29085D01*
X32150Y39630D02*
Y41204D01*
Y39630D02*
X32200Y39580D01*
Y39250D02*
Y39580D01*
X24956Y40944D02*
Y41194D01*
X26950Y41570D02*
X27200D01*
X22428Y45579D02*
Y45979D01*
X22828D01*
X22028D02*
X22428D01*
X24370Y41990D02*
X24620D01*
X22255Y48350D02*
X22650D01*
Y47955D02*
Y48350D01*
X23650Y47955D02*
Y48350D01*
X24650Y47955D02*
Y48350D01*
X25760Y43130D02*
Y43380D01*
Y42880D02*
Y43130D01*
X25510D02*
X25760D01*
X26010D01*
X25650Y47955D02*
Y48350D01*
X30530Y31860D02*
Y32110D01*
X30280D02*
X30530D01*
Y32360D01*
X34320Y37560D02*
X34570D01*
Y37810D01*
Y37560D02*
X34820D01*
X42050Y31405D02*
Y31800D01*
Y32195D01*
Y31800D02*
X42445D01*
X32430Y39980D02*
Y40230D01*
X32090Y41660D02*
Y41910D01*
Y41660D02*
X32340D01*
X32430Y39980D02*
X32680D01*
X32350Y42570D02*
X32600D01*
X32100D02*
X32350D01*
X34920D02*
X35170D01*
Y42320D02*
Y42570D01*
X35420D01*
X35170D02*
Y42820D01*
X39538Y44766D02*
X40031D01*
X42000Y45237D02*
Y45947D01*
X41113D02*
X42000D01*
Y46657D01*
Y45947D02*
X42887D01*
X27016Y40850D02*
X27180Y40686D01*
X26770Y40850D02*
X27016D01*
X24200Y43420D02*
X26770Y40850D01*
D22*
X22200Y47900D02*
X22650Y48350D01*
X22200Y47163D02*
Y47900D01*
Y47163D02*
X22428Y46935D01*
Y45979D02*
Y46935D01*
X30530Y32110D02*
X30640D01*
X30950Y31800D01*
X42050D01*
X39125Y37485D02*
X39150Y37510D01*
X39125Y36451D02*
Y37485D01*
X38757Y36083D02*
X39125Y36451D01*
X29075Y36083D02*
X38757D01*
X40980Y42730D02*
X41030Y42680D01*
Y39390D02*
Y42680D01*
X39150Y37510D02*
X41030Y39390D01*
X43050Y31800D02*
Y31880D01*
X43600Y32430D01*
X43580Y40860D02*
X43600D01*
X43520Y40800D02*
X43580Y40860D01*
X40730Y41990D02*
X40790Y41930D01*
X43600Y32430D02*
Y40860D01*
X32650Y42870D02*
X33590Y41930D01*
X31800Y42870D02*
X32650D01*
X31540Y43130D02*
X31800Y42870D01*
X33590Y41930D02*
X40790D01*
X24832Y45975D02*
X25610D01*
X24386Y45529D02*
X24832Y45975D01*
X23529Y45529D02*
X24386D01*
X23110Y45110D02*
X23529Y45529D01*
D23*
X26900Y40570D02*
Y40600D01*
X26880Y40580D02*
X26900Y40600D01*
X37600Y37230D02*
X38380Y36450D01*
X27220Y37230D02*
X37600D01*
X25740Y38710D02*
X27220Y37230D01*
X26880Y38480D02*
Y40580D01*
X25680Y39190D02*
X25740Y39250D01*
Y38710D02*
Y39250D01*
X38820Y36510D02*
Y37120D01*
Y36510D02*
X38850Y36480D01*
X38410D02*
X38850D01*
X38380Y36450D02*
X38410Y36480D01*
D24*
X37670Y42330D02*
X40113D01*
X40843Y43060D01*
X41117D01*
X41310Y42867D01*
Y40890D02*
Y42867D01*
Y40890D02*
X41400Y40800D01*
D25*
X21650Y47350D02*
D03*
X29134Y47421D02*
D03*
X21614Y31308D02*
D03*
Y33012D02*
D03*
D26*
X21650Y48350D02*
D03*
X22650Y47350D02*
D03*
Y48350D02*
D03*
X23650Y47350D02*
D03*
Y48350D02*
D03*
X24650Y47350D02*
D03*
Y48350D02*
D03*
X25650Y47350D02*
D03*
Y48350D02*
D03*
X28134Y47421D02*
D03*
X42050Y31800D02*
D03*
X43050Y32800D02*
D03*
X42050D02*
D03*
X43050Y33800D02*
D03*
X42050D02*
D03*
X43050Y34800D02*
D03*
X42050D02*
D03*
D27*
X23498Y39562D02*
D03*
Y41561D02*
D03*
D28*
X24200Y43420D02*
D03*
X22428Y45979D02*
D03*
Y43420D02*
D03*
X24200Y45979D02*
D03*
D29*
X29862Y33720D02*
D03*
X29075Y31358D02*
D03*
X24272D02*
D03*
Y36083D02*
D03*
X29075D02*
D03*
D30*
X40031Y44766D02*
D03*
D31*
X42000Y45947D02*
D03*
D32*
Y43506D02*
D03*
D33*
X43050Y31800D02*
D03*
D34*
X27432Y40500D02*
D03*
X26950Y41570D02*
D03*
X24956Y41194D02*
D03*
X29170Y43880D02*
D03*
X30690Y43250D02*
D03*
X32190Y39240D02*
D03*
X29920Y44280D02*
D03*
X25760Y43130D02*
D03*
X24450Y42750D02*
D03*
X29630Y37640D02*
D03*
X31850Y40200D02*
D03*
X30530Y32110D02*
D03*
X32430Y39980D02*
D03*
X34570Y37560D02*
D03*
X40980Y42730D02*
D03*
X39150Y37510D02*
D03*
X32350Y42570D02*
D03*
X32090Y41660D02*
D03*
X31370Y40100D02*
D03*
X38820Y37120D02*
D03*
X26880Y38480D02*
D03*
X30530Y39780D02*
D03*
X37670Y42330D02*
D03*
X41400Y40800D02*
D03*
X24540Y40260D02*
D03*
X28150Y40480D02*
D03*
X41760Y37340D02*
D03*
X22350Y40690D02*
D03*
X24620Y41990D02*
D03*
X27420Y41240D02*
D03*
X26900Y40570D02*
D03*
X25740Y39250D02*
D03*
X24850Y39870D02*
D03*
X24920Y40580D02*
D03*
X43520Y40800D02*
D03*
X40730Y41990D02*
D03*
X31540Y43130D02*
D03*
X25610Y45975D02*
D03*
X23110Y45110D02*
D03*
X22780Y42680D02*
D03*
X32660Y37960D02*
D03*
X30300Y37890D02*
D03*
X29085Y37895D02*
D03*
X29065Y39145D02*
D03*
X35170Y42570D02*
D03*
D35*
X21614Y31308D02*
X21664Y31358D01*
X24272D01*
X21614Y33012D02*
X24972D01*
X25680Y33720D02*
X29862D01*
X24972Y33012D02*
X25680Y33720D01*
M02*
